<?xml version="1.0" encoding="utf-8"?>
<!-- Generator: Adobe Illustrator 22.0.1, SVG Export Plug-In . SVG Version: 6.00 Build 0)  -->
<svg version="1.1"
	 id="svg81" inkscape:version="0.92.3 (2405546, 2018-03-11)" sodipodi:docname="icono.textiles.svg" xmlns:cc="http://creativecommons.org/ns#" xmlns:dc="http://purl.org/dc/elements/1.1/" xmlns:inkscape="http://www.inkscape.org/namespaces/inkscape" xmlns:rdf="http://www.w3.org/1999/02/22-rdf-syntax-ns#" xmlns:sodipodi="http://sodipodi.sourceforge.net/DTD/sodipodi-0.dtd" xmlns:svg="http://www.w3.org/2000/svg"
	 xmlns="http://www.w3.org/2000/svg" xmlns:xlink="http://www.w3.org/1999/xlink" x="0px" y="0px" viewBox="0 0 39.5 52"
	 style="enable-background:new 0 0 39.5 52;" xml:space="preserve">
<style type="text/css">
	.st0{fill:#E5E5E5;}
</style>
<rect x="4" y="5.2" class="st0" width="34.3" height="42.3"/>
<sodipodi:namedview  bordercolor="#666666" borderopacity="1" gridtolerance="10" guidetolerance="10" id="namedview83" inkscape:current-layer="svg81" inkscape:cx="18" inkscape:cy="24" inkscape:pageopacity="0" inkscape:pageshadow="2" inkscape:window-height="670" inkscape:window-maximized="0" inkscape:window-width="944" inkscape:window-x="0" inkscape:window-y="27" inkscape:zoom="7.6054687" objecttolerance="10" pagecolor="#ffffff" showgrid="false">
	</sodipodi:namedview>
<path id="path59" d="M35.3,1.9v3.3H28V1.9h-1.2v3.3h-7.4V1.9h-1.2v3.3h-7.4V1.9H9.6v3.3H2.2V1.9H1v3.3v0.6v39.1v0.6v3.3h1.2v-3.3
	h7.4v3.3h1.2v-3.3h7.4v3.3h1.2v-3.3h7.4v3.3H28v-3.3h7.4v3.3h1.2v-3.3v-0.6V5.8V5.2V1.9H35.3z M2.2,6.4h33.1v37.9H2.2V6.4z"/>
<path id="path61" d="M17.4,23l-0.9,0.8l1.5,1.4l-1.5,1.4l0.9,0.8l1.4-1.3l1.5,1.3l0.9-0.8l-1.5-1.4l1.5-1.4L20.2,23l-1.5,1.3
	L17.4,23z"/>
<path id="path63" d="M10.3,25.4l8.4,8.2l8.4-8.2l-8.4-8.2L10.3,25.4z M18.7,31.9L12,25.4l6.8-6.6l6.8,6.6L18.7,31.9z"/>
<path id="path65" d="M18.7,14.1c0.4,0,0.7-0.3,0.7-0.7c0-0.4-0.3-0.7-0.7-0.7c-0.4,0-0.7,0.3-0.7,0.7C18.1,13.8,18.4,14.1,18.7,14.1
	z"/>
<path id="path67" d="M18.7,14.4c-0.5,0-1-0.4-1-0.9c0-0.5,0.4-0.9,1-0.9c0.6,0,1,0.4,1,0.9C19.7,14,19.3,14.4,18.7,14.4z M18.7,13.1
	c-0.3,0-0.5,0.2-0.5,0.4c0,0.2,0.2,0.4,0.5,0.4c0.3,0,0.5-0.2,0.5-0.4C19.2,13.3,19,13.1,18.7,13.1z"/>
<path id="path69" d="M18.7,38.8c0.4,0,0.7-0.3,0.7-0.7s-0.3-0.7-0.7-0.7c-0.4,0-0.7,0.3-0.7,0.7S18.4,38.8,18.7,38.8z"/>
<path id="path71" d="M18.7,39c-0.5,0-1-0.4-1-0.9c0-0.5,0.4-0.9,1-0.9c0.6,0,1,0.4,1,0.9C19.7,38.6,19.3,39,18.7,39z M18.7,37.7
	c-0.3,0-0.5,0.2-0.5,0.4c0,0.2,0.2,0.4,0.5,0.4c0.3,0,0.5-0.2,0.5-0.4C19.2,37.9,19,37.7,18.7,37.7z"/>
<path id="path73" d="M31.5,26c0.4,0,0.7-0.3,0.7-0.7s-0.3-0.7-0.7-0.7c-0.4,0-0.7,0.3-0.7,0.7S31.1,26,31.5,26z"/>
<path id="path75" d="M31.5,26.2c-0.5,0-1-0.4-1-0.9c0-0.5,0.4-0.9,1-0.9c0.5,0,1,0.4,1,0.9C32.4,25.8,32,26.2,31.5,26.2z M31.5,24.9
	c-0.3,0-0.5,0.2-0.5,0.4c0,0.2,0.2,0.4,0.5,0.4s0.5-0.2,0.5-0.4C31.9,25.1,31.7,24.9,31.5,24.9z"/>
<path id="path77" d="M6.1,26c0.4,0,0.7-0.3,0.7-0.7s-0.3-0.7-0.7-0.7c-0.4,0-0.7,0.3-0.7,0.7C5.4,25.7,5.7,26,6.1,26z"/>
<path id="path79" d="M6.1,26.2c-0.5,0-1-0.4-1-0.9c0-0.5,0.4-0.9,1-0.9c0.6,0,1,0.4,1,0.9C7,25.8,6.6,26.2,6.1,26.2z M6.1,24.9
	c-0.3,0-0.5,0.2-0.5,0.4c0,0.2,0.2,0.4,0.5,0.4c0.3,0,0.5-0.2,0.5-0.4C6.5,25.1,6.3,24.9,6.1,24.9z"/>
</svg>
