<?xml version="1.0" encoding="utf-8"?>
<!-- Generator: Adobe Illustrator 22.0.1, SVG Export Plug-In . SVG Version: 6.00 Build 0)  -->
<svg version="1.1"
	 id="svg51" inkscape:version="0.92.3 (2405546, 2018-03-11)" sodipodi:docname="icono.fotos.svg" xmlns:cc="http://creativecommons.org/ns#" xmlns:dc="http://purl.org/dc/elements/1.1/" xmlns:inkscape="http://www.inkscape.org/namespaces/inkscape" xmlns:rdf="http://www.w3.org/1999/02/22-rdf-syntax-ns#" xmlns:sodipodi="http://sodipodi.sourceforge.net/DTD/sodipodi-0.dtd" xmlns:svg="http://www.w3.org/2000/svg"
	 xmlns="http://www.w3.org/2000/svg" xmlns:xlink="http://www.w3.org/1999/xlink" x="0px" y="0px" viewBox="0 0 60.3 44.8"
	 style="enable-background:new 0 0 60.3 44.8;" xml:space="preserve">
<style type="text/css">
	.st0{fill:#E5E5E5;}
</style>
<rect x="4.9" y="5.2" class="st0" width="52.9" height="37.1"/>
<sodipodi:namedview  bordercolor="#666666" borderopacity="1" gridtolerance="10" guidetolerance="10" id="namedview53" inkscape:current-layer="svg51" inkscape:cx="27.5" inkscape:cy="20" inkscape:pageopacity="0" inkscape:pageshadow="2" inkscape:window-height="480" inkscape:window-maximized="0" inkscape:window-width="640" inkscape:window-x="167" inkscape:window-y="145" inkscape:zoom="7.190625" objecttolerance="10" pagecolor="#ffffff" showgrid="false">
	</sodipodi:namedview>
<path id="path45" d="M55.8,41.6H1.5V2.3h54.3V41.6z M2.9,40.3h51.5V3.6H2.9V40.3z"/>
<path id="path47" d="M22.5,17.5c-2.4,0-4.3-1.9-4.3-4.2c0-2.3,2-4.2,4.3-4.2s4.3,1.9,4.3,4.2C26.8,15.6,24.9,17.5,22.5,17.5z
	 M22.5,10.5c-1.7,0-2.9,1.2-2.9,2.9s1.3,2.9,2.9,2.9c1.7,0,2.9-1.2,2.9-2.9S24.1,10.5,22.5,10.5z"/>
<path id="path49" d="M6,37.3l-1-0.9L15.5,26l7.3,7.3l14.7-14.6l15.8,15.1l-0.9,1L37.5,20.6L22.8,35.2l-7.3-7.4L6,37.3z"/>
</svg>
