<?xml version="1.0" encoding="utf-8"?>
<!-- Generator: Adobe Illustrator 22.0.1, SVG Export Plug-In . SVG Version: 6.00 Build 0)  -->
<svg version="1.1" id="Capa_1" xmlns="http://www.w3.org/2000/svg" xmlns:xlink="http://www.w3.org/1999/xlink" x="0px" y="0px"
	 viewBox="0 0 66 63.8" style="enable-background:new 0 0 66 63.8;" xml:space="preserve">
<style type="text/css">
	.st0{fill:#E5E5E5;}
</style>
<circle class="st0" cx="36.1" cy="33.8" r="28.9"/>
<g>
	<path d="M47.6,30l-22-15c-0.3-0.2-0.7-0.2-1-0.1c-0.3,0.2-0.5,0.5-0.5,0.9v30c0,0.4,0.2,0.7,0.5,0.9c0.1,0.1,0.3,0.1,0.5,0.1
		c0.2,0,0.4-0.1,0.6-0.2l22-15c0.3-0.2,0.4-0.5,0.4-0.8S47.9,30.2,47.6,30z M26.1,43.9V17.7l19.2,13.1L26.1,43.9z"/>
	<path d="M32.1,0.8c-16.5,0-30,13.5-30,30s13.5,30,30,30s30-13.5,30-30S48.6,0.8,32.1,0.8z M32.1,58.8c-15.4,0-28-12.6-28-28
		s12.6-28,28-28s28,12.6,28,28S47.5,58.8,32.1,58.8z"/>
</g>
</svg>
