<?xml version="1.0" encoding="utf-8"?>
<!-- Generator: Adobe Illustrator 22.0.1, SVG Export Plug-In . SVG Version: 6.00 Build 0)  -->
<svg version="1.1"
	 id="svg51" inkscape:version="0.92.3 (2405546, 2018-03-11)" sodipodi:docname="icono.fotos.svg" xmlns:cc="http://creativecommons.org/ns#" xmlns:dc="http://purl.org/dc/elements/1.1/" xmlns:inkscape="http://www.inkscape.org/namespaces/inkscape" xmlns:rdf="http://www.w3.org/1999/02/22-rdf-syntax-ns#" xmlns:sodipodi="http://sodipodi.sourceforge.net/DTD/sodipodi-0.dtd" xmlns:svg="http://www.w3.org/2000/svg"
	 xmlns="http://www.w3.org/2000/svg" xmlns:xlink="http://www.w3.org/1999/xlink" x="0px" y="0px" viewBox="0 0 55 40"
	 style="enable-background:new 0 0 55 40;" xml:space="preserve">
<style type="text/css">
	.st0{fill:#FFFFFF;}
</style>
<sodipodi:namedview  bordercolor="#666666" borderopacity="1" gridtolerance="10" guidetolerance="10" id="namedview53" inkscape:current-layer="svg51" inkscape:cx="27.5" inkscape:cy="20" inkscape:pageopacity="0" inkscape:pageshadow="2" inkscape:window-height="480" inkscape:window-maximized="0" inkscape:window-width="640" inkscape:window-x="167" inkscape:window-y="145" inkscape:zoom="7.190625" objecttolerance="10" pagecolor="#ffffff" showgrid="false">
	</sodipodi:namedview>
<path id="path45" class="st0" d="M54.3,39.4H0V0h54.3V39.4z M1.4,38.1h51.5V1.3H1.4V38.1z"/>
<path id="path47" class="st0" d="M21,15.2c-2.4,0-4.3-1.9-4.3-4.2c0-2.3,2-4.2,4.3-4.2s4.3,1.9,4.3,4.2C25.3,13.4,23.4,15.2,21,15.2
	z M21,8.2c-1.7,0-2.9,1.2-2.9,2.9s1.3,2.9,2.9,2.9c1.7,0,2.9-1.2,2.9-2.9S22.6,8.2,21,8.2z"/>
<path id="path49" class="st0" d="M4.5,35l-1-0.9L14,23.7l7.3,7.3L36,16.4l15.8,15.1l-0.9,1L36,18.3L21.3,33L14,25.6L4.5,35z"/>
</svg>
