<?xml version="1.0" encoding="UTF-8" standalone="no"?>
<svg
   xmlns:dc="http://purl.org/dc/elements/1.1/"
   xmlns:cc="http://creativecommons.org/ns#"
   xmlns:rdf="http://www.w3.org/1999/02/22-rdf-syntax-ns#"
   xmlns:svg="http://www.w3.org/2000/svg"
   xmlns="http://www.w3.org/2000/svg"
   xmlns:sodipodi="http://sodipodi.sourceforge.net/DTD/sodipodi-0.dtd"
   xmlns:inkscape="http://www.inkscape.org/namespaces/inkscape"
   width="55"
   height="40"
   viewBox="0 0 55 40"
   fill="none"
   version="1.1"
   id="svg51"
   sodipodi:docname="icono.fotos.svg"
   inkscape:version="0.92.3 (2405546, 2018-03-11)">
  <metadata
     id="metadata57">
    <rdf:RDF>
      <cc:Work
         rdf:about="">
        <dc:format>image/svg+xml</dc:format>
        <dc:type
           rdf:resource="http://purl.org/dc/dcmitype/StillImage" />
      </cc:Work>
    </rdf:RDF>
  </metadata>
  <defs
     id="defs55" />
  <sodipodi:namedview
     pagecolor="#ffffff"
     bordercolor="#666666"
     borderopacity="1"
     objecttolerance="10"
     gridtolerance="10"
     guidetolerance="10"
     inkscape:pageopacity="0"
     inkscape:pageshadow="2"
     inkscape:window-width="640"
     inkscape:window-height="480"
     id="namedview53"
     showgrid="false"
     inkscape:zoom="7.190625"
     inkscape:cx="27.5"
     inkscape:cy="20"
     inkscape:window-x="167"
     inkscape:window-y="145"
     inkscape:window-maximized="0"
     inkscape:current-layer="svg51" />
  <path
     d="M54.2917 39.3553H0V0H54.2917V39.3553ZM1.37738 38.0677H52.9143V1.34356H1.37738V38.0677Z"
     fill="white"
     id="path45"
     style="fill:#000000" />
  <path
     d="M21.0055 15.2271C18.6525 15.2271 16.7012 13.3238 16.7012 11.0285C16.7012 8.73322 18.6525 6.82983 21.0055 6.82983C23.3585 6.82983 25.3098 8.73322 25.3098 11.0285C25.3098 13.3797 23.3585 15.2271 21.0055 15.2271ZM21.0055 8.22939C19.3411 8.22939 18.0786 9.461 18.0786 11.0845C18.0786 12.708 19.3411 13.9396 21.0055 13.9396C22.6698 13.9396 23.9324 12.708 23.9324 11.0845C23.9324 9.461 22.555 8.22939 21.0055 8.22939Z"
     fill="white"
     id="path47"
     style="fill:#000000" />
  <path
     d="M4.47662 35.0447L3.50098 34.149L14.0035 23.7363L21.3495 31.014L36.0415 16.4027L51.8814 31.5178L50.9632 32.4695L36.0415 18.3061L21.3495 32.9734L14.0035 25.5837L4.47662 35.0447Z"
     fill="white"
     id="path49"
     style="fill:#000000" />
</svg>
