<?xml version="1.0" encoding="utf-8"?>
<!-- Generator: Adobe Illustrator 22.0.1, SVG Export Plug-In . SVG Version: 6.00 Build 0)  -->
<svg version="1.1"
	 id="svg81" inkscape:version="0.92.3 (2405546, 2018-03-11)" sodipodi:docname="icono.textiles.svg" xmlns:cc="http://creativecommons.org/ns#" xmlns:dc="http://purl.org/dc/elements/1.1/" xmlns:inkscape="http://www.inkscape.org/namespaces/inkscape" xmlns:rdf="http://www.w3.org/1999/02/22-rdf-syntax-ns#" xmlns:sodipodi="http://sodipodi.sourceforge.net/DTD/sodipodi-0.dtd" xmlns:svg="http://www.w3.org/2000/svg"
	 xmlns="http://www.w3.org/2000/svg" xmlns:xlink="http://www.w3.org/1999/xlink" x="0px" y="0px" viewBox="0 0 36 48"
	 style="enable-background:new 0 0 36 48;" xml:space="preserve">
<style type="text/css">
	.st0{fill:#FFFFFF;}
</style>
<sodipodi:namedview  bordercolor="#666666" borderopacity="1" gridtolerance="10" guidetolerance="10" id="namedview83" inkscape:current-layer="svg81" inkscape:cx="18" inkscape:cy="24" inkscape:pageopacity="0" inkscape:pageshadow="2" inkscape:window-height="670" inkscape:window-maximized="0" inkscape:window-width="944" inkscape:window-x="0" inkscape:window-y="27" inkscape:zoom="7.6054687" objecttolerance="10" pagecolor="#ffffff" showgrid="false">
	</sodipodi:namedview>
<path id="path59" class="st0" d="M34.3,0.2v3.3H27V0.2h-1.2v3.3h-7.4V0.2h-1.2v3.3H9.8V0.2H8.6v3.3H1.2V0.2H0v3.3v0.6v39.1v0.6v3.3
	h1.2v-3.3h7.4v3.3h1.2v-3.3h7.4v3.3h1.2v-3.3h7.4v3.3H27v-3.3h7.4v3.3h1.2v-3.3v-0.6V4.1V3.5V0.2H34.3z M1.2,4.7h33.1v37.9H1.2V4.7z
	"/>
<path id="path61" class="st0" d="M16.4,21.3l-0.9,0.8l1.5,1.4L15.5,25l0.9,0.8l1.4-1.3l1.5,1.3L20,25l-1.5-1.4l1.5-1.4l-0.9-0.8
	l-1.5,1.3L16.4,21.3z"/>
<path id="path63" class="st0" d="M9.3,23.7l8.4,8.2l8.4-8.2l-8.4-8.2L9.3,23.7z M17.7,30.3L11,23.7l6.8-6.6l6.8,6.6L17.7,30.3z"/>
<path id="path65" class="st0" d="M17.7,12.5c0.4,0,0.7-0.3,0.7-0.7c0-0.4-0.3-0.7-0.7-0.7c-0.4,0-0.7,0.3-0.7,0.7
	C17.1,12.2,17.4,12.5,17.7,12.5z"/>
<path id="path67" class="st0" d="M17.7,12.7c-0.5,0-1-0.4-1-0.9c0-0.5,0.4-0.9,1-0.9c0.6,0,1,0.4,1,0.9
	C18.7,12.3,18.3,12.7,17.7,12.7z M17.7,11.4c-0.3,0-0.5,0.2-0.5,0.4c0,0.2,0.2,0.4,0.5,0.4c0.3,0,0.5-0.2,0.5-0.4
	C18.2,11.6,18,11.4,17.7,11.4z"/>
<path id="path69" class="st0" d="M17.7,37.1c0.4,0,0.7-0.3,0.7-0.7s-0.3-0.7-0.7-0.7c-0.4,0-0.7,0.3-0.7,0.7S17.4,37.1,17.7,37.1z"
	/>
<path id="path71" class="st0" d="M17.7,37.4c-0.5,0-1-0.4-1-0.9c0-0.5,0.4-0.9,1-0.9c0.6,0,1,0.4,1,0.9C18.7,37,18.3,37.4,17.7,37.4
	z M17.7,36c-0.3,0-0.5,0.2-0.5,0.4c0,0.2,0.2,0.4,0.5,0.4c0.3,0,0.5-0.2,0.5-0.4C18.2,36.2,18,36,17.7,36z"/>
<path id="path73" class="st0" d="M30.5,24.3c0.4,0,0.7-0.3,0.7-0.7S30.9,23,30.5,23c-0.4,0-0.7,0.3-0.7,0.7S30.1,24.3,30.5,24.3z"/>
<path id="path75" class="st0" d="M30.5,24.6c-0.5,0-1-0.4-1-0.9c0-0.5,0.4-0.9,1-0.9c0.5,0,1,0.4,1,0.9C31.4,24.2,31,24.6,30.5,24.6
	z M30.5,23.2c-0.3,0-0.5,0.2-0.5,0.4c0,0.2,0.2,0.4,0.5,0.4s0.5-0.2,0.5-0.4C30.9,23.4,30.7,23.2,30.5,23.2z"/>
<path id="path77" class="st0" d="M5.1,24.3c0.4,0,0.7-0.3,0.7-0.7S5.5,23,5.1,23c-0.4,0-0.7,0.3-0.7,0.7C4.4,24,4.7,24.3,5.1,24.3z"
	/>
<path id="path79" class="st0" d="M5.1,24.6c-0.5,0-1-0.4-1-0.9c0-0.5,0.4-0.9,1-0.9c0.6,0,1,0.4,1,0.9C6,24.2,5.6,24.6,5.1,24.6z
	 M5.1,23.2c-0.3,0-0.5,0.2-0.5,0.4c0,0.2,0.2,0.4,0.5,0.4c0.3,0,0.5-0.2,0.5-0.4C5.5,23.4,5.3,23.2,5.1,23.2z"/>
</svg>
