<?xml version="1.0" encoding="utf-8"?>
<!-- Generator: Adobe Illustrator 22.0.1, SVG Export Plug-In . SVG Version: 6.00 Build 0)  -->
<svg version="1.1" id="Capa_1" xmlns="http://www.w3.org/2000/svg" xmlns:xlink="http://www.w3.org/1999/xlink" x="0px" y="0px"
	 viewBox="0 0 80 30" style="enable-background:new 0 0 80 30;" xml:space="preserve">
<style type="text/css">
	.st0{fill:#FFFFFF;}
</style>
<path class="st0" d="M2.5,23.8c-0.2,0-0.3-0.1-0.4-0.2l0.2-0.4c0.1,0.1,0.2,0.1,0.3,0.2c0.1,0,0.3,0.1,0.4,0.1c0.1,0,0.2,0,0.3-0.1
	c0.1,0,0.1-0.1,0.1-0.2c0-0.1,0-0.1-0.1-0.1c0,0-0.1-0.1-0.2-0.1C3.1,23,3.1,23,3,23c-0.2,0-0.3-0.1-0.4-0.1c-0.1,0-0.2-0.1-0.3-0.2
	c-0.1-0.1-0.1-0.2-0.1-0.3c0-0.1,0-0.2,0.1-0.3c0.1-0.1,0.2-0.2,0.3-0.2c0.1-0.1,0.3-0.1,0.5-0.1c0.1,0,0.3,0,0.4,0
	c0.1,0,0.2,0.1,0.3,0.1l-0.2,0.4c-0.2-0.1-0.4-0.2-0.6-0.2c-0.1,0-0.2,0-0.3,0.1c-0.1,0-0.1,0.1-0.1,0.2c0,0.1,0,0.1,0.1,0.2
	c0.1,0,0.2,0.1,0.3,0.1c0.2,0,0.3,0.1,0.4,0.1c0.1,0,0.2,0.1,0.3,0.2c0.1,0.1,0.1,0.2,0.1,0.3c0,0.1,0,0.2-0.1,0.3
	c-0.1,0.1-0.2,0.2-0.3,0.2c-0.1,0.1-0.3,0.1-0.5,0.1C2.9,23.8,2.7,23.8,2.5,23.8z"/>
<g id="Capa_1_1_">
	<path class="st0" d="M21.3,13.8c0-0.5-0.2-1-0.4-1.5l-0.1-0.1h-0.1v0.1c0.2,0.4,0.3,0.9,0.4,1.4c0,0.3,0,0.5-0.2,1
		c0,0.3,0,0.5,0,0.7c0,0.1-0.1,0.2-0.1,0.2s-0.1,0-0.1-0.2c0-0.3,0-0.5,0-0.7l0,0c0-0.4,0-0.7-0.1-1c0-0.2-0.2-0.4-0.4-0.7
		c-0.1-0.2-0.2-0.4-0.3-0.5c0,0,0-0.1,0-0.2s0-0.1-0.1-0.2l-0.1-0.4c0,0,0,0-0.1,0s-0.1,0-0.1,0.1v0.1l0.3,0.9
		c0.1,0.2,0.2,0.4,0.4,0.4l0,0c0.1,0.1,0.2,0.2,0.2,0.3c0.1,0.2,0.1,0.3,0.2,0.4c0.1,0.4,0.1,0.7,0.1,1.4l0.2,0.9
		c0.1,0.3,0,0.6,0,1.1c0,0.2,0,0.2,0,0.2l0,0c0,0,0.1,0,0.2-0.1c0.3-0.4,0.3-1.3,0.3-2.2c0-0.3,0.1-0.5,0.1-0.7
		C21.3,14.2,21.3,14.1,21.3,13.8z"/>
	<path class="st0" d="M20.5,12.4v-0.2v-0.1c-0.1-0.1-0.1-0.1-0.2-0.2c0,0,0,0-0.1,0l0,0l0,0c0.1,0.4,0.2,0.6,0.4,0.9l0,0l0,0
		c0,0,0,0,0-0.1L20.5,12.4L20.5,12.4z"/>
	<path class="st0" d="M19.3,14.9L19.3,14.9L19.3,14.9C19.2,14.9,19.2,14.9,19.3,14.9c-0.2-0.2-0.3-0.4-0.4-0.9c0-0.1,0-0.3-0.1-0.4
		c-0.1-0.3-0.2-0.4-0.3-0.5c-0.3-0.2-0.5-0.5-0.8-1c0-0.1-0.1-0.2-0.1-0.2s0,0-0.1,0c0,0.1,0,0.1,0,0.2c0.1,0.3,0.2,0.4,0.4,0.6
		c0.1,0.1,0.1,0.1,0.2,0.2l0,0c0.2,0.2,0.4,0.3,0.4,0.4c0.1,0.2,0.2,0.4,0.2,0.5V14l0,0c0.1,0.4,0.2,0.8,0.4,1.3
		c0.1,0.2,0.1,0.3,0.1,0.4l0.1,0.5c0,0.2,0.1,0.2,0.1,0.2l0,0c0,0,0-0.1,0-0.2c0-0.4,0-0.7-0.1-1.6c-0.1-0.6-0.2-1.1-0.4-1.3
		c0-0.1-0.1-0.1-0.1-0.1l0,0c0,0,0,0,0,0.1C19.1,13.9,19.2,14.3,19.3,14.9C19.4,14.8,19.4,14.9,19.3,14.9L19.3,14.9z"/>
	<path class="st0" d="M18.3,12.1C18.3,12,18.2,12,18.3,12.1L18.1,12l0,0c0.1,0.3,0.2,0.5,0.4,0.7h0.1l0,0c0,0,0,0,0-0.1
		C18.4,12.5,18.3,12.4,18.3,12.1z"/>
	<path class="st0" d="M20.1,14.9L20.1,14.9L20.1,14.9C20.1,14.9,20,14.9,20.1,14.9L20,14.8l-0.2-1c-0.1-0.4-0.2-0.5-0.4-0.7
		c-0.3-0.3-0.4-0.6-0.7-1.2c0-0.1-0.1-0.2-0.1-0.2s-0.1,0-0.1,0.1c0,0.1,0,0.1,0,0.2c0.2,0.5,0.4,0.9,0.6,1.1
		c0.2,0.2,0.3,0.4,0.4,0.5l0,0c0,0.1,0.1,0.3,0.1,0.4l0,0c0.1,0.5,0.2,1,0.4,1.5c0.1,0.1,0.1,0.3,0.1,0.4c0,0.4,0,0.5,0.1,0.7
		c0,0.2,0.1,0.2,0.1,0.2s0.1-0.1,0.1-0.2c0.1-0.4,0.1-1.1,0-1.8c0-0.4-0.1-0.7-0.1-1c0-0.2-0.1-0.3-0.2-0.4s-0.2-0.1-0.2-0.1
		s0,0,0,0.1c0.1,0.4,0.2,0.8,0.2,1.3C20.1,14.9,20.1,14.9,20.1,14.9L20.1,14.9z"/>
	<path class="st0" d="M19.5,12.6c-0.1-0.2-0.2-0.3-0.2-0.4l-0.1-0.3c0-0.1,0-0.1-0.1-0.1c0,0-0.1-0.1-0.2-0.1c0,0,0,0-0.1,0
		c0,0,0,0,0,0.1c0.1,0.4,0.3,0.7,0.4,0.9l0,0C19.3,12.7,19.3,12.7,19.5,12.6L19.5,12.6C19.4,12.7,19.4,12.7,19.5,12.6
		C19.5,12.7,19.5,12.7,19.5,12.6z"/>
	<path class="st0" d="M18.4,14.9L18.4,14.9c0,0.1,0.1,0.2,0.1,0.2c0,0.1,0,0.1,0.1,0.2h0.1c0,0,0.1,0,0.1-0.1c0,0,0-0.1,0-0.2
		c-0.1-1-0.2-1.5-0.4-1.8c-0.1-0.1-0.1-0.1-0.1-0.1l0,0v0.1c0.1,0.2,0.1,0.3,0.2,0.4c0,0.1,0,0.1,0,0.1l0,0l0,0l0,0
		c0,0-0.1,0-0.1-0.1c-0.1-0.3-0.3-0.4-0.5-0.6c-0.3-0.2-0.5-0.4-0.7-0.5c-0.1-0.1-0.1-0.2-0.2-0.3c0,0,0,0-0.1-0.1l-0.1,0.1v0.1
		c0.2,0.4,0.4,0.5,0.6,0.6c0.4,0.2,0.7,0.4,0.8,0.8C18.3,14.4,18.4,14.7,18.4,14.9z"/>
	<path class="st0" d="M17.1,12.3L17.1,12.3L17.1,12.3c0.1,0.3,0.2,0.4,0.4,0.5h0.1l0,0c0,0,0,0,0-0.1C17.4,12.6,17.3,12.4,17.1,12.3
		L17.1,12.3z"/>
	<path class="st0" d="M16.3,13.3L16.3,13.3c0.2,0.1,0.3,0.1,0.3,0.1c0.1,0.1,0.2,0.1,0.3,0.2c0.2,0.2,0.4,0.4,0.4,0.6l0,0
		c0.1,0.2,0.3,0.4,0.4,0.5h0.1c0,0,0,0,0.1,0v-0.1c-0.1-0.2-0.2-0.5-0.4-1c0-0.1-0.1-0.1-0.2-0.1l0,0l0,0l0.1,0.2l0,0l0,0l0,0
		c0,0,0,0-0.1,0l0,0l0,0l0,0l0,0c-0.1-0.1-0.2-0.3-0.3-0.4s-0.1-0.1-0.2-0.1c-0.1,0-0.2-0.1-0.4-0.2c-0.1-0.1-0.2-0.1-0.3-0.2
		c-0.1-0.1-0.2-0.2-0.3-0.3c0,0,0,0-0.1,0l0,0v0.1c0.1,0.1,0.2,0.2,0.3,0.3C16.2,13.2,16.3,13.2,16.3,13.3z"/>
	<path class="st0" d="M19.8,17c-0.3-0.2-0.4-0.3-0.5-0.4c-1-0.7-2-1.4-3-2.2h-0.1l0,0c0,0,0,0.2,0.1,0.2l3.2,2.3l0,0
		c0.1,0,0.1,0.1,0.1,0.1s0,0.1-0.1,0.2s-0.2,0.1-0.3,0.1c-0.2,0-0.4-0.1-0.5-0.2c-0.9-0.6-1.7-1.3-2.5-2c0,0,0,0-0.1,0l0,0v0.1
		c0,0.1,0,0.1,0.1,0.1c0.8,0.6,1.6,1.3,2.4,2c0.2,0.1,0.4,0.2,0.5,0.2c0.3,0,0.4-0.1,0.7-0.3C19.9,17.1,19.8,17.1,19.8,17z"/>
	<path class="st0" d="M18.6,16.8c0.2,0.1,0.3,0.2,0.4,0.3H19l0,0c0,0,0,0,0-0.1l-2.9-2.2l0,0l0,0c0,0,0,0.1,0.1,0.2L18.6,16.8z"/>
	<path class="st0" d="M18,17l-1.9-1.5c0,0,0,0-0.1,0l0,0c0,0,0,0.1,0.1,0.1c0.5,0.5,1.2,1,1.7,1.5c0.1,0.1,0.2,0.2,0.3,0.2h0.1h0.1
		l0,0L18,17z"/>
	<path class="st0" d="M16.5,12.9L16.5,12.9L16.5,12.9L16.5,12.9c0.1-0.1,0-0.1,0-0.2c0-0.1-0.1-0.1-0.2-0.1h-0.1l0,0l0,0
		C16.3,12.8,16.3,12.9,16.5,12.9z"/>
	<path class="st0" d="M18.2,17.6c0.1,0,0.2,0,0.3-0.1c0,0,0,0,0-0.1c0,0,0,0-0.1-0.1l0,0c0,0,0,0-0.1,0l0,0h-0.1
		c-0.2,0-0.3-0.1-0.4-0.2c-0.4-0.4-0.8-0.7-1.2-1l0,0c-0.3-0.2-0.4-0.4-0.7-0.6c0,0,0,0-0.1,0l0,0c0,0,0,0,0,0.1c0,0,0,0,0.1,0.1
		l0.1,0.1c0.5,0.5,1.1,1,1.6,1.4c0.2,0.2,0.3,0.3,0.4,0.3C18.1,17.6,18.2,17.6,18.2,17.6z"/>
	<path class="st0" d="M15.7,15.8c0.4,0.4,0.8,0.9,1.3,1.3c0.2,0.1,0.3,0.2,0.4,0.2l0,0l0,0c-0.4-0.4-0.9-0.8-1.3-1.2l-0.1-0.1l0,0
		C16,15.9,15.9,15.8,15.7,15.8L15.7,15.8L15.7,15.8z"/>
	<path class="st0" d="M17.6,17.7L17.6,17.7L17.6,17.7C17.7,17.7,17.7,17.6,17.6,17.7c-0.2-0.1-0.4-0.2-0.5-0.3
		c-0.5-0.4-1-0.9-1.4-1.4c0,0,0,0-0.1,0l0,0v0.1c0,0,0,0.1,0.1,0.1l0,0c0.3,0.3,0.6,0.6,1.1,1.1c0.2,0.1,0.3,0.3,0.4,0.4
		C17.4,17.7,17.5,17.7,17.6,17.7z"/>
	<path class="st0" d="M16.9,17.5C16.9,17.5,17,17.5,16.9,17.5C16.9,17.5,16.9,17.5,16.9,17.5c-0.4-0.1-0.6-0.4-0.9-0.8l-0.2-0.2l0,0
		l0,0c0,0,0,0,0,0.1l0.6,0.7C16.6,17.5,16.7,17.5,16.9,17.5z"/>
	<path class="st0" d="M8.7,9.5L8.7,9.5L8.7,9.5h0.2c0,0,0,0,0.1,0H9c0.1-0.1,0.2-0.2,0.3-0.2h0.1c0.1,0,0.2,0,0.3,0.1v0.1
		c0,0,0,0.1-0.1,0.1H9.5c-0.1,0-0.2,0-0.3,0c-0.3,0-0.4,0.2-0.4,0.4l0,0c0,0,0,0.2-0.1,0.2c0,0-0.1,0-0.1-0.1
		C8.6,10,8.5,9.9,8.5,9.8C8.5,9.7,8.6,9.6,8.7,9.5z M8.4,9.7C8.3,9.9,8.3,9.9,8.3,10c0.2,0.4,0.4,0.4,0.7,0.4l0,0
		c0.1,0,0.2,0,0.2-0.1v-0.1C9,10.2,8.9,10,9,9.9c0.1-0.2,0.3-0.3,0.4-0.3c0.1,0,0.1,0,0.1,0c0.1,0,0.2,0,0.3-0.1
		c0.2-0.1,0.3-0.2,0.4-0.2c0.1,0,0.1,0,0.2,0l0,0c0.1,0.1,0.1,0.1,0,0.2c0,0.1-0.1,0.1-0.2,0.1C10.1,9.8,10,9.8,9.9,9.9l0,0
		c0,0,0,0,0.1,0h0.1h0.1c0.2-0.1,0.4-0.2,0.5-0.4c0.1-0.1,0.1-0.1,0-0.2c-0.2-0.1-0.3-0.2-0.4-0.2c-0.1,0-0.1,0-0.2,0
		c-0.1,0-0.2,0-0.3,0s-0.1,0-0.2,0H9.2c-0.1,0-0.1,0-0.2,0s-0.1,0-0.2,0.1l0,0l0,0c0,0,0.1,0.1,0,0.1L8.7,9.4H8.7
		c-0.1,0-0.1,0-0.1,0C8.5,9.5,8.4,9.6,8.4,9.7z"/>
	<path class="st0" d="M9,8.9C9.1,8.9,9.2,9,9.3,9l0,0c0,0,0.1,0,0.1-0.1c0,0,0.1-0.1,0.1-0.3c0-0.1,0.1-0.3,0.2-0.4V8.2
		c0.2,0.1,0.2,0.1,0.2-0.1c0-0.2,0-0.3-0.1-0.4v0.1l0,0c0,0.3-0.2,0.4-0.4,0.5L9.3,8.4C9.2,8.5,9.1,8.6,9.1,8.6C9,8.7,9,8.7,9,8.9
		C9,8.8,9,8.9,9,8.9z"/>
	<path class="st0" d="M9.7,8.5C9.7,8.5,9.6,8.5,9.7,8.5c0.1,0.3,0,0.4-0.2,0.4c-0.1,0,0,0.1,0,0.1s0,0,0.1,0C9.8,9,9.9,8.8,9.7,8.5
		C9.8,8.5,9.7,8.5,9.7,8.5z"/>
	<path class="st0" d="M10,8.1L10,8.1c0.1-0.2,0.1-0.3,0.2-0.3c0.1,0,0,0.1,0.1,0.1c0,0,0,0,0.1,0c0-0.1,0-0.3-0.1-0.3l0,0l0,0
		C10.1,7.6,10,7.8,10,8.1L10,8.1z"/>
	<path class="st0" d="M10,8.3L10,8.3c0.5-0.2,0.6-0.5,0.7-0.7c0-0.2,0-0.4-0.1-0.4l0,0c0.1,0.3,0,0.5-0.2,0.7
		C10.3,8,10.2,8.2,10,8.3L10,8.3C9.9,8.2,9.9,8.3,10,8.3C9.9,8.3,10,8.3,10,8.3z"/>
	<path class="st0" d="M10.6,8.4c-0.1,0.1-0.3,0.2-0.4,0.2c-0.1,0-0.2,0.1-0.2,0.2l0,0l0,0l0,0c0.2,0,0.4-0.2,0.7-0.4
		c0.2,0,0.2-0.2,0.1-0.3l0,0c0,0,0,0-0.1,0c-0.1,0.1-0.6,0.4-0.7,0.4c0,0,0,0,0,0.1l0,0C10.2,8.6,10.5,8.3,10.6,8.4
		c0.1-0.2,0.1-0.1,0.2-0.1C10.8,8.3,10.7,8.3,10.6,8.4z"/>
	<path class="st0" d="M9.9,9.1c0.1,0,0.1,0,0.2,0c0.1,0,0.6-0.3,0.7-0.3h0.1c0,0,0.1,0.1,0,0.2l-0.4,0l0,0c0,0,0,0,0.1,0l0,0
		c0.4,0,0.4-0.1,0.4-0.3c0,0-0.1-0.1-0.2-0.1c-0.1,0-0.1,0-0.3,0.1c-0.2,0-0.4,0.1-0.5,0.2C10,9,10,9.1,9.9,9.1
		C9.9,9.1,9.8,9.1,9.9,9.1z"/>
	<path class="st0" d="M10.9,7.7c0.1-0.1,0.2-0.3,0.3-0.2c0.1,0.1,0,0.3-0.1,0.4c0,0.1,0,0.1,0,0.1l0,0l0,0c0.1-0.1,0.1-0.3,0.1-0.4
		c0-0.1-0.1-0.2-0.1-0.3l0,0l0,0L11,7.4C11,7.5,10.9,7.6,10.9,7.7C10.9,7.7,10.8,7.7,10.9,7.7C10.8,7.8,10.9,7.8,10.9,7.7z"/>
	<path class="st0" d="M11.4,8c0.2,0,0.3,0.1,0.4,0.2c0,0,0.1,0,0.1,0.1c0.1,0.1,0.3,0.1,0.4,0.2h0.1c0,0,0,0,0.1,0l0,0
		c0.1-0.1,0.2-0.3,0.2-0.4l0,0l0,0c-0.1,0-0.1,0-0.2,0c-0.1,0-0.1,0-0.2,0c-0.3-0.2-0.5-0.3-0.8-0.3l0,0l0,0l0,0l0,0l0,0l0,0
		c0.3,0.1,0.5,0.1,0.8,0.3l0,0c0,0,0.1,0,0.1,0.1l0,0c0,0,0,0-0.1,0l0,0l0,0C12,8.1,11.5,7.9,11.4,8L11.4,8
		C11.4,7.9,11.3,7.9,11.4,8C11.3,7.9,11.4,8,11.4,8z"/>
	<path class="st0" d="M11.1,9.4c0,0-0.1-0.1-0.1-0.2l0,0l0,0C11,9.2,11,9.2,11.1,9.4c-0.1,0,0,0.1,0.1,0.2h0.1
		c0.1,0,0.1-0.1,0.1-0.1c0-0.1-0.1-0.3-0.2-0.3l0,0C11.1,9.2,11.2,9.3,11.1,9.4C11.2,9.4,11.1,9.4,11.1,9.4z"/>
	<path class="st0" d="M11.5,9.2c-0.1,0-0.2-0.2-0.2-0.3l0,0l0,0c0,0,0,0,0,0.1s0.1,0.3,0.2,0.4h0.1c0.1,0,0.2-0.1,0.3-0.2
		c0.1-0.1,0-0.2,0-0.2c-0.3-0.2-0.4-0.4-0.6-0.4l0,0l0,0l0,0c0.1,0.1,0.1,0.1,0.2,0.2l0,0c0,0.1,0.1,0.1,0.2,0.2v0.1
		C11.6,9.1,11.6,9.2,11.5,9.2z"/>
	<path class="st0" d="M11.2,8.4L11.2,8.4c0,0.1,0.7,0.4,0.8,0.4c0.1,0,0.1,0,0.1,0s0.1,0,0.1-0.1c0.1-0.1,0.1-0.2,0.1-0.3
		c-0.2-0.2-0.4-0.4-0.9-0.5l0,0l0,0l0,0l0,0c0,0,0,0,0.1,0c0.2,0.1,0.4,0.2,0.6,0.4l0,0l0.1,0.1c0,0,0,0.1-0.1,0.1l0,0
		c-0.1,0-0.2-0.1-0.3-0.1l0,0l0,0C11.5,8.5,11.3,8.4,11.2,8.4L11.2,8.4z"/>
	<path class="st0" d="M17.9,7.9C17.9,7.9,17.9,8,17.9,7.9c1.2,0.9,2.1,2.1,2.8,3.7c0,0.1,0,0.1,0,0.2c0,0,0,0-0.1,0s-0.1,0-0.2-0.1
		c-0.3-0.2-0.4-0.4-0.6-0.6C18.9,9.8,18,9,17.1,8.3c0,0,0,0-0.1,0l0,0c0,0,0,0.1,0.1,0.2c0.7,0.4,1.6,1.3,2.6,2.9
		c0.4,0.4,0.8,0.7,1.3,0.6c0.1,0,0.1,0,0.2,0c0.1,0,0.1-0.1,0.1-0.1s0,0-0.1-0.1c-0.3-0.2-0.4-0.4-0.5-0.7
		C19.9,9.4,18.8,8.3,17.9,7.9C18,7.9,18,7.9,17.9,7.9L17.9,7.9z"/>
	<path class="st0" d="M20.2,11.4L20.2,11.4L20.2,11.4C20.3,11.5,20.3,11.4,20.2,11.4c-0.5-1.3-1.5-2.3-2.6-3.1h-0.1h-0.1
		c0,0,0,0,0.1,0.1C18.2,8.7,19,9.5,20.2,11.4z"/>
	<path class="st0" d="M19,11.3c-0.1,0-0.1-0.1-0.2-0.1c-0.5-0.8-1.3-1.4-1.9-2l0,0l0,0c0,0.1,0,0.2,0,0.3c0.4,0.4,0.9,0.8,1.3,1.3
		l0,0c0.3,0.4,0.5,0.6,0.7,0.7c0.1,0,0.2,0.1,0.3,0.1s0.2,0,0.2-0.1c0-0.1,0.1-0.1,0-0.2c-0.5-1-1.3-1.8-2.3-2.6c0,0,0,0-0.1,0l0,0
		c0,0.1,0,0.2,0.1,0.3C17.7,9.6,18.4,10.2,19,11.3C19.1,11.2,19.2,11.3,19,11.3C19.1,11.3,19.1,11.3,19,11.3z"/>
	<path class="st0" d="M16.9,9.7L16.9,9.7c0,0,0,0.1,0,0.2c0.4,0.4,0.9,0.8,1.3,1.4c0.1,0.1,0.1,0.2,0,0.2c0,0.1-0.1,0.1-0.2,0.1
		c-0.1,0-0.1,0-0.2-0.1c-0.3-0.3-0.6-0.5-0.9-0.8c-0.1-0.1-0.3-0.3-0.4-0.4l0,0l0,0c0,0,0,0.1,0,0.2l0.9,1c0.2,0.2,0.3,0.3,0.4,0.4
		c0.1,0,0.2,0,0.2,0c0.1,0,0.2,0,0.3-0.1c0.1-0.1,0.1-0.2,0-0.4C18,10.7,17.5,10.2,16.9,9.7L16.9,9.7z"/>
	<path class="st0" d="M16.6,9.9L16.6,9.9c0.4,0.5,0.8,1,1.3,1.3l0,0l0,0c0,0,0,0,0-0.1C17.6,10.7,17.1,10.3,16.6,9.9L16.6,9.9z"/>
	<path class="st0" d="M16.5,10.7C16.5,10.7,16.4,10.7,16.5,10.7C16.4,10.7,16.4,10.7,16.5,10.7L16.5,10.7c0.2,0.4,0.4,0.6,0.6,0.9
		c0,0.1,0.1,0.1,0,0.2c0,0.1-0.1,0.1-0.2,0.1s-0.1,0-0.2-0.1c-0.3-0.2-0.4-0.4-0.7-0.6L16,11l0,0v0.1c0.4,0.4,0.6,0.7,0.8,0.7
		c0.1,0,0.2,0,0.3,0c0.1,0,0.2,0,0.3-0.1c0.1-0.1,0.1-0.2,0-0.4C17.3,11.5,17,11.1,16.5,10.7z"/>
	<path class="st0" d="M16.2,10.9l0.7,0.7H17l0,0l0,0C16.7,11.3,16.4,11,16.2,10.9C16.2,10.8,16.2,10.9,16.2,10.9z"/>
	<path class="st0" d="M16.2,12.4c0.2,0,0.3-0.1,0.4-0.2c0.1-0.1,0.1-0.2,0-0.3c-0.2-0.2-0.4-0.4-0.6-0.6l0,0l0,0v0.1
		c0.3,0.3,0.4,0.4,0.4,0.5s0,0.2,0,0.2c0,0.1-0.1,0.1-0.2,0.1c-0.1,0-0.1,0-0.1,0c-0.1-0.1-0.3-0.3-0.4-0.4l0,0l0,0v0.1
		C15.8,12.2,16,12.3,16.2,12.4C16,12.4,16.1,12.4,16.2,12.4z"/>
	<path class="st0" d="M15.9,12C16,12.1,16,12.1,15.9,12c0.1,0,0.2,0,0.2,0v-0.1c-0.2-0.1-0.3-0.3-0.4-0.4c0,0,0,0-0.1,0
		c0,0-0.1,0-0.1,0.1s0,0.1,0.1,0.1C15.7,11.8,15.8,11.9,15.9,12z"/>
	<path class="st0" d="M15.6,12.4l-0.4-0.4l0,0l0,0v0.1l0.2,0.3L15.6,12.4c-0.1,0.2-0.2,0.3-0.3,0.3l0,0c-0.1,0-0.1,0.1-0.1,0.1v0.1
		c0,0,0,0,0.1,0l0,0l0.3-0.3C15.6,12.6,15.7,12.5,15.6,12.4z"/>
	<path class="st0" d="M15.2,12.6L15.2,12.6L15.2,12.6C15.3,12.5,15.3,12.5,15.2,12.6l-0.1-0.4l0,0c0,0,0,0-0.1,0l0,0L15.2,12.6z"/>
	<path class="st0" d="M15.2,7.5c0,0,0.1,0.1,0.2,0.2c0.4,0.2,0.9,0.4,1.3,0.6c0.1,0,0.1,0.1,0,0.2l-0.1,0.1h-0.1
		c-0.4-0.3-0.7-0.4-1.1-0.5l0,0c0,0,0,0.1,0.1,0.1c0.4,0.2,0.7,0.4,1.2,0.6c0.1,0,0.1,0.1,0.2,0.1s0.1,0,0.1-0.1
		c0.1-0.2,0-0.4-0.3-0.6C16.2,7.9,15.6,7.6,15.2,7.5L15.2,7.5z"/>
	<path class="st0" d="M15.5,8.3L15.5,8.3c0,0.1,0,0.1,0,0.2c0.1,0.1,0.2,0.1,0.4,0.2c0.3,0.2,0.6,0.4,0.6,0.4c0.1,0.1,0.1,0.2,0,0.3
		c0,0.1-0.1,0.1-0.1,0.1h-0.1l-0.6-0.4l0,0l0,0c0,0,0,0.2,0.1,0.2c0.2,0.1,0.4,0.3,0.4,0.4l0,0c0.1,0,0.2,0.1,0.3,0.1h0.1
		c0.2-0.3,0.2-0.5,0.1-0.6C16.4,8.8,16.1,8.6,15.5,8.3z"/>
	<path class="st0" d="M16.3,9.2L16.3,9.2C16.3,9.2,16.3,9.2,16.3,9.2c0-0.1-0.7-0.4-0.7-0.4v0.1C15.8,9,16,9.1,16.3,9.2z"/>
	<path class="st0" d="M15.6,10.2l0.4,0.3h0.1h0.1c0.1-0.1,0.1-0.2,0.2-0.3c0.1-0.2,0-0.3-0.1-0.4l-0.5-0.4l0,0l0,0v0.1
		c0.2,0.2,0.4,0.3,0.4,0.4c0.1,0.1,0.1,0.2,0,0.3c0,0.1-0.1,0.1-0.1,0.1H16L15.6,10.2L15.6,10.2C15.6,10.1,15.6,10.2,15.6,10.2z"/>
	<path class="st0" d="M16,10.1C16,10.1,16,10,16,10.1C16.1,10,16.1,10,16,10.1l-0.3-0.3l0,0l0,0L16,10.1L16,10.1z"/>
	<path class="st0" d="M15.2,10.9L15.2,10.9l0.4,0.4h0.1c0.1,0,0.1,0,0.2-0.1l0.1-0.1c0.1-0.1,0.1-0.2,0-0.4
		c-0.1-0.1-0.2-0.3-0.4-0.4l0,0v0.1l0.2,0.3c0,0.1,0,0.2,0,0.2c0,0.1-0.1,0.1-0.2,0.1h-0.1L15.2,10.9L15.2,10.9L15.2,10.9z"/>
	<path class="st0" d="M15.3,10.7C15.3,10.7,15.3,10.7,15.3,10.7l0.2,0.2l0,0l0,0v-0.1L15.3,10.7L15.3,10.7
		C15.4,10.7,15.3,10.7,15.3,10.7z"/>
	<path class="st0" d="M14.6,11.5L14.6,11.5c-0.1,0.1-0.1,0.1,0,0.2l0.3,0.4l0.1,0.1c0.1,0,0.3-0.1,0.4-0.3c0.1-0.1,0.1-0.2,0-0.3
		c-0.1-0.2-0.2-0.3-0.3-0.4l0,0l0,0v0.1l0.2,0.2c0,0.1,0,0.2,0,0.3s-0.1,0.1-0.2,0.1h-0.1L14.6,11.5L14.6,11.5z"/>
	<path class="st0" d="M14.9,11.6C14.9,11.6,15,11.6,14.9,11.6C15,11.6,15,11.5,14.9,11.6l-0.1-0.3l0,0l0,0v0.1L14.9,11.6L14.9,11.6z
		"/>
	<path class="st0" d="M15.5,15.5C15.5,15.5,15.5,15.6,15.5,15.5c0.1,0.1,0.2,0.1,0.2,0c0.4-0.4,0.2-1.8-0.2-2.4l0,0c0,0,0,0-0.1,0
		v0.1c0.4,0.7,0.4,1.3,0.4,1.8c0,0.1,0,0.1-0.1,0.1c0,0-0.1,0-0.1-0.2c-0.1-0.5-0.3-1-0.4-1.3c0,0.1,0,0.2,0,0.3
		C15.3,14.2,15.4,14.8,15.5,15.5z"/>
	<path class="st0" d="M15.2,13.3L15.2,13.3c0,0-0.1,0.2,0,0.2c0.2,0.3,0.4,0.7,0.4,1.1l0,0l0,0C15.5,14.1,15.5,13.6,15.2,13.3
		L15.2,13.3z"/>
	<path class="st0" d="M13.2,7.2c0.1,0,0.1,0.1,0.2,0.1c0.1,0.1,0.2,0.1,0.3,0.2c0.4,0.2,0.6,0.4,0.8,1.2v0.1
		c0.2,0.7,0.3,1.2-0.4,1.7c-0.1,0.1-0.1,0.1,0,0.2c0,0,0,0.1,0.1,0.1l0,0c0.2-0.1,0.4-0.3,0.5-0.5c0.4-0.5,0-1.8-0.2-2.2
		c-0.1-0.3-0.4-0.4-0.6-0.6L13,6.9c-0.1-0.1-0.1-0.2-0.1-0.3c0-0.1,0.1-0.1,0.2-0.2c0.1,0,0.2-0.1,0.4-0.1c0.1,0,0.2,0,0.3,0
		c1.3,0.1,2.4,0.4,3.6,1.2l0,0c0,0.1,0.1,0.1,0,0.2c0,0.1-0.1,0.1-0.3,0.1c-0.1,0-0.2,0-0.2-0.1l-0.1-0.2l0,0l0,0v0.2v0.1
		c0.2,0.1,0.4,0.1,0.5,0.1c0.3,0,0.5-0.1,0.8-0.3c0-0.1,0.1-0.1,0-0.1c0,0-0.1,0-0.1-0.1H18c-0.3,0-0.5-0.1-0.7-0.2
		c-1.4-0.6-2.7-1-4-1c-0.1,0-0.3,0-0.4,0.1s-0.2,0.2-0.2,0.3c0,0.1,0,0.3,0.1,0.4C12.9,7.1,13,7.1,13.2,7.2z"/>
	<path class="st0" d="M7.3,9.8C7.4,9.9,7.5,10,7.6,10h0.5c0.1,0,0.1-0.1,0.1-0.1s0-0.1-0.1-0.1l-0.4,0c-0.2,0-0.3-0.2-0.3-0.4
		c-0.2-0.4,0-0.7,0.3-1c0,0,0,0,0-0.1l0,0l0,0c0,0,0,0,0-0.1V8.2h0.1l0,0l0,0l0,0c-0.3,0-0.4,0.2-0.7,0.5c0,0-0.1,0.1,0,0.3L7.3,9.8
		z"/>
	<path class="st0" d="M8.4,9.4L8.4,9.4c-0.1,0-0.2,0-0.3,0c-0.1,0-0.3,0-0.4-0.1l0,0l0,0v0.1C7.9,9.5,7.9,9.6,8,9.6
		C8.1,9.6,8.2,9.6,8.4,9.4L8.4,9.4z"/>
	<path class="st0" d="M7.7,9c0,0.1,0,0.1,0,0.2c0,0,0,0.1,0.1,0.1h0.1c0.2,0,0.4-0.1,0.7-0.4l0,0l0,0C8.3,9,8,9.1,7.9,9.1
		S7.9,9,7.9,9c-0.1,0,0-0.1,0-0.2C7.9,8.7,8,8.6,8.1,8.5c0,0,0,0,0-0.1V8.3V8.2c0-0.1,0-0.1,0.1-0.1c0-0.1,0-0.1,0.1-0.1V8
		c0-0.1-0.1-0.1-0.1-0.1C8,7.9,8,8,8,8.1c0,0.2,0,0.2-0.1,0.4C7.9,8.6,7.7,8.8,7.7,9z"/>
	<path class="st0" d="M8.2,8.2C8.2,8.2,8.2,8.3,8.2,8.2c0.1,0.2,0.1,0.3,0.1,0.4l0,0c0.1,0,0.1-0.1,0.1-0.2C8.4,8.3,8.4,8.3,8.2,8.2
		C8.3,8.2,8.3,8.2,8.2,8.2C8.3,8.2,8.2,8.2,8.2,8.2z"/>
	<path class="st0" d="M12.1,20.7c0.2,0.1,0.3,0.4,0.4,0.7c0.1,0.4,0.3,0.8,0.5,0.8c0.1,0,0.1,0,0.1,0l0,0l0,0
		c-0.2-0.1-0.3-0.4-0.4-0.7c-0.1-0.4-0.3-0.9-0.6-1C12.2,20.7,12.1,20.7,12.1,20.7S12.1,20.7,12.1,20.7
		C12.1,20.7,12.1,20.7,12.1,20.7z"/>
	<path class="st0" d="M12.7,20.7C12.6,20.7,12.6,20.7,12.7,20.7C12.6,20.7,12.6,20.7,12.7,20.7c0.2,0.2,0.3,0.4,0.4,0.8
		c0.2,0.4,0.4,0.8,0.6,0.8l0,0h0.1l0,0c-0.2-0.1-0.3-0.4-0.4-0.7C13.2,21.1,13,20.7,12.7,20.7z"/>
	<path class="st0" d="M13.7,21.6L13.7,21.6c0.1,0.4,0.3,0.7,0.6,0.8l0,0l0,0c-0.3-0.2-0.4-0.4-0.4-0.6c-0.1-0.3-0.2-0.4-0.4-0.5l0,0
		l0,0l0,0C13.5,21.2,13.6,21.4,13.7,21.6z"/>
	<path class="st0" d="M12.7,20.4L12.7,20.4L12.7,20.4c0.2,0,0.2-0.1,0.2-0.1s0-0.1-0.1-0.1s-0.2,0-0.2,0l0,0c-0.1,0-0.3,0-0.4-0.1
		c0,0,0,0-0.1,0c0,0,0,0-0.1,0h-0.1v0.1c0.1,0.1,0.3,0.2,0.5,0.2C12.6,20.4,12.6,20.4,12.7,20.4z"/>
	<path class="st0" d="M15.5,20.4c0-0.1-0.1-0.3-0.4-0.3c-0.3,0-0.4,0.2-0.4,0.4v0.1h0.1c0,0,0.1,0,0.1-0.1c0-0.2,0.2-0.2,0.2-0.2
		c0.1,0,0.2,0.1,0.2,0.1c0,0.1,0,0.1-0.1,0.2c-0.1,0.1-0.2,0.2-0.1,0.3c0.1,0.2,0.2,0.4,0,0.7c-0.1,0.2,0,0.3,0.1,0.4l0,0
		c0,0,0,0.1,0,0.2s-0.1,0.1-0.2,0.1c-0.1,0-0.2-0.1-0.2-0.2c0-0.1-0.1-0.1-0.1-0.1h-0.1c0,0,0,0,0,0.1c0.1,0.3,0.3,0.4,0.4,0.4
		c0.1,0,0.2,0,0.3-0.1c0.1-0.1,0.1-0.2,0.1-0.3c0-0.1,0-0.2-0.1-0.3c-0.1-0.1-0.1-0.2-0.1-0.4c0.1-0.2,0.1-0.4,0-0.5
		c-0.1-0.1,0-0.3,0-0.4C15.5,20.7,15.5,20.5,15.5,20.4z"/>
	<path class="st0" d="M11.9,21.9L11.9,21.9L11.9,21.9L11.7,22c0,0.1-0.1,0.1-0.1,0.1c-0.1,0-0.1,0-0.1-0.1c0,0,0-0.1,0-0.2
		s0.1-0.1,0.1-0.2s0-0.2,0-0.3c-0.1-0.2-0.1-0.4-0.1-0.5l0.1-0.3c0-0.1,0-0.2-0.1-0.2c-0.1-0.1-0.1-0.1-0.1-0.2s0.1-0.1,0.2-0.1
		c0,0,0,0,0.1,0s0.1,0.1,0.1,0.1s0,0,0,0.1l0.1,0.1c0,0,0,0,0.1,0v-0.1c0-0.2-0.3-0.3-0.4-0.3c-0.1,0-0.2,0-0.3,0.1
		c-0.1,0.1-0.1,0.2-0.1,0.3s0,0.2,0.1,0.2l0,0c0.1,0.1,0.1,0.3,0,0.4c-0.1,0.3-0.1,0.4,0,0.4c0.1,0.2,0.1,0.3,0,0.4v0.1
		c0,0.1-0.1,0.1,0,0.3c0,0.2,0.2,0.3,0.4,0.3c0.1,0,0.2,0,0.3-0.1C11.8,22.2,11.9,22.1,11.9,21.9z"/>
	<path class="st0" d="M14.7,22.4L14.7,22.4c-0.2,0-0.2,0.1-0.3,0.1h-0.1c-0.7,0-1.4,0-2.1,0c-0.1,0-0.1,0-0.2-0.1
		c-0.1,0-0.1,0-0.2,0h-0.1v0.1c0.2,0.2,1.3,0.2,1.8,0.2H14c0.2,0,0.3,0,0.4,0c0.2,0,0.3-0.1,0.4-0.1C14.8,22.5,14.9,22.5,14.7,22.4
		C14.8,22.5,14.7,22.4,14.7,22.4z"/>
	<path class="st0" d="M12.1,7.4c0.7,0.2,1.2,0.4,1.3,1c0,0.3,0.1,0.4,0.2,0.4l0,0V8.8c0-0.5-0.2-1-0.5-1.2c-0.2-0.1-0.4-0.3-0.8-0.4
		c-0.2,0-0.3-0.2-0.3-0.3c0-0.2,0.2-0.4,0.4-0.4l0,0c0.1,0,0.1,0,0.1,0l0,0l0,0h-0.1c-0.3,0-0.4,0.1-0.4,0.4
		C11.8,7.3,11.9,7.4,12.1,7.4z"/>
	<path class="st0" d="M12.2,6.9L12.2,6.9c0.1,0,0.2,0.1,0.2,0.1c0,0.1,0,0.1-0.2,0.1l0,0l0,0c0,0.1,0.1,0.1,0.1,0.1
		c0.1,0,0.2,0,0.2-0.1V7C12.5,6.9,12.4,6.9,12.2,6.9C12.3,6.8,12.2,6.9,12.2,6.9z"/>
	<path class="st0" d="M13.2,7.5L13.2,7.5c0.2,0,0.2,0,0.2,0l0,0c-0.2-0.2-0.5-0.3-0.7-0.2C12.5,7.4,13.1,7.4,13.2,7.5z"/>
	<path class="st0" d="M13.3,8.7c-0.1-0.2-0.3-0.4-0.4-0.5c-0.1,0-0.1,0-0.1,0c0.3,0.3,0.5,0.5,0.6,1c0,0.1,0,0.1-0.1,0.2l0,0
		l-0.1,0.1v0.1l0.1,0.1l0,0l0,0l0.4-0.3V9.2V9.1C13.5,9.1,13.4,9,13.3,8.7z"/>
	<path class="st0" d="M12.3,8.9L12.3,8.9C12.3,8.9,12.3,9,12.3,8.9c0,0.4,0.1,0.6,0.1,1v0.1h0.1c0.1,0,0.3-0.1,0.4-0.2
		C12.9,9.7,13,9.6,13,9.5c0-0.4-0.2-0.7-0.4-1.1l0,0l0,0c0,0,0,0,0,0.1c0.3,0.5,0.4,0.8,0.3,1.1c-0.1,0.1-0.1,0.1-0.2,0.1
		c0,0-0.1,0-0.1-0.1C12.5,9.2,12.4,9.1,12.3,8.9L12.3,8.9z"/>
	<path class="st0" d="M12.8,9.4L12.8,9.4c-0.1-0.4-0.3-0.8-0.3-0.8l0,0l0,0C12.5,8.9,12.6,9.1,12.8,9.4C12.7,9.5,12.7,9.6,12.8,9.4z
		"/>
	<path class="st0" d="M13.1,9.2C13.2,9.3,13.2,9.2,13.1,9.2c0-0.4-0.4-0.9-0.4-0.8C12.9,8.7,13,9,13.1,9.2z"/>
	<path class="st0" d="M11.7,9.9l0.1-0.4V9.4c0,0,0,0,0,0.1c-0.1,0.1-0.2,0.5-0.1,0.7c0,0,0,0.1,0.1,0.1h0.1c0.2,0,0.3,0,0.4-0.1
		c0.2-0.2,0.2-0.5,0.1-0.9V9.2c0-0.1,0-0.1-0.1-0.1l0,0v0.1c0,0.3,0,0.4-0.1,0.7c-0.1,0.1-0.1,0.2-0.2,0.2C11.8,10,11.7,10,11.7,9.9
		z"/>
	<path class="st0" d="M12,9.7c0-0.1,0-0.3,0-0.4l0,0l0,0C12,9.4,12,9.5,12,9.7C11.9,9.6,11.9,9.6,12,9.7L12,9.7
		C11.9,9.8,12,9.8,12,9.7z"/>
	<path class="st0" d="M11.8,8.5C11.8,8.6,11.8,8.6,11.8,8.5L11.8,8.5C11.9,8.5,11.9,8.4,11.8,8.5c-0.1-0.1-0.4-0.3-0.4-0.3l0,0l0,0
		C11.4,8.3,11.6,8.5,11.8,8.5z"/>
	<path class="st0" d="M10.8,10.2c0,0,0.1,0.1,0.2,0.1c0.1,0,0.3,0,0.4-0.3l0.1-0.4c0,0,0,0,0-0.1l0,0c0,0-0.1,0-0.1,0.1
		c0,0.2-0.1,0.3-0.2,0.4l-0.1,0.1H11V10c0.1-0.1,0.1-0.2,0.2-0.3c0,0,0,0,0-0.1l0,0c0,0,0,0-0.1,0C11,9.9,10.9,9.9,10.8,10
		C10.8,10.1,10.8,10.2,10.8,10.2z"/>
	<path class="st0" d="M9.6,9.8L9.6,9.8H9.5c0,0,0,0,0,0.1c0.4,0.4,0.6,0.7,0.4,1.3v0.1l0,0h0.1C10.2,10.6,10.1,10.1,9.6,9.8z"/>
	<path class="st0" d="M5.5,11.8C5.5,11.9,5.5,11.9,5.5,11.8L5.5,11.8c0.1,0.1,0.2,0.1,0.2,0c0-0.1,0-0.1,0-0.1
		c-0.1-0.1-0.1-0.2,0-0.3l0,0l0.1-0.1v-0.1c0,0,0-0.1-0.1-0.1H5.6c0,0.1,0,0.2-0.1,0.2l0,0l0,0l0,0c0,0-0.1,0,0,0.1
		C5.4,11.6,5.4,11.7,5.5,11.8z"/>
	<path class="st0" d="M5.9,12L5.9,12C6,12.1,6,12.1,6.1,12.1c0,0,0-0.1,0-0.2C6,11.6,6,11.6,6.2,11.5l0,0v-0.1c0,0,0,0-0.1,0
		c0,0,0,0-0.1,0C5.8,11.6,5.8,11.6,5.9,12z"/>
	<path class="st0" d="M6.2,11.8l0.1,0.3l0.1,0.1h0.1v-0.1c-0.1-0.2-0.1-0.3,0-0.4l0.1-0.1v-0.1c0,0-0.1-0.1-0.1,0l0,0H6.2
		C6.2,11.6,6.2,11.7,6.2,11.8z"/>
	<path class="st0" d="M9.3,9.9C9.2,9.9,9.2,9.9,9.3,9.9c-0.1,0-0.2,0-0.2,0c0,0.1,0,0.1,0,0.2c0.2,0.2,0.4,0.3,0.4,0.4
		c0,0.2,0,0.4-0.1,0.4l-0.9,0.8c-0.6,0.7-0.7,1.3-0.3,1.7l0,0c0,0,0,0,0-0.1c-0.4-0.6,0.1-1,0.6-1.5l0,0c0.3-0.3,0.5-0.4,0.8-0.8
		C9.9,10.7,9.7,10.3,9.3,9.9z"/>
	<path class="st0" d="M9.6,13.3c-0.2,0-0.3,0-0.4,0l0,0c-0.1,0-0.2,0-0.3,0c-0.3,0-0.4-0.1-0.5-0.5c0-0.1,0-0.1,0-0.1
		s-0.1,0-0.1,0.1c0,0.6,0.4,0.6,1,0.6c0.2,0,0.4,0,0.5,0c0.3,0.1,0.5,0.3,0.5,0.5c0.1,0.3-0.1,0.4-0.3,0.6C10,14.7,10,14.7,10,14.7
		l0.1,0.1h0.1c0.3-0.2,0.4-0.5,0.4-0.8C10.4,13.6,10.2,13.3,9.6,13.3C9.7,13.3,9.6,13.3,9.6,13.3z"/>
	<path class="st0" d="M8.6,11.2c-0.9,0.4-1.2,1.3-1.1,2c0.1,0.6,0.5,1,1.2,1.1h1c0.1,0,0.1,0,0.2,0.1c0,0,0,0.1,0,0.2v0.1l0,0h0.1
		c0.1-0.1,0.2-0.3,0.1-0.4c0-0.1-0.2-0.2-0.3-0.2c-0.2,0-0.4,0-0.4,0c-0.4,0-0.7,0-0.8-0.1c-0.4-0.2-0.6-0.5-0.6-1
		c0-0.5,0.4-1.2,1-1.5c0.2-0.4,0.4-0.5,0.5-0.7c0-0.1,0-0.1,0-0.1l0,0c0,0,0,0-0.1,0C9.2,10.8,8.9,10.9,8.6,11.2z"/>
	<path class="st0" d="M6.9,13.2c-0.1,0.3,0,0.4,0.1,0.5c0.2,0.2,0.4,0.3,0.5,0.4c0.3,0.2,0.3,0.4,0.3,0.6l0,0c0,0.1,0,0.1,0,0.2
		C7.9,15,8,15.2,8.2,15.2l0,0c0.1,0,0.1,0,0.1-0.1V15c-0.2-0.1-0.3-0.2-0.4-0.3c-0.1-0.4-0.2-0.7-0.4-0.8c-0.2-0.1-0.4-0.3-0.5-0.4
		C7,13.6,7,13.5,7,13.5c-0.1-0.2,0-0.4,0.2-0.8c0.2-0.5,0-0.8-0.4-1.1c0,0,0,0-0.1,0l0,0v0.1C7.1,12,7.2,12.3,6.9,13.2z"/>
	<path class="st0" d="M7,14.3c0.3,0.2,0.4,0.4,0.4,0.6c0.1,0.6,0.4,1,1,1l0,0c0.1,0,0.2,0,0.3-0.1l0,0c0,0,0-0.1-0.1-0.1
		c0-0.1-0.1-0.1-0.2-0.1c0,0,0,0-0.1,0l0,0c-0.1,0-0.1,0-0.2,0H7.9c-0.4-0.1-0.4-0.3-0.5-0.6c0-0.4-0.1-0.6-0.3-0.7
		c-0.3-0.2-0.5-0.4-0.6-0.5c-0.2-0.4-0.1-0.5,0-0.8c0-0.1,0.1-0.1,0.1-0.2c0.1-0.1,0.1-0.2,0.1-0.4c0-0.4-0.1-0.5-0.3-0.5l0,0H6.3
		c0,0,0,0.1,0.1,0.1c0.2,0.2,0.2,0.4,0,1c-0.2,0.3-0.2,0.5-0.1,0.7C6.5,14,6.8,14.1,7,14.3z"/>
	<path class="st0" d="M8.9,15.8C8.9,15.8,9,15.8,8.9,15.8C9,15.8,9,15.8,8.9,15.8C8.9,15.8,8.8,15.8,8.9,15.8L8.9,15.8
		C8.8,15.8,8.8,15.8,8.9,15.8z"/>
	<path class="st0" d="M9.3,15.8L9.3,15.8c-0.1-0.1-0.2-0.1-0.3-0.1l0,0l0,0l0,0C9.1,15.8,9.2,15.8,9.3,15.8L9.3,15.8L9.3,15.8z"/>
	<path class="st0" d="M9.4,15.5L9.4,15.5L9.4,15.5c0,0.1,0.1,0.2,0.2,0.2h0.1l0,0l0,0C9.6,15.6,9.5,15.5,9.4,15.5z"/>
	<path class="st0" d="M9.5,14.9C9.6,14.9,9.6,14.9,9.5,14.9l0.2-0.2v-0.1c0,0,0-0.2,0-0.3v-0.1l0,0l0,0c0,0-0.1,0-0.1,0.1l0,0
		c-0.2,0.1-0.2,0.3-0.2,0.4C9.4,14.9,9.4,14.9,9.5,14.9L9.5,14.9L9.5,14.9z"/>
	<path class="st0" d="M8.7,15.6L8.7,15.6L8.7,15.6c-0.1-0.1-0.1-0.2-0.1-0.4c0-0.1,0-0.3-0.1-0.4c0,0,0,0,0,0.1s0,0.1,0,0.2
		c0.1,0.1,0.1,0.1,0.1,0.3C8.5,15.5,8.6,15.6,8.7,15.6z"/>
	<path class="st0" d="M9,15.5L9,15.5C9.1,15.5,9.1,15.5,9,15.5C9.1,15.5,9.1,15.5,9,15.5c-0.1-0.2-0.1-0.3-0.1-0.4
		c0-0.1,0-0.2,0-0.3c-0.2,0-0.2-0.1-0.1-0.2l0,0c0,0,0,0-0.1,0l-0.1,0.1c0,0.1,0,0.2,0.1,0.3c0,0.1,0.1,0.2,0,0.2
		c0,0.1,0,0.2,0.1,0.3C8.9,15.5,8.9,15.5,9,15.5z"/>
	<path class="st0" d="M9.4,14.4C9.4,14.4,9.4,14.3,9.4,14.4L9.4,14.4C9.3,14.3,9.3,14.3,9.4,14.4c-0.2-0.1-0.4,0-0.4,0
		c0,0.1,0,0.2,0,0.3c0.1,0.1,0.1,0.2,0,0.3c0,0.1,0,0.2,0,0.3c0.1,0.1,0.2,0.2,0.3,0.2c0.1,0,0.1,0,0.1,0l0,0c0,0-0.1-0.1,0-0.2
		c0,0,0,0,0-0.1V15C9.1,14.8,9.1,14.6,9.4,14.4z"/>
	<path class="st0" d="M10.4,15.5c0.1-0.1,0.2-0.2,0.3-0.2c0.1-0.1,0.2-0.1,0.3-0.2c0.1-0.3,0.1-0.4-0.1-0.6c0,0,0,0-0.1,0h-0.1v0.1
		l0.1,0.2c0.1,0.1,0,0.2-0.1,0.3c-0.3,0.1-0.4,0.3-0.4,0.4c0,0.1-0.1,0.1-0.1,0.1H10l-0.2-0.2v-0.1c0,0,0,0,0.1,0c0,0,0,0,0.1,0v0
		l0,0l0,0c0-0.1-0.1-0.2-0.2-0.3H9.7c-0.1,0-0.3,0.1-0.4,0.3c-0.1,0.1,0.1,0.3,0.3,0.4c0.1,0,0.1,0.1,0.2,0.1h0.1H10
		C10.2,15.7,10.3,15.6,10.4,15.5z"/>
	<path class="st0" d="M10.9,15.8L10.9,15.8c0.2,0,0.3,0.1,0.4,0.2h0.1c0,0,0,0,0-0.1C11.2,15.7,11,15.7,10.9,15.8
		c-0.2-0.1-0.2-0.1-0.3-0.1c-0.1,0-0.1,0.1-0.1,0.2c0,0,0,0.1,0.1,0.1l0.4,0.1l0.1,0.1l0,0h0.1V16C11.2,15.9,11,15.9,10.9,15.8
		C10.8,15.8,10.8,15.8,10.9,15.8C10.8,15.8,10.8,15.8,10.9,15.8z"/>
	<path class="st0" d="M11.1,15.2c-0.1,0.1-0.1,0.1-0.2,0.2c0,0.1,0,0.1,0,0.2c0.1,0.2,0.4,0.3,0.5,0.3l0,0l0,0h0.1l0,0
		c-0.2-0.1-0.3-0.2-0.4-0.3c0-0.1,0-0.1,0-0.2c0,0,0.1-0.1,0.2-0.1c0.1,0,0.1,0,0.2,0l0,0l0,0c0,0,0,0,0-0.1c-0.1,0-0.1-0.1-0.2-0.1
		C11.3,15.1,11.2,15.1,11.1,15.2z"/>
	<path class="st0" d="M11.3,15.3L11.3,15.3C11.3,15.3,11.3,15.4,11.3,15.3C11.3,15.4,11.3,15.4,11.3,15.3c0.1,0.2,0.3,0.2,0.4,0.3
		l0,0l0,0l0,0v-0.1C11.6,15.5,11.5,15.4,11.3,15.3z"/>
	<path class="st0" d="M11.4,16.5L11.4,16.5c0.1,0,0.1,0,0.2,0c0.2-0.1,0.4-0.1,0.6-0.1c0,0,0.1,0,0.1-0.1c0,0,0-0.1-0.1-0.1h-0.1
		c-0.1,0-0.3,0-0.5,0.1l0,0h-0.1v-0.1c0.1-0.2,0.4-0.3,0.6-0.4l0.1-0.1c0,0,0-0.1-0.1-0.1c-0.3,0.1-0.5,0.2-0.7,0.4
		c-0.1,0.1-0.1,0.2,0,0.2C11.3,16.4,11.3,16.5,11.4,16.5z"/>
	<path class="st0" d="M11.9,16C11.8,16,11.8,16,11.9,16C11.8,16.1,11.9,16.1,11.9,16c0.2,0.1,0.4,0,0.4,0l0,0l0,0c0,0,0,0-0.1,0
		C12,15.9,11.9,15.9,11.9,16z"/>
	<path class="st0" d="M11.3,14.8L11.3,14.8c0-0.1,0.1-0.1,0.1-0.2l0,0l0,0c-0.1-0.1-0.2-0.2-0.3-0.2l0,0c0,0.3,0.1,0.4,0.4,0.5l0,0
		l0,0l0,0L11.3,14.8z"/>
	<path class="st0" d="M10.9,13.7L10.9,13.7c0,0.3,0,0.4,0.2,0.6c0.1,0.1,0.2,0.1,0.2,0.1s0,0,0.1,0v-0.1l-0.1-0.1c0,0,0,0-0.1,0
		s-0.1-0.1-0.1-0.2C11.1,13.8,11,13.7,10.9,13.7z"/>
	<path class="st0" d="M11.6,14.5L11.6,14.5L11.6,14.5L11.6,14.5L11.6,14.5c0,0.3,0.1,0.7,0.4,1h0.1c0.1,0,0.1-0.1,0.1-0.1
		c0-0.2,0-0.3-0.1-0.4c0,0,0,0-0.1,0l0,0v0.2v0.1l0,0l0,0H12c-0.2-0.2-0.3-0.4-0.3-0.6C11.6,14.6,11.6,14.5,11.6,14.5z"/>
	<path class="st0" d="M12.6,16.5L12.6,16.5c0.2,0,0.2,0,0.2-0.1c0.1-0.1,0.1-0.3,0-0.4l0,0c0-0.1-0.1-0.1-0.1-0.1l0,0c0,0,0,0,0,0.1
		v0.3c0,0.1,0,0.1-0.1,0.1c0,0,0,0-0.1,0c-0.2-0.3-0.2-0.5-0.2-0.8c0-0.1-0.1-0.2-0.1-0.2s0,0,0,0.1C12.3,15.8,12.3,16.2,12.6,16.5z
		"/>
	<path class="st0" d="M12.6,15.9L12.6,15.9C12.6,15.9,12.6,15.9,12.6,15.9v-0.3c0,0,0-0.1-0.1-0.1s0,0,0,0
		C12.5,15.8,12.5,15.8,12.6,15.9L12.6,15.9z"/>
	<path class="st0" d="M11.9,15C11.9,15,11.9,14.9,11.9,15c0-0.1,0-0.2,0-0.2l0,0l0,0C11.8,14.9,11.8,14.9,11.9,15L11.9,15z"/>
	<path class="st0" d="M13.5,7.7L13.5,7.7C13.4,7.7,13.4,7.7,13.5,7.7C13.4,7.7,13.4,7.8,13.5,7.7c0.2,0.1,0.3,0.1,0.4,0.3
		c0,0.1,0,0.1,0,0.1s0,0.1-0.1,0.1l0,0l0,0h0.1c0.1,0,0.1,0,0.1-0.1c0,0,0-0.1,0-0.2C13.8,7.8,13.7,7.7,13.5,7.7z"/>
	<path class="st0" d="M13.7,8.1C13.8,8.1,13.8,8.1,13.7,8.1c0-0.1,0-0.2-0.1-0.2l0,0C13.6,7.9,13.6,8,13.7,8.1L13.7,8.1z"/>
	<path class="st0" d="M13.8,8.4C13.8,8.4,13.8,8.4,13.8,8.4C13.8,8.5,13.8,8.5,13.8,8.4c0.2,0.1,0.3,0.2,0.3,0.4C14.1,9,14,9,14,9
		h-0.1h-0.1l0,0c0,0,0.2,0.1,0.3,0.1h0.1c0.1-0.1,0.1-0.2,0.1-0.4C14.2,8.5,14,8.4,13.8,8.4z"/>
	<path class="st0" d="M13.9,8.9L13.9,8.9c0.1-0.1,0-0.2,0-0.2s0,0-0.1,0h-0.1c0,0,0,0,0,0.1C13.8,8.9,13.9,8.9,13.9,8.9z"/>
	<path class="st0" d="M13.9,10.1L13.9,10.1c0.3-0.2,0.4-0.3,0.4-0.4c0-0.1,0-0.2-0.1-0.3S14,9.3,13.9,9.3l0,0c-0.1,0-0.1,0-0.1,0.1
		v0.1H14c0.1,0,0.1,0,0.1,0c0,0.1,0,0.2-0.1,0.3C13.9,9.9,13.9,9.9,13.9,10.1L13.9,10.1z"/>
	<path class="st0" d="M13.8,9.7C13.9,9.7,13.9,9.7,13.8,9.7c0.2,0,0.2,0,0.2,0C14,9.6,13.9,9.6,13.8,9.7L13.8,9.7
		C13.8,9.6,13.8,9.6,13.8,9.7L13.8,9.7z"/>
	<path class="st0" d="M14.4,7.4L14.4,7.4c0.1,0.1,0.2,0.1,0.4,0.2c0.1,0,0.1,0,0.1,0s0,0,0-0.1c-0.4-0.6-0.9-0.7-1.3-0.7
		c-0.1,0-0.2,0-0.2,0l0,0c0,0,0.1,0.1,0.2,0.1c0.1,0,0.2,0,0.3,0c0.4,0,0.6,0.1,0.8,0.4c0,0.1,0.1,0.1,0,0.2
		C14.6,7.4,14.5,7.4,14.4,7.4z"/>
	<path class="st0" d="M14.1,7.1c-0.1,0-0.1,0-0.2,0l0,0C13.9,7.1,13.9,7.1,14.1,7.1C14,7.2,14.1,7.2,14.1,7.1L14.1,7.1L14.1,7.1
		C14.2,7.2,14.2,7.2,14.1,7.1C14.2,7.1,14.1,7.1,14.1,7.1z"/>
	<path class="st0" d="M15.3,7.2C15.3,7.2,15.2,7.2,15.3,7.2c-0.3-0.3-0.4-0.4-0.5-0.4c0,0,0,0-0.1,0l0,0c0.3,0.3,0.5,0.4,0.8,0.5
		h0.1h0.1c0,0,0,0,0-0.1c0-0.2-0.1-0.4-0.3-0.4C15.4,7.1,15.4,7.1,15.3,7.2C15.4,7.2,15.3,7.2,15.3,7.2z"/>
	<path class="st0" d="M15.9,20L15.9,20L15.9,20L15.9,20c0-0.2,0-0.3,0.1-0.4c0.4-0.3,0.6-0.4,0.5-0.9c0,0,0,0,0-0.1h-0.1
		c-0.1,0-0.1,0-0.1,0.1c-0.1,0.3-0.1,0.4-0.3,0.5c-0.4,0.3-0.8,0.4-1.3,0.4c-0.2,0-0.4,0.1-0.4,0.3l-0.2,0.4c0,0.1-0.1,0.2-0.2,0.2
		h-0.4c-0.1,0-0.1,0-0.1-0.1v-0.1c0-0.4,0-0.7,0.2-1c0-0.1,0-0.3,0-0.3l0,0c0,0,0,0-0.1,0.1c-0.2,0.3-0.3,0.7-0.3,1.4
		c0,0.1,0,0.2,0.2,0.3l0.9,0.1c0.1,0,0.2-0.1,0.2-0.2c0-0.4,0.2-0.6,0.4-0.6c0.2,0,0.4-0.1,0.7-0.1c0,0,0,0,0.1,0
		c0.1,0,0.2,0,0.2,0.1C15.7,20,15.8,20,15.9,20z"/>
	<path class="st0" d="M15.4,18.5L15.4,18.5c-0.2,0-0.2,0.1-0.2,0.2s0.1,0.1,0.1,0.1h0.1c0.1-0.1,0.2-0.2,0.3-0.2
		C15.5,18.6,15.5,18.5,15.4,18.5z"/>
	<path class="st0" d="M15.2,19.4C15.3,19.4,15.3,19.4,15.2,19.4c0.2,0,0.3-0.1,0.3-0.2c-0.1,0-0.2,0-0.4-0.1l0,0
		c-0.1,0-0.1,0.1-0.1,0.1v0.1C15.1,19.3,15.2,19.4,15.2,19.4z"/>
	<path class="st0" d="M14.8,18.7c0.1-0.2,0.2-0.2,0.2-0.3h-0.1c-0.1,0-0.2,0-0.3,0.1s-0.1,0.1-0.1,0.2s0.1,0.1,0.1,0.1
		C14.8,18.8,14.8,18.8,14.8,18.7z"/>
	<path class="st0" d="M13.8,20.1C13.8,20.1,13.9,20,13.8,20.1c0.1-0.3,0.2-0.4,0.2-0.4c-0.1,0-0.2,0.1-0.3,0.1
		C13.7,20,13.7,20,13.8,20.1C13.8,20,13.8,20.1,13.8,20.1z"/>
	<path class="st0" d="M17.5,19.8c0.2-0.1,0.3-0.1,0.4-0.1c-0.1-0.1-0.3-0.2-0.4-0.2C17.1,19.5,17.2,19.9,17.5,19.8z"/>
	<path class="st0" d="M18,19.2c0-0.2,0-0.3,0.1-0.4c-0.1,0-0.2,0.1-0.3,0.1c-0.1,0.1-0.1,0.1,0,0.2C17.8,19.2,17.8,19.3,18,19.2
		C17.9,19.3,18,19.3,18,19.2z"/>
	<path class="st0" d="M18.6,19.1C18.6,19.1,18.5,19.1,18.6,19.1c-0.2,0-0.3,0-0.3,0c-0.1,0.1-0.1,0.1-0.1,0.2c0,0.1,0.1,0.1,0.1,0.1
		s0.1,0,0.1-0.1C18.4,19.2,18.5,19.1,18.6,19.1z"/>
	<path class="st0" d="M18.1,19.8C18.2,19.8,18.2,19.8,18.1,19.8c0.2,0,0.3-0.1,0.4-0.2c-0.1,0-0.2,0-0.4-0.1l0,0
		c-0.1,0-0.1,0.1-0.1,0.1L18.1,19.8C18,19.8,18.1,19.8,18.1,19.8z"/>
	<path class="st0" d="M14.4,19.3C14.4,19.4,14.5,19.4,14.4,19.3c0.1,0.1,0.2,0.1,0.3,0c0-0.1,0.1-0.2,0.1-0.3
		C14.6,19.1,14.6,19.1,14.4,19.3C14.4,19.2,14.4,19.2,14.4,19.3z"/>
	<path class="st0" d="M12.9,18.5c-0.1,0-0.3,0.1-0.4,0.2c0.1,0,0.3,0,0.4,0.1C13.1,18.9,13.1,18.5,12.9,18.5z"/>
	<path class="st0" d="M12,18.3C12,18.3,12.1,18.3,12,18.3c0.1-0.2,0.1-0.3,0-0.3s-0.2,0-0.2,0h-0.1C11.8,18,11.9,18.1,12,18.3
		L12,18.3z"/>
	<path class="st0" d="M11.5,18.3c0-0.1,0-0.2-0.2-0.2c-0.1,0-0.2,0-0.3,0.1c0.1,0,0.2,0.1,0.3,0.2L11.5,18.3
		C11.4,18.3,11.5,18.3,11.5,18.3z"/>
	<path class="st0" d="M11.6,18.6c-0.2,0.1-0.3,0.1-0.4,0.1c0.1,0.1,0.3,0.2,0.4,0.2C12,18.9,11.9,18.5,11.6,18.6z"/>
	<path class="st0" d="M12.1,18.6L12.1,18.6c0.2,0,0.2-0.1,0.2-0.1c0-0.1,0-0.1-0.1-0.1c-0.1,0-0.1,0-0.1,0c-0.1,0-0.2,0-0.2,0
		C12,18.5,12,18.6,12.1,18.6z"/>
	<path class="st0" d="M9.8,18.2L9.8,18.2c0.2,0,0.2-0.1,0.2-0.1S10,18,9.9,18c-0.1,0-0.2,0-0.3-0.1C9.7,18,9.8,18.1,9.8,18.2z"/>
	<path class="st0" d="M9,18.3L9,18.3c0.2,0,0.2-0.1,0.2-0.1c0-0.1,0-0.1-0.1-0.1H9c-0.1,0-0.2,0-0.3,0C8.9,18.1,8.9,18.2,9,18.3z"/>
	<path class="st0" d="M8.7,17.5L8.7,17.5c-0.1,0-0.2,0-0.3,0.1c0.1,0,0.2,0.1,0.2,0.1l0,0h0.1c0,0,0,0,0.1,0c0.1,0,0.1,0,0.1-0.1
		C8.8,17.5,8.7,17.5,8.7,17.5z"/>
	<path class="st0" d="M7.2,16.6L7.2,16.6C7.2,16.6,7.3,16.6,7.2,16.6l0.2,0.1c0,0,0-0.1,0-0.2c0-0.1-0.1-0.2-0.2-0.2
		C7.2,16.4,7.2,16.4,7.2,16.6L7.2,16.6z"/>
	<path class="st0" d="M7,16.3c0-0.1-0.1-0.2-0.2-0.2c0,0.1,0,0.2,0,0.2v0.1l0,0c0,0.1,0.1,0.1,0.1,0.1H7C7,16.4,7,16.4,7,16.3z"/>
	<path class="st0" d="M6.9,16.6L6.9,16.6c-0.1,0-0.2,0-0.3-0.1c0,0.1,0.1,0.2,0.2,0.3h0.1c0.1,0.1,0.1,0,0.1,0S7,16.7,6.9,16.6z"/>
	<path class="st0" d="M7.3,17.3L7.3,17.3c0.2,0,0.2,0,0.2-0.1s0-0.1-0.1-0.1l0,0c-0.1,0-0.2,0-0.3-0.1C7.2,17.1,7.2,17.2,7.3,17.3z"
		/>
	<path class="st0" d="M13.3,18.1L13.3,18.1c0-0.2,0-0.3,0-0.4c0,0,0-0.1-0.1-0.1c0,0,0,0-0.1,0c-0.3,0-0.4,0.2-0.4,0.3
		c-0.1,0.2,0,0.4,0.2,0.4H13l0,0c0,0,0,0,0-0.1c0-0.1,0-0.1,0-0.2C13,18.2,13.1,18.2,13.3,18.1L13.3,18.1z"/>
	<path class="st0" d="M13.8,19.2L13.8,19.2C13.8,19.2,13.9,19.2,13.8,19.2L13.8,19.2c0-0.1-0.1-0.2-0.1-0.3c0-0.1,0.1-0.1,0.1-0.2
		c0.1-0.1,0.1-0.1,0-0.2s-0.1-0.2-0.2-0.2l-0.1-0.1c0,0-0.1,0-0.1,0.1c-0.2,0.1-0.2,0.4-0.2,0.4C13.5,19.1,13.7,19.2,13.8,19.2z"/>
	<path class="st0" d="M16.7,19.1L16.7,19.1c0.1,0,0.1,0,0.2,0c0.2,0,0.3-0.1,0.4-0.3c0.1-0.2,0-0.4-0.2-0.5H17h-0.1
		c-0.1,0.1-0.1,0.2-0.2,0.3v0.1c0,0,0,0,0.1,0.1c0,0,0,0.1,0,0.1C16.9,19,16.8,19.1,16.7,19.1z"/>
	<path class="st0" d="M16,18.5c0.1,0.1,0.1,0.1,0.2,0.1h0.1c0.3-0.1,0.4-0.3,0.4-0.4c0-0.1,0-0.2-0.1-0.3c-0.1-0.1-0.2-0.2-0.3-0.2
		c0,0,0,0-0.1,0c-0.2,0-0.4-0.1-0.4-0.3c-0.1-0.1-0.1-0.1-0.2-0.2h-0.1l0,0l0,0c0,0.1,0.1,0.2,0.2,0.3s0.2,0.2,0.4,0.2
		c0.1,0.1,0.1,0.1,0.1,0.2s-0.1,0.1-0.1,0.2c0,0,0,0-0.1,0s-0.1,0-0.2-0.2s-0.3-0.4-0.4-0.4l0,0c0,0,0,0-0.1,0
		c-0.1,0-0.1,0.1-0.1,0.1l-0.1,0.1c0,0,0,0-0.1,0c0,0,0,0-0.1,0c-0.2,0.1-0.4,0.3-0.6,0.4l-0.1,0.1l0,0l0,0l0,0l0,0
		c0,0,0-0.1,0.1-0.2c0.2-0.2,0.4-0.3,0.4-0.4c0,0,0,0,0-0.1c0,0,0-0.1-0.1-0.1s-0.1,0-0.2,0s-0.1,0-0.2,0c-0.1,0-0.1,0-0.2,0
		c-0.1,0-0.2,0-0.4-0.1h-0.1c-0.1,0-0.1,0-0.2,0.1v0.1c0,0.1,0,0.2,0,0.3v0.1c0,0,0,0,0.1,0h0.1c0.1-0.1,0.2-0.2,0.2-0.3
		c0,0,0-0.1,0.1-0.1c0.2-0.1,0.3-0.1,0.4-0.1h0.1c0.1,0,0.1,0,0.1,0.1c0,0,0,0.1-0.1,0.1c-0.1,0.1-0.3,0.2-0.5,0.3
		c-0.1,0.1-0.2,0.2-0.2,0.3c0,0.1,0.1,0.2,0.3,0.3H14c0.1,0,0.2-0.1,0.3-0.2c0-0.1,0.1-0.1,0.2-0.2c0.2-0.1,0.3-0.2,0.4-0.3h0.1
		c0.1,0,0.1,0.1,0.1,0.1V18c0,0.1,0.1,0.1,0.1,0.1s0.1,0,0.2-0.1h0.1l0,0l0,0v0.1v0.1c0,0,0,0,0.1,0h0.1L16,18.5z"/>
	<path class="st0" d="M13.8,16.6L13.8,16.6C13.7,16.6,13.7,16.7,13.8,16.6l0.3,0.6c0.1,0.1,0.1,0.1,0.2,0.1h0.1c0,0,0-0.1,0-0.2
		v-0.1l0,0l-0.1,0.1c0,0-0.1,0-0.1-0.1L13.8,16.6C13.8,16.6,13.8,16.6,13.8,16.6z"/>
	<path class="st0" d="M15,17.5C15,17.5,15.1,17.6,15,17.5c0.1,0,0.2,0,0.2-0.1c0-0.2,0-0.3-0.1-0.4l-0.4-0.7c0-0.1,0-0.1,0-0.1
		s0,0,0,0.1c0,0.1,0,0.3,0.1,0.4c0.1,0.1,0.1,0.2,0.2,0.3V17c0,0.1,0,0.2,0,0.3l-0.1,0.1c0,0-0.1,0-0.1-0.1l-0.4-0.4
		c-0.1-0.2-0.2-0.3-0.3-0.3h-0.1c0,0,0,0,0,0.1c0.1,0.1,0.2,0.3,0.3,0.4l0,0C14.6,17.2,14.7,17.5,15,17.5z"/>
	<path class="st0" d="M14.6,16.6L14.6,16.6l0.3,0.4l0,0c0,0,0,0,0.1,0v-0.1L14.6,16.6L14.6,16.6L14.6,16.6z"/>
	<path class="st0" d="M14.2,17L14.2,17C14.3,17.1,14.3,17,14.2,17C14.3,16.9,14.3,16.9,14.2,17l-0.1-0.4l0,0l0,0v0.1L14.2,17z"/>
	<path class="st0" d="M15.5,17.3L15.5,17.3c0.1,0,0.1,0,0.2,0c0,0,0,0,0-0.1c0-0.4-0.1-0.6-0.2-0.8c0-0.1-0.1-0.2-0.1-0.3V16l0,0
		c-0.1,0.1-0.1,0.2,0,0.3l0.2,0.4c0,0.1,0,0.1,0,0.2l0,0l0,0l0,0c0,0-0.1,0-0.1-0.1c-0.1-0.1-0.1-0.2-0.1-0.4c0-0.2-0.1-0.2-0.1-0.2
		l0,0l0,0l0,0C15.2,16.6,15.3,17.1,15.5,17.3z"/>
	<path class="st0" d="M14.9,14.1L14.9,14.1c-0.1,0.1-0.1,0.2-0.1,0.2c0.3,0.4,0.4,0.9,0.3,1.3c0,0.2-0.1,0.2-0.1,0.2s-0.1,0-0.1-0.1
		c-0.1-0.2-0.2-0.4-0.3-0.6l0,0c-0.1-0.2-0.2-0.4-0.3-0.4l0,0c0,0,0,0,0,0.1s0,0.2,0.1,0.3c0.1,0.2,0.2,0.3,0.2,0.4l0,0
		c0.2,0.3,0.3,0.6,0.4,0.7h0.1c0.1,0,0.1,0,0.1-0.1C15.4,15.7,15.2,14.6,14.9,14.1L14.9,14.1z"/>
	<path class="st0" d="M14.9,15.3C14.9,15.3,15,15.3,14.9,15.3c0-0.4-0.1-0.8-0.4-1c0,0,0,0-0.1,0l0,0v0.1
		C14.6,14.8,14.8,15,14.9,15.3L14.9,15.3z"/>
	<path class="st0" d="M14.4,16.4L14.4,16.4c0.1,0,0.2,0,0.3-0.2c0-0.4-0.1-0.9-0.4-1.4h-0.1H14c0,0,0,0,0,0.1
		c0.1,0.2,0.1,0.4,0.2,0.4l0,0c0.1,0.2,0.2,0.4,0.3,0.5c0,0.1,0,0.1,0,0.2c0,0,0,0-0.1,0c0,0-0.1,0-0.1-0.1
		c-0.2-0.2-0.4-0.4-0.4-0.6l0,0c-0.1-0.2-0.2-0.3-0.3-0.4l-0.1-0.1l0,0v0.1C13.7,15.6,13.9,16,14.4,16.4z"/>
	<path class="st0" d="M13.5,14.7L13.5,14.7L13.5,14.7c0.3,0.4,0.4,0.6,0.6,1l0,0l0,0c0,0,0,0,0-0.1C14,15.2,13.8,14.9,13.5,14.7
		L13.5,14.7z"/>
	<path class="st0" d="M13.7,16.5c0.1,0,0.2-0.1,0.2-0.2c0-0.4-0.4-0.8-0.7-1.2H13l0,0l0,0c0.3,0.3,0.4,0.5,0.6,0.9
		c0,0.1,0,0.2,0,0.2l-0.1,0.1c0,0-0.1,0-0.1-0.1c-0.4-0.4-0.7-0.9-1-1.2c0,0,0,0-0.1,0l0,0c0,0,0,0,0,0.1c0.4,0.4,0.7,0.8,1,1.3
		C13.6,16.5,13.7,16.5,13.7,16.5z"/>
	<path class="st0" d="M12.7,14.9L12.7,14.9L12.7,14.9l0.8,1.1l0,0l0,0c0,0,0,0,0-0.1L12.7,14.9L12.7,14.9z"/>
	<path class="st0" d="M15.8,7.4c0.2,0.1,0.4,0.3,0.4,0.3c0,0,0,0,0.1,0c0.1-0.1,0.1-0.1,0.1-0.2c0-0.1-0.1-0.2-0.2-0.2l0,0
		c0,0.1,0,0.1,0,0.1h-0.1c-0.1,0-0.2-0.1-0.2-0.1c-0.1-0.1-0.1-0.2-0.2-0.2l0,0C15.8,7.3,15.9,7.3,15.8,7.4
		C15.8,7.4,15.8,7.4,15.8,7.4z"/>
	<path class="st0" d="M14.8,8.1L14.8,8.1L14.8,8.1L14.8,8.1c0,0.1,0.1,0.1,0.3,0.1c0.1,0,0.1,0,0.2-0.1c0-0.1,0-0.2-0.1-0.4l0,0l0,0
		l0,0c0,0,0-0.1-0.2-0.2l0,0c0,0,0,0.1-0.1,0.1h-0.1c0,0-0.1,0-0.2,0l0,0c0,0,0,0.1,0.1,0.1c0.3,0,0.4,0.1,0.4,0.2
		C15,8,14.9,8.1,14.8,8.1z"/>
	<path class="st0" d="M14.9,8.5c0.2,0.1,0.3,0.2,0.3,0.4c0,0.1-0.1,0.2-0.2,0.2c0,0,0-0.1-0.1-0.1v0.1c0.1,0.2,0.3,0.3,0.4,0.3
		c0.1,0,0.1,0,0.1-0.1s0-0.1,0-0.3c-0.1-0.3-0.2-0.4-0.1-0.6V8.2h-0.1h-0.1c-0.1,0-0.2,0-0.3-0.1l0,0c0,0,0,0,0,0.1L14.9,8.5z"/>
	<path class="st0" d="M14.2,11.9c0,0,0,0.1,0,0.2c0.1,0.2,0.3,0.4,0.4,0.6l0,0c0.1,0.2,0.2,0.4,0.3,0.4l0.1,0.1l0.1-0.1
		c0-0.4-0.3-0.9-0.7-1.5l0,0v0.1c0.2,0.3,0.4,0.5,0.4,0.9c0,0.1,0,0.1,0,0.1l0,0l0,0l0,0c0,0-0.1,0-0.1-0.1
		C14.6,12.4,14.4,12.2,14.2,11.9L14.2,11.9L14.2,11.9z"/>
	<path class="st0" d="M13.8,12.8L13.8,12.8c-0.1,0.1-0.1,0.1,0,0.2c0.2,0.4,0.4,0.7,0.5,1.1c0.1,0.1,0.2,0.2,0.3,0.2
		c0.1,0,0.2-0.1,0.2-0.1c0.1-0.2,0.1-0.4,0-0.6s-0.4-0.7-0.6-1.2c0,0,0,0-0.1,0l0,0v0.1c0.3,0.4,0.4,0.8,0.6,1.2
		c0.1,0.1,0.1,0.3,0,0.3c0,0.1-0.1,0.1-0.1,0.1c-0.1,0-0.1,0-0.2-0.1C14.1,13.4,13.9,13.1,13.8,12.8C13.8,12.8,13.8,12.8,13.8,12.8z
		"/>
	<path class="st0" d="M14.4,13.5C14.5,13.5,14.5,13.5,14.4,13.5c0.1-0.1,0.1-0.1,0.1-0.2L14,12.5l0,0l0,0c0,0.1,0,0.2,0,0.2
		L14.4,13.5L14.4,13.5z"/>
	<path class="st0" d="M13.8,14.7c0.1,0,0.2-0.1,0.3-0.2c0.1-0.1,0.1-0.3,0-0.4c-0.3-0.4-0.4-0.7-0.4-1c0-0.1-0.1-0.1-0.1-0.1
		s-0.1,0-0.1,0.1v0.1c0.1,0.3,0.3,0.6,0.5,1.1c0.1,0.2,0.1,0.3,0,0.3C14,14.6,13.9,14.6,13.8,14.7c-0.1-0.1-0.2-0.1-0.2-0.2
		c-0.2-0.2-0.3-0.4-0.4-0.6v-0.1c-0.1-0.1-0.2-0.3-0.3-0.4c0,0,0,0-0.1,0c0,0-0.1,0-0.1,0.1v0.1l0.7,1.1
		C13.7,14.6,13.8,14.7,13.8,14.7z"/>
	<path class="st0" d="M13.1,13.2l0.5,0.9l0.1,0.1l0,0c0,0,0-0.1,0-0.2l-0.5-1l0,0l0,0l0,0L13.1,13.2C13.1,13.1,13.1,13.2,13.1,13.2z
		"/>
	<path class="st0" d="M13.3,14.9c0.1-0.1,0.1-0.2,0-0.3c-0.1-0.4-0.4-0.7-0.6-1.1v-0.1l-0.1-0.1h-0.1l0,0c0.3,0.4,0.4,0.7,0.6,1.1
		c0,0.1,0,0.1,0,0.2S13,14.7,13,14.7s-0.1,0-0.1-0.1c-0.4-0.4-0.6-0.7-0.9-1.2c0,0,0,0-0.1,0h-0.1v0.1c0.3,0.4,0.5,0.8,1,1.2
		c0.1,0.1,0.2,0.1,0.3,0.1C13.1,14.9,13.2,14.9,13.3,14.9z"/>
	<path class="st0" d="M12.1,13.3c0.1,0.4,0.4,0.7,0.7,1l0,0l0,0c0,0,0,0,0-0.1C12.7,14,12.4,13.6,12.1,13.3L12.1,13.3L12.1,13.3z"/>
	<path class="st0" d="M12.4,14.9L12.4,14.9c0.1,0,0.1-0.1,0.1-0.2c-0.2-0.4-0.4-0.7-0.8-1.2h-0.1l0,0l0,0c0.2,0.3,0.4,0.5,0.5,0.7
		v0.1l0,0l0,0l0,0l0,0h-0.1c-0.3-0.4-0.5-0.7-0.9-1.1c0,0,0,0-0.1,0c0,0-0.1,0-0.1,0.1v0.1l0.1,0.1C11.3,14.1,11.8,14.7,12.4,14.9
		L12.4,14.9z"/>
	<path class="st0" d="M13.6,10.8C13.6,10.8,13.6,10.9,13.6,10.8c-0.1,0.2-0.1,0.3-0.1,0.3l0,0l0,0c0.2-0.2,0.3-0.4,0.3-0.5l-0.1-0.8
		c0-0.1,0-0.1-0.1-0.1l0,0v0.1v0.2c0,0.1,0,0.2,0,0.3c0,0.1,0,0.2,0,0.3C13.7,10.7,13.6,10.7,13.6,10.8L13.6,10.8z"/>
	<path class="st0" d="M12.9,10L12.9,10c-0.2,0.4-0.2,0.7-0.2,1.1c0,0.1,0.1,0.2,0.3,0.2c0.2,0,0.4-0.1,0.4-0.4
		c0.1-0.4,0.1-0.8,0.1-1.1c0-0.1,0-0.1-0.1-0.1l0,0v0.1c0,0.4,0,0.8-0.1,1C13.2,11,13.1,11,13,11.1c0,0-0.1,0-0.1-0.2
		C12.9,10.7,12.9,10.3,12.9,10C12.9,10.1,12.9,10,12.9,10z"/>
	<path class="st0" d="M13.1,10.8c0.1-0.3,0.1-0.5,0-0.9V9.9c0,0,0,0,0,0.1V10.8C13,10.8,13,10.8,13.1,10.8
		C13,10.8,13.1,10.8,13.1,10.8z"/>
	<path class="st0" d="M12,11.3C11.9,11.3,11.9,11.3,12,11.3c-0.1-0.2-0.1-0.2-0.1-0.3l0.2-0.6c0,0,0,0,0-0.1l0,0c0,0-0.1,0-0.1,0.1
		c0,0.2-0.1,0.3-0.2,0.4c0,0.1-0.1,0.2-0.1,0.4c0,0.1,0,0.1,0,0.2c0.1,0.1,0.2,0.1,0.4,0.1l0,0c0.4,0,0.5-0.2,0.5-0.4l0.1-0.9v-0.1
		l0,0c0,0-0.1,0-0.1,0.1l-0.3,0.7C12.3,11.2,12.2,11.3,12,11.3z"/>
	<path class="st0" d="M12.3,10.2C12.2,10.2,12.2,10.2,12.3,10.2c-0.1,0.3-0.1,0.5-0.2,0.8c0,0,0,0,0,0.1l0,0c0,0,0.1,0,0.1-0.1
		C12.2,10.7,12.3,10.5,12.3,10.2L12.3,10.2z"/>
	<path class="st0" d="M11.1,11.4c0.1,0,0.2,0.1,0.2,0c0.1,0,0.2-0.1,0.3-0.2l0.3-0.7c0-0.1,0-0.1,0-0.1l0,0
		c-0.2,0.4-0.3,0.5-0.4,0.7c0,0.1-0.1,0.1-0.2,0.1c-0.1,0-0.1,0-0.1-0.1s0-0.1,0-0.2c0.1-0.2,0.2-0.4,0.3-0.6v-0.1l0,0
		c-0.1,0.4-0.3,0.6-0.4,0.8c-0.1,0.1-0.1,0.2-0.1,0.2C11,11.3,11,11.3,11.1,11.4z"/>
	<path class="st0" d="M11.5,10.4c-0.1,0.2-0.2,0.4-0.3,0.6v0.1l0,0c0,0,0,0,0.1,0C11.4,10.8,11.5,10.7,11.5,10.4L11.5,10.4
		L11.5,10.4z"/>
	<path class="st0" d="M11.1,10.4L11.1,10.4c-0.1,0.2-0.2,0.4-0.3,0.4c0,0,0,0,0,0.1l0,0l0,0C11,10.8,11.1,10.7,11.1,10.4L11.1,10.4z
		"/>
	<path class="st0" d="M10.4,11.1c0.1,0.1,0.2,0.1,0.3,0.1c0,0,0.1,0,0.1-0.1l0,0L10.6,11c0,0,0,0,0-0.1v-0.1
		c0.2-0.1,0.3-0.2,0.3-0.4v-0.1l0,0l0,0c-0.2,0.3-0.3,0.4-0.4,0.5C10.4,10.9,10.4,11,10.4,11.1z"/>
	<path class="st0" d="M10.4,11.4c-0.3,0.3-0.3,0.5-0.3,0.8c0,0.2,0.1,0.3,0.2,0.4c0,0.1,0.1,0.2,0.1,0.3s0.1,0.2,0.1,0.4
		c0,0,0,0.1,0.1,0.1c0,0,0.1,0,0.2,0s0.2-0.1,0.2-0.2s0-0.1,0-0.2c-0.3-0.6-0.4-1-0.1-1.3v-0.1c0,0,0,0-0.1,0h-0.1
		c-0.1,0.2-0.2,0.3-0.2,0.5c0,0.2,0,0.3,0.1,0.4c0,0.1,0.1,0.2,0.1,0.4v0.1c0,0,0,0-0.1,0c0,0-0.1,0-0.1-0.1c0-0.1,0-0.2-0.1-0.3
		l0,0c0-0.2-0.1-0.3-0.1-0.4C10.4,11.8,10.4,11.7,10.4,11.4L10.4,11.4L10.4,11.4C10.5,11.3,10.5,11.3,10.4,11.4
		C10.4,11.3,10.4,11.3,10.4,11.4z"/>
	<path class="st0" d="M11,12.5c0.1,0.3,0.2,0.5,0.4,0.8c0.1,0.1,0.2,0.1,0.3,0.1c0.2,0,0.3-0.1,0.4-0.3c0-0.1,0-0.2,0-0.3v-0.1
		c-0.1-0.4-0.1-0.7,0-1.1c0,0,0,0,0-0.1c0,0,0,0-0.1,0c0,0-0.1,0-0.1,0.1c-0.1,0.4-0.1,0.7,0,1.2c0,0.1,0,0.2,0,0.2l-0.1,0.1
		c-0.1,0-0.1,0-0.2-0.1c-0.4-0.5-0.5-1-0.3-1.4v-0.1c0,0,0,0-0.1,0c0,0-0.1,0-0.1,0.1C10.9,11.9,10.9,12.2,11,12.5z"/>
	<path class="st0" d="M11.5,11.6L11.5,11.6C11.4,11.6,11.4,11.6,11.5,11.6c-0.3,0.4-0.3,0.8,0,1.3c0,0,0,0,0.1,0l0,0c0,0,0,0,0-0.1
		C11.4,12.2,11.4,11.8,11.5,11.6C11.6,11.6,11.6,11.6,11.5,11.6z"/>
	<path class="st0" d="M12.2,11.6C12.2,11.6,12.1,11.6,12.2,11.6C12.1,11.6,12.1,11.6,12.2,11.6c-0.2,0.4-0.2,0.8-0.1,1.3
		c0.1,0.3,0.3,0.4,0.4,0.4c0.2,0,0.4-0.1,0.4-0.4c-0.1-0.4-0.1-0.9-0.1-1.3v-0.1h-0.1c0,0-0.1,0-0.1,0.1c-0.1,0.3-0.1,0.6-0.1,1v0.1
		c0,0.1,0,0.2,0,0.3l-0.1,0.1c-0.1,0-0.2,0-0.2-0.1C12.1,12.5,12.1,12.2,12.2,11.6C12.2,11.7,12.2,11.6,12.2,11.6z"/>
	<path class="st0" d="M12.5,11.6L12.5,11.6C12.4,11.6,12.4,11.6,12.5,11.6c-0.2,0.4-0.2,0.7-0.2,1.1c0,0.1,0.1,0.1,0.1,0.1
		s0.1,0,0.1-0.1C12.5,12.3,12.5,12,12.5,11.6L12.5,11.6z"/>
	<path class="st0" d="M13.4,11.3c0,0,0,0.1,0,0.2c0.1,0.4,0.2,0.6,0.1,0.9c0,0.1-0.1,0.2-0.2,0.2c-0.1,0-0.1,0-0.2-0.1
		C13,12.2,13,11.8,13,11.6c0-0.1-0.1-0.1-0.1-0.1s0,0-0.1,0c0,0,0,0,0,0.1c0,0.4,0,0.8,0.2,1.2c0.1,0.1,0.1,0.1,0.2,0.1
		c0.2,0,0.3-0.1,0.4-0.4C13.8,12.2,13.8,11.8,13.4,11.3L13.4,11.3L13.4,11.3z"/>
	<path class="st0" d="M13.4,12.2L13.4,12.2c0-0.3-0.1-0.5-0.1-0.7c0-0.1,0-0.1-0.1-0.1c0,0,0,0,0,0.1C13.2,11.7,13.3,12,13.4,12.2
		L13.4,12.2z"/>
	<path class="st0" d="M13.9,10.8C13.9,10.8,13.9,10.9,13.9,10.8c0,0.2,0,0.3,0.1,0.3l0,0c0,0.1,0.1,0.2,0.1,0.3S14,11.5,14,11.5
		s0,0-0.1,0s-0.1-0.2-0.2-0.3c0,0,0-0.1,0.1-0.1c0,0,0,0.1,0.1,0.1s0-0.2,0-0.2h-0.1h-0.1c0,0-0.1,0.1,0,0.1c0,0.2,0.1,0.4,0.3,0.6
		c0,0,0,0,0.1,0c0,0,0.1,0,0.1-0.1C14.2,11.5,14.2,11.2,13.9,10.8C13.9,10.9,13.9,10.8,13.9,10.8z"/>
	<path class="st0" d="M14.3,10.7L14.3,10.7C14.2,10.7,14.2,10.7,14.3,10.7C14.2,10.7,14.2,10.7,14.3,10.7c-0.1,0.1,0,0.1,0,0.2
		c0.1,0.1,0.2,0.2,0.1,0.4c0,0,0,0,0,0.1l0.1,0.1h0.1l0.2-0.2l0,0l0,0c-0.1,0-0.2-0.1-0.3-0.2C14.4,10.8,14.4,10.7,14.3,10.7z"/>
	<path class="st0" d="M14.7,10.7L14.7,10.7l-0.3-0.2l0,0c0,0,0,0-0.1,0c0,0,0,0,0,0.1c0.1,0.1,0.2,0.2,0.3,0.3h0.1h0.1
		c0.1-0.1,0.2-0.1,0.2-0.2c0.1-0.1,0.2-0.2,0.2-0.3s0-0.1,0-0.1s0,0-0.1,0c-0.2,0-0.3-0.1-0.4-0.2l0,0h-0.1c0,0,0,0,0,0.1l0.2,0.2
		C14.8,10.5,14.8,10.6,14.7,10.7C14.8,10.7,14.8,10.7,14.7,10.7z"/>
	<path class="st0" d="M15.2,9.9C15.2,9.9,15.1,9.9,15.2,9.9L15.2,9.9L15.2,9.9C15,9.9,15,10,15,10c0.1,0.1,0.2,0.2,0.3,0.2
		s0.1,0,0.2-0.1s0.1-0.3,0.1-0.4V9.6c0,0,0,0-0.1,0l0,0l0,0c-0.1-0.1-0.3-0.1-0.4-0.3l0,0c0,0.1,0,0.1,0,0.2l0.2,0.2
		C15.4,9.8,15.4,9.9,15.2,9.9C15.3,9.9,15.2,9.9,15.2,9.9z"/>
	<path class="st0" d="M18.7,18.6c0,0,0-0.1,0-0.2c0,0,0-0.1-0.1-0.1c-0.1,0-0.3,0-0.3-0.3V18l0,0l0,0c-0.2,0.1-0.2,0.1-0.3,0.2
		c0,0,0,0.1-0.1,0.1c-0.1,0.1-0.1,0.1-0.2,0.1s-0.2-0.1-0.2-0.2v-0.1c0,0,0,0-0.1,0.1c-0.1,0.1-0.1,0.1,0,0.2c0,0.1,0,0.3-0.1,0.4
		c-0.2,0.3-0.4,0.4-0.5,0.4c-0.1,0-0.1,0-0.2,0l0,0c0,0-0.1,0-0.1,0.1v0.1c0.1,0,0.2,0.1,0.3,0.1c0.2,0,0.4-0.1,0.5-0.3
		c0.3-0.4,0.5-0.7,0.8-0.7c0.1,0,0.2,0,0.2,0.1l0,0C18.6,18.6,18.6,18.7,18.7,18.6C18.7,18.7,18.7,18.6,18.7,18.6z"/>
	<path class="st0" d="M19.5,19.6c-0.1,0-0.2,0-0.2-0.1s0-0.1,0-0.2l0,0c0,0,0,0-0.1,0c-0.2,0-0.2,0.1-0.2,0.2s0,0.2-0.1,0.2
		c-0.4,0.2-0.8,0.3-1.2,0.4c-0.4,0-0.6-0.1-0.9-0.2c-0.2-0.1-0.4-0.1-0.4-0.1s-0.2,0-0.2,0.1V20l0.4,0.1c0.1,0,0.2,0,0.2,0.2
		s0.1,0.3,0.2,0.3l0,0l0,0l0,0l0,0l0,0c0,0,0-0.1,0-0.2c0,0,0-0.1,0.1-0.1c0,0,0,0,0.1,0c0.2,0,0.4,0.1,0.6,0.1s0.3,0,0.4,0
		c0,0,0,0,0.1,0h0.1c0.1,0.1,0.3,0.2,0.4,0.1c0.1,0,0.1,0,0.2-0.1l0,0c-0.1,0-0.1-0.1-0.2-0.2c0-0.1,0-0.1,0.1-0.1s0.3-0.1,0.4-0.2
		c0,0,0.1-0.1,0.2-0.1l0,0C19.6,19.8,19.6,19.7,19.5,19.6L19.5,19.6L19.5,19.6L19.5,19.6L19.5,19.6z"/>
	<path class="st0" d="M19.6,18.8c-0.1,0.1-0.3,0.2-0.4,0.2c-0.1,0-0.1,0-0.2,0l-0.1-0.1c0-0.1,0.1-0.2,0.2-0.3
		c0.1-0.1,0.2-0.1,0.3-0.1c0.1,0,0.2,0,0.2,0.1C19.6,18.6,19.6,18.7,19.6,18.8z M19.3,18.3c-0.1,0-0.2,0-0.3,0.1
		c-0.4,0.3-0.4,0.5-0.3,0.7c0.1,0.1,0.2,0.1,0.4,0.1s0.4-0.1,0.5-0.3c0.1-0.1,0.1-0.3,0-0.4C19.6,18.3,19.5,18.3,19.3,18.3z"/>
	<path class="st0" d="M20.3,18.6L20.3,18.6L20.3,18.6c-0.2-0.1-0.3-0.1-0.3,0c-0.1,0-0.1,0.1-0.1,0.1v0.1c0.1,0,0.2,0.1,0.3,0.1l0,0
		l0,0c0,0,0,0,0-0.1C20.3,18.7,20.3,18.7,20.3,18.6z"/>
	<path class="st0" d="M20.2,18.3c-0.1-0.1-0.1-0.1-0.1-0.2c0,0,0,0-0.1,0s0,0-0.1,0c-0.1,0.1-0.2,0.1-0.2,0.2s0,0.1,0,0.1
		s0.1,0,0.1,0.1C20,18.5,20.1,18.4,20.2,18.3L20.2,18.3z"/>
	<path class="st0" d="M19.7,17.9C19.7,17.8,19.7,17.8,19.7,17.9C19.7,17.9,19.7,17.9,19.7,17.9c-0.1,0-0.2,0.1-0.2,0.2s0,0.1,0,0.1
		s0,0,0.1,0c0,0,0,0,0.1,0s0.1-0.1,0.2-0.1l0,0c0,0,0,0,0-0.1C19.7,17.9,19.7,17.9,19.7,17.9z"/>
	<path class="st0" d="M20.5,17.7C20.5,17.7,20.5,17.7,20.5,17.7c-0.1,0.2-0.2,0.3-0.3,0.3v0.1c0,0.1,0.1,0.1,0.1,0.1l0,0
		c0.1-0.1,0.1-0.1,0.2-0.1h0.1c0,0,0.1,0,0.1-0.1S20.7,17.8,20.5,17.7C20.6,17.7,20.5,17.7,20.5,17.7z"/>
	<path class="st0" d="M11.6,19.4c0,0.1,0,0.1-0.1,0.2l0,0h0.1c0.1,0,0.2-0.1,0.3-0.1c0.1-0.1,0.2-0.1,0.3-0.1c0.1,0,0.2,0,0.2,0.1
		c0.1,0,0.1,0.1,0.2,0.1v0.1l0,0l0,0c0,0,0,0,0.1,0s0.3-0.1,0.3-0.3c0.1-0.1,0.1-0.1,0.3-0.2c0.1-0.1,0.1-0.1,0.1-0.2V19l0,0
		c-0.3,0.2-0.5,0.2-0.8,0.2c-0.4,0-1-0.2-1.6-0.4c-0.2-0.1-0.2-0.3-0.2-0.4l0.2-0.6c0.1-0.2,0.3-0.3,0.4-0.3c0.4,0,0.8,0.2,1.4,0.6
		l0,0l0,0c0,0,0-0.1,0-0.2l-0.3-0.2c-0.1,0-0.1-0.1-0.1-0.1c0-0.2-0.1-0.3-0.2-0.3l0,0l0,0v0.2c0,0.1-0.1,0.1-0.1,0.1H12
		c-0.4,0-0.4-0.2-0.5-0.4c-0.1-0.1-0.1-0.2-0.3-0.2c0,0,0,0-0.1,0l0.1,0.1c0,0,0.1,0.1,0,0.1c0,0.1-0.1,0.1-0.1,0.1
		c-0.1,0-0.1,0-0.1,0h-0.1c-0.1,0-0.1,0-0.2-0.1l0,0c-0.1,0-0.1-0.1-0.2-0.1h-0.1l0,0l0,0c0.2,0.1,0.2,0.2,0.1,0.4l-0.3,0.8
		c0,0.2,0,0.4,0.2,0.5c0.2,0.1,0.3,0.1,0.3,0.2s0,0.1-0.1,0.2l0,0c0.1,0,0.1,0,0.2,0c0.1,0,0.2,0,0.2-0.1c0.1-0.1,0.1-0.1,0.2-0.1
		h0.1C11.5,19.3,11.6,19.3,11.6,19.4z"/>
	<path class="st0" d="M10.3,17.9C10.3,17.9,10.3,17.8,10.3,17.9C10.4,17.8,10.4,17.8,10.3,17.9c0-0.3-0.1-0.4-0.3-0.4H9.9
		c0,0,0,0-0.1,0v0.1C10,17.5,10.1,17.7,10.3,17.9L10.3,17.9z"/>
	<path class="st0" d="M7.8,17.9c0,0.2,0,0.4-0.2,0.4l0,0c0.1,0,0.2,0.1,0.2,0.1c0.1,0,0.1,0,0.2,0H8c0,0,0,0,0.1,0l0.5,0.3
		c0.1,0,0.1,0.1,0.1,0.1s0,0.1-0.1,0.1c0.1,0,0.1,0,0.2,0c0.1,0,0.2,0,0.2-0.1h0.1c0,0,0,0,0.1,0s0.2,0,0.3,0c0.3,0,0.4,0,0.6-0.1
		c0.1-0.1,0.1-0.1,0.1-0.2c0,0,0,0-0.1,0l0,0c-0.2,0.1-0.4,0.1-0.5,0.1c-0.4,0-0.8-0.1-1.3-0.4c-0.1,0-0.1-0.2-0.1-0.4
		c0.1-0.3,0.2-0.4,0.3-0.6c-0.1-0.1,0-0.1,0-0.1c0.1,0,0.1,0,0.2,0c0.2,0,0.2-0.1,0.2-0.1l0,0l0,0H8.7c-0.1,0-0.3-0.1-0.3-0.2
		c-0.1-0.1-0.1-0.1-0.2-0.1l0,0l0.1,0.1c0,0.1,0,0.1-0.1,0.2C7.9,17.2,7.9,17.5,7.8,17.9z"/>
	<path class="st0" d="M9.1,17.5L9.1,17.5c-0.1-0.2-0.1-0.4,0-0.5c0-0.1,0.1-0.1,0.2-0.1c0.1,0,0.1,0,0.2,0.1s0.1,0.2,0,0.3
		C9.4,17.4,9.4,17.5,9.1,17.5C9.2,17.5,9.2,17.5,9.1,17.5z M9.7,17.3c0-0.2,0-0.4-0.1-0.4c-0.1-0.1-0.2-0.2-0.4-0.2
		c-0.1,0-0.2,0-0.3,0.1S8.9,17,8.9,17.2c0,0.2,0.1,0.4,0.2,0.4c0.1,0,0.1,0,0.2,0C9.5,17.7,9.6,17.5,9.7,17.3z"/>
	<path class="st0" d="M9.8,16.7c0.1,0,0.2-0.1,0.2-0.1c0-0.1,0-0.1,0-0.1l-0.1-0.1l0,0c0,0-0.1,0-0.1,0.1S9.7,16.6,9.8,16.7
		C9.7,16.7,9.7,16.7,9.8,16.7L9.8,16.7z"/>
	<path class="st0" d="M9.6,16.3l-0.2-0.1l0,0l0,0c0,0,0,0,0,0.1v0.2l0.1,0.1h0.1l0.1-0.1C9.7,16.4,9.7,16.4,9.6,16.3
		C9.7,16.3,9.6,16.3,9.6,16.3z"/>
	<path class="st0" d="M9.2,16.3c-0.1,0-0.1,0-0.2,0c0,0,0,0-0.1,0c0,0,0,0,0,0.1s0.1,0.2,0.2,0.2c0,0,0.1,0,0.1-0.1V16.3L9.2,16.3
		C9.3,16.3,9.3,16.3,9.2,16.3L9.2,16.3z"/>
	<path class="st0" d="M7.1,17.5L7.1,17.5c0.2,0.1,0.3,0.1,0.4,0.1h0.1l0.1-0.1c0,0,0,0-0.1-0.1C7,17.4,6.5,17,6.2,16.6
		c-0.1-0.1-0.1-0.3,0-0.4c0.1-0.2,0.3-0.3,0.4-0.4c0.1,0,0.1-0.1,0.2-0.1c0.1,0,0.2,0,0.2,0.1c0.4,0.4,0.5,0.7,0.7,1.1
		C7.8,17,7.9,17,7.9,17s0.1,0,0.1-0.1v-0.2c0-0.1,0-0.2,0-0.2c0.2-0.2,0.2-0.4,0-0.4l0,0c-0.1,0.1-0.1,0.2-0.2,0.2s-0.1,0-0.2-0.1
		c-0.2-0.3-0.3-0.4-0.4-0.5c-0.1-0.1-0.1-0.1-0.1-0.2c0-0.3-0.1-0.3-0.2-0.3l0,0l0,0c0.1,0.2,0,0.3-0.2,0.4
		c-0.4,0.1-0.5,0.4-0.7,0.6c0,0.1-0.1,0.1-0.1,0.1s-0.1,0-0.2-0.1l0,0c0,0.2,0.1,0.3,0.2,0.3s0.1,0,0.2,0.1c0,0.1,0.1,0.2,0.2,0.3
		c0.1,0,0.1,0.1,0.1,0.1S6.2,17,6.2,17l0,0c0.1,0.1,0.2,0.1,0.3,0.1h0.1h0.1l0.2,0.1c0.1,0,0.1,0.1,0.1,0.1c0,0.1,0,0.1-0.1,0.1l0,0
		l0,0c0.1,0,0.1,0.1,0.2,0.1C6.9,17.7,7,17.7,7.1,17.5C7.1,17.5,7.1,17.5,7.1,17.5z"/>
	<path class="st0" d="M6,14.9c0.1,0,0.2,0,0.3,0.2c0.1,0.2,0.1,0.3,0,0.4l-0.1,0.1l0,0l0,0C6,15.4,5.9,15.3,5.9,15
		C5.8,14.9,5.9,14.9,6,14.9z M5.6,14.9c0,0.1,0,0.3,0,0.4c0.1,0.2,0.3,0.3,0.4,0.4h0.1c0.1,0,0.2-0.1,0.3-0.2
		c0.1-0.2,0.1-0.4-0.1-0.5c-0.1-0.2-0.3-0.3-0.4-0.3C5.9,14.8,5.7,14.8,5.6,14.9z"/>
	<path class="st0" d="M6.1,14.6C6.1,14.6,6.2,14.6,6.1,14.6c0.1-0.2,0.1-0.2,0.2-0.3c0-0.1,0-0.1-0.1-0.1H6.1H6v0.1
		C5.9,14.5,6,14.6,6.1,14.6z"/>
	<path class="st0" d="M5.8,14.7c0-0.1,0-0.2,0-0.3c0,0,0,0,0-0.1c0,0,0,0-0.1,0c-0.1,0-0.2,0.1-0.2,0.1v0.1
		C5.6,14.6,5.7,14.7,5.8,14.7C5.7,14.7,5.8,14.7,5.8,14.7z"/>
	<path class="st0" d="M5.4,14.5c-0.1,0-0.2,0.1-0.2,0.2c0,0,0,0,0,0.1c0.1,0.1,0.2,0.1,0.2,0.1h0.1C5.5,14.8,5.5,14.7,5.4,14.5
		L5.4,14.5z"/>
	<path class="st0" d="M5.4,14.1C5.4,14.1,5.4,14.1,5.4,14.1c0.1,0.2,0.2,0.2,0.2,0.2s0.1,0,0.1-0.1v-0.1c0,0,0-0.1,0-0.2
		s0-0.1,0-0.2H5.5c-0.1,0-0.2,0.1-0.3,0.2C5.2,14,5.3,14,5.4,14.1z"/>
	<path class="st0" d="M9.9,19.3L9.9,19.3c-0.2,0-0.2,0-0.3-0.1c0-0.1,0-0.2,0-0.3h0.1c0.1,0,0.2,0,0.2,0.1
		C10,19.1,9.9,19.2,9.9,19.3z M10.1,19.3c0.1-0.1,0-0.3-0.1-0.4c-0.1-0.1-0.2-0.1-0.3-0.1S9.5,19,9.5,19.1c-0.1,0.1,0,0.3,0.1,0.4
		c0.1,0.1,0.2,0.1,0.3,0.1C9.9,19.5,10,19.4,10.1,19.3z"/>
	<path class="st0" d="M8.3,20.6L8.3,20.6c-0.2,0-0.2,0-0.3-0.1c0-0.1,0-0.2,0-0.3h0.1c0.1,0,0.1,0,0.2,0.1
		C8.4,20.4,8.3,20.5,8.3,20.6z M8.1,20c-0.1,0-0.3,0.1-0.3,0.2c-0.1,0.1,0,0.3,0.1,0.4s0.2,0.1,0.3,0.1c0.1,0,0.3-0.1,0.3-0.2
		c0.1-0.1,0-0.3-0.1-0.4C8.3,20.1,8.2,20,8.1,20z"/>
	<path class="st0" d="M17.1,21.9L17.1,21.9c-0.2,0-0.3,0-0.3-0.1s0-0.1,0-0.3h0.1c0.1,0,0.2,0.1,0.2,0.1
		C17.1,21.7,17.1,21.8,17.1,21.9z M16.9,21.4c-0.1,0-0.3,0.1-0.3,0.2c-0.1,0.1,0,0.3,0.1,0.4c0.1,0.1,0.2,0.2,0.3,0.2
		c0.2,0,0.3-0.1,0.4-0.3c0.1-0.1,0-0.3-0.1-0.4C17.1,21.5,17,21.4,16.9,21.4z"/>
	<path class="st0" d="M10.8,20.3c-0.3-0.2-0.5-0.4-0.7-0.6L10,19.6c0,0,0,0-0.1,0v0.1C10.1,20,10.4,20.2,10.8,20.3
		C10.9,20.4,10.9,20.4,10.8,20.3C10.9,20.3,10.9,20.3,10.8,20.3z"/>
	<path class="st0" d="M10.8,21.7c-0.2-0.1-0.5-0.2-0.7-0.2c0,0-0.1,0-0.1,0.1c0,0,0,0.1,0.1,0.1c0.3,0.1,0.5,0.2,0.7,0.3l0,0l0,0
		V21.7L10.8,21.7z"/>
	<path class="st0" d="M9.6,21.3c-0.2,0-0.3,0.1-0.4,0.2v0.1c0,0,0,0,0.1,0h0.1C9.4,21.5,9.5,21.4,9.6,21.3l0.2,0.1
		c0.1,0,0.1,0.1,0.1,0.1c0,0.1,0,0.1-0.1,0.1c0,0,0,0-0.1,0c0,0,0,0-0.1,0c0,0,0,0-0.1,0s-0.2,0.1-0.2,0.1l0,0c0,0,0,0-0.1,0l0,0
		l0,0c0.1,0,0.3,0.1,0.4,0.1c0.2,0,0.3-0.1,0.3-0.2s0-0.2,0-0.3C9.8,21.3,9.7,21.3,9.6,21.3z"/>
	<path class="st0" d="M7.1,18.6C7.1,18.6,7,18.6,7.1,18.6c-0.1,0.1,0,0.2,0.1,0.2c0.2,0,0.4,0.1,0.4,0.2c0.1,0.1,0.1,0.1,0.1,0.2
		l-0.1,0.1c-0.1,0-0.1,0-0.1-0.1c0,0,0-0.1-0.1-0.1C7.3,19,7.2,19,7.1,19H7.1l0,0l0,0l0,0c0.3,0.4,0.4,0.4,0.6,0.4
		c0.1,0,0.2,0,0.2-0.1c0.1-0.1,0-0.2,0-0.3C7.7,18.7,7.4,18.6,7.1,18.6z"/>
	<path class="st0" d="M18.1,20.6c-0.2-0.1-0.4-0.1-0.5-0.1s-0.3,0-0.4,0.1s-0.1,0.2-0.1,0.3c0,0.2,0.1,0.3,0.4,0.3
		c0.2,0,0.4-0.1,0.5-0.2l0,0c0,0,0,0-0.1,0h-0.1c-0.1,0-0.2,0-0.4,0c-0.1,0-0.1,0-0.1,0.1c0,0,0,0-0.1,0c-0.1,0-0.1,0-0.1-0.1
		c0,0,0-0.1,0.1-0.2c0.1,0,0.1,0,0.2,0s0.2,0,0.4,0.1H18C18.1,20.8,18.2,20.7,18.1,20.6C18.2,20.7,18.2,20.7,18.1,20.6z"/>
	<path class="st0" d="M16.3,20.9c0.3,0,0.4-0.1,0.6-0.2c0,0,0.1,0,0.1-0.1L17,20.6c0,0,0,0-0.1,0c-0.3,0.1-0.4,0.1-0.6,0.1
		c-0.1,0-0.3,0-0.4,0c-0.1,0-0.1,0-0.1,0.1c0,0,0,0.1,0.2,0.1C16,20.9,16.2,20.9,16.3,20.9z"/>
	<path class="st0" d="M16.3,21.5C16.3,21.4,16.3,21.4,16.3,21.5c0-0.1,0-0.2,0.1-0.2l0.6-0.2c0,0,0,0,0-0.1c0,0,0-0.1-0.1-0.1l0,0
		c-0.5,0.1-0.9,0.2-0.9,0.4C16.1,21.4,16.2,21.5,16.3,21.5L16.3,21.5l0.2,0.1C16.4,21.6,16.4,21.6,16.3,21.5L16.3,21.5z"/>
	<path class="st0" d="M16.3,21.8l-0.5,0.1V22c0,0,0,0.1,0.1,0.1l0,0l0.5-0.1L16.3,21.8C16.3,21.8,16.3,21.8,16.3,21.8z"/>
	<path class="st0" d="M10.3,21c-0.1-0.3-0.7-0.5-1.5-0.6c-0.1,0-0.1,0-0.1,0.1c0,0,0,0.1,0.1,0.1c0.6,0.2,1,0.3,1.3,0.4
		c0.1,0.1,0.1,0.1,0.1,0.1s0,0.1-0.1,0.1l-0.1,0.1c0,0.1,0,0.1,0.1,0.1h0.1C10.3,21.2,10.3,21.1,10.3,21z"/>
	<path class="st0" d="M8.8,20.1c0-0.1-0.1-0.4-0.8-0.7l0,0l0,0v0.1l0.1,0.1c0,0,0,0,0.1,0.1c0.2,0.1,0.3,0.2,0.4,0.4L8.8,20.1
		L8.8,20.1l-0.1,0.2c0.1,0,0.1,0.1,0.2,0.1C8.7,20.1,8.8,20.1,8.8,20.1z"/>
	<path class="st0" d="M8.9,19.7c0.1,0,0.2,0.1,0.3,0.1c0.2,0.1,0.3,0.1,0.4,0.2l0,0c0.1,0,0.2,0,0.2-0.1c0-0.1,0-0.1-0.1-0.2H9.6
		l0,0c0,0,0,0.1-0.1,0.1H9.4c-0.4-0.2-0.8-0.4-1.3-0.7H7.9c0,0,0,0-0.1,0v0.1C8.4,19.4,8.7,19.5,8.9,19.7z"/>
	<path class="st0" d="M3.9,12.7L3.9,12.7c0.1,0.1,0.2,0.1,0.3,0.2c0,0.1,0,0.2,0,0.3c0,0.2,0,0.2,0,0.2s0,0-0.1,0l-0.5-0.1v-0.2
		c0-0.1,0-0.1,0.1-0.1c0,0,0.1,0,0.2,0l0,0v-0.1l-0.5-0.1v0.1l0,0c0.1,0,0.2,0.1,0.2,0.1s0,0.1,0,0.2v0.2l-0.5-0.1H2.9l0,0V13
		c0-0.1,0-0.2,0.1-0.2c0,0,0.1,0,0.2,0l0,0v-0.1H2.8l-0.1,1h0.1l0,0c0-0.1,0-0.1,0.1-0.1c0,0,0,0,0.1,0H3l1,0.1c0.1,0,0.1,0,0.2,0
		v0.1l0,0h0.1l0.1-1.1l-0.4-0.2V12.7z"/>
	<path class="st0" d="M4.2,11.6c-0.1,0-0.2,0-0.3,0c-0.1,0-0.2,0-0.3,0.1l-0.2,0.2L3.4,12c0,0-0.1,0-0.2,0s-0.1,0-0.1-0.1v-0.1
		c0-0.1,0-0.2,0.1-0.2c0.1-0.1,0.2-0.1,0.3-0.1l0,0v-0.1L3,11.4v0.1l0,0l0,0l0,0c0,0,0,0-0.1,0.1c0,0.1-0.1,0.1-0.1,0.2
		c0,0.1,0,0.2,0.1,0.3s0.2,0.2,0.3,0.2s0.2,0,0.3,0c0.1,0,0.1-0.1,0.2-0.1L3.8,12C3.9,11.9,4,11.9,4,11.9c0.1,0,0.1,0,0.2,0
		S4.3,12,4.4,12c0,0.1,0,0.1,0,0.2c0,0.1-0.1,0.2-0.2,0.2s-0.2,0-0.3,0l0,0v0.1l0.5,0.1v-0.1l0,0l0,0l0,0c0,0,0,0,0.1-0.1
		c0-0.1,0.1-0.1,0.1-0.2c0-0.1,0-0.3-0.1-0.4C4.4,11.7,4.3,11.6,4.2,11.6z"/>
	<path class="st0" d="M4.8,10.8C4.8,10.9,4.7,10.9,4.8,10.8c-0.1,0.1-0.2,0.1-0.3,0.1l-1-0.4v-0.1c0-0.1,0.1-0.2,0.1-0.2
		s0.1,0,0.3,0l0,0v-0.1L3.6,10l-0.4,1l0.4,0.2v-0.1l0,0c0,0-0.1-0.1-0.1-0.2c0,0,0-0.1,0-0.2v-0.1l1.1,0.4c0.1,0.1,0.2,0.1,0.2,0.1
		s0,0.1,0,0.2l0,0h0.1L4.8,10.8L4.8,10.8L4.8,10.8z"/>
	<path class="st0" d="M4.8,9.7L4.6,10L4.2,9.6L4.8,9.7z M5.5,9.5C5.4,9.5,5.4,9.6,5.5,9.5c-0.1,0.1-0.2,0.1-0.3,0L3.8,9.3v0.1
		l0.8,0.9c0.1,0.1,0.2,0.2,0.2,0.3v0.1l0,0h0.1l0.3-0.4H5.1l0,0c0,0,0,0.1-0.1,0.1c0,0,0,0-0.1,0c0,0,0,0-0.1,0c0,0-0.1-0.1-0.2-0.2
		l0.2-0.4H5h0.1h0.1l0,0c0,0,0,0,0,0.1l0,0h0.1L5.5,9.5L5.5,9.5L5.5,9.5z"/>
	<path class="st0" d="M5.9,8.7c0,0.1,0,0.3-0.1,0.4c0,0.1-0.1,0.1-0.1,0.1s0,0-0.1,0L4.7,8.3c0,0,0,0,0-0.1c0,0,0,0,0-0.1
		c0.1,0,0.2-0.1,0.4-0.1h0.1c0.1,0,0.3,0,0.4,0.2C5.8,8.3,5.9,8.5,5.9,8.7z M6,8.2C5.9,8.2,5.8,8.1,5.7,8C5.4,7.8,5.2,7.8,5,7.9
		C4.8,7.9,4.7,8,4.6,8.2L4.3,8.6l0.1,0.1l0,0c0.1-0.1,0.1-0.1,0.1-0.1s0.1,0,0.1,0.1l0.8,0.6c0.1,0.1,0.1,0.1,0.1,0.1v0.1l0,0
		l0.1,0.1l0.4-0.4C6,9,6.1,8.9,6.1,8.8c0-0.1,0-0.1,0-0.2C6.1,8.4,6,8.3,6,8.2z"/>
	<path class="st0" d="M6.8,7.9C6.7,8,6.6,8,6.4,8C6.3,8,6.2,7.9,6,7.7C5.8,7.5,5.7,7.4,5.7,7.3c0-0.1,0-0.3,0.1-0.3
		C5.9,6.9,5.9,6.9,6,6.9h0.1c0.1,0,0.3,0.1,0.4,0.3c0.2,0.2,0.3,0.4,0.3,0.4C6.9,7.7,6.9,7.8,6.8,7.9z M6.7,7
		C6.5,6.8,6.3,6.7,6.2,6.6c-0.2,0-0.4,0-0.4,0.2C5.5,7,5.5,7.1,5.5,7.3c0,0.2,0.1,0.4,0.3,0.5C6,8,6.2,8.1,6.3,8.1h0.1
		c0.2,0,0.3-0.1,0.4-0.2c0.2,0,0.3-0.2,0.3-0.4C7,7.4,6.9,7.2,6.7,7z"/>
	<path class="st0" d="M7.6,6.5c-0.1,0-0.2,0-0.3,0H7.1c-0.1,0-0.1,0-0.2,0c0,0-0.1,0-0.1-0.1c0-0.1-0.1-0.1-0.1-0.2s0-0.1,0.1-0.1
		C6.9,6.1,6.9,6,7,6s0.2,0.1,0.3,0.2l0,0l0.1-0.1L7,5.7v0.1l0,0c0,0,0,0,0,0.1l0,0c0,0,0,0-0.1,0c-0.1,0-0.1,0-0.2,0.1
		C6.6,6,6.6,6.1,6.6,6.2c0,0.1,0,0.2,0.1,0.3c0.1,0.1,0.1,0.1,0.2,0.2c0.1,0,0.1,0,0.2,0h0.2c0.1,0,0.2,0,0.2,0
		c0.1,0,0.1,0.1,0.2,0.1c0.1,0.1,0.1,0.1,0.1,0.2C7.7,7,7.7,7,7.6,7c0,0.2-0.1,0.2-0.3,0.1C7.2,7.1,7.1,7,7.1,7l0,0v0.1l0.4,0.4
		l0.1-0.1l0,0l0,0l0,0c0,0,0,0,0.1,0c0.1-0.1,0.1-0.2,0.2-0.2C7.9,7.1,7.9,7,7.9,6.9c0-0.1,0-0.3-0.1-0.4C7.8,6.5,7.7,6.5,7.6,6.5z"
		/>
	<path class="st0" d="M9.3,4.9c0-0.2,0-0.3,0-0.3s0-0.1,0.1-0.1l0,0V4.4L8.9,4.6v0.1l0,0c0.1,0,0.1,0,0.1,0s0.1,0.1,0.1,0.2l0.4,0.5
		c0.1,0.1,0.1,0.3,0.1,0.3c0,0.1-0.1,0.2-0.2,0.3s-0.2,0-0.3,0S8.9,5.8,8.9,5.7L8.6,5c0-0.1,0-0.1,0-0.2c0,0,0-0.1,0.1-0.1l0,0V4.7
		L8.1,5v0.1l0,0c0.1,0,0.1,0,0.1,0s0,0,0.1,0.1l0.4,0.6c0,0.1,0.1,0.2,0.2,0.3C9,6.2,9.1,6.2,9.2,6.2c0.1,0,0.2,0,0.3-0.1
		C9.6,6,9.7,5.9,9.6,5.7c0-0.1,0-0.3-0.1-0.4L9.3,4.9z"/>
	<path class="st0" d="M10.7,4.1L10.7,4.1L10.7,4.1L10.8,4L10.4,4v0.1l0,0c0.1,0,0.1,0,0.1,0s0.1,0.1,0.1,0.2l0.2,0.6L9.8,4.2
		L9.6,4.3v0.1l0,0h0.1c0,0,0,0,0.1,0l0,0l0.4,1c0,0.2,0,0.2,0,0.2L10,5.7l0,0v0.1l0.4-0.2V5.5l0,0c-0.1,0-0.1,0-0.1,0
		s-0.1-0.1-0.1-0.2L9.9,4.6l1.2,0.9h0.1l-0.4-1.2C10.7,4.1,10.7,4.1,10.7,4.1z"/>
	<path class="st0" d="M11.9,5.2C11.8,5.2,11.8,5.2,11.9,5.2c-0.1,0-0.1,0-0.2,0c0,0,0,0-0.1-0.2l-0.2-1c0-0.1,0-0.2,0-0.2
		s0,0,0.1-0.1l0,0V3.7L11,3.9V4l0,0c0.1,0,0.1,0,0.1,0s0,0,0.1,0.2l0.3,1c0,0.1,0,0.2,0,0.2s0,0-0.1,0.1l0,0v0.1L11.9,5.2L11.9,5.2
		L11.9,5.2z"/>
	<path class="st0" d="M12.3,5.1L12.3,5.1L12.3,5.1l-0.2-1.3V3.8c0,0,0,0,0.1,0c0,0,0,0,0.1,0s0.3,0,0.4,0.1c0.1,0.1,0.2,0.3,0.2,0.5
		c0,0.3,0,0.4-0.2,0.5C12.7,5,12.5,5.1,12.3,5.1L12.3,5.1z M12.8,3.8c-0.1-0.1-0.3-0.1-0.4-0.1l-0.5,0.1v0.1l0,0c0.1,0,0.1,0,0.1,0
		s0,0,0,0.2L12,5c0,0.1,0,0.2,0,0.2s0,0-0.1,0.1l0,0v0.1l0.5-0.1c0.2,0,0.3,0,0.4-0.1c0.1,0,0.1-0.1,0.2-0.1C13,5,13,4.9,13.1,4.9
		c0-0.1,0-0.3,0-0.4C13.1,4,12.9,3.9,12.8,3.8z"/>
	<path class="st0" d="M14.3,4.4c0,0.3-0.1,0.4-0.2,0.5C14,5,13.9,5.1,13.8,5.1S13.7,5,13.6,4.9c-0.1-0.1-0.1-0.3-0.1-0.5
		c0-0.3,0.1-0.4,0.2-0.5c0.1-0.1,0.2-0.2,0.3-0.2l0,0c0.1,0,0.2,0.1,0.3,0.2C14.3,4,14.4,4.2,14.3,4.4z M14,3.6
		c-0.2,0-0.4,0.1-0.4,0.2c-0.1,0.2-0.2,0.4-0.3,0.6c0,0.3,0,0.4,0.2,0.6c0.1,0.2,0.3,0.3,0.4,0.3l0,0c0.2,0,0.3-0.1,0.4-0.2
		c0.2-0.2,0.2-0.4,0.3-0.6c0-0.3,0-0.4-0.2-0.6C14.3,3.7,14.2,3.6,14,3.6z"/>
	<path class="st0" d="M15.6,3.9L15.6,3.9L15.6,3.9L15.6,3.9c-0.1,0.1-0.1,0-0.2,0c-0.1,0-0.1-0.1-0.2-0.1c-0.1,0-0.2,0-0.3,0.1
		C14.9,4,14.9,4,14.8,4.1c0,0.1,0,0.2,0,0.3c0.1,0,0.2,0.1,0.2,0.1l0.1,0.2c0.1,0.1,0.1,0.2,0.2,0.2c0,0.1,0,0.1,0,0.2
		s-0.1,0.1-0.1,0.2c0,0-0.1,0.1-0.2,0c-0.1,0-0.2-0.1-0.3-0.2c0-0.1-0.1-0.2-0.1-0.3l0,0h-0.1v0.5h0.1l0,0l0,0l0,0c0,0,0,0,0.1,0.1
		c0.3,0,0.3,0,0.4,0h0.1c0.1,0,0.2,0,0.3-0.1c0.1-0.1,0.2-0.2,0.2-0.3s0-0.2,0-0.3c0-0.1-0.1-0.2-0.2-0.3l-0.2-0.2
		c-0.1-0.1-0.1-0.1-0.1-0.2c0,0,0-0.1,0-0.2c0-0.1,0-0.1,0.1-0.1h0.1C15.5,3.9,15.5,4,15.6,3.9c0,0.2,0,0.3,0,0.4l0,0h0.1L15.6,3.9
		L15.6,3.9L15.6,3.9z"/>
	<path class="st0" d="M17.9,6.2C17.8,6.2,17.8,6.1,17.9,6.2c-0.1-0.1-0.1-0.2-0.1-0.3l0.4-1c0-0.1,0.1-0.1,0.1-0.1h0.1l0,0V4.8
		L18,4.6l-0.8,0.9l0.1-1.2L17,4.1v0.1l0,0c0.1,0,0.1,0.1,0.1,0.1s0,0.1,0,0.2l-0.4,0.9c-0.1,0.1-0.1,0.2-0.1,0.2s-0.1,0-0.2,0l0,0
		v0.1l0.4,0.2V5.7l0,0c-0.1,0-0.1-0.1-0.1-0.1s0-0.1,0.1-0.3l0.4-0.7l-0.1,1.3h0.1l0.9-1l-0.4,0.8c-0.1,0.1-0.1,0.2-0.1,0.2h-0.1
		l0,0V6L17.9,6.2L17.9,6.2L17.9,6.2z"/>
	<path class="st0" d="M18.9,6.5L18.9,6.5c-0.1,0.1-0.2,0.1-0.3,0.1l0,0c-0.1,0-0.2,0-0.3-0.1c-0.1-0.1-0.2-0.1-0.2-0.1s0,0,0-0.1
		l0.4-0.4L18.8,6c0.1,0.1,0.1,0.1,0.1,0.1s0,0.1-0.1,0.2l0,0h0.1l0.3-0.4H19l0,0c-0.1,0.1-0.1,0.1-0.1,0.1h-0.1l-0.2-0.1l0.3-0.4
		l0,0l0,0l0.2,0.1c0.1,0.1,0.2,0.1,0.2,0.2c0,0,0,0.1,0,0.2l0,0l0.1,0.1l0.2-0.4L18.7,5v0.1l0,0c0.1,0.1,0.1,0.1,0.1,0.1
		s0,0.1-0.1,0.2l-0.5,0.9c0,0-0.1,0-0.1,0H18l0,0v0.1l0.9,0.5L18.9,6.5L18.9,6.5z"/>
	<path class="st0" d="M19.9,7.7L19.9,7.7c-0.1-0.1-0.1-0.2-0.1-0.3L20,6.7l0.4-0.2c0.1,0,0.2-0.1,0.3,0c0,0,0.1,0,0.1,0.1l0,0
		l0.1-0.1l-0.4-0.3l0,0l0,0l0.1,0.1c0,0,0,0,0,0.1l0,0h-0.1l-0.4,0.1V6.3c0,0,0,0,0-0.1V6.1c0,0,0,0,0.1,0c0,0,0,0,0.1,0.1l0,0
		l0.1-0.1l-0.4-0.4l-0.1,0.1l0,0l0.1,0.1c0,0.1,0,0.2-0.1,0.4l-0.1,0.4l-0.5,0.2C19.1,6.9,19,7,18.9,7h-0.1l0,0l-0.1,0.1l0.4,0.3
		l0.1-0.2l0,0l-0.1-0.1c0,0,0,0,0-0.1c0,0,0,0,0.1,0h0.1l0.4-0.1c-0.1,0.3-0.1,0.4-0.1,0.4c0,0.1,0,0.1,0,0.1l0,0c0,0,0,0-0.1-0.1
		l0,0l-0.1,0.1L19.9,7.7L19.9,7.7L19.9,7.7z"/>
	<path class="st0" d="M20.4,7.9l0.7-0.7c0.1-0.1,0.1-0.1,0.1-0.1s0.1,0,0.1,0.1l0,0h0.2L21,6.7l-0.1,0.1l0,0C21,6.9,21,6.9,21,6.9
		S21,7,20.9,7l-0.7,0.7c-0.1,0.1-0.1,0.1-0.1,0.1S20,7.8,20,7.7l0,0l-0.1,0.1l0.4,0.4V8.2l0,0c-0.1-0.1-0.1-0.1-0.1-0.1
		S20.3,8,20.4,7.9z"/>
	<path class="st0" d="M21.3,9.1L21.3,9.1L21.3,9.1L21.3,9.1C21.2,9,21.1,9,21.1,9c-0.1,0-0.2-0.1-0.2-0.2c-0.1-0.1-0.1-0.2-0.1-0.4
		s0.2-0.3,0.3-0.4c0.2-0.1,0.4-0.2,0.4-0.3c0.2,0,0.3,0,0.4,0.1C22,8,22,8.1,21.9,8.2c0,0.1-0.1,0.2-0.1,0.3l0,0l0.1,0.1l0.4-0.4
		l-0.1-0.1l0,0c0,0,0,0-0.1,0l0,0c0,0,0,0,0-0.1s-0.1-0.2-0.1-0.2c-0.1-0.2-0.3-0.3-0.4-0.3l0,0c-0.2,0-0.4,0.1-0.5,0.2
		c-0.2,0.2-0.3,0.3-0.4,0.4c-0.1,0.2,0,0.4,0.1,0.5C20.7,9,20.9,9,21,9.1C21.1,9.1,21.1,9.1,21.3,9.1C21.2,9.1,21.3,9.1,21.3,9.1z"
		/>
	<path class="st0" d="M22.3,9.1L22,9.6l-0.2-0.4L22.3,9.1z M21.8,10.3L21.8,10.3c0-0.1,0-0.2,0.1-0.3L22.8,9V8.9l-1.2,0.3
		c-0.2,0-0.3,0.1-0.4,0.1c0,0-0.1,0-0.1-0.1l0,0h-0.1l0.2,0.4h0.1l0,0c0-0.1,0-0.1,0-0.1s0,0,0-0.1c0,0,0,0,0.1,0c0,0,0.1,0,0.3-0.1
		L22,9.7l-0.2,0.2c0,0,0,0.1-0.1,0.1l0,0l0,0c0,0,0,0-0.1-0.1l0,0h-0.1L21.8,10.3L21.8,10.3L21.8,10.3z"/>
	<path class="st0" d="M23.5,10.9C23.5,10.9,23.6,10.9,23.5,10.9L23.5,10.9l0.2,0.1l-0.2-0.4h-0.1l0,0c0,0.1,0,0.1,0,0.1
		s-0.1,0.1-0.2,0.1L22.6,11l0.7-1.1l-0.1-0.4h-0.1l0,0v0.1c0,0,0,0,0,0.1l0,0l-1,0.6c-0.1,0-0.2,0.1-0.2,0.1s-0.1,0-0.1-0.1l0,0
		h-0.1l0.1,0.4H22l0,0c0-0.1,0-0.1,0-0.1s0.1-0.1,0.2-0.1l0.8-0.3l-0.8,1.2l0,0v0.1l1.2-0.4C23.4,10.9,23.4,10.9,23.5,10.9z"/>
	<path class="st0" d="M22.7,12.4c-0.1-0.1-0.2-0.1-0.2-0.2s0-0.2,0.1-0.3c0-0.2,0.2-0.3,0.4-0.4c0.1,0,0.3,0,0.4,0
		c0.1,0,0.2,0,0.2,0c0.1,0,0.2,0.1,0.3,0.2c0,0.1,0,0.2-0.1,0.3c-0.1,0.1-0.3,0.2-0.5,0.3C23,12.4,22.8,12.4,22.7,12.4z M23,12.7
		c0.1,0,0.2,0,0.3,0c0.3-0.1,0.4-0.2,0.5-0.4c0.2-0.2,0.2-0.4,0.2-0.5c0-0.2-0.2-0.3-0.3-0.4c-0.2-0.1-0.4-0.1-0.6,0
		c-0.3,0.1-0.4,0.2-0.5,0.4c-0.1,0.2-0.2,0.4-0.1,0.4c0,0.2,0.2,0.3,0.3,0.4C22.8,12.6,22.9,12.7,23,12.7z"/>
	<path class="st0" d="M24.2,13.4L24.2,13.4C24.1,13.4,24.1,13.4,24.2,13.4C24.1,13.4,24.1,13.4,24.2,13.4
		C24.1,13.4,24.1,13.3,24.2,13.4c-0.1-0.2-0.1-0.2-0.1-0.3c0-0.1-0.1-0.2-0.2-0.3c-0.1-0.1-0.2-0.1-0.4-0.1c-0.1,0-0.2,0.1-0.3,0.1
		L23.2,13l-0.1,0.2C23,13.3,23,13.3,23,13.3c-0.1,0.1-0.1,0.1-0.2,0.1c-0.1,0-0.2,0-0.2,0c-0.1,0-0.1-0.1-0.1-0.1
		c0-0.1,0-0.2,0.1-0.3c0.1-0.1,0.1-0.1,0.3-0.2l0,0v-0.1l-0.5,0.1V13l0,0h0.1l0,0c0,0,0,0,0,0.1s0,0.1,0,0.2s0.1,0.2,0.2,0.3
		c0.1,0.1,0.2,0.1,0.3,0.1c0,0,0,0,0.1,0s0.2,0,0.3-0.1c0.1-0.1,0.1-0.1,0.2-0.3l0.1-0.2c0-0.1,0.1-0.1,0.1-0.2l0.1-0.1
		c0.1,0,0.1,0,0.2,0l0.1,0.1c0,0.1,0,0.1-0.1,0.2c-0.1,0.1-0.2,0.1-0.3,0.2l0,0v0.1L24.2,13.4L24.2,13.4z"/>
	<path class="st0" d="M13,24.3c-0.1,0-0.1,0-0.2-0.1c-0.1-0.2-0.1-0.4,0-0.6c0-0.1,0.1-0.1,0.1-0.1c0.1,0,0.1,0,0.2,0.1
		C13.1,23.9,13.1,24.1,13,24.3C13.2,24.3,13.1,24.3,13,24.3z"/>
	<path class="st0" d="M13.8,24.3c-0.1,0-0.2,0-0.2-0.1v-0.5c0-0.1,0-0.2,0.1-0.2l0.1-0.1c0.1,0,0.2,0.1,0.2,0.2v0.5
		c0,0.1,0,0.1,0,0.1C13.8,24.3,13.8,24.3,13.8,24.3z"/>
	<path class="st0" d="M11.8,24.8C11.7,24.8,11.7,24.8,11.8,24.8c-0.2,0-0.2-0.1-0.2-0.1c0-0.1,0-0.1,0.1-0.1h0.1
		c0.1,0,0.1,0,0.2,0.1c0,0,0,0.1,0,0.2C11.9,24.7,11.8,24.8,11.8,24.8z"/>
	<path class="st0" d="M14.9,24.8L14.9,24.8L14.9,24.8c-0.1-0.2,0-0.2,0.1-0.2h0c0.1,0,0.1,0.1,0.1,0.1S15.1,24.7,14.9,24.8
		C15,24.8,14.9,24.8,14.9,24.8z"/>
	<path class="st0" d="M12.1,24.5L12.1,24.5l-0.2-0.1v-0.1c0.2-0.2,0.4-0.3,0.7-0.4l0,0c0.1,0,0.1,0,0.1,0.1s0,0.1-0.1,0.2
		C12.4,24.2,12.2,24.3,12.1,24.5C12.1,24.5,12.1,24.5,12.1,24.5z"/>
	<path class="st0" d="M14.6,24.5C14.6,24.5,14.6,24.5,14.6,24.5c-0.2-0.2-0.4-0.3-0.5-0.3c0,0-0.1,0-0.1-0.1c0-0.1,0-0.2,0-0.2
		c0.3,0,0.5,0.1,0.8,0.4l0,0l0,0L14.6,24.5L14.6,24.5z"/>
	<path class="st0" d="M14.1,25.7L14.1,25.7c-0.3-0.1-0.4-0.2-0.6-0.3c-0.1,0-0.1-0.1-0.1-0.2c0-0.1,0.1-0.2,0.2-0.2h0.1
		c0.1,0.1,0.2,0.1,0.4,0.2c0.1,0.1,0.3,0.1,0.4,0.2c0,0,0.1,0,0.1,0.1c0,0,0,0,0,0.1L14.1,25.7C14.2,25.7,14.2,25.7,14.1,25.7z"/>
	<path class="st0" d="M11.9,25.5L11.9,25.5C11.8,25.5,11.8,25.4,11.9,25.5c-0.1-0.4,0.3-0.6,0.5-0.8c0.1-0.1,0.2-0.1,0.3-0.2
		c0,0,0.1,0,0.1-0.1c0,0,0,0,0.1,0l0.2,0.1l0,0c0,0,0,0,0,0.1c-0.1,0.1-0.2,0.2-0.4,0.3c-0.2,0.1-0.4,0.3-0.5,0.4
		C12.1,25.4,12.1,25.4,11.9,25.5L11.9,25.5z"/>
	<path class="st0" d="M12.7,25.6L12.7,25.6l-0.2-0.1c-0.1-0.1-0.1-0.1,0-0.3c0.1-0.1,0.3-0.2,0.4-0.4c0.2-0.1,0.3-0.2,0.4-0.4
		c0.1-0.1,0.1-0.1,0.2-0.1l0,0h0.1c0.1,0,0.1,0,0.1,0s-0.1,0.1-0.1,0.2c-0.2,0.2-0.4,0.4-0.5,0.4C13,25.2,12.9,25.3,12.7,25.6
		C12.8,25.6,12.7,25.6,12.7,25.6z"/>
	<path class="st0" d="M14.9,25.4L14.9,25.4c-0.2,0-0.2-0.1-0.3-0.1c-0.1-0.1-0.2-0.1-0.3-0.2c-0.1,0-0.1-0.1-0.2-0.1S14,25,13.9,25
		l-0.1-0.1c0-0.1,0-0.1,0.1-0.2c0,0,0-0.1,0.1-0.1c0,0,0,0,0.1,0c0.1,0.1,0.2,0.1,0.3,0.2c0.3,0.1,0.5,0.2,0.7,0.5c0,0,0,0,0,0.1
		l0,0C15,25.3,14.9,25.4,14.9,25.4z"/>
	<path class="st0" d="M10.6,24.2c0.2,0,0.3,0,0.3,0.1c0,0,0,0.1,0,0.2s0,0.1,0,0.1s0,0,0.1,0s0.2-0.1,0.3-0.3c0-0.1,0.1-0.1,0.2-0.2
		c0.1,0,0.1-0.1,0.1-0.2s0-0.1-0.1-0.1c0,0,0,0-0.1,0c-0.1,0.1-0.1,0.1-0.2,0.1h-0.1c-0.2,0-0.3,0-0.4-0.2l-0.2-0.2l-0.1-0.1l0,0
		l0,0v0.1l0.1,0.3v0.1h-0.1c-0.3,0-0.5-0.1-0.7-0.4l-0.1-0.1l0,0l0,0v0.1l0.1,0.2v0.1c0,0,0,0-0.1,0c-0.3,0-0.5-0.1-0.7-0.3H8.8v0.1
		v0.1c0,0,0,0,0,0.1c0,0,0,0-0.1,0H8.3c-0.1,0-0.1,0-0.1,0.1c0,0,0.1,0.1,0.2,0.1c0.4,0,0.7,0,0.9,0c0,0,0,0,0.1,0c0,0,0,0,0,0.1
		l-0.2,0.2l-0.1,0.1c0,0,0,0,0.1,0c0,0,0,0,0.1,0C9.6,24.1,9.7,24,9.8,24s0.1,0,0.2,0c0,0,0.1,0,0.1,0.1v0.1L10,24.3
		c0,0.1,0,0.1,0,0.1l0,0h0.1C10.3,24.3,10.4,24.2,10.6,24.2L10.6,24.2z M10.6,25C10.5,25,10.5,25,10.6,25l-0.1-0.2l0.2-0.3v-0.1
		c0,0,0,0-0.1,0s-0.1,0-0.2,0.1c-0.2,0.2-0.4,0.4-0.6,0.4c-0.1,0-0.1,0-0.2,0c-0.1,0-0.1-0.1-0.1-0.1v-0.1l0.2-0.3
		c0-0.1,0-0.1,0-0.1l0,0l0,0c0,0,0,0-0.1,0l-0.4,0.3c-0.1,0-0.1,0-0.2,0s-0.2,0-0.3-0.1v-0.1l0,0c0.1-0.1,0.2-0.1,0.2-0.2v-0.1
		c0,0,0,0-0.1-0.1c-0.1,0.1-0.3,0.1-0.4,0.1c-0.3,0-0.4,0-0.5-0.1c-0.1,0-0.1,0-0.1-0.1s0.1-0.1,0.2-0.2l0.4-0.2
		c0.1,0,0.1,0,0.1-0.1v-0.1v-0.1c0,0,0-0.1,0.1-0.1c0,0.1,0,0,0.1,0c0.2,0,0.3,0.1,0.5,0.2h0.1v-0.1l-0.1-0.1v-0.1c0,0,0,0,0.1,0
		c0.3,0,0.4,0.1,0.7,0.4c0,0.1,0.1,0.1,0.1,0.1l0,0l0,0v-0.1l-0.1-0.4v-0.1l0.1-0.1h0.1c0.2,0,0.3,0,0.3,0.2l0.3,0.4
		c0,0.1,0.1,0.1,0.1,0.1c0.1,0,0.1,0,0.2-0.1c0-0.1,0.1-0.1,0.1-0.1c0.1,0,0.2,0.1,0.4,0.2c0.1,0.1,0.1,0.1,0.2,0.1c0,0,0.1,0,0.2,0
		c0.2-0.1,0.4-0.2,0.5-0.2c0.1,0,0.2,0,0.3,0c0.1,0,0.1,0.1,0.1,0.1c0,0.1-0.1,0.2-0.3,0.2h-0.1h-0.1c-0.2,0-0.4,0.2-0.6,0.4
		c-0.1,0.1-0.2,0.1-0.2,0.1h-0.1c-0.1,0-0.2,0.1-0.3,0.2C11.1,24.7,10.9,25,10.6,25z"/>
	<path class="st0" d="M7,22.5c0.1,0,0.2,0,0.2,0.1c0,0,0,0,0,0.1s0,0.1,0.1,0.1h0.4h0.1v-0.1c-0.1-0.2-0.1-0.2-0.2-0.2l0,0H7.4
		c-0.2-0.1-0.2-0.4-0.2-0.7v-0.1l0,0c0,0-0.1,0-0.1,0.1V22c0,0.1,0,0.1-0.1,0.1c0,0,0,0-0.1,0c-0.2-0.1-0.3-0.3-0.4-0.5
		c0-0.1,0-0.5-0.1-0.3c-0.1,0-0.2-0.1-0.2-0.3c0-0.1,0-0.1-0.1-0.1c0,0-0.1,0.1,0,0.1c0,0.1,0,0.1-0.1,0.1c0,0-0.1,0-0.1,0.1
		c0,0,0,0,0.1,0.1c0.2,0,0.3,0.2,0.4,0.4v0.1H6.1c0,0,0,0-0.1,0c-0.1,0-0.1,0-0.1,0L6,21.9L6.4,22c0.1,0,0.3,0.1,0.4,0.2
		c0,0.1,0,0.1,0,0.1l0,0c-0.2,0.1-0.4,0.1-0.4,0.1c-0.1,0-0.1,0-0.1,0.1c0,0,0,0.1,0.1,0.1c0,0,0.1,0,0.2,0c0.1,0,0.2,0,0.3,0
		C6.8,22.6,6.9,22.5,7,22.5z M8.3,23.3C8.3,23.3,8.3,23.3,8.3,23.3c-0.4-0.3-0.6-0.4-1-0.4c-0.1,0-0.3,0-0.4,0.1c0,0,0,0-0.1,0V23
		c0-0.1,0-0.1-0.1-0.1c0,0,0,0-0.1,0s-0.1,0-0.2,0c-0.4,0-0.6-0.1-0.8-0.4v-0.1c0,0,0,0,0.1,0l0.5-0.1c0.1,0,0.1,0,0.1-0.1
		c0,0,0-0.1-0.1-0.1c-0.5-0.1-0.9-0.3-1-0.4v-0.1c0,0,0,0,0.1,0h0.4c0.1,0,0.1,0,0.1,0s0-0.1-0.1-0.1l-0.4-0.3l-0.1-0.1
		c0,0,0.1-0.1,0.2-0.1s0.1,0,0.2,0c0.1,0,0.1,0,0.1-0.1c0.1-0.1,0-0.1,0-0.3v-0.1c0-0.1,0-0.2,0.1-0.2c0,0,0.1,0,0.2,0.2
		c0.1,0.1,0.1,0.1,0.2,0.1s0.1-0.1,0.1-0.3c0-0.1,0.1-0.1,0.1-0.1h0.1c0.2,0.1,0.2,0.5,0.2,0.9v0.1c0,0,0,0,0.1,0c0,0,0.1,0,0.1-0.1
		L7,21.2c0-0.1,0.1-0.1,0.1-0.1s0.1,0,0.2,0.1c0.2,0.2,0.2,0.4,0.2,0.9c0,0.1,0,0.1,0,0.1s0,0,0.1,0c0,0,0.1,0,0.1-0.1
		c0,0,0-0.1,0.1-0.1c0,0,0.1,0,0.1,0.1c0.1,0.4,0.3,0.8,0.6,1.1C8.4,23.2,8.4,23.3,8.3,23.3C8.4,23.3,8.4,23.3,8.3,23.3z"/>
	<path class="st0" d="M8.2,22.4C8.1,22.4,8.1,22.4,8.2,22.4l-0.1-0.2c0.1,0,0.1-0.1,0.2-0.1c0.1,0,0.1,0,0.1,0v0.1
		C8.4,22.3,8.3,22.3,8.2,22.4L8.2,22.4L8.2,22.4z"/>
	<path class="st0" d="M7.1,23.6L7.1,23.6C7,23.6,7,23.5,7,23.4s0-0.1,0.1-0.2h0.1c0.1,0,0.2,0.1,0.2,0.2v0.1
		C7.2,23.6,7.2,23.6,7.1,23.6z"/>
	<path class="st0" d="M8.6,23.1c0,0-0.1-0.1-0.2-0.2s-0.2-0.2-0.3-0.2S8,22.6,8,22.5s0.1-0.1,0.1-0.1h0.1c0.1,0,0.2,0,0.3-0.1h0.1
		c0.1,0,0.1,0,0.1,0.1c0,0.1,0,0.1,0,0.1c-0.1,0.1-0.1,0.2-0.1,0.3C8.6,23,8.6,23.1,8.6,23.1L8.6,23.1z"/>
	<path class="st0" d="M7.6,23.7C7.5,23.7,7.5,23.7,7.6,23.7c-0.1-0.2-0.1-0.3-0.2-0.4c0-0.1-0.1-0.2,0-0.2l0.1-0.1h0.1
		c0.1,0.2,0.2,0.2,0.3,0.2c0.1,0,0.2,0,0.3,0.1v0.1H8l0,0C7.9,23.4,7.8,23.4,7.6,23.7C7.7,23.7,7.6,23.7,7.6,23.7z"/>
	<path class="st0" d="M4.4,19.9L4.4,19.9C4.3,20,4.4,20,4.4,19.9C4.5,20,4.6,20,4.7,20h0.1l0,0l0,0V20c-0.1-0.1-0.1-0.2,0.1-0.4
		v-0.1l0,0l0,0c0,0,0,0-0.1,0H4.7c-0.1,0-0.1,0-0.2-0.1s-0.1-0.3,0-0.4c0.1-0.2,0.1-0.4,0.2-0.6v-0.1l0,0c0,0-0.1,0-0.1,0.1
		c-0.1,0.1-0.1,0.2-0.1,0.3C4.5,18.9,4.5,19,4.4,19c0.1,0.1-0.1-0.1-0.1-0.2c-0.1-0.2-0.1-0.3,0-0.4v-0.1l0,0c0,0-0.1,0-0.1,0.1
		c-0.1,0.1-0.1,0.1-0.1,0.1S4,18.3,3.9,18.3c0,0,0,0-0.1,0c0,0-0.1,0-0.1,0.1v0.1l0,0c0.1,0.1,0.2,0.2,0.2,0.2l0,0
		c-0.1,0-0.1,0-0.2,0l0,0H3.7c0,0,0,0.1,0.1,0.1c0.4,0,0.6,0.4,0.6,0.4s-0.1,0.1-0.1,0.1c-0.1,0-0.2,0-0.3,0l0,0c0,0-0.1,0-0.1,0.1
		c0,0,0,0.1,0.1,0.1c0.4,0,0.6,0.3,0.6,0.4C4.6,19.8,4.5,19.9,4.4,19.9L4.4,19.9z M5.6,20.9L5.6,20.9c-0.3-0.1-0.5-0.3-0.7-0.4
		c-0.1-0.2-0.3-0.3-0.4-0.3c-0.4-0.1-0.5-0.2-0.6-0.4v-0.1c0,0,0,0,0.1,0h0.2c0.1,0,0.1,0,0.1-0.1c0,0,0-0.1-0.1-0.1
		c-0.5-0.1-0.7-0.3-0.8-0.4c0-0.1,0-0.1,0-0.1s0,0,0.1,0h0.1c0,0,0,0,0.1,0h0.1c0,0,0,0-0.1-0.1c-0.2-0.1-0.3-0.2-0.4-0.3
		c0-0.1,0-0.1,0-0.2l0.1-0.1h0.1h0.1h0.1c0,0,0-0.1-0.1-0.2c0-0.1,0-0.1,0-0.1h0.1h0.1c0.1,0,0.1,0,0.2-0.1h0.1c0,0,0.1,0,0.1,0.1
		c0,0.1,0.1,0.2,0.2,0.2c0,0,0.1,0,0.1-0.1c0-0.3,0-0.4,0.1-0.4h0.1c0.1,0.1,0.1,0.3,0,0.5c0,0.1,0,0.1,0,0.1l0,0l0,0
		c0.1,0,0.1-0.1,0.2-0.2c0-0.3,0.1-0.4,0.2-0.4h0.1c0.1,0,0.1,0.1,0.2,0.1c0.1,0.2,0.1,0.4-0.1,0.8c0,0.1,0,0.1,0,0.2c0,0,0,0,0.1,0
		c0,0,0.1,0,0.1-0.1s0.1-0.1,0.1-0.1s0,0,0.1,0c0,0.1,0.1,0.2,0,0.4c-0.3,0.6-0.2,1.1,0.4,1.4C5.7,20.8,5.8,20.8,5.6,20.9
		C5.7,20.9,5.7,20.9,5.6,20.9z"/>
	<path class="st0" d="M5.5,20.6L5.5,20.6C5.4,20.2,5.4,20,5.4,20c0-0.1-0.1-0.1,0-0.2l0.1-0.1c0,0,0,0,0.1,0
		c0.1,0.1,0.3,0.1,0.4,0.1C6,19.9,6,20,6,20S6,20,5.9,20c-0.2,0.1-0.3,0.1-0.3,0.4C5.6,20.5,5.6,20.6,5.5,20.6z"/>
	<path class="st0" d="M5.7,19.7L5.7,19.7c-0.2,0-0.2-0.1-0.2-0.1c0-0.1,0-0.1,0.1-0.2h0.1c0.1,0,0.1,0,0.1,0S5.9,19.5,5.7,19.7
		C5.9,19.7,5.8,19.7,5.7,19.7z"/>
	<path class="st0" d="M4.4,20.8c-0.1,0-0.1,0-0.2-0.1c0-0.1,0-0.2,0-0.2l0.1-0.1c0.1,0,0.1,0,0.2,0.1C4.5,20.7,4.5,20.7,4.4,20.8
		C4.5,20.8,4.5,20.8,4.4,20.8z"/>
	<path class="st0" d="M4.7,21.1C4.6,21.1,4.6,21.1,4.7,21.1L4.7,21.1c-0.1-0.3,0-0.4,0-0.4s0.1-0.2,0.1-0.2c0.1,0,0.1,0,0.1,0.1
		C5,20.7,5,20.8,5.2,20.8c0.2,0.1,0.2,0.2,0.2,0.2s0,0-0.1,0c0,0,0,0-0.1,0S5,20.8,5,20.8c-0.1,0-0.1,0-0.1,0.1
		C4.8,21,4.7,21.1,4.7,21.1z"/>
	<path class="st0" d="M2.9,15.5C2.9,15.5,2.9,15.5,2.9,15.5C3,15.8,3.2,16,3.1,16.1c0,0,0,0.1-0.1,0.1c0,0-0.1,0-0.1,0.1v0.1L3,16.5
		c0.1,0,0.2,0.1,0.1,0.2v0.1c0.3,0.1,0.3,0.2,0.4,0.2c0,0,0.1,0,0.1-0.1s0-0.1-0.1-0.2c-0.1,0-0.1,0-0.1-0.1c0,0,0-0.1,0.1-0.1
		c0.2-0.2,0.2-0.3,0.2-0.3l0,0l0,0c0,0,0,0-0.1,0c0,0,0,0-0.1,0c-0.1,0-0.1,0-0.1-0.2s0-0.3,0.1-0.3c0.2-0.1,0.3-0.2,0.2-0.2
		c0,0,0,0-0.1,0c0,0,0,0-0.1,0l0,0c0,0,0,0,0-0.1c0-0.2,0.1-0.3,0.2-0.4c0-0.1,0.1-0.1,0.1-0.1H3.7c-0.1,0-0.2,0.1-0.3,0.1
		c0,0.1-0.1,0.1-0.1,0.2v0.4c0,0.1,0,0.1-0.1,0.1c0,0,0,0-0.1,0C3,15.6,3,15.5,2.9,15.5L2.9,15.5L2.9,15.5z M3.8,17.8L3.8,17.8
		c-0.2-0.1-0.2-0.2-0.3-0.3c-0.1-0.4-0.2-0.5-0.3-0.6c-0.2-0.1-0.2-0.2-0.2-0.3c0-0.2-0.1-0.3-0.2-0.3c-0.3,0-0.4-0.1-0.4-0.3
		c0-0.2,0-0.2,0-0.3c0,0,0,0,0.1,0c0,0,0.1,0,0.2,0.1c0,0,0,0,0.1,0h0.1c0,0,0-0.1,0-0.2l-0.2-0.3c-0.1-0.2-0.1-0.3,0-0.4
		C2.9,15,2.9,15,2.9,15l0,0c0.1,0.2,0.2,0.2,0.2,0.2c0.1,0,0.1-0.1,0.1-0.2c0-0.3,0.1-0.5,0.3-0.5h0.1c0,0,0.1,0.1,0.2,0.1
		s0.2-0.1,0.3-0.2h0.1c0,0,0.1,0,0.1,0.1c0.1,0.2,0,0.4-0.2,0.5c-0.1,0.1-0.1,0.1-0.1,0.2c0,0,0,0,0.1,0c0,0,0.1,0,0.3-0.1h0.1
		c0,0,0.1,0,0.1,0.1c0,0.2-0.1,0.4-0.5,0.6c-0.1,0-0.1,0.1-0.1,0.1s0,0.1,0.1,0.1H4c0.1-0.1,0.2-0.1,0.2-0.1c0.1,0,0.1,0,0.1,0.1
		c0,0.1,0,0.2-0.2,0.4C4,16.5,4,16.6,3.9,16.6c-0.1,0-0.1,0-0.1,0.1v0.1c0.1,0.1,0.1,0.1,0,0.2C3.7,17.1,3.7,17.5,3.8,17.8
		C3.9,17.7,3.9,17.7,3.8,17.8L3.8,17.8z"/>
	<path class="st0" d="M4.4,16.8c0,0-0.1,0-0.2,0s-0.1-0.1-0.1-0.2c0-0.1,0.1-0.1,0.1-0.1c0.1,0,0.2,0,0.2,0.1
		C4.4,16.6,4.4,16.7,4.4,16.8C4.5,16.8,4.5,16.8,4.4,16.8z"/>
	<path class="st0" d="M2.7,17.4L2.7,17.4c-0.1,0-0.2-0.1-0.1-0.2c0-0.1,0.1-0.1,0.1-0.2c0,0,0,0,0.1,0c0.1,0,0.1,0,0.1,0
		s0,0.1,0,0.2C2.8,17.3,2.8,17.4,2.7,17.4z"/>
	<path class="st0" d="M3.5,17.7C3.4,17.7,3.4,17.7,3.5,17.7c-0.2-0.1-0.3-0.2-0.4-0.2c0,0-0.1,0-0.1,0.1H2.9c-0.1,0-0.1,0-0.1,0
		v-0.1c0.1-0.1,0.1-0.2,0.2-0.4c0-0.1,0.1-0.1,0.1-0.1c0.1,0,0.2,0.1,0.2,0.1v0.2L3.5,17.7C3.5,17.6,3.5,17.6,3.5,17.7L3.5,17.7z"/>
	<path class="st0" d="M4,17.6L4,17.6c-0.1-0.2-0.1-0.3-0.1-0.3c0-0.1,0-0.2,0-0.3c0,0,0-0.1,0-0.2L4,16.8l0,0
		c0.2,0.1,0.3,0.1,0.4,0.2c0.1,0,0.1,0.1,0.1,0.2s-0.1,0.1-0.2,0.1C4.3,17.3,4.2,17.4,4,17.6C4,17.5,4,17.6,4,17.6z"/>
	<path class="st0" d="M18.5,22.6C18.4,22.6,18.4,22.6,18.5,22.6L18.5,22.6c-0.1-0.2-0.1-0.3-0.2-0.3c-0.1-0.1-0.1-0.2-0.1-0.3
		c0-0.1,0.1-0.2,0.3-0.2c0.1,0,0.2,0,0.2,0.1c0.1,0.1,0.1,0.2,0,0.3c-0.1,0-0.1,0.1,0,0.2c0,0.1,0,0.1,0,0.1
		C18.6,22.6,18.6,22.6,18.5,22.6z"/>
	<path class="st0" d="M21.3,20.2C21.3,20.2,21.2,20.2,21.3,20.2C21.2,20,21.1,20,21,20c-0.1-0.1-0.2-0.1-0.2-0.3
		c0-0.1,0.2-0.3,0.3-0.3c0.1,0,0.2,0.1,0.3,0.3c0,0.1,0,0.2,0.1,0.2s0.1,0.1,0.1,0.2C21.3,20.1,21.3,20.2,21.3,20.2z"/>
	<path class="st0" d="M22.7,17C22.6,17,22.6,17,22.7,17c-0.1-0.2-0.2-0.2-0.3-0.2c0,0,0,0-0.1,0c-0.2,0-0.2-0.2-0.2-0.3
		s0.1-0.3,0.3-0.3c0.1,0,0.2,0.1,0.3,0.2l0,0c0,0.1,0,0.1,0.1,0.2c0.1,0,0.1,0.1,0.1,0.2C22.9,16.9,22.8,17,22.7,17z"/>
	<path class="st0" d="M19.2,23.7c-0.1,0-0.2-0.1-0.3-0.2c0-0.1-0.1-0.2-0.1-0.2c-0.1,0-0.1-0.1-0.1-0.1c0-0.1,0.1-0.2,0.2-0.2
		c0,0,0.1,0,0.1,0.1s0.1,0.1,0.2,0.1h0.1c0.2,0,0.3,0.1,0.3,0.2C19.5,23.5,19.3,23.7,19.2,23.7z"/>
	<path class="st0" d="M22.2,20.8c-0.1,0-0.1,0-0.2-0.1c0-0.1-0.1-0.1-0.2-0.1h-0.1l0,0h-0.1v-0.1c0-0.1,0.1-0.2,0.2-0.2H22
		c0,0,0,0,0.1,0s0.1,0,0.2-0.1c0.1,0,0.1,0,0.2-0.1c0.1,0,0.2,0,0.2,0.1c0.1,0.1,0.1,0.2,0,0.3C22.4,20.7,22.3,20.8,22.2,20.8z"/>
	<path class="st0" d="M23.9,17.3L23.9,17.3c-0.1,0-0.2-0.1-0.3,0h-0.1c0,0,0,0-0.1,0c-0.1,0-0.2-0.1-0.2-0.1v-0.1l0.1-0.1l0,0h0.1
		c0.1,0,0.1,0,0.2-0.1s0.1-0.1,0.2-0.1s0.1,0,0.2,0.1C24,17,24,17.2,23.9,17.3C23.9,17.2,23.9,17.3,23.9,17.3z"/>
	<path class="st0" d="M16,24.5c-0.1,0-0.2,0-0.3,0c-0.3-0.1-0.5-0.3-0.7-0.4c-0.4-0.2-0.7-0.3-1-0.3c-0.1,0-0.1-0.1-0.1-0.1
		c0-0.1,0-0.1,0.1-0.1c0.4,0.1,0.7,0.2,1.2,0.4c0.1,0,0.2,0,0.2,0c0.1,0,0.2,0,0.3-0.1l0.2-0.1c0.7-0.4,1.3-0.6,2.1-0.6
		c0.1,0,0.2,0,0.3,0c0.1,0,0.1,0,0.1,0s0,0.1-0.2,0.1c0,0,0,0-0.1,0c-0.1,0-0.3,0.1-0.4,0.1c-0.2,0.1-0.4,0.2-0.5,0.3
		c-0.4,0.2-0.6,0.3-0.8,0.4h-0.1c-0.3,0-0.4,0.1-0.4,0.2s0.1,0.1,0.2,0.1c0.1,0,0.1,0,0.2,0c0.3,0,0.5-0.2,0.8-0.3
		c0.4-0.3,0.9-0.5,1.3-0.6h0.1h0.1c0,0,0,0-0.1,0.1c-0.4,0.4-0.9,0.6-1.4,0.8c-0.1,0-0.3,0.1-0.4,0.2C16.3,24.4,16.2,24.5,16,24.5z"
		/>
	<path class="st0" d="M16.6,25c-0.4,0-0.7-0.1-0.9-0.3c0.1,0,0.2,0,0.4,0c0.4,0,0.8-0.3,1.2-0.4c0.3-0.2,0.5-0.3,0.7-0.3
		c0.1,0,0.2,0,0.2,0s0,0,0,0.1l-1.3,0.5c-0.1,0-0.1,0.1-0.1,0.1s0,0.1,0.1,0c0.4-0.1,0.6-0.3,0.9-0.4c0.3-0.1,0.4-0.3,0.6-0.3h0.1
		h0.1c0,0,0,0-0.1,0.1c-0.5,0.3-1.1,0.5-1.7,0.7C16.7,24.9,16.7,25,16.6,25z"/>
	<path class="st0" d="M15.5,23.8c-0.1,0-0.3,0-0.4-0.1l0,0c0.3,0,0.4-0.2,0.7-0.4c0.1-0.1,0.3-0.3,0.4-0.4c0.1,0,0.1-0.1,0.2-0.1
		s0.2,0,0.3-0.1c0.2-0.1,0.4-0.2,0.4-0.2s0.2,0,0.3,0.1s0.1,0.1,0.1,0.1s0,0-0.1,0h-0.1c-0.2,0-0.4,0.1-0.5,0.3l-0.4,0.2
		c-0.1,0-0.3,0.1-0.3,0.2c0,0,0,0,0.1,0l0,0l0.3-0.1c0.1,0,0.2-0.1,0.3-0.1c0.1-0.1,0.2-0.1,0.4-0.1c0.1,0,0.3-0.1,0.4-0.1
		s0.1,0,0.2-0.1l0,0c0.1,0,0.1,0,0.1,0.1c0,0,0,0.1-0.1,0.1s-0.2,0.1-0.3,0.1c-0.2,0-0.3,0.1-0.4,0.1c-0.4,0.2-0.9,0.4-1.3,0.5
		C15.6,23.8,15.5,23.8,15.5,23.8z"/>
	<path class="st0" d="M18.6,23.1C18.5,23.1,18.5,23.1,18.6,23.1l-0.1-0.2c0-0.1,0.1-0.2,0.3-0.3c0.3-0.2,0.5-0.4,0.8-0.8
		c0.2-0.3,0.5-0.5,1-0.9c0.2-0.1,0.4-0.3,0.5-0.4c0.1-0.1,0.1-0.1,0.1-0.1s0,0,0,0.1c-0.1,0.3-0.3,0.4-0.6,0.7c-0.4,0.3-0.9,0.7-1,1
		c0,0.1-0.1,0.1,0,0.1l0,0l0,0c0,0,0.1,0,0.2-0.1c0.3-0.4,0.5-0.6,0.8-0.8c0.4-0.3,0.5-0.5,0.7-0.8c0-0.1,0-0.1,0-0.1s0,0,0,0.2
		c0,0.3-0.2,0.5-0.5,0.8c-0.4,0.4-0.9,0.7-1.3,0.9c-0.4,0.1-0.7,0.3-0.9,0.4C18.7,23,18.6,23.1,18.6,23.1z"/>
	<path class="st0" d="M20.1,22.7c-0.1,0-0.2,0-0.3,0c-0.1,0-0.2,0-0.3,0s-0.1,0-0.1,0s0-0.1,0.1-0.1c0.9-0.3,1.4-0.9,1.9-1.4
		l0.1-0.1h0.1c0,0,0,0,0,0.1c-0.3,0.4-0.6,0.7-1,1l-0.3,0.2c-0.1,0-0.1,0.1-0.1,0.2c0,0,0,0,0.1,0c0,0,0,0,0.1,0
		c0.4-0.4,0.9-0.7,1.2-1.2l0,0c0,0,0,0,0,0.1c0,0.2-0.1,0.4-0.3,0.5c-0.4,0.4-0.6,0.6-0.8,0.7C20.4,22.7,20.3,22.7,20.1,22.7z"/>
	<path class="st0" d="M19,22.3L19,22.3C18.9,22.3,18.9,22.2,19,22.3c0-0.2,0.1-0.4,0.1-0.6c0.1-0.3,0.2-0.4,0.4-0.5
		c0.4-0.4,0.6-0.5,0.9-0.8l0,0c0,0,0,0,0,0.1c0,0.1-0.1,0.3-0.3,0.4c-0.1,0.1-0.3,0.3-0.4,0.4l-0.4,0.3c0,0.1,0,0.1,0,0.1l0,0l0,0
		c0,0,0.1,0,0.2-0.1c0.2-0.3,0.4-0.5,0.6-0.7c0.1-0.1,0.1-0.1,0.1-0.1s0,0,0,0.1s-0.1,0.3-0.4,0.4c-0.2,0.2-0.4,0.4-0.5,0.6
		C19.3,22,19.2,22.2,19,22.3z"/>
	<path class="st0" d="M21.4,20.5L21.4,20.5c-0.1-0.1-0.1-0.1-0.1-0.2c0.2-0.2,0.4-0.5,0.4-1.1l0.1-0.2c0.2-0.4,0.4-1.1,0.7-1.5
		c0.1-0.1,0.1-0.1,0.1-0.1s0,0,0,0.1c-0.1,0.4-0.3,0.7-0.4,1c-0.1,0.3-0.3,0.5-0.4,0.7c0,0.1,0,0.1,0,0.1l0,0l0,0c0,0,0.1,0,0.1-0.1
		c0.3-0.3,0.4-0.7,0.5-1.2c0.1-0.3,0.2-0.6,0.4-0.9c0.1-0.1,0.1-0.1,0.1-0.1s0,0,0,0.2c0,0.5-0.2,1.2-0.6,1.9
		c-0.1,0.1-0.2,0.2-0.3,0.3c-0.1,0.1-0.2,0.2-0.3,0.3c-0.1,0.3-0.3,0.4-0.4,0.6C21.5,20.5,21.5,20.5,21.4,20.5z"/>
	<path class="st0" d="M21.6,19.6L21.6,19.6c-0.5-0.7-0.1-1.5,0.4-2.1c0.1-0.1,0.1-0.1,0.1-0.1s0,0,0,0.1c-0.1,0.2-0.2,0.3-0.2,0.4
		c-0.1,0.3-0.1,0.4-0.2,0.4c0,0.1-0.1,0.1-0.1,0.2c-0.1,0.1-0.1,0.3-0.1,0.3l0,0l0,0c0,0,0.1,0,0.1-0.1c0.2-0.3,0.3-0.5,0.4-0.7
		c0.1-0.3,0.2-0.4,0.3-0.6c0-0.1,0.1-0.1,0.1-0.1l0,0v0.1c-0.1,0.3-0.3,0.6-0.5,1.1c-0.1,0.2-0.2,0.4-0.2,0.5
		C21.7,19.5,21.7,19.6,21.6,19.6z"/>
	<path class="st0" d="M22.2,19.9L22.2,19.9C22.2,19.9,22.2,19.9,22.2,19.9c0.4-0.4,0.5-0.7,0.7-1.1c0.1-0.4,0.3-0.7,0.5-0.9
		c0.1,0,0.1-0.1,0.1-0.1s0,0-0.1,0.1c-0.2,0.2-0.3,0.4-0.4,0.6S23,19,22.8,19.1c-0.1,0.1-0.1,0.1-0.1,0.1l0,0l0,0h0.1
		c0.1-0.1,0.2-0.4,0.3-0.6c0.1-0.3,0.3-0.6,0.4-0.9c0.1,0,0.1-0.1,0.1-0.1s0,0,0,0.1c-0.1,0.2-0.1,0.4-0.2,0.5
		c-0.1,0.4-0.3,0.6-0.4,1c-0.1,0.1-0.2,0.2-0.3,0.2c-0.1,0-0.1,0.1-0.2,0.1s-0.2,0-0.2,0.1C22.3,19.9,22.2,19.9,22.2,19.9z"/>
	<path class="st0" d="M22.9,16.3L22.9,16.3c-0.5-0.4-0.6-0.9-0.4-1.7v-0.1l0,0c0.1,0.2,0.1,0.3,0.1,0.4s-0.1,0.4,0,0.9
		c0,0.1,0.1,0.1,0.1,0.1l0,0l0,0v-0.1c-0.1-0.3-0.1-0.5-0.1-0.7c0-0.1,0-0.2,0-0.2c0-0.1,0-0.1,0-0.1l0,0c0,0,0,0,0.1,0
		c0.1,0.1,0.1,0.2,0.1,0.5c0,0.2,0,0.4,0,0.5C23,16,23,16.2,22.9,16.3C23,16.3,22.9,16.3,22.9,16.3z"/>
	<path class="st0" d="M23,17.2L23,17.2C22.9,17.1,22.9,17.1,23,17.2c-0.1-0.3,0-0.4,0-0.6c0.1-0.3,0.1-0.4,0.1-0.6
		c0-0.8,0.1-1.3,0.3-1.5l0.1-0.1c0,0,0,0,0.1,0.1c0,0.2,0,0.4-0.1,0.6c-0.1,0.3-0.1,0.5-0.1,0.8v0.1c0,0,0,0,0.1,0
		c0,0,0.1,0,0.1-0.2c0-0.3,0-0.6,0.1-0.8s0.1-0.4,0.1-0.5c0-0.1,0-0.1,0-0.1s0,0,0.1,0c0.1,0.1,0.1,0.1,0.1,0.4c0,0.4,0,0.7-0.2,1
		c-0.1,0.2-0.2,0.3-0.3,0.4s-0.2,0.3-0.3,0.4c0,0.1-0.1,0.2-0.1,0.4C23,17.2,23,17.2,23,17.2z"/>
	<path class="st0" d="M23.3,16.7L23.3,16.7C23.3,16.7,23.3,16.7,23.3,16.7l0.4-0.8c0.1-0.1,0.2-0.4,0.2-1.1c0-0.1,0-0.1,0-0.1l0,0
		l0,0c0.1,0,0.1,0.1,0.1,0.3l-0.1,0.5l-0.1,0.4V16l0,0l0,0c0,0,0.1,0,0.1-0.1c0-0.2,0-0.4,0.1-0.4c0.1-0.3,0-0.5,0-0.7v-0.1
		c0,0,0,0,0.1,0.1c0.2,0.2,0.2,0.4,0.1,0.5c0,0.1-0.1,0.3,0,0.4c0,0.3-0.1,0.4-0.2,0.4L23.3,16.7C23.4,16.6,23.4,16.7,23.3,16.7z"/>
	<path class="st0" d="M31.6,8c-0.2-0.1-0.4-0.2-0.8-0.2c-0.3,0-0.5,0.1-0.6,0.2c-0.3,0.4-0.4,0.9-0.4,1.5c0,1,0.5,1.6,1.3,1.6
		c0.3,0,0.4,0,0.5-0.1c0-0.4,0-0.8-0.1-0.9C31.4,10,31.2,9.9,31,9.9l0.1-0.4h2.1v0.4L32.7,10c0,0.2-0.1,0.6-0.1,1.1v0.1
		c-0.4,0.3-1.1,0.5-1.8,0.5c-1.4,0-2.4-0.8-2.4-2.1s1.2-2.3,2.6-2.3c0.6,0,1.2,0.2,1.6,0.4l0.1,0.2c-0.1,0.4-0.2,0.9-0.3,1.1
		c-0.2,0-0.5,0-0.6,0C31.7,8.4,31.6,8.2,31.6,8z"/>
	<path class="st0" d="M33.8,9.6c0-1.4,1.1-2.4,2.3-2.4c1.3,0,2.1,0.8,2.1,2.1c0,1.4-1.1,2.4-2.3,2.4C34.7,11.7,33.8,10.9,33.8,9.6z
		 M36.9,10.8c0.1-0.3,0.3-0.7,0.3-1.3c0-1.1-0.4-1.7-1.2-1.7c-0.3,0-0.5,0.1-0.7,0.2c-0.3,0.4-0.4,0.8-0.4,1.4c0,1,0.4,1.6,1.2,1.6
		C36.5,11,36.7,10.9,36.9,10.8z"/>
	<path class="st0" d="M39.2,11c0-0.2,0.1-0.5,0.1-1.1V8.9c0-0.4,0-0.9-0.1-1c-0.1-0.1-0.3-0.2-0.5-0.3l0.1-0.4h1c0.2,0,0.9,0,1.2,0
		c1.1,0,1.7,0.4,1.7,1.1c0,0.4-0.4,0.8-0.7,1c0.5,0.1,0.9,0.4,0.9,1.1c0,0.8-0.8,1.3-1.7,1.3c-0.4,0-1-0.1-1.3-0.1h-1.1l-0.1-0.4
		L39.2,11z M40.4,9.1h0.9c0.2-0.1,0.4-0.4,0.4-0.7c0-0.3-0.1-0.4-0.2-0.5c-0.1-0.1-0.4-0.2-0.5-0.2c-0.1,0-0.3,0-0.4,0.1h-0.1
		c0,0.2-0.1,0.5-0.1,1.1L40.4,9.1L40.4,9.1z M40.5,10.9C40.6,11,40.8,11,41,11c0.2,0,0.3,0,0.4-0.1c0.2-0.1,0.3-0.4,0.3-0.6
		c0-0.4-0.3-0.6-0.7-0.6h-0.7v0.2C40.4,10.3,40.4,10.8,40.5,10.9L40.5,10.9z"/>
	<path class="st0" d="M44,11c0-0.2,0.1-0.5,0.1-1.1V8.9c0-0.4,0-0.9-0.1-1c-0.1-0.1-0.3-0.2-0.5-0.3l0.1-0.4h2.1l0.1,0.4l-0.5,0.2
		C45.1,8,45,8.3,45,8.9v1.1c0,0.4,0,0.9,0.1,1c0.1,0.1,0.3,0.2,0.5,0.3l-0.1,0.4h-2.1l-0.1-0.4L44,11z"/>
	<path class="st0" d="M47.1,11c0-0.2,0.1-0.5,0.1-1.1V8.9c0-0.4,0-0.9-0.1-1c-0.1-0.1-0.3-0.2-0.5-0.3l0.1-0.4h1.7
		c0.8,0,1.4,0,1.9-0.1c0.1,0.1,0.2,0.2,0.2,0.3c-0.1,0.3-0.2,0.8-0.2,1.1c-0.2,0-0.4,0-0.6,0l-0.2-0.7c-0.2,0-0.4-0.1-0.6-0.1
		s-0.4,0-0.5,0c0,0.2,0,0.6,0,1.1v0.4l1.3-0.1l0.1,0.2c0,0.2-0.1,0.4-0.1,0.5l-1.3-0.1v0.2c0,0.4,0,0.9,0.1,1l0,0
		c0.1,0.1,0.4,0.1,0.5,0.1c0.2,0,0.4,0,0.6-0.1l0.2-0.7c0.2,0,0.5,0,0.7,0c0,0.4,0,0.8,0,1.3h-3.8L46.5,11H47.1z"/>
	<path class="st0" d="M51.7,11c0-0.2,0.1-0.5,0.1-1.1V8.9c0-0.4,0-0.9-0.1-1c-0.1-0.1-0.3-0.2-0.5-0.3l0.1-0.4h1.1
		c0.2,0,0.9,0,1.3,0c1.1,0,1.7,0.4,1.7,1.2c0,0.5-0.4,0.9-0.8,1.2c0.3,0.6,0.6,1.2,0.9,1.4l0.4,0.2l-0.1,0.4c-0.4,0-0.8,0-1.3,0
		c-0.4-0.4-0.7-1-1.1-1.7h-0.6v0.1c0,0.4,0,0.9,0.1,1c0.1,0.1,0.3,0.2,0.5,0.3l-0.1,0.4h-2.1l-0.1-0.4L51.7,11z M52.9,9.2h0.9
		c0.2-0.2,0.4-0.4,0.4-0.8c0-0.3-0.1-0.4-0.2-0.5c-0.1-0.1-0.3-0.2-0.5-0.2c-0.2,0-0.4,0-0.5,0.1c0,0.2-0.1,0.5-0.1,1.1L52.9,9.2
		L52.9,9.2z"/>
	<path class="st0" d="M56.6,7.9c-0.1-0.1-0.3-0.2-0.5-0.3l0.1-0.4c0.4,0,1,0,1.4,0c0.4,0.6,1.3,1.9,2,2.7c0-1.2-0.1-1.9-0.1-2.1
		c-0.1-0.1-0.4-0.2-0.6-0.3L59,7.3h1.9l0.1,0.4l-0.5,0.2c-0.1,0.4-0.1,1.7-0.1,3.7l-0.9,0.2l-0.5-0.8c-0.4-0.6-1-1.3-1.4-1.9
		c0,1.2,0.1,1.9,0.1,2.1c0.1,0.1,0.4,0.2,0.7,0.3l-0.1,0.4h-2l-0.1-0.4l0.5-0.2c0-0.2,0.1-0.7,0.1-1.6C56.7,8.6,56.6,8.1,56.6,7.9z"
		/>
	<path class="st0" d="M61.3,9.6c0-1.4,1.1-2.4,2.4-2.4c1.3,0,2.1,0.8,2.1,2.1c0,1.4-1.1,2.4-2.3,2.4C62.2,11.7,61.3,10.9,61.3,9.6z
		 M64.4,10.8c0.1-0.3,0.3-0.7,0.3-1.3c0-1.1-0.4-1.7-1.2-1.7c-0.3,0-0.5,0.1-0.7,0.2c-0.3,0.4-0.4,0.8-0.4,1.4c0,1,0.4,1.6,1.2,1.6
		C64,11,64.2,10.9,64.4,10.8z"/>
	<path class="st0" d="M68.7,11c0-0.2,0.1-0.5,0.1-1.1V8.9c0-0.4,0-0.9-0.1-1c-0.1-0.1-0.3-0.2-0.5-0.3l0.1-0.4h1c0.3,0,0.9,0,1.3,0
		c1.8,0,2.4,1,2.4,2.1c0,1.5-1.1,2.2-2.1,2.2c-0.4,0-1-0.1-1.3-0.1h-1l-0.1-0.4L68.7,11z M70,11c0.1,0.1,0.6,0.2,1,0
		c0.4-0.3,0.7-0.8,0.7-1.6c0-0.6-0.3-1.2-0.4-1.3C71,8,70.7,7.9,70.4,7.9c-0.2,0-0.4,0-0.5,0c0,0.2-0.1,0.5-0.1,1.1V10
		C69.9,10.3,69.9,10.8,70,11C70,10.9,70,10.9,70,11z"/>
	<path class="st0" d="M73.8,11c0-0.2,0.1-0.5,0.1-1.1V8.9c0-0.4,0-0.9-0.1-1c-0.1-0.1-0.3-0.2-0.5-0.3l0.1-0.4h1.7
		c0.8,0,1.4,0,1.9-0.1c0.1,0.1,0.2,0.2,0.2,0.3c-0.1,0.3-0.2,0.8-0.2,1.1c-0.2,0-0.4,0-0.6,0l-0.2-0.7c-0.2,0-0.4-0.1-0.6-0.1
		c-0.2,0-0.4,0-0.5,0c0,0.2,0,0.6,0,1.1v0.4l1.3-0.1l0.1,0.2c0,0.2-0.1,0.4-0.1,0.5h-1.4v0.2c0,0.4,0,0.9,0.1,1l0,0
		c0.1,0.1,0.4,0.1,0.5,0.1s0.4,0,0.6-0.1l0.2-0.7c0.2,0,0.5,0,0.7,0c0,0.4,0,0.8,0,1.3h-3.8l-0.1-0.4L73.8,11z"/>
	<path class="st0" d="M31.6,22h-3l-0.1-0.6l0.9-0.3c0.1-0.5,0.2-1.8,0.2-2.9c0.1-1.3,0.1-2,0-2.1s-0.5-0.4-0.8-0.4l0.1-0.6h3.3
		c0.3,1,1,2.9,1.5,4.2c0.5-1.4,1.3-3.3,1.5-4.2h3.1l0.1,0.6L37.5,16l0.2,3.3c0.1,1,0.1,1.4,0.3,1.6c0.1,0.2,0.5,0.4,0.8,0.4L38.7,22
		h-3.4l-0.1-0.6l1-0.3c0-0.5-0.2-2.9-0.2-4.6l-1.9,4.8c-0.4,0-1,0-1.4,0c-0.4-1-1.3-3.3-2-4.7l-0.1,2.1c0,1.6-0.1,2.1,0,2.3
		c0.1,0.3,0.6,0.4,1.1,0.4L31.6,22z"/>
	<path class="st0" d="M41.2,21.1c0-0.3,0.1-1,0.1-1.7v-1.8c0-0.5,0-1.4-0.2-1.6c-0.1-0.2-0.5-0.4-0.8-0.4l0.1-0.6h2.8
		c1.3,0,2.3,0,3.1-0.1c0.1,0.2,0.3,0.4,0.4,0.4c-0.1,0.5-0.3,1.3-0.4,1.7c-0.3,0-0.8,0-1.1-0.1l-0.3-1.2c-0.3-0.1-0.7-0.1-1.1-0.1
		c-0.4,0-0.6,0-0.9,0c0,0.4-0.1,1-0.1,1.8V18l2.1-0.1l0.2,0.3c0,0.3-0.1,0.5-0.2,0.8l-2.1-0.1v0.4c0,0.5,0,1.4,0.2,1.6
		c0,0,0,0,0.1,0.1c0.2,0.1,0.5,0.2,0.9,0.2s0.7,0,1-0.1l0.4-1.3c0.3,0,0.9,0,1.2,0.1c0,0.6,0,1.3,0,2.1h-6.2l-0.1-0.6L41.2,21.1z
		 M44.8,12.1c0.3,0.3,0.5,0.8,0.7,1.3l-0.2,0.4l-2.9,0.7l-0.2-0.1l-0.2-0.5C43,13.3,44,12.5,44.8,12.1z"/>
	<path class="st0" d="M48.7,21c0.5-0.5,1.3-1.5,2.1-2.7c-0.8-1.1-1.5-2-1.9-2.4c-0.3-0.1-0.5-0.3-0.8-0.4l0.1-0.6c0.8,0,1.8,0,2.4,0
		c0.4,0.7,1,1.7,1.7,2.7c0.4-0.5,0.6-1.2,0.9-1.6c-0.2-0.1-0.6-0.3-1-0.4l0.1-0.6h3.1l0.1,0.6c-0.2,0.1-0.5,0.3-0.7,0.4
		c-0.6,0.5-1.3,1.5-2,2.5c0.8,1.1,1.5,2.1,2,2.5c0.3,0.1,0.5,0.3,0.8,0.4L55.5,22c-0.8,0-1.7,0-2.4,0c-0.4-0.7-1.1-1.8-1.8-2.8
		c-0.4,0.6-0.7,1.3-1,1.7c0.3,0.1,0.7,0.3,1.2,0.4l-0.1,0.6h-3.3L48,21.3C48.2,21.3,48.4,21.1,48.7,21z"/>
	<path class="st0" d="M57.8,21.1c0-0.3,0.1-1,0.1-1.7v-1.8c0-0.5,0-1.4-0.2-1.6c-0.1-0.2-0.5-0.4-0.8-0.4l0.1-0.6h3.4l0.1,0.6
		l-0.9,0.3c0,0.3-0.1,1-0.1,1.7v1.8c0,0.5,0,1.4,0.2,1.6c0.1,0.2,0.5,0.4,0.8,0.4L60.4,22H57l-0.1-0.6L57.8,21.1z"/>
	<path class="st0" d="M66.8,20.8c0.1-0.2,0.3-0.7,0.4-1.3c0.3,0,0.9,0,1.2,0.1c0,0.4,0,1.1,0,1.5v0.3c-0.6,0.4-1.6,0.7-2.7,0.7
		c-2.3,0-3.8-1.3-3.8-3.6s1.9-3.8,4-3.8c1,0,1.9,0.3,2.6,0.6l0.2,0.3c-0.1,0.5-0.3,1.3-0.4,1.8c-0.3,0-0.8,0-1.1-0.1
		c-0.1-0.5-0.3-1.1-0.4-1.3c-0.3-0.2-0.6-0.3-1.2-0.3c-0.4,0-0.8,0.1-1.1,0.3c-0.4,0.5-0.7,1.4-0.7,2.3C64,20,64.8,21,66,21
		C66.4,21,66.7,20.9,66.8,20.8z"/>
	<path class="st0" d="M70,18.7c0-2.3,1.8-3.8,3.9-3.8c2.1,0,3.6,1.3,3.6,3.5c0,2.3-1.7,3.8-3.8,3.8S70,20.8,70,18.7z M75.1,20.8
		c0.2-0.4,0.4-1.2,0.4-2.1c0-1.7-0.5-2.8-1.9-2.8c-0.4,0-0.8,0.1-1.2,0.4c-0.4,0.5-0.6,1.3-0.6,2.3c0,1.6,0.7,2.6,2,2.6
		C74.3,21.1,74.8,20.9,75.1,20.8z"/>
</g>
</svg>
