<?xml version="1.0" encoding="utf-8"?>
<!-- Generator: Adobe Illustrator 22.0.1, SVG Export Plug-In . SVG Version: 6.00 Build 0)  -->
<svg version="1.1" id="Capa_1" xmlns="http://www.w3.org/2000/svg" xmlns:xlink="http://www.w3.org/1999/xlink" x="0px" y="0px"
	 viewBox="0 0 409 80" style="enable-background:new 0 0 409 80;" xml:space="preserve">
<style type="text/css">
	.st0{fill:#FFFFFF;}
</style>
<g transform="translate(0.000000,106.000000) scale(0.100000,-0.100000)">
	<path class="st0" d="M601.7,937.5c-20.2-20.2-23.3-28.7-23.3-66.8c0-38.1,3.1-46.6,22.5-66.8c16.3-16.3,30.3-22.5,49.7-22.5
		c37.3,0,52.1,7,52.1,24.1c0,12.4-3.1,13.2-23.3,5.4c-47.4-16.3-85.5,41.2-60.6,91.7c15.5,31.1,32.6,39.6,60.6,28.7
		c22.5-8.5,24.1-7.8,21.8,7.8c-2.3,14.8-7.8,17.1-39.6,19.4S621.9,957.7,601.7,937.5z"/>
	<path class="st0" d="M741.5,887c0-69.9,0.8-74.6,20.2-89.3c12.4-10.1,31.9-16.3,49.7-16.3s37.3,6.2,49.7,16.3
		c19.4,14.8,20.2,19.4,20.2,89.3c0,67.6-0.8,73-15.5,73c-14,0-15.5-5.4-15.5-65.3c0-69.1-9.3-90.1-38.1-90.1
		c-28.7,0-39.6,24.9-39.6,91.7c0,58.3-1.6,63.7-15.5,63.7C742.3,960,741.5,954.6,741.5,887z"/>
	<path class="st0" d="M928,870.7v-89.3h46.6c41.2,0,46.6,1.6,46.6,15.5c0,13.2-5.4,15.5-31.1,15.5H959v73.8
		c0,68.4-0.8,73.8-15.5,73.8C928.7,960,928,954.6,928,870.7z"/>
	<path class="st0" d="M1036.7,948.3c0-7.8,7.8-11.7,23.3-11.7h23.3V859c0-72.3,0.8-77.7,15.5-77.7c14.8,0,15.5,5.4,15.5,77.7v77.7
		h27.2c18.6,0,27.2,3.9,27.2,11.7c0,9.3-12.4,11.7-66,11.7S1036.7,957.7,1036.7,948.3z"/>
	<path class="st0" d="M1192.1,887c0-69.9,0.8-74.6,20.2-89.3c12.4-10.1,31.9-16.3,49.7-16.3s37.3,6.2,49.7,16.3
		c19.4,14.8,20.2,19.4,20.2,89.3c0,67.6-0.8,73-15.5,73c-14,0-15.5-5.4-15.5-65.3c0-69.1-9.3-90.1-38.1-90.1
		c-28.7,0-39.6,24.9-39.6,91.7c0,58.3-1.6,63.7-15.5,63.7C1192.9,960,1192.1,954.6,1192.1,887z"/>
	<path class="st0" d="M1378.6,870.7c0-83.9,0.8-89.3,15.5-89.3c13.2,0,15.5,5.4,15.5,38.8c0,28.7,3.1,38.8,10.9,38.8
		c16.3,0,33.4-19.4,43.5-50.5c7-21,13.2-27.2,28-27.2c18.6,0,18.6,0,6.2,29.5c-7,15.5-14,33.4-16.3,38.8c-2.3,4.7-7.8,9.3-12.4,9.3
		s-0.8,7,8.5,15.5c20.2,18.6,22.5,55.9,4.7,73c-7.8,8.5-26.4,12.4-58.3,12.4h-45.8V870.7z M1457,924.3c14-16.3,0-37.3-27.2-40.4
		c-18.6-2.3-20.2,0-20.2,24.9c0,24.1,2.3,28,18.6,28C1438.4,936.7,1450.8,931.3,1457,924.3z"/>
	<path class="st0" d="M1554.1,876.9c-15.5-45.8-28-86.2-28-90.1c0-3.1,6.2-5.4,14-5.4s17.1,9.3,22.5,23.3
		c7.8,21,12.4,23.3,41.2,23.3c28.7,0,33.4-2.3,41.2-23.3c6.2-16.3,14-23.3,26.4-23.3c10.1,0,17.9,0.8,17.9,2.3
		c-0.8,0.8-14,40.4-30.3,87c-28.7,81.6-31.1,85.5-53.6,87.8C1582.1,960.8,1582.1,960.8,1554.1,876.9z M1617.8,890.9
		c12.4-40.4,12.4-39.6-14-39.6c-12.4,0-23.3,2.3-23.3,4.7c0,13.2,18.6,65.3,23.3,65.3C1607,921.2,1613.2,907.9,1617.8,890.9z"/>
	<path class="st0" d="M1717.3,947.6c-21.8-21.8-13.2-58.3,18.6-78.5c51.3-33.4,55.9-42.7,28.7-59.8c-9.3-5.4-19.4-5.4-36.5,0.8
		c-20.2,7.8-23.3,7-23.3-5.4c0-16.3,14.8-23.3,51.3-23.3c32.6,0,57.5,23.3,57.5,52.8c0,24.1-13.2,39.6-52.8,59
		c-37.3,19.4-31.1,39.6,12.4,38.8c26.4-0.8,32.6,1.6,31.1,11.7C1800.4,962.3,1734.4,965.4,1717.3,947.6z"/>
	<path class="st0" d="M1922.4,870.7c0-83.9,0.8-89.3,15.5-89.3c13.2,0,15.5,5.4,15.5,31.1c0,28.7,1.6,30.3,29.5,35.7
		c40.4,7,55.9,23.3,55.9,58.3c0,38.8-21,53.6-75.4,53.6h-41.2V870.7z M1998.5,927.4c14.8-14.8,10.9-35.7-10.1-49.7
		c-24.9-16.3-35-8.5-35,28.7c0,26.4,2.3,30.3,17.9,30.3C1981.4,936.7,1993.1,932.8,1998.5,927.4z"/>
	<path class="st0" d="M2092.5,937.5c-18.6-19.4-22.5-29.5-22.5-62.2c0-69.1,23.3-94,86.2-94c24.1,0,36.5,5.4,54.4,22.5
		c20.2,20.2,22.5,28,22.5,70.7c0,39.6-3.1,50.5-19.4,66c-14.8,15.5-26.4,19.4-58.3,19.4C2121.3,960,2112,956.1,2092.5,937.5z
		 M2186.5,925c5.4-6.2,11.7-27.2,13.2-45.8c3.9-29.5,1.6-37.3-15.5-54.4c-25.6-25.6-46.6-25.6-67.6,1.6c-14,16.3-16.3,28-13.2,55.2
		c2.3,21,9.3,38.8,17.9,45.1C2139.9,940.6,2174.9,939,2186.5,925z"/>
	<path class="st0" d="M2272,870.7c0-83.9,0.8-89.3,15.5-89.3c13.2,0,15.5,5.4,15.5,31.1c0,28.7,1.6,30.3,29.5,35.7
		c40.4,7,55.9,23.3,55.9,58.3c0,38.8-21,53.6-75.4,53.6H2272V870.7z M2348.1,927.4c14.8-14.8,10.9-35.7-10.1-49.7
		c-24.9-16.3-35-8.5-35,28.7c0,26.4,2.3,30.3,17.9,30.3C2331,936.7,2342.7,932.8,2348.1,927.4z"/>
	<path class="st0" d="M2427.4,887c0-69.9,0.8-74.6,20.2-89.3c12.4-10.1,31.9-16.3,49.7-16.3c17.9,0,37.3,6.2,49.7,16.3
		c19.4,14.8,20.2,19.4,20.2,89.3c0,67.6-0.8,73-15.5,73c-14,0-15.5-5.4-15.5-65.3c0-69.1-9.3-90.1-38.1-90.1
		c-28.7,0-39.6,24.9-39.6,91.7c0,58.3-1.6,63.7-15.5,63.7C2428.1,960,2427.4,954.6,2427.4,887z"/>
	<path class="st0" d="M2613.8,870.7v-89.3h46.6c41.2,0,46.6,1.6,46.6,15.5c0,13.2-5.4,15.5-31.1,15.5h-31.1v73.8
		c0,68.4-0.8,73.8-15.5,73.8S2613.8,954.6,2613.8,870.7z"/>
	<path class="st0" d="M2750.6,876.9c-15.5-45.8-28-86.2-28-90.1c0-3.1,6.2-5.4,14-5.4c7.8,0,17.1,9.3,22.5,23.3
		c7.8,21,12.4,23.3,41.2,23.3c28.7,0,33.4-2.3,41.2-23.3c6.2-16.3,14-23.3,26.4-23.3c10.1,0,17.9,0.8,17.9,2.3
		c-0.8,0.8-14,40.4-30.3,87c-28.7,81.6-31.1,85.5-53.6,87.8C2778.5,960.8,2778.5,960.8,2750.6,876.9z M2814.3,890.9
		c12.4-40.4,12.4-39.6-14-39.6c-12.4,0-23.3,2.3-23.3,4.7c0,13.2,18.6,65.3,23.3,65.3C2803.4,921.2,2809.6,907.9,2814.3,890.9z"/>
	<path class="st0" d="M2909,870.7c0-83.9,0.8-89.3,15.5-89.3c13.2,0,15.5,5.4,15.5,38.8c0,28.7,3.1,38.8,10.9,38.8
		c16.3,0,33.4-19.4,43.5-50.5c7-21,13.2-27.2,28-27.2c18.6,0,18.6,0,6.2,29.5c-7,15.5-14,33.4-16.3,38.8c-2.3,4.7-7.8,9.3-12.4,9.3
		c-4.7,0-0.8,7,8.5,15.5c20.2,18.6,22.5,55.9,4.7,73c-7.8,8.5-26.4,12.4-58.3,12.4H2909V870.7z M2987.5,924.3
		c14-16.3,0-37.3-27.2-40.4c-18.6-2.3-20.2,0-20.2,24.9c0,24.1,2.3,28,18.6,28C2968.9,936.7,2981.3,931.3,2987.5,924.3z"/>
	<path class="st0" d="M3072.2,870.7v-89.3h50.5c38.8,0,50.5,2.3,50.5,10.9c0,7.8-10.9,12.4-32.6,14c-32.6,2.3-33.4,3.1-33.4,29.5
		c0,25.6,1.6,27.2,29.5,29.5c41.2,3.9,39.6,24.9-2.3,24.9c-29.5,0-31.1,1.6-31.1,23.3c0,22.5,1.6,23.3,35,23.3
		c25.6,0,35,3.1,35,11.7c0,9.3-10.9,11.7-50.5,11.7h-50.5V870.7z"/>
	<path class="st0" d="M3216.7,947.6c-21.8-21.8-13.2-58.3,18.6-78.5c51.3-33.4,55.9-42.7,28.7-59.8c-9.3-5.4-19.4-5.4-36.5,0.8
		c-20.2,7.8-23.3,7-23.3-5.4c0-16.3,14.8-23.3,51.3-23.3c32.6,0,57.5,23.3,57.5,52.8c0,24.1-13.2,39.6-52.8,59
		c-37.3,19.4-31.1,39.6,12.4,38.8c26.4-0.8,32.6,1.6,31.1,11.7C3299.8,962.3,3233.8,965.4,3216.7,947.6z"/>
	<path class="st0" d="M120,483c0-69.9,0.8-74.6,20.2-89.3c12.4-10.1,31.9-16.3,49.7-16.3s37.3,6.2,49.7,16.3
		c19.4,14.8,20.2,19.4,20.2,89.3c0,67.6-0.8,73-15.5,73c-14,0-15.5-5.4-15.5-65.3c0-69.1-9.3-90.1-38.1-90.1s-39.6,24.9-39.6,91.7
		c0,58.3-1.6,63.7-15.5,63.7C120.8,556,120,550.6,120,483z"/>
	<path class="st0" d="M306.5,466.7c0-74.6,2.3-89.3,11.7-89.3c9.3,0,11.7,12.4,11.7,66c0,36.5,3.1,66,6.2,66
		c3.9,0,13.2-14.8,21.8-32.6c26.4-58.3,55.9-99.4,73-99.4c14.8,0,15.5,4.7,15.5,89.3c0,73-2.3,89.3-11.7,89.3
		c-8.5,0-11.7-14-13.2-63.7l-2.3-64.5l-33.4,64.5c-30.3,58.3-35,63.7-55.9,63.7h-23.3V466.7z"/>
	<path class="st0" d="M492.9,466.7c0-83.9,0.8-89.3,15.5-89.3c14.8,0,15.5,5.4,15.5,89.3s-0.8,89.3-15.5,89.3
		C493.7,556,492.9,550.6,492.9,466.7z"/>
	<path class="st0" d="M570.6,465.9V375l46.6,4.7c26.4,2.3,55.9,9.3,66,16.3c25.6,17.1,38.1,65.3,27.2,105.7
		c-10.9,38.8-38.1,54.4-97.1,54.4h-42.7V465.9z M663.8,517.2c10.9-10.9,15.5-25.6,15.5-48.9c0-39.6-17.1-59.8-51.3-62.2l-22.5-1.6
		l-2.3,64.5l-2.3,63.7H625C638.2,532.7,655.3,525.7,663.8,517.2z"/>
	<path class="st0" d="M761.7,472.9c-15.5-45.8-28-86.2-28-90.1c0-3.1,6.2-5.4,14-5.4s17.1,9.3,22.5,23.3c7.8,21,12.4,23.3,41.2,23.3
		c28.7,0,33.4-2.3,41.2-23.3c6.2-16.3,14-23.3,26.4-23.3c10.1,0,17.9,0.8,17.9,2.3c-0.8,0.8-14,40.4-30.3,87
		c-28.7,81.6-31.1,85.5-53.6,87.8C789.7,556.8,789.7,556.8,761.7,472.9z M825.4,486.9c12.4-40.4,12.4-39.6-14-39.6
		c-12.4,0-23.3,2.3-23.3,4.7c0,13.2,18.6,65.3,23.3,65.3C814.5,517.2,820.8,504,825.4,486.9z"/>
	<path class="st0" d="M920.2,465.9V375l46.6,4.7c26.4,2.3,55.9,9.3,66,16.3c25.6,17.1,38.1,65.3,27.2,105.7
		c-10.9,38.8-38.1,54.4-97.1,54.4h-42.7V465.9z M1013.4,517.2c10.9-10.9,15.5-25.6,15.5-48.9c0-39.6-17.1-59.8-51.3-62.2l-22.5-1.6
		l-2.3,64.5l-2.3,63.7h24.1C987.8,532.7,1004.9,525.7,1013.4,517.2z"/>
	<path class="st0" d="M1184.3,466.7c0-83.9,0.8-89.3,15.5-89.3c13.2,0,15.5,5.4,15.5,38.8c0,28.7,3.1,38.8,10.9,38.8
		c16.3,0,33.4-19.4,43.5-50.5c7-21,13.2-27.2,28-27.2c18.6,0,18.6,0,6.2,29.5c-7,15.5-14,33.4-16.3,38.8c-2.3,4.7-7.8,9.3-12.4,9.3
		c-4.7,0-0.8,7,8.5,15.5c20.2,18.6,22.5,55.9,4.7,73c-7.8,8.5-26.4,12.4-58.3,12.4h-45.8V466.7z M1262.8,520.3
		c14-16.3,0-37.3-27.2-40.4c-18.6-2.3-20.2,0-20.2,24.9c0,24.1,2.3,28,18.6,28C1244.2,532.7,1256.6,527.3,1262.8,520.3z"/>
	<path class="st0" d="M1347.5,466.7v-89.3h50.5c38.8,0,50.5,2.3,50.5,10.9c0,7.8-10.9,12.4-32.6,14c-32.6,2.3-33.4,3.1-33.4,29.5
		c0,25.6,1.6,27.2,29.5,29.5c41.2,3.9,39.6,24.9-2.3,24.9c-29.5,0-31.1,1.6-31.1,23.3c0,22.5,1.6,23.3,35,23.3
		c25.6,0,35,3.1,35,11.7c0,9.3-10.9,11.7-50.5,11.7h-50.5V466.7z"/>
	<path class="st0" d="M1502.1,533.5c-18.6-19.4-22.5-28.7-22.5-62.9c0-21.8,3.9-46.6,7.8-55.2c17.1-30.3,73.8-45.8,122.7-33.4
		c15.5,4.7,17.1,10.1,17.1,50.5v45.8h-35c-25.6,0-35-3.1-35-11.7c0-7,7-11.7,19.4-11.7c16.3,0,19.4-3.9,19.4-22.5
		c0-27.2-18.6-36.5-48.9-24.9c-38.1,14.8-48.9,68.4-20.2,104.9c17.1,21.8,45.1,26.4,80,12.4c17.1-6.2,20.2-5.4,20.2,7
		c0,18.6-14.8,24.1-63.7,24.1C1531.6,556,1521.5,552.1,1502.1,533.5z"/>
	<path class="st0" d="M1673.8,466.7c0-83.9,0.8-89.3,15.5-89.3s15.5,5.4,15.5,89.3s-0.8,89.3-15.5,89.3S1673.8,550.6,1673.8,466.7z"
		/>
	<path class="st0" d="M1766.2,533.5c-18.6-19.4-22.5-29.5-22.5-62.2c0-69.1,23.3-94,86.2-94c24.1,0,36.5,5.4,54.4,22.5
		c20.2,20.2,22.5,28,22.5,70.7c0,39.6-3.1,50.5-19.4,66c-14.8,15.5-26.4,19.4-58.3,19.4C1795,556,1785.7,552.1,1766.2,533.5z
		 M1860.2,521.1c5.4-6.2,11.7-27.2,13.2-45.8c3.9-29.5,1.6-37.3-15.5-54.4c-25.6-25.6-46.6-25.6-67.6,1.6
		c-14,16.3-16.3,28-13.2,55.2c2.3,21,9.3,38.8,17.9,45.1C1813.6,536.6,1848.6,535,1860.2,521.1z"/>
	<path class="st0" d="M1945.7,466.7c0-74.6,2.3-89.3,11.7-89.3c9.3,0,11.7,12.4,11.7,66c0,36.5,3.1,66,6.2,66
		c3.9,0,13.2-14.8,21.8-32.6c26.4-58.3,55.9-99.4,73-99.4c14.8,0,15.5,4.7,15.5,89.3c0,73-2.3,89.3-11.7,89.3
		c-8.5,0-11.7-14-13.2-63.7l-2.3-64.5l-33.4,64.5c-30.3,58.3-35,63.7-55.9,63.7h-23.3V466.7z"/>
	<path class="st0" d="M2144.6,472.9c-15.5-45.8-28-86.2-28-90.1c0-3.1,6.2-5.4,14-5.4s17.1,9.3,22.5,23.3
		c7.8,21,12.4,23.3,41.2,23.3c28.7,0,33.4-2.3,41.2-23.3c6.2-16.3,14-23.3,26.4-23.3c10.1,0,17.9,0.8,17.9,2.3
		c-0.8,0.8-14,40.4-30.3,87c-28.7,81.6-31.1,85.5-53.6,87.8C2172.5,556.8,2172.5,556.8,2144.6,472.9z M2208.3,486.9
		c12.4-40.4,12.4-39.6-14-39.6c-12.4,0-23.3,2.3-23.3,4.7c0,13.2,18.6,65.3,23.3,65.3C2197.4,517.2,2203.6,504,2208.3,486.9z"/>
	<path class="st0" d="M2303.1,466.7v-89.3h46.6c41.2,0,46.6,1.6,46.6,15.5c0,13.2-5.4,15.5-31.1,15.5h-31.1v73.8
		c0,68.4-0.8,73.8-15.5,73.8S2303.1,550.6,2303.1,466.7z"/>
	<path class="st0" d="M2520.6,533.5c-20.2-20.2-23.3-28.7-23.3-66.8s3.1-46.6,22.5-66.8c16.3-16.3,30.3-22.5,49.7-22.5
		c37.3,0,52.1,7,52.1,24.1c0,12.4-3.1,13.2-23.3,5.4c-47.4-16.3-85.5,41.2-60.6,91.7c15.5,31.1,32.6,39.6,60.6,28.7
		c22.5-8.5,24.1-7.8,21.8,7.8c-2.3,14.8-7.8,17.1-39.6,19.4C2548.6,556.8,2540.8,553.7,2520.6,533.5z"/>
	<path class="st0" d="M2660.4,466.7c0-83.9,0.8-89.3,15.5-89.3c13.2,0,15.5,5.4,15.5,38.8V455h35h35v-38.8
		c0-33.4,2.3-38.8,15.5-38.8c14.8,0,15.5,5.4,15.5,89.3s-0.8,89.3-15.5,89.3c-13.2,0-15.5-5.4-15.5-35v-35h-35h-35v35
		c0,29.5-2.3,35-15.5,35C2661.2,556,2660.4,550.6,2660.4,466.7z"/>
	<path class="st0" d="M2839.1,466.7c0-83.9,0.8-89.3,15.5-89.3s15.5,5.4,15.5,89.3s-0.8,89.3-15.5,89.3S2839.1,550.6,2839.1,466.7z"
		/>
	<path class="st0" d="M2916.8,466.7c0-83.9,0.8-89.3,15.5-89.3c13.2,0,15.5,5.4,15.5,38.8V455h35h35v-38.8
		c0-33.4,2.3-38.8,15.5-38.8c14.8,0,15.5,5.4,15.5,89.3s-0.8,89.3-15.5,89.3c-13.2,0-15.5-5.4-15.5-35v-35h-35h-35v35
		c0,29.5-2.3,35-15.5,35C2917.6,556,2916.8,550.6,2916.8,466.7z"/>
	<path class="st0" d="M3095.5,483c0-69.9,0.8-74.6,20.2-89.3c12.4-10.1,31.9-16.3,49.7-16.3c17.9,0,37.3,6.2,49.7,16.3
		c19.4,14.8,20.2,19.4,20.2,89.3c0,67.6-0.8,73-15.5,73c-14,0-15.5-5.4-15.5-65.3c0-69.1-9.3-90.1-38.1-90.1
		c-28.7,0-39.6,24.9-39.6,91.7c0,58.3-1.6,63.7-15.5,63.7C3096.3,556,3095.5,550.6,3095.5,483z"/>
	<path class="st0" d="M3294.4,472.9c-15.5-45.8-28-86.2-28-90.1c0-3.1,6.2-5.4,14-5.4c7.8,0,17.1,9.3,22.5,23.3
		c7.8,21,12.4,23.3,41.2,23.3c28.7,0,33.4-2.3,41.2-23.3c6.2-16.3,14-23.3,26.4-23.3c10.1,0,17.9,0.8,17.9,2.3
		c-0.8,0.8-14,40.4-30.3,87c-28.7,81.6-31.1,85.5-53.6,87.8C3322.4,556.8,3322.4,556.8,3294.4,472.9z M3358.1,486.9
		c12.4-40.4,12.4-39.6-14-39.6c-12.4,0-23.3,2.3-23.3,4.7c0,13.2,18.6,65.3,23.3,65.3C3347.2,517.2,3353.4,504,3358.1,486.9z"/>
	<path class="st0" d="M3452.9,466.7c0-83.9,0.8-89.3,15.5-89.3c13.2,0,15.5,5.4,15.5,38.8V455h35h35v-38.8
		c0-33.4,2.3-38.8,15.5-38.8c14.8,0,15.5,5.4,15.5,89.3s-0.8,89.3-15.5,89.3c-13.2,0-15.5-5.4-15.5-35v-35h-35h-35v35
		c0,29.5-2.3,35-15.5,35C3453.6,556,3452.9,550.6,3452.9,466.7z"/>
	<path class="st0" d="M3631.6,483c0-69.9,0.8-74.6,20.2-89.3c12.4-10.1,31.9-16.3,49.7-16.3c17.9,0,37.3,6.2,49.7,16.3
		c19.4,14.8,20.2,19.4,20.2,89.3c0,67.6-0.8,73-15.5,73c-14,0-15.5-5.4-15.5-65.3c0-69.1-9.3-90.1-38.1-90.1
		c-28.7,0-39.6,24.9-39.6,91.7c0,58.3-1.6,63.7-15.5,63.7C3632.3,556,3631.6,550.6,3631.6,483z"/>
	<path class="st0" d="M3830.4,472.9c-15.5-45.8-28-86.2-28-90.1c0-3.1,6.2-5.4,14-5.4c7.8,0,17.1,9.3,22.5,23.3
		c7.8,21,12.4,23.3,41.2,23.3s33.4-2.3,41.2-23.3c6.2-16.3,14-23.3,26.4-23.3c10.1,0,17.9,0.8,17.9,2.3c-0.8,0.8-14,40.4-30.3,87
		c-28.7,81.6-31.1,85.5-53.6,87.8C3858.4,556.8,3858.4,556.8,3830.4,472.9z M3894.1,486.9c12.4-40.4,12.4-39.6-14-39.6
		c-12.4,0-23.3,2.3-23.3,4.7c0,13.2,18.6,65.3,23.3,65.3C3883.3,517.2,3889.5,504,3894.1,486.9z"/>
</g>
</svg>
