<?xml version="1.0" encoding="utf-8"?>
<!-- Generator: Adobe Illustrator 22.0.1, SVG Export Plug-In . SVG Version: 6.00 Build 0)  -->
<svg version="1.1" id="Capa_1" xmlns="http://www.w3.org/2000/svg" xmlns:xlink="http://www.w3.org/1999/xlink" x="0px" y="0px"
	 viewBox="0 0 184 80" style="enable-background:new 0 0 184 80;" xml:space="preserve">
<style type="text/css">
	.st0{fill:#FFFFFF;}
</style>
<path class="st0" d="M71.9,11.3c-4.9,0-9.8,0.2-14.8,0.2c-2.3,0.5-16.4,6.3-18,9.6c8.4-3.7,18.3-2.3,26.7-0.2
	c2.1,0.7,4.5,1.4,6.6,2.1C72.8,20.9,72.6,12.9,71.9,11.3z"/>
<path class="st0" d="M71.9,24.6c-0.7-0.5-1.6-0.7-2.3-1.2c-1.6-0.5-3.3-0.9-4.9-1.4c-7.7-2.1-22-3.7-29.3,2.1
	c-0.2-0.2-0.2-0.2-0.5-0.5c0-0.2,0-0.2,0-0.5c0.5-1.2,2.1-2.1,3.3-2.8c5.4-4,9.6-6.8,15-8.7c-5.4,0.5-10.5,0.7-15.7,0.9
	c-4.5-0.2-8.9-0.5-13.6-0.7c-2.3-0.2-4.7-0.7-6.8-0.2c4.7,3.5,9.4,5.9,14.1,10.3l0,0c-7,6.1-11,21.1-8.7,27.2
	c1.2,2.8,4.5,5.4,6.8,6.6c6.8,3.3,13.1,4.7,19.7,0.7c5.4-3.3,8.9-11.5,3.5-15.5c-2.3-1.6-5.4-1.6-7.7-1.9c-1.9,0-3.3,2.6-2.3,4
	c1.4,1.9,3.5,0.9,5.2,3c3.3,4.7-4,6.1-6.8,6.3C30.4,53.7,24.3,41,34.4,33.3c5.4-4.5,16.6-6.1,22-3.7c11,4.7,14.3,14.3,12.6,23
	c-0.5,2.1-0.5,4.2-2.3,6.3c1.6,1.9,4.7,8.2,6.6,9.1c0-9.6-0.2-19-0.2-28.6C72.6,36.1,73.3,27,71.9,24.6z"/>
<path class="st0" d="M60.4,34.9C58.7,34,57.8,34,56.6,33c-1.2-0.9-2.6-1.6-3.7-2.6c-3.7-1.2-15,0-18.3,5.2c-0.9,1.6-2.3,3.7-2.6,5.4
	c-0.9,7,6.6,11,12.2,8.9c1.6-5.2-6.6-3.5-6.1-7.7c0.2-0.9,1.2-2.3,2.3-3c4-2.6,9.1-2.6,13.1,0c8.2,5.4,2.1,15.9-5.4,19
	c-5.6,2.3-10.3,1.9-15.7,0.7c-1.2-0.2-2.3-0.7-3.5-0.9c-1.6-0.7-2.8-1.4-4.2-2.3c-0.5-0.5-1.2-0.9-1.6-1.4c-0.5-0.2-1.2,0.5-1.9-0.5
	c-2.1-3-2.3-7-2.6-10.3c-0.5-4.5,3-13.6,5.9-18c1.2-1.2,2.3-2.6,3.5-3.7c-2.3-2.3-4.7-3.5-6.8-4.9c-2.3-1.6-4.5-3.5-6.6-4.5
	c-0.2,4,0.2,6.1,0.7,10.1c-0.2,2.3-0.5,4.9-0.5,7.5c0,4.5,0.2,8.9,0.2,13.4c-0.2,4.7-0.5,9.4-0.7,14.1c0.2,0.9,1.4,2.1,2.3,2.6
	c2.3,0.9,4.9,0.7,7.3,0.9c4.5,0.5,8.9,1.2,13.4,1.2c1.9,0,7.3-1.9,7.5,1.9c-3,1.2-5.4,2.6-8.2,3.5c-4.9,1.4-10.1,2.1-15.2,4
	c2.1,0,4.5,0,6.6,0c4.2,0.2,8.2,0.7,12.4,0.2c4.5-0.2,8.7-0.7,13.1-0.9c4.2,0.2,8.4,0.5,12.6,0.7c1.6,0,3.3,0,4.9,0
	c-3.7-3.7-6.3-8.7-8.9-12.9C68.1,52.7,66.2,40.5,60.4,34.9z"/>
<path class="st0" d="M41.2,63.3c-4.7,0.7-9.8-0.2-14.5-0.9c-3-0.7-6.8-0.2-9.8-1.6c-0.7-0.5-1.6-0.9-2.3-1.4c0,0-0.2,0-0.2,0.2
	c0,2.1,0,4.2-0.2,6.6c0.2,1.9,0.2,3.5,0.5,5.4c3,0,3.5-1.2,6.3-2.1c4.7-1.2,9.4-2.6,13.8-3.7C36,65.1,40.7,64.4,41.2,63.3z"/>
<path class="st0" d="M84.7,46.4h0.7v-2.6l2.3-4h-0.9L85,43.1l-1.9-3.3h-0.9l2.3,4v2.6H84.7z M91.3,46.4h2.1c2.3,0,3.3-1.6,3.3-3.3
	c0-1.9-0.9-3.3-3.3-3.3h-2.1V46.4z M92,40.5h1.2c1.9,0,2.6,1.2,2.6,2.6c0,1.4-0.7,2.6-2.6,2.6H92V40.5L92,40.5z M100.7,46.6
	c2.1,0,3-1.6,3-3.5c0-1.9-0.9-3.3-3-3.3c-2.1,0-3,1.6-3,3.3C97.9,45,98.6,46.6,100.7,46.6z M100.7,45.9c-1.4,0-2.1-1.2-2.1-2.8
	c0-1.4,0.7-2.6,2.1-2.6c1.4,0,2.1,1.2,2.1,2.6C103,44.8,102.3,45.9,100.7,45.9z M108.2,46.6c0.7,0,1.4-0.2,1.9-0.5l-0.2-0.7
	c-0.2,0.2-0.9,0.5-1.6,0.5c-1.6,0-2.6-0.9-2.6-2.6s0.9-2.8,2.6-2.8c0.7,0,1.2,0.2,1.6,0.5l0.2-0.7c-0.5-0.2-1.2-0.5-1.9-0.5
	c-1.9,0-3.3,1.4-3.3,3.5C104.9,45.2,106.1,46.6,108.2,46.6z M113.8,46.6c1.4,0,2.6-0.7,2.6-2.3v-4.5h-0.7v4.2c0,1.2-0.5,1.6-1.6,1.6
	s-1.6-0.7-1.6-1.6v-4.2h-0.7v4.5C111.2,45.7,112.4,46.6,113.8,46.6z M117.8,46.4h0.7v-4.9l2.1,4.9h0.5l2.1-4.9v4.9h1.2v-6.6h-0.9
	l-2.3,5.4l-2.3-5.4h-0.9C117.8,39.8,117.8,46.4,117.8,46.4z M126,46.4h3.7v-0.7h-3v-2.3h2.3v-0.7h-2.3v-2.1h2.8v-0.7h-3.7v6.6H126z
	 M130.9,46.4h0.7V41l4,5.4h0.5v-6.6h-0.7v4.7l-3.5-4.7h-0.9V46.4z M139.5,46.4h0.7v-5.9h2.1v-0.7h-5.2v0.7h2.1L139.5,46.4
	L139.5,46.4z M147.3,46.4h0.9l-2.6-6.6h-0.5l-2.6,6.6h0.7l0.7-1.9h2.6L147.3,46.4z M145.4,41.2l0.9,2.8h-2.1L145.4,41.2z M152,46.6
	c0.7,0,1.4-0.2,1.9-0.5l-0.2-0.7c-0.2,0.2-0.9,0.5-1.6,0.5c-1.6,0-2.6-0.9-2.6-2.6s0.9-2.8,2.6-2.8c0.7,0,1.2,0.2,1.6,0.5l0.2-0.7
	c-0.5-0.2-1.2-0.5-1.9-0.5c-1.9,0-3.3,1.4-3.3,3.5C148.7,45.2,149.9,46.6,152,46.6z M155.2,46.4h0.7v-6.6h-0.7V46.4z M160.4,46.6
	c2.1,0,3-1.6,3-3.5c0-1.9-0.9-3.3-3-3.3c-2.1,0-3,1.6-3,3.3C157.4,45,158.3,46.6,160.4,46.6z M160.4,45.9c-1.4,0-2.1-1.2-2.1-2.8
	c0-1.4,0.7-2.6,2.1-2.6c1.4,0,2.1,1.2,2.1,2.6C162.5,44.8,161.8,45.9,160.4,45.9z M159.7,39.4l1.9-0.9l-0.7-0.5l-1.6,1.2L159.7,39.4
	z M164.6,46.4h0.7V41l4,5.4h0.5v-6.6h-0.7v4.7l-3.5-4.7h-0.9C164.6,39.8,164.6,46.4,164.6,46.4z"/>
<path class="st0" d="M83.1,34.7h2.1c2.3,0,3.3-1.6,3.3-3.3c0-1.9-0.9-3.3-3.3-3.3h-2.1V34.7z M83.8,28.8H85c1.9,0,2.6,1.2,2.6,2.6
	c0,1.4-0.7,2.6-2.6,2.6h-1.2V28.8L83.8,28.8z M89.9,34.7h3.7V34h-3v-2.3h2.3v-0.7h-2.3v-2.1h2.8v-0.7h-3.7L89.9,34.7L89.9,34.7z
	 M97.2,34.7h0.7v-6.6h-0.7V34.7z M99.5,34.7h0.7v-5.4l4,5.4h0.5v-6.6h-0.7v4.7l-3.5-4.7h-0.9V34.7z M106.5,34.7h0.7v-3h2.3v-0.7
	h-2.3v-2.1h2.8v-0.7h-3.7L106.5,34.7L106.5,34.7z M113.8,34.7c2.1,0,3-1.6,3-3.5s-0.9-3.3-3-3.3c-2.1,0-3,1.6-3,3.3
	C110.7,33.3,111.7,34.7,113.8,34.7z M113.8,34.2c-1.4,0-2.1-1.2-2.1-2.8c0-1.4,0.7-2.6,2.1-2.6c1.4,0,2.1,1.2,2.1,2.6
	C115.9,32.8,115.2,34.2,113.8,34.2z M122.7,34.7V34h-0.2c-0.2,0-0.2,0-0.5-0.2l-0.9-1.4c-0.2-0.2-0.2-0.5-0.7-0.7
	c1.2-0.2,1.4-0.9,1.4-1.9c0-1.2-0.7-1.6-2.1-1.6h-1.9v6.6h0.7v-2.8h0.7c0.5,0,0.7,0.2,0.9,0.7l0.9,1.6c0.2,0.5,0.7,0.7,0.9,0.7
	C122.7,34.7,122.7,34.7,122.7,34.7z M118.9,28.8h0.9c0.9,0,1.4,0.2,1.4,1.2c0,0.7-0.2,1.2-1.4,1.2h-1.2v-2.3H118.9z M124.1,34.7h0.7
	v-4.9l2.1,4.9h0.5l2.1-4.9v4.9h0.7v-6.6h-0.9l-2.3,5.4l-2.3-5.4h-0.9v6.6H124.1z M136.5,34.7h0.9l-2.6-6.6h-0.5l-2.6,6.6h0.7
	l0.7-1.9h2.6L136.5,34.7z M134.4,29.3l0.9,2.8h-2.1L134.4,29.3z M141.2,34.7c0.7,0,1.4-0.2,1.9-0.5l-0.2-0.7
	c-0.2,0.2-0.9,0.5-1.6,0.5c-1.6,0-2.6-0.9-2.6-2.6c0-1.6,0.9-2.8,2.6-2.8c0.7,0,1.2,0.2,1.6,0.5l0.2-0.7c-0.5-0.2-1.2-0.5-1.9-0.5
	c-1.9,0-3.3,1.4-3.3,3.5C137.9,33.5,139.1,34.7,141.2,34.7z M144.2,34.7h0.7v-6.6h-0.7V34.7z M149.4,34.7c2.1,0,3-1.6,3-3.5
	s-0.9-3.3-3-3.3c-2.1,0-3,1.6-3,3.3C146.6,33.3,147.3,34.7,149.4,34.7z M149.4,34.2c-1.4,0-2.1-1.2-2.1-2.8c0-1.4,0.7-2.6,2.1-2.6
	c1.4,0,2.1,1.2,2.1,2.6C151.7,32.8,150.8,34.2,149.4,34.2z M148.7,27.7l1.9-0.9l-0.7-0.5l-1.6,1.2L148.7,27.7z M153.8,34.7h0.7v-5.4
	l4,5.4h0.5v-6.6h-0.7v4.7l-3.5-4.7h-0.9C153.8,28.1,153.8,34.7,153.8,34.7z"/>
<path class="st0" d="M86.1,23c0.7,0,1.4-0.2,1.9-0.5l-0.2-0.7c-0.2,0.2-0.9,0.5-1.6,0.5c-1.6,0-2.6-0.9-2.6-2.6s0.9-2.8,2.6-2.8
	c0.7,0,1.2,0.2,1.6,0.5l0.2-0.7c-0.5-0.2-1.2-0.5-1.9-0.5c-1.9,0-3.3,1.4-3.3,3.5S84,23,86.1,23z M89.2,23h3.7v-0.7h-3v-2.6h2.3
	v-0.5h-2.3v-2.1h2.8v-0.7h-3.5V23L89.2,23z M94.3,23H95v-5.4l4,5.4h0.5v-6.6h-0.9v4.7L95,16.4h-0.9V23H94.3z M103,23h0.7v-5.9h2.1
	v-0.7h-5.2v0.7h2.1L103,23L103,23z M111.9,23v-0.7h-0.2c-0.2,0-0.2,0-0.5-0.2l-0.9-1.4c0-0.2-0.2-0.7-0.5-0.7
	c1.2-0.2,1.4-0.9,1.4-1.9c0-1.2-0.7-1.6-2.1-1.6h-1.9V23h0.7v-3h0.7c0.5,0,0.7,0.2,0.9,0.7l0.9,1.6c0.2,0.5,0.7,0.7,0.9,0.7
	C111.7,23,111.7,23,111.9,23z M107.9,17.1h0.9c0.9,0,1.4,0.2,1.4,1.2c0,0.7-0.2,1.2-1.4,1.2h-0.9V17.1z M115.4,23c2.1,0,3-1.6,3-3.5
	s-0.9-3.3-3-3.3c-2.1,0-3,1.6-3,3.3C112.4,21.3,113.3,23,115.4,23z M115.4,22.3c-1.4,0-2.1-1.2-2.1-2.8c0-1.4,0.7-2.6,2.1-2.6
	c1.4,0,2.1,1.2,2.1,2.6C117.5,21.1,116.8,22.3,115.4,22.3z"/>
<path class="st0" d="M87.3,71h1.2l-2.6-6.6h-0.7L82.6,71h1.2l0.7-1.6h2.3L87.3,71z M85.4,66.5l0.7,1.9h-1.4L85.4,66.5z M89.9,71h4
	v-1.2h-2.6v-5.4h-1.2L89.9,71L89.9,71z M95.3,71h2.3c1.4,0,2.3-0.7,2.3-1.9c0-0.9-0.5-1.4-1.4-1.6c0.7-0.2,0.9-0.7,0.9-1.4
	c0-1.2-0.7-1.6-2.1-1.6h-2.1V71z M96.5,67.9h0.7c0.9,0,1.4,0.2,1.4,0.9c0,0.5-0.2,0.9-1.2,0.9h-0.9C96.5,69.8,96.5,67.9,96.5,67.9z
	 M96.5,65.6h0.9c0.5,0,0.9,0.2,0.9,0.7S97.9,67,97.2,67h-0.5L96.5,65.6L96.5,65.6z M101.4,71h4v-1.2h-2.6v-1.6h2.1V67h-2.1v-1.4h2.6
	v-1.2h-3.7V71H101.4z M108.2,71v-2.6h0.2c0.2,0,0.5,0,0.7,0.2l0.9,1.6c0.2,0.5,0.5,0.7,0.9,0.7c0.2,0,0.7,0,0.7,0v-0.7h-0.2
	c-0.2,0-0.2,0-0.5-0.2l-0.7-1.2c-0.2-0.2-0.2-0.5-0.7-0.7c1.2-0.2,1.6-0.9,1.6-1.6c0-1.4-0.9-1.9-2.1-1.9H107v6.6L108.2,71L108.2,71
	z M108.2,65.6h0.7c0.7,0,1.2,0.2,1.2,0.7s-0.2,0.9-0.9,0.9h-0.7L108.2,65.6L108.2,65.6z M112.4,64.4v1.2h2.1V71h1.2v-5.4h2.1v-1.2
	H112.4z M121.7,71c2.1,0,3-1.4,3-3.5c0-1.9-0.9-3.5-3-3.5c-2.1,0-3,1.4-3,3.5C118.7,69.6,119.6,71,121.7,71z M121.7,69.8
	c-1.2,0-1.6-0.9-1.6-2.3c0-1.4,0.5-2.3,1.6-2.3s1.9,0.7,1.9,2.3C123.4,69.4,122.9,69.8,121.7,69.8z M129,71h2.3
	c1.4,0,2.3-0.7,2.3-1.9c0-0.9-0.5-1.4-1.4-1.6c0.7-0.2,0.9-0.7,0.9-1.4c0-1.2-0.7-1.6-2.1-1.6H129V71z M130.2,67.9h0.7
	c0.9,0,1.4,0.2,1.4,0.9c0,0.5-0.2,0.9-1.2,0.9h-0.9C130.2,69.8,130.2,67.9,130.2,67.9z M130.2,65.6h0.9c0.5,0,0.9,0.2,0.9,0.7
	s-0.5,0.7-1.2,0.7h-0.5L130.2,65.6L130.2,65.6z M135.1,71h4v-1.2h-2.6v-1.6h1.9V67h-2.1v-1.4h2.6v-1.2h-3.7V71z M140.5,71h4v-1.2
	h-2.6v-5.4h-1.2L140.5,71L140.5,71z M144.5,64.4v1.2h2.1V71h1.2v-5.4h2.1v-1.2H144.5z M152.7,71v-2.6h0.2c0.2,0,0.5,0,0.7,0.2
	l0.9,1.6c0.2,0.5,0.5,0.7,0.9,0.7c0.2,0,0.7,0,0.7,0v-0.7h-0.2c-0.2,0-0.2,0-0.5-0.2l-0.7-1.2c-0.2-0.2-0.2-0.5-0.7-0.7
	c1.2-0.2,1.6-0.9,1.6-1.6c0-1.4-0.9-1.9-2.1-1.9h-2.1v6.6L152.7,71L152.7,71z M152.7,65.6h0.7c0.7,0,1.2,0.2,1.2,0.7
	s-0.2,0.9-0.9,0.9h-0.7L152.7,65.6L152.7,65.6z M162,71h1.2l-2.6-6.6h-0.7l-2.6,6.6h1.2l0.7-1.6h2.3L162,71z M160.4,66.5l0.7,1.9
	h-1.6L160.4,66.5z M160.2,63.7l2.1-0.7l-1.2-0.9l-1.2,1.2L160.2,63.7z M164.6,71h1.2v-4.7l3.3,4.7h0.9v-6.6h-1.2v4l-2.8-4h-1.4
	C164.6,64.4,164.6,71,164.6,71z"/>
</svg>
