<?xml version="1.0" encoding="utf-8"?>
<!-- Generator: Adobe Illustrator 22.0.1, SVG Export Plug-In . SVG Version: 6.00 Build 0)  -->
<svg version="1.1" id="Capa_1" xmlns="http://www.w3.org/2000/svg" xmlns:xlink="http://www.w3.org/1999/xlink" x="0px" y="0px"
	 viewBox="0 0 207.7 80" style="enable-background:new 0 0 207.7 80;" xml:space="preserve">
<style type="text/css">
	.st0{fill:#FFFFFF;}
</style>
<path class="st0" d="M101.2,60.9l-1.7,0.7l0.2,1.2l1.2-0.5l0,0v5.2h1.5v-6.7C102.4,60.9,101.2,60.9,101.2,60.9z"/>
<path class="st0" d="M113.4,63.6c-0.2,0.2-0.5,0.5-0.7,0.5c-0.7,0-1-0.5-1-1c0-0.7,0.5-1.2,1-1.2l0,0c0.7,0,1,0.7,1,1.5
	C113.6,63.4,113.6,63.6,113.4,63.6z M112.6,60.6c-1.5,0-2.5,1-2.5,2.5c0,1.2,1,2,2,2c0.5,0,1-0.2,1.2-0.5l0,0c0,0.5-0.5,1-0.7,1.2
	s-0.7,0.5-1.2,0.5c-0.2,0-0.5,0-0.7,0v1.2c0.2,0,0.5,0,0.7,0c1,0,2-0.2,2.5-1c0.7-0.7,1.2-1.7,1.2-3
	C115.1,62.1,114.4,60.6,112.6,60.6z"/>
<path class="st0" d="M125.6,63.9c0.7-0.2,1.2-0.7,1.2-1.5c0-1-0.7-1.7-2.2-1.7c-0.7,0-1.7,0.2-2,0.5l0.2,1.2
	c0.2-0.2,0.7-0.5,1.5-0.5s1,0.2,1,0.7s-0.7,0.7-1.2,0.7h-0.5v1h0.7c0.7,0,1.2,0.2,1.2,1c0,0.5-0.5,1-1.2,1s-1.2-0.2-1.5-0.5
	l-0.2,1.2c0.5,0.2,1,0.5,2,0.5c1.7,0,2.7-0.7,2.7-2C127.1,64.6,126.3,64.1,125.6,63.9z"/>
<path class="st0" d="M137.8,63.6c-0.2,0.2-0.5,0.5-0.7,0.5c-0.7,0-1-0.5-1-1c0-0.7,0.5-1.2,1-1.2l0,0c0.7,0,1,0.7,1,1.5
	C138,63.4,137.8,63.6,137.8,63.6z M137,60.6c-1.5,0-2.5,1-2.5,2.5c0,1.2,1,2,2,2c0.5,0,1-0.2,1.2-0.5l0,0c0,0.5-0.5,1-0.7,1.2
	s-0.7,0.5-1.2,0.5c-0.2,0-0.5,0-0.7,0v1.2c0.2,0,0.5,0,0.7,0c1,0,2-0.2,2.5-1c0.7-0.7,1.2-1.7,1.2-3C139.5,62.1,138.8,60.6,137,60.6
	z"/>
<path class="st0" d="M149.5,64.4h-2.7v1h2.7V64.4z"/>
<path class="st0" d="M158.9,66.1l0.5-0.5c1-0.7,1.7-1.7,1.7-2.7c0-1.2-0.7-2-2.2-2c-1,0-1.7,0.2-2.2,0.7l0.5,1
	c0.2-0.2,0.7-0.5,1.5-0.5s1,0.5,1,1c0,0.7-0.7,1.5-2.2,2.7l-0.7,0.7v1h4.7v-1.2H159L158.9,66.1L158.9,66.1z"/>
<path class="st0" d="M172.1,66.3c-1,0-1.7-1-1.7-2.2c0-1.2,0.5-2.2,1.7-2.2c1,0,1.7,1,1.7,2.2C173.6,65.4,173.1,66.3,172.1,66.3z
	 M172.1,60.6c-2,0-3.2,1.5-3.2,3.5s1.2,3.5,3.2,3.5s3.5-1.2,3.5-3.5C175.4,62.1,174.1,60.6,172.1,60.6z"/>
<path class="st0" d="M184.1,60.9l-1.7,0.7l0.2,1.2l1.2-0.5l0,0v5.2h1.5v-6.7C185.3,60.9,184.1,60.9,184.1,60.9z"/>
<path class="st0" d="M196.5,63.6c-0.2,0.2-0.5,0.5-0.7,0.5c-0.7,0-1-0.5-1-1c0-0.7,0.5-1.2,1-1.2l0,0c0.7,0,1,0.7,1,1.5
	C196.5,63.4,196.5,63.6,196.5,63.6z M195.8,60.6c-1.5,0-2.5,1-2.5,2.5c0,1.2,1,2,2,2c0.5,0,1-0.2,1.2-0.5l0,0c0,0.5-0.5,1-0.7,1.2
	s-0.7,0.5-1.2,0.5c-0.2,0-0.5,0-0.7,0v1.2c0.2,0,0.5,0,0.7,0c1,0,2-0.2,2.5-1c0.7-0.7,1.2-1.7,1.2-3
	C198.3,62.1,197.3,60.6,195.8,60.6z"/>
<path class="st0" d="M92,43.5c0,0-2.5,0.2-4.5-2.2c0,0-1-0.7-2.2-0.2c0,0-1.2,0.7-0.5,2.2l4.5,9.7l-8.2,4.2L77.4,49
	c4.2-2.2,7.2-6.5,7.2-11.4c0-4.7-2.7-9-6.7-11.2h0.2l3.5-8l8,4.2l-3.2,7c0,0-0.7,1.7,0.5,2.2c0,0,1,0.7,2.2,0c0,0,2.2-1.5,5-0.5
	c0,0,3.7,1.2,4,6C97.7,37.2,97.2,43.5,92,43.5z M71.1,47.7c-6,0-10.7-4.5-11-10h3.7c1,3.5,3.7,6.2,7.2,6.2s6.5-2.7,7.2-6.2h3.7
	C81.8,43.2,76.8,47.7,71.1,47.7z M67.3,51.9l0.7-1.7c1,0.2,1.7,0.2,2.7,0.2s2-0.2,3-0.2l0.7,1.7C74.8,51.9,71.6,53.2,67.3,51.9z
	 M61.1,57.1l-8-4.2l4.2-9.7c0,0,1-1.5-0.5-2.2c0,0-1-0.7-2.2,0.5c0,0-3.2,3.7-7.2,1.2c0,0-2.5-1.5-2.7-5.2c0,0,0.2-6,5.5-6.2
	c0,0,1.5-0.2,2.7,0.7c0,0,1.2,1.2,2.7,0.2c0,0,1.2-0.5,0.2-2.2l-3.2-7.2l8.2-4l3.7,8c-4,2.2-6.7,6.2-6.7,11.2s3,9.2,7.2,11.4
	L61.1,57.1z M30.7,61.4L30.7,61.4c-6.2,0-9.7-4.5-9.7-9.5c0-4.7,3-8.5,8.5-10c6.5,1.7,10.7,5,10.7,10.7
	C40.2,57.6,36.5,61.4,30.7,61.4z M30.5,17.1L30.5,17.1c6,0,8.2,4.2,8.2,8.2c0,4.2-3.2,7.5-7.2,8.7c-5.2-1.5-9.2-4.5-9.2-9.2
	C22.3,20.8,25,17.1,30.5,17.1z M49.2,22.3L49.2,22.3L49.2,22.3z M76,37.7c-0.7,2.2-2.7,4-5,4s-4-1.5-5-4H76z M71.1,27
	c5.2,0,9.5,3.5,10.7,8.2h-3H60.6C61.4,30.5,65.8,27,71.1,27z M70.8,15.8l4,8.7L74.6,25h0.2c-1.2-0.2-2.5-0.5-3.7-0.5
	s-2.5,0.2-3.7,0.5l-0.2-0.7L70.8,15.8z M99.7,33.2c-0.2-0.5-0.5-1-0.7-1.5c0,0-2.7-4.2-8-3.2c0,0-0.7,0.2-0.5-0.2l2.7-5.7
	c0,0,0.5-1.2-0.7-1.7l-11-5.5c0,0-1-0.5-2,1.2l-2.2,4c0,0-0.5,0.5-0.7-0.2l-4.5-9.2c0,0-0.2-1-1.2-1c0,0-0.7,0-1.2,0.7l-4.2,9.2
	c0,0-0.2,0.5-0.7-0.2l-2-4.2c0,0-0.5-1-2-0.5c-1.7,0.7-10.7,5.5-10.7,5.5s-1,0.5-1,1.2c-1-6.2-6.7-12.2-17.9-12.2l0,0
	C20.5,9.7,12,16.2,12,25.4c0,5,2.7,9.7,8.7,12.7v0.2C14,41.3,10,46,10,53.2c0,8,7,15.9,20.4,15.9c11,0,18.9-5.5,20.7-13.9l10.2,5.2
	c0,0,1.5,0.7,2-0.7l2.5-5.5c0,0,5.5,2.5,10.7,0l2.5,5.5c0,0,0.5,1.2,2,0.7l10.7-5.5c0,0,1.5-0.5,0.5-2.2l-2.7-6c0,0,0-0.7,0.7-0.5
	c0,0,5,1.5,8.7-3.5c0,0,0.5-0.5,1-1.5v15.2h7.7V21.8h-7.7v11.4H99.7z"/>
<path class="st0" d="M149.7,41.2l2-7.5c0.5-2,1-4.7,1.7-6.7l0,0c0.5,2,1.2,4.7,1.7,6.7l2.2,7.5H149.7z M190.8,20.8v13.7h-13.2V20.8
	h-8v33.9l-10.7-33.9h-10.5l-10,32.6V21.8h-7.2v10c0,5.2,0.2,9.7,0.7,14.4h-0.2c-1.5-4-3.5-8.2-5.5-11.7L119,21.8h-9v34.3h7.2V45.9
	c0-5.5,0-10.5-0.2-14.9h0.2c1.7,4,4,8.5,6,12.2l7.2,13.2h7.2h1h7.5l2.5-9h10.2l2.7,9h8.2h0.5h7.5V41.5H191v14.9h8V20.8H190.8z"/>
<path class="st0" d="M71.1,65.6c-1.5,0-2.5-1.2-2.5-2.7c0-1.5,1.2-2.7,2.5-2.7c1.5,0,2.5,1.2,2.5,2.7C73.6,64.4,72.6,65.6,71.1,65.6
	z M71.1,57.1c-3,0-5.5,2.5-5.5,5.5s2.5,5.5,5.5,5.5s5.5-2.5,5.5-5.5S74.1,57.1,71.1,57.1z"/>
</svg>
