<?xml version="1.0" encoding="utf-8"?>
<!-- Generator: Adobe Illustrator 22.0.1, SVG Export Plug-In . SVG Version: 6.00 Build 0)  -->
<svg version="1.1" id="Capa_1" xmlns="http://www.w3.org/2000/svg" xmlns:xlink="http://www.w3.org/1999/xlink" x="0px" y="0px"
	 viewBox="0 0 80 30" style="enable-background:new 0 0 80 30;" xml:space="preserve">
<style type="text/css">
	.st0{fill:#FFFFFF;}
</style>
<path class="st0" d="M31.6,2.3c-2.1,0-4.2,0.1-6.3,0.1c-1,0.2-7,2.7-7.7,4.1c3.6-1.6,7.8-1,11.4-0.1c0.9,0.3,1.9,0.6,2.8,0.9
	C32,6.4,31.9,3,31.6,2.3z"/>
<path class="st0" d="M31.6,8c-0.3-0.2-0.7-0.3-1-0.5c-0.7-0.2-1.4-0.4-2.1-0.6C25.2,6,19.1,5.3,16,7.8c-0.1-0.1-0.1-0.1-0.2-0.2
	c0-0.1,0-0.1,0-0.2c0.2-0.5,0.9-0.9,1.4-1.2c2.3-1.7,4.1-2.9,6.4-3.7c-2.3,0.2-4.5,0.3-6.7,0.4c-1.9-0.1-3.8-0.2-5.8-0.3
	c-1-0.1-2-0.3-2.9-0.1c2,1.5,4,2.5,6,4.4c0,0,0,0,0,0c-3,2.6-4.7,9-3.7,11.6c0.5,1.2,1.9,2.3,2.9,2.8c2.9,1.4,5.6,2,8.4,0.3
	c2.3-1.4,3.8-4.9,1.5-6.6c-1-0.7-2.3-0.7-3.3-0.8c-0.8,0-1.4,1.1-1,1.7c0.6,0.8,1.5,0.4,2.2,1.3c1.4,2-1.7,2.6-2.9,2.7
	c-4.4,0.5-7-4.9-2.7-8.2c2.3-1.9,7.1-2.6,9.4-1.6c4.7,2,6.1,6.1,5.4,9.8c-0.2,0.9-0.2,1.8-1,2.7c0.7,0.8,2,3.5,2.8,3.9
	c0-4.1-0.1-8.1-0.1-12.2C31.9,12.9,32.2,9,31.6,8z"/>
<path class="st0" d="M26.7,12.4c-0.7-0.4-1.1-0.4-1.6-0.8c-0.5-0.4-1.1-0.7-1.6-1.1c-1.6-0.5-6.4,0-7.8,2.2c-0.4,0.7-1,1.6-1.1,2.3
	c-0.4,3,2.8,4.7,5.2,3.8c0.7-2.2-2.8-1.5-2.6-3.3c0.1-0.4,0.5-1,1-1.3c1.7-1.1,3.9-1.1,5.6,0c3.5,2.3,0.9,6.8-2.3,8.1
	c-2.4,1-4.4,0.8-6.7,0.3c-0.5-0.1-1-0.3-1.5-0.4c-0.7-0.3-1.2-0.6-1.8-1c-0.2-0.2-0.5-0.4-0.7-0.6c-0.2-0.1-0.5,0.2-0.8-0.2
	c-0.9-1.3-1-3-1.1-4.4c-0.2-1.9,1.3-5.8,2.5-7.7c0.5-0.5,1-1.1,1.5-1.6c-1-1-2-1.5-2.9-2.1c-1-0.7-1.9-1.5-2.8-1.9
	C7.1,4.4,7.3,5.3,7.5,7C7.4,8,7.3,9.1,7.3,10.2c0,1.9,0.1,3.8,0.1,5.7c-0.1,2-0.2,4-0.3,6c0.1,0.4,0.6,0.9,1,1.1
	c1,0.4,2.1,0.3,3.1,0.4c1.9,0.2,3.8,0.5,5.7,0.5c0.8,0,3.1-0.8,3.2,0.8c-1.3,0.5-2.3,1.1-3.5,1.5c-2.1,0.6-4.3,0.9-6.5,1.7
	c0.9,0,1.9,0,2.8,0c1.8,0.1,3.5,0.3,5.3,0.1c1.9-0.1,3.7-0.3,5.6-0.4c1.8,0.1,3.6,0.2,5.4,0.3c0.7,0,1.4,0,2.1,0
	c-1.6-1.6-2.7-3.7-3.8-5.5C30,20,29.2,14.8,26.7,12.4z"/>
<path class="st0" d="M18.5,24.5c-2,0.3-4.2-0.1-6.2-0.4C11,23.8,9.4,24,8.1,23.4c-0.3-0.2-0.7-0.4-1-0.6c0,0-0.1,0-0.1,0.1
	c0,0.9,0,1.8-0.1,2.8c0.1,0.8,0.1,1.5,0.2,2.3c1.3,0,1.5-0.5,2.7-0.9c2-0.5,4-1.1,5.9-1.6C16.3,25.3,18.3,25,18.5,24.5z"/>
<path class="st0" d="M37.1,17.3h0.3v-1.1l1-1.7h-0.4l-0.8,1.4l-0.8-1.4h-0.4l1,1.7V17.3z M39.9,17.3h0.9c1,0,1.4-0.7,1.4-1.4
	c0-0.8-0.4-1.4-1.4-1.4h-0.9V17.3z M40.2,14.8h0.5c0.8,0,1.1,0.5,1.1,1.1c0,0.6-0.3,1.1-1.1,1.1h-0.5L40.2,14.8L40.2,14.8z
	 M43.9,17.4c0.9,0,1.3-0.7,1.3-1.5c0-0.8-0.4-1.4-1.3-1.4c-0.9,0-1.3,0.7-1.3,1.4C42.7,16.7,43,17.4,43.9,17.4z M43.9,17.1
	c-0.6,0-0.9-0.5-0.9-1.2c0-0.6,0.3-1.1,0.9-1.1c0.6,0,0.9,0.5,0.9,1.1C44.9,16.6,44.6,17.1,43.9,17.1z M47.1,17.4
	c0.3,0,0.6-0.1,0.8-0.2l-0.1-0.3c-0.1,0.1-0.4,0.2-0.7,0.2c-0.7,0-1.1-0.4-1.1-1.1c0-0.7,0.4-1.2,1.1-1.2c0.3,0,0.5,0.1,0.7,0.2
	l0.1-0.3c-0.2-0.1-0.5-0.2-0.8-0.2c-0.8,0-1.4,0.6-1.4,1.5C45.7,16.8,46.2,17.4,47.1,17.4z M49.5,17.4c0.6,0,1.1-0.3,1.1-1v-1.9
	h-0.3v1.8c0,0.5-0.2,0.7-0.7,0.7c-0.5,0-0.7-0.3-0.7-0.7v-1.8h-0.3v1.9C48.4,17,48.9,17.4,49.5,17.4z M51.2,17.3h0.3v-2.1l0.9,2.1
	h0.2l0.9-2.1v2.1H54v-2.8h-0.4l-1,2.3l-1-2.3h-0.4V17.3z M54.7,17.3h1.6V17H55V16h1v-0.3h-1v-0.9h1.2v-0.3h-1.6V17.3z M56.8,17.3
	h0.3V15l1.7,2.3H59v-2.8h-0.3v2l-1.5-2h-0.4V17.3z M60.5,17.3h0.3v-2.5h0.9v-0.3h-2.2v0.3h0.9L60.5,17.3L60.5,17.3z M63.8,17.3h0.4
	l-1.1-2.8h-0.2l-1.1,2.8h0.3l0.3-0.8h1.1L63.8,17.3z M63,15.1l0.4,1.2h-0.9L63,15.1z M65.8,17.4c0.3,0,0.6-0.1,0.8-0.2l-0.1-0.3
	c-0.1,0.1-0.4,0.2-0.7,0.2c-0.7,0-1.1-0.4-1.1-1.1c0-0.7,0.4-1.2,1.1-1.2c0.3,0,0.5,0.1,0.7,0.2l0.1-0.3c-0.2-0.1-0.5-0.2-0.8-0.2
	c-0.8,0-1.4,0.6-1.4,1.5C64.4,16.8,64.9,17.4,65.8,17.4z M67.2,17.3h0.3v-2.8h-0.3V17.3z M69.4,17.4c0.9,0,1.3-0.7,1.3-1.5
	c0-0.8-0.4-1.4-1.3-1.4c-0.9,0-1.3,0.7-1.3,1.4C68.1,16.7,68.5,17.4,69.4,17.4z M69.4,17.1c-0.6,0-0.9-0.5-0.9-1.2
	c0-0.6,0.3-1.1,0.9-1.1s0.9,0.5,0.9,1.1C70.3,16.6,70,17.1,69.4,17.1z M69.1,14.3l0.8-0.4l-0.3-0.2l-0.7,0.5L69.1,14.3z M71.2,17.3
	h0.3V15l1.7,2.3h0.2v-2.8h-0.3v2l-1.5-2h-0.4V17.3z"/>
<path class="st0" d="M36.4,12.3h0.9c1,0,1.4-0.7,1.4-1.4c0-0.8-0.4-1.4-1.4-1.4h-0.9V12.3z M36.7,9.8h0.5c0.8,0,1.1,0.5,1.1,1.1
	c0,0.6-0.3,1.1-1.1,1.1h-0.5L36.7,9.8L36.7,9.8z M39.3,12.3h1.6V12h-1.3V11h1v-0.3h-1V9.8h1.2V9.5h-1.6L39.3,12.3L39.3,12.3z
	 M42.4,12.3h0.3V9.5h-0.3V12.3z M43.4,12.3h0.3V10l1.7,2.3h0.2V9.5h-0.3v2l-1.5-2h-0.4V12.3z M46.4,12.3h0.3V11h1v-0.3h-1V9.8h1.2
	V9.5h-1.6L46.4,12.3L46.4,12.3z M49.5,12.3c0.9,0,1.3-0.7,1.3-1.5c0-0.8-0.4-1.4-1.3-1.4c-0.9,0-1.3,0.7-1.3,1.4
	C48.2,11.7,48.6,12.3,49.5,12.3z M49.5,12.1c-0.6,0-0.9-0.5-0.9-1.2c0-0.6,0.3-1.1,0.9-1.1c0.6,0,0.9,0.5,0.9,1.1
	C50.4,11.5,50.1,12.1,49.5,12.1z M53.3,12.3V12h-0.1c-0.1,0-0.1,0-0.2-0.1l-0.4-0.6c-0.1-0.1-0.1-0.2-0.3-0.3
	c0.5-0.1,0.6-0.4,0.6-0.8c0-0.5-0.3-0.7-0.9-0.7h-0.8v2.8h0.3v-1.2h0.3c0.2,0,0.3,0.1,0.4,0.3l0.4,0.7c0.1,0.2,0.3,0.3,0.4,0.3
	C53.3,12.3,53.3,12.3,53.3,12.3z M51.7,9.8h0.4c0.4,0,0.6,0.1,0.6,0.5c0,0.3-0.1,0.5-0.6,0.5h-0.5V9.8z M53.9,12.3h0.3v-2.1l0.9,2.1
	h0.2l0.9-2.1v2.1h0.3V9.5h-0.4l-1,2.3l-1-2.3h-0.4V12.3z M59.2,12.3h0.4l-1.1-2.8h-0.2l-1.1,2.8h0.3l0.3-0.8h1.1L59.2,12.3z
	 M58.3,10l0.4,1.2h-0.9L58.3,10z M61.2,12.3c0.3,0,0.6-0.1,0.8-0.2l-0.1-0.3c-0.1,0.1-0.4,0.2-0.7,0.2c-0.7,0-1.1-0.4-1.1-1.1
	c0-0.7,0.4-1.2,1.1-1.2c0.3,0,0.5,0.1,0.7,0.2l0.1-0.3c-0.2-0.1-0.5-0.2-0.8-0.2c-0.8,0-1.4,0.6-1.4,1.5
	C59.8,11.8,60.3,12.3,61.2,12.3z M62.5,12.3h0.3V9.5h-0.3V12.3z M64.7,12.3c0.9,0,1.3-0.7,1.3-1.5c0-0.8-0.4-1.4-1.3-1.4
	c-0.9,0-1.3,0.7-1.3,1.4C63.5,11.7,63.8,12.3,64.7,12.3z M64.7,12.1c-0.6,0-0.9-0.5-0.9-1.2c0-0.6,0.3-1.1,0.9-1.1
	c0.6,0,0.9,0.5,0.9,1.1C65.7,11.5,65.3,12.1,64.7,12.1z M64.4,9.3l0.8-0.4l-0.3-0.2l-0.7,0.5L64.4,9.3z M66.6,12.3h0.3V10l1.7,2.3
	h0.2V9.5h-0.3v2l-1.5-2h-0.4V12.3z"/>
<path class="st0" d="M37.7,7.3c0.3,0,0.6-0.1,0.8-0.2l-0.1-0.3C38.3,6.9,38,7,37.7,7c-0.7,0-1.1-0.4-1.1-1.1c0-0.7,0.4-1.2,1.1-1.2
	c0.3,0,0.5,0.1,0.7,0.2l0.1-0.3c-0.2-0.1-0.5-0.2-0.8-0.2c-0.8,0-1.4,0.6-1.4,1.5C36.3,6.8,36.8,7.3,37.7,7.3z M39,7.3h1.6V7h-1.3
	V5.9h1V5.7h-1V4.8h1.2V4.5H39L39,7.3L39,7.3z M41.2,7.3h0.3V5l1.7,2.3h0.2V4.5H43v2l-1.5-2h-0.4V7.3z M44.9,7.3h0.3V4.8h0.9V4.5
	h-2.2v0.3h0.9L44.9,7.3L44.9,7.3z M48.7,7.3V7h-0.1c-0.1,0-0.1,0-0.2-0.1L48,6.3C48,6.2,47.9,6,47.8,6c0.5-0.1,0.6-0.4,0.6-0.8
	c0-0.5-0.3-0.7-0.9-0.7h-0.8v2.8H47V6h0.3c0.2,0,0.3,0.1,0.4,0.3L48.1,7c0.1,0.2,0.3,0.3,0.4,0.3C48.6,7.3,48.6,7.3,48.7,7.3z
	 M47,4.8h0.4c0.4,0,0.6,0.1,0.6,0.5c0,0.3-0.1,0.5-0.6,0.5H47V4.8z M50.2,7.3c0.9,0,1.3-0.7,1.3-1.5c0-0.8-0.4-1.4-1.3-1.4
	c-0.9,0-1.3,0.7-1.3,1.4C48.9,6.6,49.3,7.3,50.2,7.3z M50.2,7c-0.6,0-0.9-0.5-0.9-1.2c0-0.6,0.3-1.1,0.9-1.1c0.6,0,0.9,0.5,0.9,1.1
	C51.1,6.5,50.8,7,50.2,7z"/>
<path class="st0" d="M38.2,27.8h0.5L37.6,25h-0.3l-1.1,2.8h0.5l0.3-0.7h1L38.2,27.8z M37.4,25.9l0.3,0.8h-0.6L37.4,25.9z M39.3,27.8
	h1.7v-0.5h-1.1V25h-0.5L39.3,27.8L39.3,27.8z M41.6,27.8h1c0.6,0,1-0.3,1-0.8c0-0.4-0.2-0.6-0.6-0.7c0.3-0.1,0.4-0.3,0.4-0.6
	c0-0.5-0.3-0.7-0.9-0.7h-0.9V27.8z M42.1,26.5h0.3c0.4,0,0.6,0.1,0.6,0.4c0,0.2-0.1,0.4-0.5,0.4h-0.4V26.5z M42.1,25.5h0.4
	c0.2,0,0.4,0.1,0.4,0.3c0,0.2-0.2,0.3-0.5,0.3h-0.2L42.1,25.5L42.1,25.5z M44.2,27.8h1.7v-0.5h-1.1v-0.7h0.9v-0.5h-0.9v-0.6h1.1
	v-0.5h-1.6V27.8z M47.1,27.8v-1.1h0.1c0.1,0,0.2,0,0.3,0.1l0.4,0.7c0.1,0.2,0.2,0.3,0.4,0.3c0.1,0,0.3,0,0.3,0v-0.3h-0.1
	c-0.1,0-0.1,0-0.2-0.1l-0.3-0.5c-0.1-0.1-0.1-0.2-0.3-0.3c0.5-0.1,0.7-0.4,0.7-0.7c0-0.6-0.4-0.8-0.9-0.8h-0.9v2.8L47.1,27.8
	L47.1,27.8z M47.1,25.5h0.3c0.3,0,0.5,0.1,0.5,0.3c0,0.2-0.1,0.4-0.4,0.4h-0.3L47.1,25.5L47.1,25.5z M48.9,25v0.5h0.9v2.3h0.5v-2.3
	h0.9V25H48.9z M52.9,27.8c0.9,0,1.3-0.6,1.3-1.5c0-0.8-0.4-1.5-1.3-1.5c-0.9,0-1.3,0.6-1.3,1.5C51.6,27.2,52,27.8,52.9,27.8z
	 M52.9,27.3c-0.5,0-0.7-0.4-0.7-1c0-0.6,0.2-1,0.7-1c0.5,0,0.8,0.3,0.8,1C53.6,27.1,53.4,27.3,52.9,27.3z M56,27.8h1
	c0.6,0,1-0.3,1-0.8c0-0.4-0.2-0.6-0.6-0.7c0.3-0.1,0.4-0.3,0.4-0.6c0-0.5-0.3-0.7-0.9-0.7H56V27.8z M56.5,26.5h0.3
	c0.4,0,0.6,0.1,0.6,0.4c0,0.2-0.1,0.4-0.5,0.4h-0.4V26.5z M56.5,25.5h0.4c0.2,0,0.4,0.1,0.4,0.3c0,0.2-0.2,0.3-0.5,0.3h-0.2
	L56.5,25.5L56.5,25.5z M58.6,27.8h1.7v-0.5h-1.1v-0.7H60v-0.5h-0.9v-0.6h1.1v-0.5h-1.6V27.8z M60.9,27.8h1.7v-0.5h-1.1V25h-0.5
	L60.9,27.8L60.9,27.8z M62.6,25v0.5h0.9v2.3H64v-2.3h0.9V25H62.6z M66.1,27.8v-1.1h0.1c0.1,0,0.2,0,0.3,0.1l0.4,0.7
	c0.1,0.2,0.2,0.3,0.4,0.3c0.1,0,0.3,0,0.3,0v-0.3h-0.1c-0.1,0-0.1,0-0.2-0.1l-0.3-0.5c-0.1-0.1-0.1-0.2-0.3-0.3
	c0.5-0.1,0.7-0.4,0.7-0.7c0-0.6-0.4-0.8-0.9-0.8h-0.9v2.8L66.1,27.8L66.1,27.8z M66.1,25.5h0.3c0.3,0,0.5,0.1,0.5,0.3
	c0,0.2-0.1,0.4-0.4,0.4h-0.3L66.1,25.5L66.1,25.5z M70.1,27.8h0.5L69.5,25h-0.3l-1.1,2.8h0.5l0.3-0.7h1L70.1,27.8z M69.4,25.9
	l0.3,0.8H69L69.4,25.9z M69.3,24.7l0.9-0.3L69.7,24l-0.5,0.5L69.3,24.7z M71.2,27.8h0.5v-2l1.4,2h0.4V25H73v1.7L71.8,25h-0.6V27.8z"
	/>
</svg>
