<?xml version="1.0" encoding="utf-8"?>
<!-- Generator: Adobe Illustrator 22.0.1, SVG Export Plug-In . SVG Version: 6.00 Build 0)  -->
<svg version="1.1" id="Capa_1" xmlns="http://www.w3.org/2000/svg" xmlns:xlink="http://www.w3.org/1999/xlink" x="0px" y="0px"
	 viewBox="0 0 142.2 80" style="enable-background:new 0 0 142.2 80;" xml:space="preserve">
<style type="text/css">
	.st0{fill:#FFFFFF;}
</style>
<path class="st0" d="M11.9,60.6c-0.5,0-0.7-0.2-0.9-0.5l0.5-0.9c0.2,0.2,0.5,0.2,0.7,0.5c0.2,0,0.7,0.2,0.9,0.2c0.2,0,0.5,0,0.7-0.2
	c0.2,0,0.2-0.2,0.2-0.5c0-0.2,0-0.2-0.2-0.2c0,0-0.2-0.2-0.5-0.2c0,0,0,0-0.2,0c-0.5,0-0.7-0.2-0.9-0.2s-0.5-0.2-0.7-0.5
	c-0.2-0.2-0.2-0.5-0.2-0.7c0-0.2,0-0.5,0.2-0.7c0.2-0.2,0.5-0.5,0.7-0.5c0.2-0.2,0.7-0.2,1.2-0.2c0.2,0,0.7,0,0.9,0s0.5,0.2,0.7,0.2
	l-0.5,0.9c-0.5-0.2-0.9-0.5-1.4-0.5c-0.2,0-0.5,0-0.7,0.2c-0.2,0-0.2,0.2-0.2,0.5c0,0.2,0,0.2,0.2,0.5c0.2,0,0.5,0.2,0.7,0.2
	c0.5,0,0.7,0.2,0.9,0.2c0.2,0,0.5,0.2,0.7,0.5C15,59,15,59.2,15,59.4c0,0.2,0,0.5-0.2,0.7c-0.2,0.2-0.5,0.5-0.7,0.5
	c-0.2,0.2-0.7,0.2-1.2,0.2C12.9,60.6,12.4,60.6,11.9,60.6z"/>
<g transform="translate(0.000000,107.000000) scale(0.100000,-0.100000)">
	<path class="st0" d="M126.5,960.5c-3.8-3.1-6.2-63.4-6.2-133.6V698.7l37.5,2.4l36.8,2.4l2.4,53.2l2.4,52.5H229
		c58.6,0,100.2,47.7,89.2,102.5c-7.8,40.6-27.3,50.1-111.1,52.5C165.4,965.2,129.6,963.6,126.5,960.5z M241.4,887.1
		c0-15.7-4.7-20.4-21.1-21.8c-19.5-2.4-21.8,0-21.8,21.8c0,21.8,2.4,24.2,21.8,21.8C236.6,907.3,241.4,902.6,241.4,887.1z"/>
	<path class="st0" d="M336.8,844.9c-20.4-65.7-39.2-125.8-41.5-132.9c-4.7-11.6,0-13.3,32.8-10.9c35.1,2.4,38.2,3.8,45.3,28.2
		c6.2,21.8,10.2,24.9,32.8,24.9c23.5,0,26.6-2.4,31.3-27.3c4.7-26.6,5.5-27.3,43-27.3c29,0,38.2,3.1,38.2,11.6
		c0,6.2-15.7,64.8-35.1,129.8c-19.5,65-35.1,119.6-35.1,121.3c0,1.7-17.1,3.1-37.5,3.1h-38.2L336.8,844.9z M416.5,822.8
		c0.7-15-3.1-21.8-10.9-21.8c-13.3,0-14,9.5-6.2,47.7c3.8,21.8,5.5,23.5,10.9,10.9C413.4,851.1,416.5,834.7,416.5,822.8z"/>
	<path class="st0" d="M573.7,935.5c-59.3-59.3-61-153.3-3.8-210.3c21.8-21.8,31.3-25.9,61-25.9c53.2,0,60.3,4.7,60.3,39.9
		c0,28.2-1.7,30.4-15,22.8c-22.8-11.6-30.4-10.2-51.5,11.6c-29.7,29-24.9,108.7,7.1,131.2c4.7,3.1,20.4,3.8,34.4,1.7
		c24.9-4.7,24.9-4.7,24.9,27.3v31.3h-43.7C606.6,965.2,600.9,962.8,573.7,935.5z"/>
	<path class="st0" d="M727.7,959.8c-3.1-2.4-5.5-62.7-5.5-132.9V698.7l37.5,2.4l36.8,2.4v76.7v76.7l14-33.7
		c7.1-18.7,18-43.7,23.5-56.2l10.9-23.5l22.8,57.9l22.8,58.6l2.4-80.5l2.4-79.7h34.2c29,0,35.1,2.4,35.1,14s42.2,40.6,59.3,40.6
		c7.1,0-79.7-122-131.2-185.4c-60.3-74.3-116.5-122.7-178.2-153.3c-41.5-20.4-59.3-24.9-102.5-24.9c-44.6,0-55.5,3.1-72.6,18.7
		c-10.9,10.2-21.1,25.9-22.8,35.1c-2.4,15.7-3.1,15-11.6-3.8c-37.5-90,112.5-104.7,238.5-23.5c72.6,47,131.2,109.4,244,260.4
		c56.2,75.9,105.6,140.7,109.4,142.4c3.8,2.4,9.5-8.5,12.6-24.9c12.6-68.8,71.2-112.5,129.8-97.8c23.5,6.2,26.6,10.2,29,36.1
		c2.4,28.2,2.4,28.2-24.2,23.5c-38.2-6.2-60.3,18.7-60.3,70.5c0,62.7,18.7,86.9,61,79l25.9-4.7l-2.4,29.7
		c-2.4,30.4-2.4,30.4-37.5,32.8c-49.4,3.1-80.5-19.5-130.5-96.1c-59.3-92.3-64.1-97.8-93-111.8c-18.7-8.5-29-10.2-35.1-3.8
		c-10.2,10.2,2.4,36.1,52.5,108c31.3,43.7,33.7,50.8,20.4,50.8c-9.5,0-29.7-15.7-47.7-36.8l-32-37.5v64.8v64.1h-39.2
		c-33.7,0-40.6-2.4-46-17.1c-3.8-10.2-13.3-32-20.4-49.4l-13.3-31.3l-19.5,49.4l-19.5,48.4h-36.8
		C749.5,965.2,730.1,962.8,727.7,959.8z"/>
	<path class="st0" d="M127.9,653.1c-19.5-36.8,0-113.4,24.9-97.8c5.5,3.1,3.1,7.8-4.7,12.6c-17.1,9.5-18,75-0.7,81.4
		c15,6.2,15,18.7,0,18.7C141.2,668.1,132.7,660.9,127.9,653.1z"/>
	<path class="st0" d="M208.6,613.2c0-38.2,1.7-49.4,4.7-32c6.2,37.5,24.2,41.5,24.2,5.5c0-15.7,3.8-28.2,7.8-28.2
		c4.7,0,7.8,21.8,7.8,50.1c0,28.2-3.1,53.2-7.8,55.5c-4.7,3.1-7.8-5.5-7.8-18.7c0-33.7-21.1-32-25.9,1.7
		C210,660.2,208.6,645.5,208.6,613.2z"/>
	<path class="st0" d="M302.4,613.2c0-32,1.7-45.3,3.1-29c1.7,15.7,1.7,42.2,0,58.6C304,658.8,302.4,645.5,302.4,613.2z"/>
	<path class="st0" d="M365,613.2c0-32,1.7-45.3,3.1-29c2.4,18,7.1,29,14,29c6.9,0,11.6-10.9,14-29c1.7-16.4,3.1-3.1,3.1,29
		c0,32-1.7,47-3.1,33.7c-2.4-15-7.8-25.9-14-25.9s-11.6,10.9-14,25.9C366.5,660.2,365,645.5,365,613.2z"/>
	<path class="st0" d="M454.7,663.3c-10.2-10.2-7.1-85.2,4.7-100.9c9.5-12.6,12.6-13.3,23.5-4.7c9.5,7.8,12.6,24.2,12.6,61
		c0,31.3-3.1,48.4-7.8,45.3c-3.8-2.4-7.8-25.9-7.8-51.5c0-63.4-14-58.6-17.1,5.5C461.2,646.2,458.1,666.4,454.7,663.3z"/>
	<path class="st0" d="M551.1,618.7c-10.2-60.3-10.2-67.2-0.7-52.5c6.2,10.2,10.2,10.2,24.2,1.7c15.7-10.2,16.4-9.5,12.6,7.8
		c-2.4,9.5-7.1,32.8-10.2,51.5C568.9,676.6,560.4,674.2,551.1,618.7z M573.7,600.9c0-6.2-3.1-10.9-7.8-10.9c-3.8,0-7.8,7.1-7.8,16.4
		c0,8.5,3.8,13.3,7.8,10.9C570.6,614.9,573.7,607.1,573.7,600.9z"/>
	<path class="st0" d="M638.7,613.2c0-32,1.7-45.3,3.1-29c2.4,18,7.1,29,14,29c6.9,0,11.6-10.9,14-29c1.7-16.4,3.1-3.1,3.1,29
		c0,32-1.7,47-3.1,33.7c-2.4-15-7.8-25.9-14-25.9c-6.2,0-11.6,10.9-14,25.9C640.1,660.2,638.7,645.5,638.7,613.2z"/>
	<path class="st0" d="M728.4,663.3c-11.6-10.9-7.1-87.6,5.5-100.2c24.2-24.2,35.1-7.1,33.7,53.2l-0.7,55.5l-4.7-50.1
		c-6.2-69.5-22.8-72.6-25.9-4.7C734.8,646.2,731.7,666.4,728.4,663.3z"/>
	<path class="st0" d="M829.3,639.1c-3.1-16.4-7.1-41.5-10.2-55.5c-5.5-25.9-4.7-26.6,11.6-15.7c14,8.5,18,8.5,24.9-1.7
		c6.2-8.5,7.1-4.7,3.8,15.7c-3.1,15-7.1,40.6-10.2,57c-2.4,15.7-7.1,29-10.2,29C836.4,668.1,831.6,654.8,829.3,639.1z M847.3,605.4
		c0-8.5-3.1-15.7-7.8-15.7c-3.8,0-7.8,7.1-7.8,15.7s3.8,15.7,7.8,15.7C844.2,621.1,847.3,614.2,847.3,605.4z"/>
</g>
</svg>
