<?xml version="1.0" encoding="utf-8"?>
<!-- Generator: Adobe Illustrator 22.0.1, SVG Export Plug-In . SVG Version: 6.00 Build 0)  -->
<svg version="1.1" id="Capa_1" xmlns="http://www.w3.org/2000/svg" xmlns:xlink="http://www.w3.org/1999/xlink" x="0px" y="0px"
	 viewBox="0 0 80 30" style="enable-background:new 0 0 80 30;" xml:space="preserve">
<style type="text/css">
	.st0{fill:#FFFFFF;}
</style>
<path class="st0" d="M2.5,23.8c-0.2,0-0.3-0.1-0.4-0.2l0.2-0.4c0.1,0.1,0.2,0.1,0.3,0.2c0.1,0,0.3,0.1,0.4,0.1c0.1,0,0.2,0,0.3-0.1
	c0.1,0,0.1-0.1,0.1-0.2c0-0.1,0-0.1-0.1-0.1c0,0-0.1-0.1-0.2-0.1C3.1,23,3.1,23,3,23c-0.2,0-0.3-0.1-0.4-0.1c-0.1,0-0.2-0.1-0.3-0.2
	c-0.1-0.1-0.1-0.2-0.1-0.3c0-0.1,0-0.2,0.1-0.3c0.1-0.1,0.2-0.2,0.3-0.2c0.1-0.1,0.3-0.1,0.5-0.1c0.1,0,0.3,0,0.4,0
	c0.1,0,0.2,0.1,0.3,0.1l-0.2,0.4c-0.2-0.1-0.4-0.2-0.6-0.2c-0.1,0-0.2,0-0.3,0.1c-0.1,0-0.1,0.1-0.1,0.2c0,0.1,0,0.1,0.1,0.2
	c0.1,0,0.2,0.1,0.3,0.1c0.2,0,0.3,0.1,0.4,0.1c0.1,0,0.2,0.1,0.3,0.2c0.1,0.1,0.1,0.2,0.1,0.3c0,0.1,0,0.2-0.1,0.3
	c-0.1,0.1-0.2,0.2-0.3,0.2c-0.1,0.1-0.3,0.1-0.5,0.1C2.9,23.8,2.7,23.8,2.5,23.8z"/>
<path class="st0" d="M38.7,23.2L38,23.5l0.1,0.5l0.5-0.2h0v2.1h0.6v-2.7H38.7z"/>
<path class="st0" d="M43.6,24.3c-0.1,0.1-0.2,0.2-0.3,0.2c-0.3,0-0.4-0.2-0.4-0.4c0-0.3,0.2-0.5,0.4-0.5h0c0.3,0,0.4,0.3,0.4,0.6
	C43.7,24.2,43.7,24.3,43.6,24.3z M43.3,23.1c-0.6,0-1,0.4-1,1c0,0.5,0.4,0.8,0.8,0.8c0.2,0,0.4-0.1,0.5-0.2h0c0,0.2-0.2,0.4-0.3,0.5
	c-0.1,0.1-0.3,0.2-0.5,0.2c-0.1,0-0.2,0-0.3,0v0.5c0.1,0,0.2,0,0.3,0c0.4,0,0.8-0.1,1-0.4c0.3-0.3,0.5-0.7,0.5-1.2
	C44.3,23.7,44,23.1,43.3,23.1z"/>
<path class="st0" d="M48.5,24.4c0.3-0.1,0.5-0.3,0.5-0.6c0-0.4-0.3-0.7-0.9-0.7c-0.3,0-0.7,0.1-0.8,0.2l0.1,0.5
	c0.1-0.1,0.3-0.2,0.6-0.2c0.3,0,0.4,0.1,0.4,0.3c0,0.2-0.3,0.3-0.5,0.3h-0.2v0.4h0.3c0.3,0,0.5,0.1,0.5,0.4c0,0.2-0.2,0.4-0.5,0.4
	c-0.3,0-0.5-0.1-0.6-0.2l-0.1,0.5c0.2,0.1,0.4,0.2,0.8,0.2c0.7,0,1.1-0.3,1.1-0.8C49.1,24.7,48.8,24.5,48.5,24.4z"/>
<path class="st0" d="M53.4,24.3c-0.1,0.1-0.2,0.2-0.3,0.2c-0.3,0-0.4-0.2-0.4-0.4c0-0.3,0.2-0.5,0.4-0.5h0c0.3,0,0.4,0.3,0.4,0.6
	C53.5,24.2,53.4,24.3,53.4,24.3z M53.1,23.1c-0.6,0-1,0.4-1,1c0,0.5,0.4,0.8,0.8,0.8c0.2,0,0.4-0.1,0.5-0.2h0c0,0.2-0.2,0.4-0.3,0.5
	c-0.1,0.1-0.3,0.2-0.5,0.2c-0.1,0-0.2,0-0.3,0v0.5c0.1,0,0.2,0,0.3,0c0.4,0,0.8-0.1,1-0.4c0.3-0.3,0.5-0.7,0.5-1.2
	C54.1,23.7,53.8,23.1,53.1,23.1z"/>
<path class="st0" d="M58.1,24.6H57V25h1.1V24.6z"/>
<path class="st0" d="M61.9,25.3l0.2-0.2c0.4-0.3,0.7-0.7,0.7-1.1c0-0.5-0.3-0.8-0.9-0.8c-0.4,0-0.7,0.1-0.9,0.3l0.2,0.4
	c0.1-0.1,0.3-0.2,0.6-0.2c0.3,0,0.4,0.2,0.4,0.4c0,0.3-0.3,0.6-0.9,1.1L61,25.5v0.4h1.9v-0.5H61.9z"/>
<path class="st0" d="M67.2,25.4c-0.4,0-0.7-0.4-0.7-0.9c0-0.5,0.2-0.9,0.7-0.9c0.4,0,0.7,0.4,0.7,0.9C67.8,25,67.6,25.4,67.2,25.4z
	 M67.2,23.1c-0.8,0-1.3,0.6-1.3,1.4c0,0.8,0.5,1.4,1.3,1.4c0.8,0,1.4-0.5,1.4-1.4C68.5,23.7,68,23.1,67.2,23.1z"/>
<path class="st0" d="M72,23.2l-0.7,0.3l0.1,0.5l0.5-0.2h0v2.1h0.6v-2.7H72z"/>
<path class="st0" d="M77,24.3c-0.1,0.1-0.2,0.2-0.3,0.2c-0.3,0-0.4-0.2-0.4-0.4c0-0.3,0.2-0.5,0.4-0.5h0c0.3,0,0.4,0.3,0.4,0.6
	C77,24.2,77,24.3,77,24.3z M76.7,23.1c-0.6,0-1,0.4-1,1c0,0.5,0.4,0.8,0.8,0.8c0.2,0,0.4-0.1,0.5-0.2h0c0,0.2-0.2,0.4-0.3,0.5
	c-0.1,0.1-0.3,0.2-0.5,0.2c-0.1,0-0.2,0-0.3,0v0.5c0.1,0,0.2,0,0.3,0c0.4,0,0.8-0.1,1-0.4c0.3-0.3,0.5-0.7,0.5-1.2
	C77.7,23.7,77.3,23.1,76.7,23.1z"/>
<path class="st0" d="M23.3,24.7H5.2v3.3h18.1V24.7z"/>
<path class="st0" d="M25.3,8.5h4.6v15.1h-4.6V8.5z"/>
<path class="st0" d="M31.3,8.5h5.9l2,8.4l2-8.4h5.9v15.1h-3.8v-9.8l-2.3,9.8h-3.5l-2.3-9.8v9.8h-3.8V8.5z"/>
<path class="st0" d="M48.4,8.5h11.8V12h-7.1v2h6.6v3.4h-6.6v2.5h7.3v3.7h-12V8.5z"/>
<path class="st0" d="M61.6,23.6V8.5H69c1.3,0,2.3,0.1,3,0.4c0.7,0.2,1.3,0.9,1.7,1.5c0.4,0.7,0.6,1.5,0.6,2.4c0,0.8-0.2,1.5-0.5,2.1
	c-0.3,0.6-0.8,1.1-1.3,1.4c-0.4,0.2-0.5,0.4-1.1,0.6c0.5,0.2,0.7,0.5,0.9,0.7c0.2,0.1,0.4,0.4,0.7,0.8c0.3,0.4,0.5,0.7,0.6,0.9
	l2.1,4.3h-5.2l-2.3-4.5c-0.3-0.6-0.5-1-0.7-1.1c-0.3-0.2-0.4-0.3-0.8-0.3h-0.4v6L61.6,23.6L61.6,23.6z M66.2,14.4h1.6
	c0.2,0,0.4,0,1-0.1c0.3-0.1,0.5-0.1,0.7-0.4c0.1-0.1,0.3-0.3,0.3-0.6c0-0.5-0.1-0.8-0.4-1.1c-0.3-0.2-0.7-0.4-1.4-0.4h-1.6
	L66.2,14.4L66.2,14.4z"/>
<path class="st0" d="M25.3,27.5l0.4-1.9h0.4l-0.4,1.9H25.3z"/>
<path class="st0" d="M27.7,27.5h-0.3l-0.5-1.3l-0.3,1.3h-0.3l0.4-1.9H27l0.5,1.3l0.2-1.3H28L27.7,27.5z"/>
<path class="st0" d="M28.3,26.8l0.4,0c0,0.1,0,0.2,0.1,0.2c0.1,0.1,0.2,0.1,0.3,0.1c0.1,0,0.2,0,0.3-0.1c0.1,0,0.1-0.1,0.1-0.2
	s0-0.1-0.1-0.1c0,0-0.1-0.1-0.3-0.1c-0.1-0.1-0.2-0.1-0.3-0.2c-0.1,0-0.1-0.1-0.2-0.2c0-0.1-0.1-0.1-0.1-0.2c0-0.2,0.1-0.3,0.2-0.4
	c0.1-0.1,0.3-0.2,0.5-0.2c0.2,0,0.4,0,0.5,0.2c0.1,0.1,0.2,0.2,0.2,0.4l-0.4,0c0-0.1,0-0.2-0.1-0.2c-0.1,0-0.1-0.1-0.2-0.1
	c-0.1,0-0.2,0-0.2,0.1c0,0-0.1,0.1-0.1,0.1c0,0,0,0.1,0.1,0.1c0,0,0.1,0.1,0.3,0.1c0.2,0.1,0.3,0.2,0.4,0.2c0.1,0.1,0.1,0.2,0.1,0.3
	c0,0.2-0.1,0.3-0.2,0.4c-0.1,0.1-0.3,0.2-0.5,0.2c-0.2,0-0.3,0-0.4-0.1c-0.1,0-0.2-0.1-0.2-0.2C28.3,27.1,28.3,27,28.3,26.8z"/>
<path class="st0" d="M30.9,27.5h-0.4l0.3-1.6h-0.5l0.1-0.3h1.4l-0.1,0.3h-0.5L30.9,27.5z"/>
<path class="st0" d="M31.9,27.5l0.4-1.9h0.4l-0.4,1.9H31.9z"/>
<path class="st0" d="M33.6,27.5h-0.4l0.3-1.6H33l0.1-0.3h1.4l-0.1,0.3h-0.5L33.6,27.5z"/>
<path class="st0" d="M34.9,25.6h0.4l-0.2,1l0,0.2c0,0,0,0,0,0.1c0,0.1,0,0.1,0.1,0.2c0.1,0,0.1,0.1,0.2,0.1c0.1,0,0.2,0,0.2,0
	c0.1,0,0.1-0.1,0.1-0.2c0-0.1,0.1-0.2,0.1-0.4l0.2-1h0.4l-0.2,1.1c0,0.2-0.1,0.4-0.2,0.5c-0.1,0.1-0.1,0.2-0.3,0.3
	c-0.1,0.1-0.3,0.1-0.5,0.1c-0.2,0-0.4,0-0.5-0.2c-0.1-0.1-0.2-0.2-0.2-0.4c0,0,0-0.1,0-0.1c0,0,0-0.1,0-0.2L34.9,25.6z"/>
<path class="st0" d="M37.3,27.5h-0.4l0.3-1.6h-0.5l0.1-0.3h1.4l-0.1,0.3h-0.5L37.3,27.5z"/>
<path class="st0" d="M38.9,26.1c0.1-0.2,0.3-0.3,0.4-0.3c0.1,0,0.2,0,0.3,0.1c0.1,0.1,0.1,0.2,0.1,0.3c0,0.1,0,0.3-0.1,0.4
	c-0.1,0.1-0.1,0.2-0.2,0.3c-0.1,0.1-0.2,0.1-0.3,0.1c-0.1,0-0.2,0-0.3-0.1c-0.1-0.1-0.1-0.2-0.1-0.3C38.7,26.5,38.8,26.3,38.9,26.1z
	 M38.4,27.1c0,0.1,0.1,0.2,0.2,0.3c0.1,0.1,0.3,0.1,0.4,0.1c0.2,0,0.4,0,0.5-0.1c0.2-0.1,0.3-0.2,0.4-0.4c0.1-0.2,0.1-0.4,0.1-0.6
	c0-0.2-0.1-0.4-0.2-0.6c-0.1-0.1-0.3-0.2-0.5-0.2c-0.2,0-0.3,0-0.5,0.1s-0.2,0.2-0.3,0.3c-0.1,0.1-0.2,0.3-0.2,0.4
	c0,0.1,0,0.2,0,0.4C38.4,26.8,38.4,27,38.4,27.1z"/>
<path class="st0" d="M42.4,27.5H42l-0.1-1.6l-0.3,1.6h-0.3l0.4-1.9h0.5l0.1,1.3l0.6-1.3h0.5L43,27.5h-0.3l0.3-1.6L42.4,27.5z"/>
<path class="st0" d="M43.6,27.5l0.4-1.9h1.3l-0.1,0.3h-1l-0.1,0.4h0.9l-0.1,0.3h-0.9L44,27.1h1.1L45,27.5L43.6,27.5L43.6,27.5z"/>
<path class="st0" d="M45.8,27.5h-0.5l0.8-1l-0.4-0.9H46l0.2,0.3c0,0,0,0.1,0.1,0.3c0,0,0,0,0,0c0.1-0.1,0.2-0.2,0.2-0.3l0.3-0.3h0.5
	l-0.8,1l0.5,0.9h-0.4l-0.1-0.3c-0.1-0.1-0.1-0.2-0.1-0.3c0,0-0.1,0.1-0.2,0.3L45.8,27.5z"/>
<path class="st0" d="M47.4,27.5l0.4-1.9h0.4l-0.4,1.9H47.4z"/>
<path class="st0" d="M49.6,26.8l0.4,0.1c-0.1,0.2-0.2,0.4-0.3,0.5c-0.1,0.1-0.3,0.2-0.5,0.2c-0.2,0-0.4-0.1-0.5-0.2
	c-0.1-0.1-0.2-0.3-0.2-0.6c0-0.2,0-0.4,0.1-0.6c0.1-0.2,0.2-0.3,0.3-0.4c0.1-0.1,0.3-0.1,0.5-0.1c0.2,0,0.4,0,0.5,0.2
	c0.1,0.1,0.2,0.3,0.2,0.4l-0.4,0c0-0.1-0.1-0.2-0.1-0.2c-0.1,0-0.1-0.1-0.2-0.1c-0.1,0-0.2,0-0.3,0.1c-0.1,0.1-0.2,0.2-0.2,0.3
	c-0.1,0.1-0.1,0.3-0.1,0.4c0,0.1,0,0.3,0.1,0.3c0.1,0.1,0.2,0.1,0.3,0.1c0.1,0,0.2,0,0.3-0.1C49.5,27,49.6,26.9,49.6,26.8z"/>
<path class="st0" d="M50.9,26.7l0.4-0.8l0.1,0.8H50.9z M51.6,27.5h0.4l-0.3-1.9h-0.4l-1,1.9h0.4l0.2-0.4h0.7L51.6,27.5z"/>
<path class="st0" d="M53.8,27.5h-0.3L53,26.2l-0.3,1.3h-0.3l0.4-1.9h0.3l0.5,1.3l0.2-1.3h0.3L53.8,27.5z"/>
<path class="st0" d="M55,26.1c0.1-0.2,0.3-0.3,0.4-0.3c0.1,0,0.2,0,0.3,0.1c0.1,0.1,0.1,0.2,0.1,0.3c0,0.1,0,0.3-0.1,0.4
	c-0.1,0.1-0.1,0.2-0.2,0.3c-0.1,0.1-0.2,0.1-0.3,0.1c-0.1,0-0.2,0-0.3-0.1c-0.1-0.1-0.1-0.2-0.1-0.3C54.8,26.5,54.9,26.3,55,26.1z
	 M54.5,27.1c0,0.1,0.1,0.2,0.2,0.3c0.1,0.1,0.3,0.1,0.4,0.1c0.2,0,0.4,0,0.5-0.1c0.2-0.1,0.3-0.2,0.4-0.4c0.1-0.2,0.1-0.4,0.1-0.6
	c0-0.2-0.1-0.4-0.2-0.6c-0.1-0.1-0.3-0.2-0.5-0.2c-0.2,0-0.3,0-0.5,0.1c-0.1,0.1-0.2,0.2-0.3,0.3c-0.1,0.1-0.2,0.3-0.2,0.4
	c0,0.1,0,0.2,0,0.4C54.5,26.8,54.5,27,54.5,27.1z"/>
<path class="st0" d="M58.1,25.9h0.2c0.1,0,0.2,0,0.2,0c0.1,0,0.1,0.1,0.2,0.1c0,0.1,0.1,0.2,0.1,0.3c0,0.2,0,0.3-0.1,0.4
	c0,0.1-0.1,0.2-0.2,0.3c0,0-0.1,0.1-0.2,0.1c-0.1,0-0.2,0-0.3,0h-0.2L58.1,25.9z M58.1,27.5c0.2,0,0.3,0,0.4,0
	c0.1,0,0.2-0.1,0.3-0.2c0.1-0.1,0.2-0.2,0.3-0.4c0.1-0.2,0.1-0.3,0.1-0.5c0-0.1,0-0.2,0-0.3c0-0.1,0-0.1-0.1-0.2
	c0-0.1-0.1-0.1-0.1-0.2c0,0-0.1-0.1-0.2-0.1s-0.1,0-0.2,0c0,0-0.1,0-0.3,0h-0.5l-0.4,1.9H58.1z"/>
<path class="st0" d="M59.5,27.5l0.4-1.9h1.3l-0.1,0.3h-1L60,26.3H61l-0.1,0.3H60l-0.1,0.5h1.1l-0.1,0.3L59.5,27.5L59.5,27.5z"/>
<path class="st0" d="M62.2,27.5l0.4-1.9H63l-0.3,1.6h0.9l-0.1,0.3L62.2,27.5L62.2,27.5z"/>
<path class="st0" d="M64.6,26.7L65,26l0.1,0.8H64.6z M65.2,27.5h0.4l-0.3-1.9h-0.4l-1,1.9h0.4l0.2-0.4h0.7L65.2,27.5z"/>
<path class="st0" d="M67.5,25.9h0.4c0.1,0,0.2,0,0.2,0c0,0,0.1,0.1,0.1,0.2c0,0.1,0,0.1-0.1,0.2c0,0-0.1,0.1-0.2,0.1
	c-0.1,0-0.2,0-0.4,0h-0.2L67.5,25.9z M67.4,26.7h0.2c0.1,0,0.2,0,0.2,0c0.1,0,0.1,0.1,0.2,0.2c0.1,0.2,0.2,0.4,0.2,0.5h0.4
	c-0.1-0.3-0.2-0.5-0.3-0.6c0-0.1-0.1-0.1-0.1-0.2c0.2,0,0.3-0.1,0.4-0.2c0.1-0.1,0.1-0.2,0.1-0.4c0-0.1,0-0.2-0.1-0.3
	c0-0.1-0.1-0.1-0.2-0.2c-0.1,0-0.2,0-0.3,0h-0.8l-0.4,1.9h0.4L67.4,26.7z"/>
<path class="st0" d="M69.5,26.7l0.4-0.8l0.1,0.8H69.5z M70.1,27.5h0.4l-0.3-1.9h-0.4l-1,1.9h0.4l0.2-0.4H70L70.1,27.5z"/>
<path class="st0" d="M71.6,25.9h0.2c0.1,0,0.2,0,0.2,0c0.1,0,0.1,0.1,0.2,0.1c0,0.1,0.1,0.2,0.1,0.3c0,0.2,0,0.3-0.1,0.4
	c0,0.1-0.1,0.2-0.2,0.3c0,0-0.1,0.1-0.2,0.1c-0.1,0-0.2,0-0.3,0h-0.2L71.6,25.9z M71.5,27.5c0.2,0,0.3,0,0.4,0
	c0.1,0,0.2-0.1,0.3-0.2c0.1-0.1,0.2-0.2,0.3-0.4c0.1-0.2,0.1-0.3,0.1-0.5c0-0.1,0-0.2,0-0.3c0-0.1,0-0.1-0.1-0.2
	c0-0.1-0.1-0.1-0.1-0.2c0,0-0.1-0.1-0.2-0.1c-0.1,0-0.1,0-0.2,0c0,0-0.1,0-0.3,0h-0.5l-0.4,1.9H71.5z"/>
<path class="st0" d="M72.9,27.5l0.4-1.9h0.4l-0.4,1.9H72.9z"/>
<path class="st0" d="M74.4,26.1c0.1-0.2,0.3-0.3,0.4-0.3c0.1,0,0.2,0,0.3,0.1c0.1,0.1,0.1,0.2,0.1,0.3c0,0.1,0,0.3-0.1,0.4
	c-0.1,0.1-0.1,0.2-0.2,0.3c-0.1,0.1-0.2,0.1-0.3,0.1c-0.1,0-0.2,0-0.3-0.1c-0.1-0.1-0.1-0.2-0.1-0.3C74.3,26.5,74.3,26.3,74.4,26.1z
	 M74,27.1c0,0.1,0.1,0.2,0.2,0.3c0.1,0.1,0.3,0.1,0.4,0.1c0.2,0,0.4,0,0.5-0.1s0.3-0.2,0.4-0.4c0.1-0.2,0.1-0.4,0.1-0.6
	c0-0.2-0.1-0.4-0.2-0.6c-0.1-0.1-0.3-0.2-0.5-0.2c-0.2,0-0.3,0-0.5,0.1s-0.2,0.2-0.3,0.3c-0.1,0.1-0.2,0.3-0.2,0.4
	c0,0.1,0,0.2,0,0.4C73.9,26.8,73.9,27,74,27.1z"/>
<path class="st0" d="M23.3,12.1c-0.1-5.2-4.1-9.3-9.1-9.3c-5,0-9.1,4.3-9.1,9.5c0,0.1,0,0.2,0,0.3v11H11v-3.3c-2.9-1.3-5-4.3-5-7.9
	c0-4.7,3.7-8.6,8.2-8.6c4.5,0,8.2,3.8,8.2,8.6c0,3.5-2,6.6-5,7.9v3.3h5.9V12.1z"/>
<path class="st0" d="M14.3,5.2c-3.8,0-6.8,3.2-6.8,7.1c0,3.9,3,7.1,6.8,7.1c3.8,0,6.8-3.2,6.8-7.1C21.1,8.4,18,5.2,14.3,5.2z
	 M14.3,17.1c-2.5,0-4.5-2.1-4.5-4.8c0-2.6,2-4.8,4.5-4.8c2.5,0,4.5,2.1,4.5,4.8C18.8,15,16.8,17.1,14.3,17.1z"/>
<path class="st0" d="M14.3,9.1c-1.8,0-3.2,1.5-3.2,3.3s1.4,3.3,3.2,3.3s3.2-1.5,3.2-3.3C17.4,10.5,16,9.1,14.3,9.1z M14.3,14.6
	c-1.2,0-2.1-1-2.1-2.2s0.9-2.2,2.1-2.2s2.1,1,2.1,2.2S15.4,14.6,14.3,14.6z"/>
</svg>
