<?xml version="1.0" encoding="utf-8"?>
<!-- Generator: Adobe Illustrator 22.0.1, SVG Export Plug-In . SVG Version: 6.00 Build 0)  -->
<svg version="1.1" id="Capa_1" xmlns="http://www.w3.org/2000/svg" xmlns:xlink="http://www.w3.org/1999/xlink" x="0px" y="0px"
	 viewBox="0 0 80 30" style="enable-background:new 0 0 80 30;" xml:space="preserve">
<style type="text/css">
	.st0{fill:#FFFFFF;}
</style>
<path class="st0" d="M2.5,23.8c-0.2,0-0.3-0.1-0.4-0.2l0.2-0.4c0.1,0.1,0.2,0.1,0.3,0.2c0.1,0,0.3,0.1,0.4,0.1c0.1,0,0.2,0,0.3-0.1
	c0.1,0,0.1-0.1,0.1-0.2c0-0.1,0-0.1-0.1-0.1c0,0-0.1-0.1-0.2-0.1C3.1,23,3.1,23,3,23c-0.2,0-0.3-0.1-0.4-0.1c-0.1,0-0.2-0.1-0.3-0.2
	c-0.1-0.1-0.1-0.2-0.1-0.3c0-0.1,0-0.2,0.1-0.3c0.1-0.1,0.2-0.2,0.3-0.2c0.1-0.1,0.3-0.1,0.5-0.1c0.1,0,0.3,0,0.4,0
	c0.1,0,0.2,0.1,0.3,0.1l-0.2,0.4c-0.2-0.1-0.4-0.2-0.6-0.2c-0.1,0-0.2,0-0.3,0.1c-0.1,0-0.1,0.1-0.1,0.2c0,0.1,0,0.1,0.1,0.2
	c0.1,0,0.2,0.1,0.3,0.1c0.2,0,0.3,0.1,0.4,0.1c0.1,0,0.2,0.1,0.3,0.2c0.1,0.1,0.1,0.2,0.1,0.3c0,0.1,0,0.2-0.1,0.3
	c-0.1,0.1-0.2,0.2-0.3,0.2c-0.1,0.1-0.3,0.1-0.5,0.1C2.9,23.8,2.7,23.8,2.5,23.8z"/>
<g>
	<path class="st0" d="M39.4,5.1c-0.2,0-0.4,0.1-0.5,0.2c-0.1,0.1-0.2,0.3-0.2,0.5v1.9c0,0.4,0.2,0.7,0.7,0.7c0.1,0,0.2,0,0.3,0
		c0.1,0,0.1,0,0.2-0.1S40,8.1,40,8.1c0.1-0.1,0.1-0.1,0.2-0.2l0.5,0.6c-0.2,0.2-0.4,0.3-0.6,0.4S39.7,9,39.4,9
		c-0.5,0-0.8-0.1-1.1-0.4s-0.4-0.6-0.4-1V5.7c0-0.2,0-0.4,0.1-0.6c0.1-0.2,0.2-0.3,0.3-0.4s0.3-0.2,0.5-0.3c0.2-0.1,0.4-0.1,0.6-0.1
		c0.2,0,0.3,0,0.4,0c0.1,0,0.2,0.1,0.4,0.1c0.1,0.1,0.2,0.1,0.3,0.2c0.1,0.1,0.2,0.2,0.3,0.3l-0.5,0.5c-0.1-0.1-0.2-0.2-0.3-0.3
		C39.8,5.1,39.6,5.1,39.4,5.1"/>
	<polygon class="st0" points="42.6,7 42.6,8.2 44.1,8.2 44.1,9 41.8,9 41.8,4.4 44,4.4 44,5.1 42.6,5.1 42.6,6.3 43.8,6.3 43.8,7 	
		"/>
	<polygon class="st0" points="47.7,4.4 48.5,4.4 48.5,9 47.2,9 46,5.3 46,9 45.2,9 45.2,4.4 46.4,4.4 47.7,8.1 	"/>
	<polygon class="st0" points="49.4,5.1 49.4,4.4 52.5,4.4 52.5,5.1 51.3,5.1 51.3,9 50.5,9 50.5,5.1 	"/>
	<path class="st0" d="M55.9,6.6c-0.1,0.2-0.3,0.3-0.5,0.4L56.3,9h-0.9l-0.9-1.9h-0.4V9h-0.8V4.4h1.5c0.4,0,0.7,0.1,0.9,0.3
		c0.2,0.2,0.3,0.5,0.3,0.9V6C56.1,6.3,56.1,6.5,55.9,6.6 M54.2,6.4h0.7c0.1,0,0.2,0,0.3-0.1c0.1-0.1,0.1-0.2,0.1-0.3V5.6
		c0-0.1,0-0.2-0.1-0.3c-0.1-0.1-0.2-0.1-0.3-0.1h-0.7L54.2,6.4L54.2,6.4z"/>
	<path class="st0" d="M59.4,4.4c0.2,0.1,0.4,0.2,0.5,0.3C60,4.8,60.1,5,60.2,5.1c0.1,0.2,0.1,0.4,0.1,0.6v1.9c0,0.2,0,0.4-0.1,0.6
		c-0.1,0.2-0.2,0.3-0.3,0.4c-0.1,0.1-0.3,0.2-0.5,0.3C59.2,9,59,9,58.8,9h-0.1C58.5,9,58.2,9,58,9c-0.2-0.1-0.4-0.1-0.5-0.3
		c-0.1-0.1-0.3-0.3-0.3-0.4c-0.1-0.2-0.1-0.4-0.1-0.6V5.7c0-0.2,0-0.4,0.1-0.6c0.1-0.2,0.2-0.3,0.3-0.4c0.1-0.1,0.3-0.2,0.5-0.3
		c0.2-0.1,0.4-0.1,0.6-0.1h0.1C59,4.3,59.2,4.4,59.4,4.4 M59.5,5.7c0-0.2-0.1-0.4-0.2-0.5c-0.1-0.1-0.3-0.2-0.5-0.2h-0.1
		c-0.2,0-0.4,0.1-0.5,0.2c-0.1,0.1-0.2,0.3-0.2,0.5v1.9c0,0.2,0.1,0.4,0.2,0.5c0.1,0.1,0.3,0.2,0.5,0.2h0.1c0.2,0,0.4-0.1,0.5-0.2
		c0.1-0.1,0.2-0.3,0.2-0.5L59.5,5.7L59.5,5.7z"/>
	<path class="st0" d="M39.2,12.3c0.5,0,0.8,0.1,1.1,0.4c0.3,0.2,0.4,0.6,0.4,1v1.9c0,0.2,0,0.4-0.1,0.6s-0.2,0.3-0.3,0.4
		c-0.1,0.1-0.3,0.2-0.5,0.2c-0.2,0.1-0.4,0.1-0.6,0.1H38v-4.6L39.2,12.3L39.2,12.3z M40.2,13.6c0-0.2,0-0.3-0.1-0.4
		C40,13.1,40,13,39.9,12.9c-0.1-0.1-0.2-0.1-0.3-0.2c-0.1,0-0.2,0-0.4,0h-0.7v3.6h0.7c0.3,0,0.6-0.1,0.7-0.2
		c0.2-0.2,0.3-0.4,0.3-0.7L40.2,13.6L40.2,13.6z"/>
	<polygon class="st0" points="42.5,14.7 42.5,16.4 44.2,16.4 44.2,16.8 42,16.8 42,12.3 44,12.3 44,12.7 42.5,12.7 42.5,14.3 
		43.8,14.3 43.8,14.7 	"/>
	<path class="st0" d="M46.7,12.9c-0.2,0-0.4,0.1-0.5,0.2c-0.1,0.1-0.2,0.3-0.2,0.5v1.9c0,0.4,0.2,0.7,0.7,0.7c0.1,0,0.2,0,0.3,0
		c0.1,0,0.1,0,0.2-0.1c0.1,0,0.1-0.1,0.2-0.1c0.1-0.1,0.1-0.1,0.2-0.2l0.5,0.6c-0.2,0.2-0.4,0.3-0.6,0.4c-0.2,0.1-0.4,0.1-0.7,0.1
		c-0.5,0-0.8-0.1-1.1-0.4c-0.3-0.2-0.4-0.6-0.4-1v-1.9c0-0.2,0-0.4,0.1-0.6s0.2-0.3,0.3-0.4c0.1-0.1,0.3-0.2,0.5-0.3
		c0.2-0.1,0.4-0.1,0.6-0.1c0.2,0,0.3,0,0.4,0c0.1,0,0.2,0.1,0.4,0.1c0.1,0.1,0.2,0.1,0.3,0.2c0.1,0.1,0.2,0.2,0.3,0.3l-0.5,0.5
		c-0.1-0.1-0.2-0.2-0.3-0.3C47.1,13,46.9,12.9,46.7,12.9"/>
	<path class="st0" d="M51.4,12.3h0.8v3.2c0,0.2,0,0.4-0.1,0.6c-0.1,0.2-0.2,0.3-0.3,0.4s-0.3,0.2-0.5,0.3c-0.2,0.1-0.4,0.1-0.7,0.1
		s-0.5,0-0.7-0.1c-0.2-0.1-0.4-0.1-0.5-0.3c-0.1-0.1-0.2-0.3-0.3-0.5c-0.1-0.2-0.1-0.4-0.1-0.6v-3.2h0.8v3.2c0,0.2,0.1,0.4,0.2,0.5
		c0.1,0.1,0.3,0.2,0.6,0.2s0.4-0.1,0.6-0.2c0.1-0.1,0.2-0.3,0.2-0.5L51.4,12.3L51.4,12.3z"/>
	<polygon class="st0" points="54.4,12.3 54.4,16.1 56.1,16.1 56.1,16.8 53.5,16.8 53.5,12.3 	"/>
	<polygon class="st0" points="56.1,13 56.1,12.3 59.2,12.3 59.2,13 58.1,13 58.1,16.8 57.3,16.8 57.3,13 	"/>
	<path class="st0" d="M62.5,12.3h0.8v3.2c0,0.2,0,0.4-0.1,0.6s-0.2,0.3-0.3,0.4c-0.1,0.1-0.3,0.2-0.5,0.3c-0.2,0.1-0.4,0.1-0.7,0.1
		c-0.2,0-0.5,0-0.7-0.1s-0.4-0.1-0.5-0.3c-0.1-0.1-0.2-0.3-0.3-0.5c-0.1-0.2-0.1-0.4-0.1-0.6v-3.2H61v3.2c0,0.2,0.1,0.4,0.2,0.5
		c0.1,0.1,0.3,0.2,0.6,0.2s0.4-0.1,0.6-0.2s0.2-0.3,0.2-0.5L62.5,12.3L62.5,12.3z"/>
	<path class="st0" d="M67.2,14.5c-0.1,0.2-0.3,0.3-0.5,0.4l0.9,1.9h-0.8L65.8,15h-0.4v1.9h-0.8v-4.6h1.5c0.4,0,0.7,0.1,0.9,0.3
		c0.2,0.2,0.3,0.5,0.3,0.9v0.4C67.4,14.1,67.3,14.3,67.2,14.5 M65.4,14.2h0.7c0.1,0,0.2,0,0.3-0.1c0.1-0.1,0.1-0.2,0.1-0.3v-0.4
		c0-0.1,0-0.2-0.1-0.3C66.4,13,66.3,13,66.1,13h-0.7L65.4,14.2L65.4,14.2z"/>
	<path class="st0" d="M70.4,12.2l1.2,4.6h-0.8l-0.3-1.1h-1.2L69,16.8h-0.9l1.2-4.6H70.4z M70.3,15.1l-0.4-2l-0.4,2H70.3z"/>
	<path class="st0" d="M39.3,20.1c0.5,0,0.8,0.1,1.1,0.3c0.3,0.2,0.4,0.6,0.4,1v1.8c0,0.5-0.1,0.9-0.4,1.1c-0.3,0.2-0.7,0.3-1.2,0.3
		H38v-4.6L39.3,20.1L39.3,20.1z M40.1,21.5c0-0.2-0.1-0.4-0.2-0.5c-0.1-0.1-0.3-0.2-0.5-0.2h-0.5V24h0.5c0.2,0,0.4-0.1,0.6-0.2
		c0.1-0.1,0.2-0.3,0.2-0.5V21.5z"/>
	<rect x="42.2" y="20.1" class="st0" width="0.8" height="4.6"/>
	<path class="st0" d="M45.9,22.2h1.5v2c-0.2,0.2-0.4,0.3-0.7,0.4c-0.2,0.1-0.5,0.1-0.8,0.1c-0.2,0-0.4,0-0.6-0.1s-0.4-0.1-0.5-0.3
		c-0.1-0.1-0.2-0.3-0.3-0.4c-0.1-0.2-0.1-0.4-0.1-0.6v-1.9c0-0.2,0-0.4,0.1-0.6c0.1-0.2,0.2-0.3,0.3-0.4c0.1-0.1,0.3-0.2,0.5-0.3
		c0.2-0.1,0.4-0.1,0.6-0.1c0.3,0,0.6,0.1,0.8,0.2c0.2,0.1,0.4,0.3,0.6,0.5l-0.5,0.6c-0.1-0.1-0.2-0.2-0.4-0.3s-0.3-0.1-0.5-0.1
		c-0.2,0-0.4,0.1-0.5,0.2c-0.1,0.1-0.2,0.3-0.2,0.5v1.9c0,0.2,0.1,0.4,0.2,0.5C45.6,24,45.8,24,46,24c0.1,0,0.2,0,0.3,0
		c0.1,0,0.2-0.1,0.3-0.2v-1h-0.7L45.9,22.2L45.9,22.2z"/>
	<rect x="48.9" y="20.1" class="st0" width="0.8" height="4.6"/>
	<polygon class="st0" points="50.9,20.9 50.9,20.1 54,20.1 54,20.9 52.8,20.9 52.8,24.7 52,24.7 52,20.9 	"/>
	<path class="st0" d="M56.5,20.1l1.2,4.6h-0.8l-0.3-1.1h-1.2l-0.3,1.1h-0.9l1.2-4.6H56.5z M56.4,22.9L56,21l-0.4,2H56.4z"/>
	<polygon class="st0" points="59.4,20.1 59.4,24 61.1,24 61.1,24.7 58.6,24.7 58.6,20.1 	"/>
	<path class="st0" d="M30.1,14.9h-9c-0.2,0-0.3-0.1-0.3-0.3s0.1-0.3,0.3-0.3h9c0.2,0,0.3,0.1,0.3,0.3S30.3,14.9,30.1,14.9"/>
	<path class="st0" d="M29.2,20.9c0,0-0.1,0-0.1,0c-0.2-0.1-0.2-0.3-0.2-0.4l1.9-4.6c0.1-0.2,0.3-0.2,0.4-0.2
		c0.2,0.1,0.2,0.3,0.2,0.4l-1.9,4.6C29.4,20.8,29.3,20.9,29.2,20.9"/>
	<path class="st0" d="M27.5,21.2c-0.1,0-0.2,0-0.2-0.1l-6.4-6.4c-0.1-0.1-0.1-0.3,0-0.5c0.1-0.1,0.3-0.1,0.5,0l6.4,6.4
		c0.1,0.1,0.1,0.3,0,0.5C27.6,21.2,27.6,21.2,27.5,21.2"/>
	<path class="st0" d="M22.5,24.8c-0.1,0-0.3-0.1-0.3-0.2c-0.1-0.2,0-0.4,0.2-0.4l4.6-1.9c0.2-0.1,0.4,0,0.4,0.2
		c0.1,0.2,0,0.4-0.2,0.4l-4.6,1.9C22.6,24.8,22.5,24.8,22.5,24.8"/>
	<path class="st0" d="M21.1,23.9c-0.2,0-0.3-0.1-0.3-0.3v-9c0-0.2,0.1-0.3,0.3-0.3s0.3,0.1,0.3,0.3v9C21.4,23.8,21.3,23.9,21.1,23.9
		"/>
	<path class="st0" d="M19.7,24.8c0,0-0.1,0-0.1,0l-4.6-1.9c-0.2-0.1-0.2-0.3-0.2-0.4c0.1-0.2,0.3-0.2,0.4-0.2l4.6,1.9
		c0.2,0.1,0.2,0.3,0.2,0.4C19.9,24.8,19.8,24.8,19.7,24.8"/>
	<path class="st0" d="M21.1,14.9h-9c-0.2,0-0.3-0.1-0.3-0.3s0.1-0.3,0.3-0.3h9c0.2,0,0.3,0.1,0.3,0.3S21.3,14.9,21.1,14.9"/>
	<path class="st0" d="M11.1,13.4c0,0-0.1,0-0.1,0c-0.2-0.1-0.2-0.3-0.2-0.4l1.9-4.6c0.1-0.2,0.3-0.2,0.4-0.2
		c0.2,0.1,0.2,0.3,0.2,0.4l-1.9,4.6C11.4,13.4,11.3,13.4,11.1,13.4"/>
	<path class="st0" d="M21.1,14.9c-0.1,0-0.2,0-0.2-0.1l-6.4-6.4c-0.1-0.1-0.1-0.3,0-0.5s0.3-0.1,0.5,0l6.4,6.4
		c0.1,0.1,0.1,0.3,0,0.5C21.3,14.8,21.2,14.9,21.1,14.9"/>
	<path class="st0" d="M15,6.8c-0.1,0-0.3-0.1-0.3-0.2c-0.1-0.2,0-0.4,0.2-0.4l4.6-1.9c0.2-0.1,0.4,0,0.4,0.2c0.1,0.2,0,0.4-0.2,0.4
		l-4.6,1.9C15.1,6.8,15.1,6.8,15,6.8"/>
	<path class="st0" d="M21.1,14.9c-0.2,0-0.3-0.1-0.3-0.3v-9c0-0.2,0.1-0.3,0.3-0.3s0.3,0.1,0.3,0.3v9C21.4,14.7,21.3,14.9,21.1,14.9
		"/>
	<path class="st0" d="M31.1,13.4c-0.1,0-0.3-0.1-0.3-0.2l-1.9-4.6c-0.1-0.2,0-0.4,0.2-0.4c0.2-0.1,0.4,0,0.4,0.2l1.9,4.6
		c0.1,0.2,0,0.4-0.2,0.4C31.1,13.4,31.1,13.4,31.1,13.4"/>
	<path class="st0" d="M31.7,16.4c-1,0-1.9-0.8-1.9-1.9s0.8-1.9,1.9-1.9s1.9,0.8,1.9,1.9S32.7,16.4,31.7,16.4 M31.7,13.3
		c-0.7,0-1.2,0.5-1.2,1.2s0.5,1.2,1.2,1.2s1.2-0.5,1.2-1.2S32.3,13.3,31.7,13.3"/>
	<path class="st0" d="M28.6,23.9c-1,0-1.9-0.8-1.9-1.9c0-1,0.8-1.9,1.9-1.9c1,0,1.9,0.8,1.9,1.9C30.4,23,29.6,23.9,28.6,23.9
		 M28.6,20.8c-0.7,0-1.2,0.5-1.2,1.2c0,0.7,0.5,1.2,1.2,1.2c0.7,0,1.2-0.5,1.2-1.2C29.8,21.3,29.2,20.8,28.6,20.8"/>
	<path class="st0" d="M21.1,27c-1,0-1.9-0.8-1.9-1.9c0-1,0.8-1.9,1.9-1.9c1,0,1.9,0.8,1.9,1.9C23,26.1,22.1,27,21.1,27 M21.1,23.9
		c-0.7,0-1.2,0.5-1.2,1.2c0,0.7,0.5,1.2,1.2,1.2s1.2-0.5,1.2-1.2C22.3,24.4,21.8,23.9,21.1,23.9"/>
	<path class="st0" d="M13.6,23.9c-1,0-1.9-0.8-1.9-1.9c0-1,0.8-1.9,1.9-1.9s1.9,0.8,1.9,1.9C15.5,23,14.7,23.9,13.6,23.9 M13.6,20.8
		c-0.7,0-1.2,0.5-1.2,1.2c0,0.7,0.5,1.2,1.2,1.2s1.2-0.5,1.2-1.2C14.8,21.3,14.3,20.8,13.6,20.8"/>
	<path class="st0" d="M10.5,16.4c-1,0-1.9-0.8-1.9-1.9s0.8-1.9,1.9-1.9s1.9,0.8,1.9,1.9S11.6,16.4,10.5,16.4 M10.5,13.3
		c-0.7,0-1.2,0.5-1.2,1.2s0.5,1.2,1.2,1.2s1.2-0.5,1.2-1.2S11.2,13.3,10.5,13.3"/>
	<path class="st0" d="M13.6,8.9c-1,0-1.9-0.8-1.9-1.9s0.8-1.9,1.9-1.9s1.9,0.8,1.9,1.9S14.7,8.9,13.6,8.9 M13.6,5.9
		c-0.7,0-1.2,0.5-1.2,1.2s0.5,1.2,1.2,1.2s1.2-0.5,1.2-1.2C14.8,6.4,14.3,5.9,13.6,5.9"/>
	<path class="st0" d="M21.1,5.8c-1,0-1.9-0.8-1.9-1.9s0.8-1.9,1.9-1.9c1,0,1.9,0.8,1.9,1.9S22.1,5.8,21.1,5.8 M21.1,2.8
		c-0.7,0-1.2,0.5-1.2,1.2s0.5,1.2,1.2,1.2s1.2-0.5,1.2-1.2C22.3,3.3,21.8,2.8,21.1,2.8"/>
	<path class="st0" d="M28.6,8.9c-1,0-1.9-0.8-1.9-1.9s0.8-1.9,1.9-1.9c1,0,1.9,0.8,1.9,1.9S29.6,8.9,28.6,8.9 M28.6,5.9
		c-0.7,0-1.2,0.5-1.2,1.2s0.5,1.2,1.2,1.2c0.7,0,1.2-0.5,1.2-1.2C29.8,6.4,29.2,5.9,28.6,5.9"/>
</g>
</svg>
