<?xml version="1.0" encoding="utf-8"?>
<!-- Generator: Adobe Illustrator 22.0.1, SVG Export Plug-In . SVG Version: 6.00 Build 0)  -->
<svg version="1.1" id="Capa_1" xmlns="http://www.w3.org/2000/svg" xmlns:xlink="http://www.w3.org/1999/xlink" x="0px" y="0px"
	 viewBox="0 0 80 30" style="enable-background:new 0 0 80 30;" xml:space="preserve">
<style type="text/css">
	.st0{fill:#FFFFFF;}
</style>
<path class="st0" d="M9,16.1c0.1-0.4,0.3-1,0.4-1.8c0.2,0,1,0,1.3,0.1c0,0.5,0,1.5,0,2l-0.2,0.4c-0.8,0.5-2.1,1-3.5,1
	c-3.1,0-5-1.9-5-5.1c0-3.2,2.3-5.3,5.2-5.3c1.3,0,2.4,0.4,3.3,0.8l0.2,0.4c-0.1,0.7-0.3,1.8-0.4,2.5c-0.3,0-0.9,0-1.2-0.1
	c-0.1-0.9-0.3-1.6-0.4-2c-0.4-0.2-1-0.4-1.6-0.4c-0.8,0-1.6,0.2-2.1,0.6C4.4,9.9,4,11.1,4,12.5c0,2.4,1.2,3.9,3.2,3.9
	C8,16.5,8.6,16.3,9,16.1z"/>
<path class="st0" d="M17.5,17.8c-2.8,0-4.2-1.6-4.2-4.9v-1.6c0-0.9,0-2.4-0.1-2.5c-0.1-0.2-0.8-0.4-1.2-0.5l0.2-0.7h4.4l0.2,0.7
	l-1.3,0.4c0,0.2-0.1,2-0.1,2.7v1.6c0,2.3,0.7,3.6,2.7,3.6c1,0,1.8-0.4,2.1-0.9c0.3-1,0.3-2.2,0.3-3.8c0-1.3,0-2.8-0.1-3.1
	c-0.2-0.1-0.9-0.3-1.4-0.4l0.2-0.7H23l0.2,0.7l-1.3,0.4c0,1-0.1,2.3-0.1,4.7C21.7,16.3,20.1,17.8,17.5,17.8z"/>
<path class="st0" d="M25.6,16.5c0-0.2,0.1-2,0.1-2.7v-2.6c0-0.9,0-2.3-0.1-2.5c-0.1-0.2-0.8-0.3-1.3-0.5l0.2-0.7h4.3L29,8.3
	l-1.3,0.4c0,0.2-0.1,2-0.1,2.7v2.6c0,1,0,2.3,0.1,2.5c0.2,0.1,1.1,0.2,1.7,0.2c0.6,0,1.2,0,1.6-0.1l0.4-1.9c0.3,0,0.9,0,1.2,0.1
	c0,0.9,0,1.9,0,2.9h-8.1l-0.2-0.7L25.6,16.5z"/>
<path class="st0" d="M36.1,16.5c0-0.2,0.1-1.5,0.1-2.7V8.5h-0.3c-0.6,0-1.3,0-1.7,0.1l-0.4,1.9c-0.3,0-1,0-1.2,0c0-0.9,0-1.9,0-2.9
	h4.8c1.7,0,3.1,0,4.1-0.1c0.1,0.1,0.3,0.4,0.3,0.5c0,0.8-0.1,1.7-0.2,2.5c-0.3,0-0.9,0-1.1,0l-0.4-1.8c-0.5-0.1-1.1-0.1-1.7-0.1
	h-0.4v5.4c0,0.9,0,2.3,0.1,2.5c0.1,0.2,0.8,0.3,1.3,0.5l-0.2,0.7H35l-0.2-0.7L36.1,16.5z"/>
<path class="st0" d="M48.4,17.8c-2.8,0-4.2-1.6-4.2-4.9v-1.6c0-0.9,0-2.4-0.1-2.5c-0.1-0.2-0.8-0.4-1.2-0.5L43,7.5h4.4l0.2,0.7
	l-1.3,0.4c0,0.2-0.1,2-0.1,2.7v1.6c0,2.3,0.7,3.6,2.7,3.6c1,0,1.8-0.4,2.1-0.9c0.3-1,0.3-2.2,0.3-3.8c0-1.3,0-2.8-0.1-3.1
	c-0.2-0.1-0.9-0.3-1.4-0.4l0.2-0.7h3.9L54,8.3l-1.3,0.4c0,1-0.1,2.3-0.1,4.7C52.6,16.3,50.9,17.8,48.4,17.8z"/>
<path class="st0" d="M56.5,16.5c0-0.2,0.1-2,0.1-2.7v-2.6c0-0.9,0-2.3-0.1-2.5c-0.1-0.2-0.8-0.3-1.3-0.5l0.2-0.7h2.1
	c0.5,0,2.1-0.1,2.8-0.1c2.4,0,3.8,0.9,3.8,2.8c0,1.3-1,2.1-1.8,2.6c0.6,1.2,1.7,3.2,2,3.6l1.1,0.4l-0.2,0.7c-0.8,0-1.5,0-2.5,0.1
	c-0.3-0.7-1.4-2.8-2.1-4.2h-2.1v0.5c0,0.9,0,2.3,0.1,2.5c0.1,0.2,0.8,0.3,1.3,0.5l-0.2,0.7h-4.3l-0.2-0.7L56.5,16.5z M58.5,12.3
	l2.6,0.1c0.6-0.3,1.1-1.1,1.1-2c0-0.7-0.2-1.1-0.5-1.5c-0.4-0.3-1-0.4-1.7-0.4c-0.4,0-1,0.1-1.4,0.1c0,0.3-0.1,2-0.1,2.7V12.3z"/>
<path class="st0" d="M70.1,17.5h-3.9L66,16.8l1.2-0.4c1-2.3,1.9-5,2.9-7.5l0.4-1.4c0.7-0.1,1.8-0.2,2.4-0.2c0.1,0.5,0.3,1,0.5,1.6
	c0.9,2.6,2.1,5.6,2.8,7.5l1.2,0.4l-0.2,0.7h-4.3l-0.1-0.7l1.4-0.4c-0.2-0.6-0.5-1.4-0.8-2.2l-3.8,0.1c-0.3,0.7-0.5,1.5-0.7,2.2
	l1.4,0.4L70.1,17.5z M73,13.2c-0.5-1.4-1.1-2.9-1.6-4.5c-0.5,1.4-1,3-1.5,4.4L73,13.2z"/>
<path class="st0" d="M2.5,23.8c-0.2,0-0.3-0.1-0.4-0.2l0.2-0.4c0.1,0.1,0.2,0.1,0.3,0.2c0.1,0,0.3,0.1,0.4,0.1c0.1,0,0.2,0,0.3-0.1
	c0.1,0,0.1-0.1,0.1-0.2c0-0.1,0-0.1-0.1-0.1c0,0-0.1-0.1-0.2-0.1C3.1,23,3.1,23,3,23c-0.2,0-0.3-0.1-0.4-0.1c-0.1,0-0.2-0.1-0.3-0.2
	c-0.1-0.1-0.1-0.2-0.1-0.3c0-0.1,0-0.2,0.1-0.3c0.1-0.1,0.2-0.2,0.3-0.2c0.1-0.1,0.3-0.1,0.5-0.1c0.1,0,0.3,0,0.4,0
	c0.1,0,0.2,0.1,0.3,0.1l-0.2,0.4c-0.2-0.1-0.4-0.2-0.6-0.2c-0.1,0-0.2,0-0.3,0.1c-0.1,0-0.1,0.1-0.1,0.2c0,0.1,0,0.1,0.1,0.2
	c0.1,0,0.2,0.1,0.3,0.1c0.2,0,0.3,0.1,0.4,0.1c0.1,0,0.2,0.1,0.3,0.2c0.1,0.1,0.1,0.2,0.1,0.3c0,0.1,0,0.2-0.1,0.3
	c-0.1,0.1-0.2,0.2-0.3,0.2c-0.1,0.1-0.3,0.1-0.5,0.1C2.9,23.8,2.7,23.8,2.5,23.8z"/>
<path class="st0" d="M6.3,23.4v0.4H4.7v-2.1h1.6v0.4H5.1v0.5h1v0.4h-1v0.5L6.3,23.4L6.3,23.4z"/>
<path class="st0" d="M7.5,23.7c-0.2-0.1-0.3-0.2-0.4-0.4c-0.1-0.2-0.1-0.3-0.1-0.6s0-0.4,0.1-0.6c0.1-0.2,0.2-0.3,0.4-0.4
	c0.2-0.1,0.4-0.1,0.6-0.1c0.2,0,0.3,0,0.5,0.1c0.1,0.1,0.3,0.2,0.4,0.3l-0.3,0.3c-0.1-0.2-0.3-0.2-0.5-0.2c-0.1,0-0.2,0-0.3,0.1
	c-0.1,0.1-0.2,0.1-0.2,0.2c-0.1,0.1-0.1,0.2-0.1,0.3c0,0.1,0,0.2,0.1,0.3c0.1,0.1,0.1,0.2,0.2,0.2c0.1,0.1,0.2,0.1,0.3,0.1
	c0.2,0,0.4-0.1,0.5-0.3l0.3,0.3c-0.1,0.1-0.2,0.2-0.4,0.3c-0.1,0.1-0.3,0.1-0.5,0.1C7.8,23.8,7.6,23.8,7.5,23.7z"/>
<path class="st0" d="M10.9,23.8l-0.4-0.6h0h-0.4v0.6H9.6v-2.1h0.9c0.2,0,0.3,0,0.5,0.1c0.1,0.1,0.2,0.2,0.3,0.3
	c0.1,0.1,0.1,0.2,0.1,0.4c0,0.2,0,0.3-0.1,0.4c-0.1,0.1-0.2,0.2-0.3,0.3l0.5,0.7L10.9,23.8L10.9,23.8z M10.8,22.2
	c-0.1-0.1-0.2-0.1-0.3-0.1h-0.4v0.7h0.4c0.1,0,0.3,0,0.3-0.1c0.1-0.1,0.1-0.2,0.1-0.3C10.9,22.4,10.9,22.3,10.8,22.2z"/>
<path class="st0" d="M13.8,23.4v0.4h-1.6v-2.1h1.6v0.4h-1.1v0.5h1v0.4h-1v0.5L13.8,23.4L13.8,23.4z"/>
<path class="st0" d="M15.1,22.1h-0.7v-0.4h1.8v0.4h-0.7v1.7h-0.5V22.1z"/>
<path class="st0" d="M18.1,23.4h-1l-0.2,0.4h-0.5l0.9-2.1h0.5l0.9,2.1h-0.5L18.1,23.4z M17.9,23l-0.3-0.8L17.2,23H17.9z"/>
<path class="st0" d="M20.7,23.8l-0.4-0.6h0h-0.4v0.6h-0.5v-2.1h0.9c0.2,0,0.3,0,0.5,0.1c0.1,0.1,0.2,0.2,0.3,0.3
	c0.1,0.1,0.1,0.2,0.1,0.4c0,0.2,0,0.3-0.1,0.4c-0.1,0.1-0.2,0.2-0.3,0.3l0.5,0.7L20.7,23.8L20.7,23.8z M20.6,22.2
	c-0.1-0.1-0.2-0.1-0.3-0.1h-0.4v0.7h0.4c0.1,0,0.3,0,0.3-0.1c0.1-0.1,0.1-0.2,0.1-0.3C20.7,22.4,20.7,22.3,20.6,22.2z"/>
<path class="st0" d="M22.4,21.1h0.5l-0.5,0.4H22L22.4,21.1z M22,21.7h0.5v2.1H22V21.7z"/>
<path class="st0" d="M24.8,23.4h-1l-0.2,0.4h-0.5l0.9-2.1h0.5l0.9,2.1H25L24.8,23.4z M24.6,23l-0.3-0.8L24,23H24.6z"/>
<path class="st0" d="M27.4,21.7h0.9c0.2,0,0.4,0,0.6,0.1c0.2,0.1,0.3,0.2,0.4,0.4c0.1,0.2,0.1,0.3,0.1,0.5c0,0.2,0,0.4-0.1,0.5
	c-0.1,0.2-0.2,0.3-0.4,0.4c-0.2,0.1-0.4,0.1-0.6,0.1h-0.9V21.7z M28.3,23.4c0.2,0,0.4-0.1,0.5-0.2c0.1-0.1,0.2-0.3,0.2-0.5
	s-0.1-0.4-0.2-0.5c-0.1-0.1-0.3-0.2-0.5-0.2h-0.4v1.3H28.3z"/>
<path class="st0" d="M31.8,23.4v0.4h-1.6v-2.1h1.6v0.4h-1.1v0.5h1v0.4h-1v0.5L31.8,23.4L31.8,23.4z"/>
<path class="st0" d="M34.3,23.7c-0.2-0.1-0.3-0.2-0.4-0.4c-0.1-0.2-0.1-0.3-0.1-0.6s0.1-0.4,0.1-0.6c0.1-0.2,0.2-0.3,0.4-0.4
	c0.2-0.1,0.4-0.1,0.6-0.1c0.2,0,0.3,0,0.5,0.1c0.1,0.1,0.3,0.2,0.4,0.3l-0.3,0.3c-0.1-0.2-0.3-0.2-0.5-0.2c-0.1,0-0.2,0-0.3,0.1
	c-0.1,0.1-0.2,0.1-0.2,0.2c-0.1,0.1-0.1,0.2-0.1,0.3c0,0.1,0,0.2,0.1,0.3c0.1,0.1,0.1,0.2,0.2,0.2c0.1,0.1,0.2,0.1,0.3,0.1
	c0.2,0,0.4-0.1,0.5-0.3l0.3,0.3c-0.1,0.1-0.2,0.2-0.4,0.3c-0.1,0.1-0.3,0.1-0.5,0.1C34.7,23.8,34.5,23.8,34.3,23.7z"/>
<path class="st0" d="M36.7,23.6c-0.2-0.2-0.2-0.4-0.2-0.7v-1.2h0.5v1.2c0,0.4,0.2,0.6,0.5,0.6c0.2,0,0.3,0,0.3-0.1
	c0.1-0.1,0.1-0.2,0.1-0.4v-1.2h0.5v1.2c0,0.3-0.1,0.5-0.3,0.7c-0.2,0.2-0.4,0.2-0.7,0.2C37.1,23.8,36.9,23.8,36.7,23.6z"/>
<path class="st0" d="M39.2,21.7h0.5v1.7h1v0.4h-1.5V21.7z"/>
<path class="st0" d="M41.6,22.1H41v-0.4h1.8v0.4h-0.7v1.7h-0.5V22.1z"/>
<path class="st0" d="M43.7,23.6c-0.2-0.2-0.3-0.4-0.3-0.7v-1.2h0.5v1.2c0,0.4,0.2,0.6,0.5,0.6c0.2,0,0.3,0,0.3-0.1
	c0.1-0.1,0.1-0.2,0.1-0.4v-1.2h0.5v1.2c0,0.3-0.1,0.5-0.3,0.7c-0.2,0.2-0.4,0.2-0.7,0.2C44.1,23.8,43.8,23.8,43.7,23.6z"/>
<path class="st0" d="M47.5,23.8l-0.4-0.6h0h-0.4v0.6h-0.5v-2.1h0.9c0.2,0,0.3,0,0.5,0.1c0.1,0.1,0.2,0.2,0.3,0.3
	c0.1,0.1,0.1,0.2,0.1,0.4c0,0.2,0,0.3-0.1,0.4c-0.1,0.1-0.2,0.2-0.3,0.3l0.5,0.7L47.5,23.8L47.5,23.8z M47.4,22.2
	c-0.1-0.1-0.2-0.1-0.3-0.1h-0.4v0.7h0.4c0.1,0,0.3,0,0.3-0.1c0.1-0.1,0.1-0.2,0.1-0.3C47.5,22.4,47.5,22.3,47.4,22.2z"/>
<path class="st0" d="M50.3,23.4h-1l-0.2,0.4h-0.5l0.9-2.1H50l0.9,2.1h-0.5L50.3,23.4z M50.1,23l-0.3-0.8L49.4,23H50.1z"/>
</svg>
