<svg width="443" height="99" viewBox="0 0 443 99" fill="none" xmlns="http://www.w3.org/2000/svg">
<g clip-path="url(#clip0)">
<g clip-path="url(#clip1)">
<path d="M77.2003 17.1C73.1003 15 70.5003 16.9 66.6003 17.2C62.8003 17.5 60.8003 14.2 58.2003 11.9C55.5003 9.5 52.9003 7.1 49.3003 6.3C46.2003 5.5 43.2003 5.9 40.1003 5.9C35.0003 5.9 29.4003 5.9 24.5003 4.4C22.3003 3.8 20.7003 2.5 18.7003 1.5C15.4003 -0.199999 12.1003 -0.0999991 8.60033 0.100001C6.90033 0.200001 1.60033 -0.199999 1.00033 1.1C0.700327 1.8 5.00033 7.9 5.60033 8.9C8.00033 13.2 10.8003 17.9 12.3003 22.7C13.0003 24.9 12.7003 26.5 11.2003 27.8C16.9003 30 24.9003 34.6 26.3003 40.8C26.7003 42.7 26.7003 43.9 28.4003 45.3C29.8003 46.4 31.4003 47 32.7003 48.4C33.7003 49.5 34.2003 51 35.1003 52C35.3003 52.4 35.5003 52.7 35.7003 53.1C36.3003 52 36.8003 50.9 37.4003 49.9C37.2003 49.5 35.7003 48.8 35.4003 48.5C32.6003 46.2 31.3003 43.1 29.9003 39.9C27.8003 35.2 25.4003 30.8 22.6003 26.5C18.6003 20.4 10.7003 13.5 12.0003 5.5C12.1003 5 12.7003 5 13.0003 5.2C16.6003 8 20.5003 7 22.2003 11.3C24.5003 16.9 26.7003 22.4 30.7003 27C33.6003 30.4 38.9003 31.8 40.8003 35.8C41.8003 37.9 42.0003 40.2 43.2003 42.3C44.2003 44 45.3003 45.5 46.4003 47.1C46.5003 46.1 46.6003 45.1 46.8003 44C49.2003 32.6 59.0003 23.3 70.3003 21.9C75.0003 21.3 79.7003 22.2 83.9003 24.1C82.3003 21.3 80.2003 18.6 77.2003 17.1Z" fill="white"/>
<path d="M71.1002 81.2C77.9002 84.8 85.4002 87.2 92.6002 89.9C96.5002 91.3 100.6 93 104.7 93.3C107.8 93.5 110.5 92.4 113.5 92.2C119.1 91.8 120.9 96.1 124.9 98.5C124.8 96.5 125.3 94.5 127.1 93.2C128.6 92.1 129.9 92.6 131.4 92C131.9 92 132.4 92 132.9 92C133.1 91 133.2 89.9 133.4 88.9C133.2 88 132.1 87 131.8 86C131.1 83.8 131.5 81.7 133.5 80.4C134.7 79.7 136.2 79.6 137.6 79.6C138.6 79.6 139.6 79.9 140.5 79.9C142.9 79.9 146.6 78 147.8 75.8C148.8 74.1 148.9 71.7 149.8 69.8C150.4 68.6 151.3 67.3 151.8 66.1C152.1 65.6 152.4 65.2 152.8 64.7C151.9 63.5 151 62.3 150.1 61.1C148.3 60.1 142.5 61.2 140.6 61.6C136.1 62.5 133.7 64.8 133.4 69.4C133.2 72.1 133.3 74.7 131 76.5C128.7 78.3 125.5 79 122.3 79.3L116.8 82.2C112.4 84.5 107.4 85.7 102.4 85.7C98.5002 85.7 94.7002 85 91.1002 83.6C84.6002 81 79.1002 76.2 75.6002 70.2L60.7002 67.2C61.6002 68.5 61.0002 69.5 61.4002 71.4C62.4002 76.6 66.9002 79 71.1002 81.2Z" fill="white"/>
<path d="M78.2008 63.9C80.7008 70.7 86.2008 76.3 93.0008 79C97.8008 80.9 103.201 81.3 108.301 80.2C102.901 77.4 98.6008 72.5 96.5008 66.7C94.9008 62.1 94.8008 57.3 94.6008 52.7C94.5008 48.3 94.4008 44.1 93.1008 40.3C90.1008 31.6 80.5008 25.7 71.1008 26.9C61.9008 28.1 53.8008 35.7 51.9008 45.1C51.3008 47.9 51.4008 50.4 52.1008 52.4C53.3008 55.9 56.4008 58.3 58.8008 59.8C63.4008 62.5 70.1008 63.8 74.6008 60.6C76.0008 59.6 77.2008 58.2 78.5008 56.1C79.9008 53.9 82.9008 48.3 80.7008 43.5C79.9008 41.7 77.8008 40.3 75.6008 40C74.7008 39.9 73.1008 39.9 72.0008 41.2C71.1008 42.3 69.6008 42.4 68.5008 41.6C67.3008 40.6 67.2008 39 68.0008 38C69.9008 35.7 72.8008 34.6 76.1008 35C80.0008 35.5 83.6008 38 85.1008 41.4C87.4008 46.3 86.5008 52.6 82.6008 58.7C81.3008 60.9 79.8008 62.6 78.2008 63.9Z" fill="white"/>
<path d="M180.7 28.1H180.6L179.1 31.1L174.8 39L170.5 31.1L169 28.1H168.9V43.4H166.8V25.2H169.7L174.9 35H175L180.2 25.2H183V43.3H180.9V28.1H180.7Z" fill="white"/>
<path d="M198.999 43.3L197.199 37.9H189.899L188.099 43.3H185.899L192.199 25.2H194.999L201.299 43.3H198.999ZM193.599 27.2H193.499L190.399 36H196.699L193.599 27.2Z" fill="white"/>
<path d="M204.3 43.3V25.2H211.5C213.1 25.2 214.4 25.7 215.3 26.6C216.2 27.5 216.6 28.8 216.6 30.4C216.6 32 216.2 33.3 215.3 34.2C214.4 35.1 213.2 35.6 211.5 35.6H206.5V43.3H204.3ZM206.5 33.7H211.5C212.4 33.7 213 33.5 213.5 33C214 32.5 214.2 31.9 214.2 31.1V29.7C214.2 28.9 214 28.2 213.5 27.8C213 27.3 212.4 27.1 211.5 27.1H206.5V33.7Z" fill="white"/>
<path d="M230.299 43.3L228.499 37.9H221.199L219.399 43.3H217.199L223.499 25.2H226.299L232.599 43.3H230.299ZM224.799 27.2H224.699L221.599 36H227.899L224.799 27.2Z" fill="white"/>
<path d="M240.899 43.3V41.5H243.399V27H240.899V25.2H248.199V27H245.699V41.5H248.199V43.3H240.899Z" fill="white"/>
<path d="M256.5 32.3L254.3 28.3H254.2V43.4H252.1V25.2H254.6L261.2 36.3L263.4 40.3H263.5V25.2H265.6V43.3H263.1L256.5 32.3Z" fill="white"/>
<path d="M276.6 27.1V43.3H274.4V27.1H268.6V25.2H282.3V27.1H276.6Z" fill="white"/>
<path d="M285.399 43.3V25.2H296.499V27.1H287.599V33.2H295.999V35.1H287.599V41.4H296.499V43.3H285.399Z" fill="white"/>
<path d="M302.7 43.3H300.5V25.2H307.7C309.3 25.2 310.5 25.6 311.4 26.5C312.3 27.4 312.7 28.7 312.7 30.3C312.7 31.6 312.4 32.7 311.8 33.6C311.2 34.5 310.3 35 309.1 35.3L313.3 43.3H310.8L306.9 35.5H302.7V43.3ZM307.7 33.7C308.6 33.7 309.2 33.5 309.7 33C310.2 32.5 310.4 31.9 310.4 31.1V29.7C310.4 28.9 310.2 28.2 309.7 27.8C309.2 27.3 308.6 27.1 307.7 27.1H302.7V33.7H307.7Z" fill="white"/>
<path d="M328.499 43.3L326.699 37.9H319.399L317.599 43.3H315.399L321.699 25.2H324.499L330.799 43.3H328.499ZM323.099 27.2H322.999L319.899 36H326.199L323.099 27.2Z" fill="white"/>
<path d="M339.8 43.7C337.5 43.7 335.7 42.9 334.4 41.3C333.1 39.7 332.5 37.4 332.5 34.4C332.5 31.3 333.1 29 334.4 27.4C335.7 25.8 337.5 24.9 339.8 24.9C341.3 24.9 342.6 25.2 343.6 25.9C344.6 26.6 345.4 27.6 346 28.8L344.2 29.9C343.8 29 343.3 28.2 342.5 27.7C341.8 27.1 340.8 26.9 339.7 26.9C338.9 26.9 338.2 27 337.6 27.3C337 27.6 336.5 28 336 28.6C335.6 29.1 335.2 29.8 335 30.6C334.8 31.4 334.7 32.2 334.7 33.1V35.8C334.7 37.7 335.1 39.1 336 40.2C336.9 41.3 338.1 41.8 339.7 41.8C340.9 41.8 341.8 41.5 342.6 40.9C343.4 40.3 344 39.5 344.3 38.5L346 39.6C345.4 40.9 344.6 41.9 343.5 42.6C342.7 43.3 341.4 43.7 339.8 43.7Z" fill="white"/>
<path d="M355.699 27.1V43.3H353.499V27.1H347.699V25.2H361.399V27.1H355.699Z" fill="white"/>
<path d="M363.399 43.3V41.5H365.899V27H363.399V25.2H370.699V27H368.199V41.5H370.699V43.3H363.399Z" fill="white"/>
<path d="M378.8 43.3L372.8 25.2H375.1L378.1 34.4L380.1 41.2H380.2L382.3 34.4L385.3 25.2H387.6L381.5 43.3H378.8Z" fill="white"/>
<path d="M396.999 43.7C395.799 43.7 394.799 43.5 393.799 43.1C392.899 42.7 391.999 42.1 391.399 41.3C390.799 40.5 390.199 39.5 389.899 38.4C389.499 37.2 389.399 35.9 389.399 34.4C389.399 32.9 389.599 31.5 389.899 30.4C390.299 29.2 390.799 28.3 391.399 27.5C392.099 26.7 392.899 26.1 393.799 25.7C394.699 25.3 395.799 25.1 396.999 25.1C398.199 25.1 399.199 25.3 400.199 25.7C401.199 26.1 401.999 26.7 402.599 27.5C403.299 28.3 403.799 29.3 404.099 30.4C404.499 31.6 404.599 32.9 404.599 34.4C404.599 35.9 404.399 37.3 404.099 38.4C403.699 39.6 403.199 40.5 402.599 41.3C401.999 42.1 401.099 42.7 400.199 43.1C399.199 43.5 398.099 43.7 396.999 43.7ZM396.999 41.7C397.799 41.7 398.499 41.6 399.199 41.3C399.899 41 400.399 40.6 400.899 40.1C401.399 39.6 401.699 39 401.999 38.2C402.299 37.4 402.399 36.7 402.399 35.7V32.7C402.399 31.8 402.299 31 401.999 30.2C401.699 29.5 401.399 28.8 400.899 28.3C400.399 27.8 399.899 27.4 399.199 27.1C398.499 26.8 397.799 26.7 396.999 26.7C396.199 26.7 395.499 26.8 394.799 27.1C394.099 27.4 393.599 27.8 393.099 28.3C392.599 28.8 392.299 29.4 391.999 30.2C391.699 30.9 391.599 31.7 391.599 32.7V35.7C391.599 36.6 391.699 37.4 391.999 38.2C392.299 38.9 392.599 39.6 393.099 40.1C393.599 40.6 394.099 41 394.799 41.3C395.499 41.6 396.199 41.7 396.999 41.7Z" fill="white"/>
<path d="M414.699 25.2H420.799C421.899 25.2 422.899 25.4 423.899 25.8C424.799 26.2 425.599 26.7 426.299 27.5C426.999 28.3 427.399 29.2 427.799 30.3C428.099 31.4 428.299 32.8 428.299 34.3C428.299 35.8 428.099 37.1 427.799 38.3C427.499 39.5 426.999 40.4 426.299 41.1C425.699 41.9 424.899 42.4 423.899 42.8C422.999 43.2 421.999 43.4 420.799 43.4H414.699V25.2ZM420.799 41.4C421.499 41.4 422.199 41.3 422.899 41C423.599 40.7 424.099 40.4 424.499 39.9C424.999 39.4 425.299 38.8 425.599 38.1C425.899 37.4 425.999 36.6 425.999 35.7V32.7C425.999 31.8 425.899 31 425.599 30.3C425.299 29.6 424.999 29 424.499 28.5C423.999 28 423.499 27.6 422.899 27.4C422.299 27.1 421.599 27 420.799 27H416.899V41.3H420.799V41.4Z" fill="white"/>
<path d="M432.199 43.3V25.2H443.299V27.1H434.399V33.2H442.799V35.1H434.399V41.4H443.299V43.3H432.199Z" fill="white"/>
<path d="M166.1 73.3V55.2H170.1V69.8H177V73.3H166.1Z" fill="white"/>
<path d="M179.899 73.3V55.2H192.199V58.7H183.799V62.4H190.999V65.9H183.799V69.8H192.199V73.3H179.899Z" fill="white"/>
<path d="M201.199 64.8L199.499 61.2H199.399V73.4H195.699V55.2H199.999L204.999 63.8L206.699 67.4H206.799V55.2H210.499V73.3H206.199L201.199 64.8Z" fill="white"/>
<path d="M225.999 70.5H225.899C225.799 71.4 225.299 72.2 224.499 72.8C223.699 73.4 222.599 73.7 221.199 73.7C220.199 73.7 219.199 73.5 218.299 73.1C217.399 72.7 216.599 72.1 215.899 71.3C215.199 70.5 214.699 69.5 214.299 68.4C213.899 67.2 213.699 65.9 213.699 64.4C213.699 62.9 213.899 61.5 214.299 60.3C214.699 59.1 215.299 58.1 215.999 57.3C216.699 56.5 217.599 55.9 218.599 55.5C219.599 55.1 220.699 54.9 221.999 54.9C223.599 54.9 224.999 55.3 226.199 56C227.399 56.7 228.299 57.8 228.999 59.2L225.799 61C225.499 60.3 225.099 59.7 224.499 59.2C223.899 58.7 223.099 58.5 221.999 58.5C220.799 58.5 219.799 58.9 219.099 59.6C218.399 60.3 217.999 61.4 217.999 63V65.9C217.999 67.4 218.399 68.5 219.099 69.2C219.799 69.9 220.799 70.3 221.999 70.3C222.499 70.3 222.899 70.2 223.399 70.1C223.799 70 224.199 69.8 224.499 69.6C224.799 69.4 225.099 69.1 225.299 68.8C225.499 68.5 225.599 68.1 225.599 67.6V66.7H222.199V63.4H229.299V73.5H225.999V70.5Z" fill="white"/>
<path d="M236.999 55.2V66.3C236.999 67.6 237.299 68.5 237.799 69.2C238.299 69.8 239.099 70.1 240.299 70.1C241.499 70.1 242.299 69.8 242.799 69.2C243.299 68.6 243.599 67.6 243.599 66.3V55.2H247.399V65.9C247.399 67.2 247.299 68.4 246.999 69.4C246.699 70.4 246.299 71.2 245.799 71.8C245.299 72.4 244.499 72.9 243.599 73.2C242.699 73.5 241.599 73.7 240.299 73.7C238.999 73.7 237.899 73.5 236.999 73.2C236.099 72.9 235.399 72.4 234.799 71.8C234.199 71.2 233.799 70.4 233.599 69.4C233.299 68.4 233.199 67.3 233.199 65.9V55.2H236.999Z" fill="white"/>
<path d="M261.8 73.3L260.5 69H254.4L253.1 73.3H249.1L255.1 55.2H260L265.9 73.3H261.8ZM257.5 58.8H257.4L255.4 65.7H259.6L257.5 58.8Z" fill="white"/>
<path d="M274.299 73.7C272.699 73.7 271.399 73.4 270.199 72.9C269.099 72.4 268.099 71.6 267.399 70.8L269.999 68.2C271.199 69.6 272.699 70.3 274.499 70.3C275.499 70.3 276.199 70.1 276.699 69.7C277.199 69.3 277.399 68.8 277.399 68.1C277.399 67.6 277.299 67.2 276.999 66.9C276.699 66.6 276.199 66.3 275.299 66.2L273.499 66C271.599 65.8 270.199 65.2 269.299 64.3C268.399 63.4 267.999 62.2 267.999 60.6C267.999 59.8 268.199 59 268.499 58.4C268.799 57.7 269.299 57.1 269.799 56.7C270.299 56.3 271.099 55.8 271.899 55.6C272.699 55.4 273.699 55.2 274.799 55.2C276.199 55.2 277.399 55.4 278.399 55.9C279.399 56.3 280.299 57 281.099 57.8L278.499 60.5C278.099 60 277.499 59.6 276.899 59.3C276.299 59 275.499 58.8 274.599 58.8C273.699 58.8 273.099 59 272.599 59.3C272.099 59.6 271.999 60 271.999 60.6C271.999 61.2 272.199 61.7 272.499 61.9C272.799 62.2 273.399 62.4 274.199 62.5L275.999 62.8C277.899 63.1 279.299 63.7 280.199 64.5C281.099 65.4 281.599 66.6 281.599 68.2C281.599 69.1 281.399 69.9 281.099 70.6C280.799 71.3 280.299 72 279.699 72.5C279.099 73 278.399 73.4 277.499 73.7C276.399 73.5 275.399 73.7 274.299 73.7Z" fill="white"/>
<path d="M290.1 73.3V70.2H292.4V58.3H290.1V55.2H298.7V58.3H296.4V70.2H298.7V73.3H290.1Z" fill="white"/>
<path d="M307.5 64.8L305.8 61.2H305.7V73.4H302V55.2H306.3L311.3 63.8L313 67.4H313.1V55.2H316.8V73.3H312.5L307.5 64.8Z" fill="white"/>
<path d="M320.8 55.2H327.6C328.8 55.2 329.9 55.4 330.9 55.8C331.9 56.2 332.7 56.7 333.4 57.5C334.1 58.3 334.6 59.2 335 60.3C335.4 61.4 335.6 62.8 335.6 64.3C335.6 65.8 335.4 67.1 335 68.3C334.6 69.4 334.1 70.4 333.4 71.1C332.7 71.8 331.9 72.4 330.9 72.8C329.9 73.2 328.8 73.4 327.6 73.4H320.8V55.2ZM327.7 69.8C328.9 69.8 329.8 69.5 330.5 68.8C331.2 68.1 331.5 67.1 331.5 65.6V62.8C331.5 61.3 331.2 60.3 330.5 59.6C329.8 58.9 328.9 58.6 327.7 58.6H324.8V69.7H327.7V69.8Z" fill="white"/>
<path d="M338.199 73.3V70.2H340.499V58.3H338.199V55.2H346.799V58.3H344.499V70.2H346.799V73.3H338.199ZM342.999 54.1L340.699 53L343.299 48L346.499 49.6L342.999 54.1Z" fill="white"/>
<path d="M361.699 70.5H361.599C361.499 71.4 360.999 72.2 360.199 72.8C359.399 73.4 358.299 73.7 356.899 73.7C355.899 73.7 354.899 73.5 353.999 73.1C353.099 72.7 352.299 72.1 351.599 71.3C350.899 70.5 350.399 69.5 349.999 68.4C349.599 67.2 349.399 65.9 349.399 64.4C349.399 62.9 349.599 61.5 349.999 60.3C350.399 59.1 350.999 58.1 351.699 57.3C352.399 56.5 353.299 55.9 354.299 55.5C355.299 55.1 356.399 54.9 357.699 54.9C359.299 54.9 360.699 55.3 361.899 56C363.099 56.7 363.999 57.8 364.699 59.2L361.499 61C361.199 60.3 360.799 59.7 360.199 59.2C359.599 58.7 358.799 58.5 357.699 58.5C356.499 58.5 355.499 58.9 354.799 59.6C354.099 60.3 353.699 61.4 353.699 63V65.9C353.699 67.4 354.099 68.5 354.799 69.2C355.499 69.9 356.499 70.3 357.699 70.3C358.199 70.3 358.599 70.2 359.099 70.1C359.499 70 359.899 69.8 360.199 69.6C360.499 69.4 360.799 69.1 360.999 68.8C361.199 68.5 361.299 68.1 361.299 67.6V66.7H357.899V63.4H364.999V73.5H361.699V70.5Z" fill="white"/>
<path d="M368.899 73.3V55.2H381.199V58.7H372.799V62.4H379.999V65.9H372.799V69.8H381.199V73.3H368.899Z" fill="white"/>
<path d="M390.199 64.8L388.499 61.2H388.399V73.4H384.699V55.2H388.999L393.999 63.8L395.699 67.4H395.799V55.2H399.499V73.3H395.199L390.199 64.8Z" fill="white"/>
<path d="M414.7 73.3L413.4 69H407.3L406 73.3H402L408 55.2H412.9L418.8 73.3H414.7ZM410.4 58.8H410.3L408.3 65.7H412.5L410.4 58.8Z" fill="white"/>
<path d="M427.2 73.7C425.6 73.7 424.3 73.4 423.1 72.9C422 72.4 421 71.6 420.3 70.8L422.9 68.2C424.1 69.6 425.6 70.3 427.4 70.3C428.4 70.3 429.1 70.1 429.6 69.7C430.1 69.3 430.3 68.8 430.3 68.1C430.3 67.6 430.2 67.2 429.9 66.9C429.6 66.6 429.1 66.3 428.2 66.2L426.4 66C424.5 65.8 423.1 65.2 422.2 64.3C421.3 63.4 420.9 62.2 420.9 60.6C420.9 59.8 421.1 59 421.4 58.4C421.7 57.7 422.2 57.1 422.7 56.7C423.2 56.3 424 55.8 424.8 55.6C425.6 55.4 426.6 55.2 427.7 55.2C429.1 55.2 430.3 55.4 431.3 55.9C432.3 56.3 433.2 57 434 57.8L431.4 60.5C431 60 430.4 59.6 429.8 59.3C429.2 59 428.4 58.8 427.5 58.8C426.6 58.8 426 59 425.5 59.3C425 59.6 424.9 60 424.9 60.6C424.9 61.2 425.1 61.7 425.4 61.9C425.7 62.2 426.3 62.4 427.1 62.5L428.9 62.8C430.8 63.1 432.2 63.7 433.1 64.5C434 65.4 434.5 66.6 434.5 68.2C434.5 69.1 434.3 69.9 434 70.6C433.7 71.3 433.2 72 432.6 72.5C432 73 431.3 73.4 430.4 73.7C429.3 73.5 428.3 73.7 427.2 73.7Z" fill="white"/>
</g>
</g>
<defs>
<clipPath id="clip0">
<rect width="442.3" height="98.5" fill="white"/>
</clipPath>
<clipPath id="clip1">
<rect width="442.3" height="98.5" fill="white" transform="translate(1)"/>
</clipPath>
</defs>
</svg>
