<?xml version="1.0" encoding="utf-8"?>
<!-- Generator: Adobe Illustrator 22.0.1, SVG Export Plug-In . SVG Version: 6.00 Build 0)  -->
<svg version="1.1" id="Capa_1" xmlns="http://www.w3.org/2000/svg" xmlns:xlink="http://www.w3.org/1999/xlink" x="0px" y="0px"
	 viewBox="0 0 200 80" style="enable-background:new 0 0 200 80;" xml:space="preserve">
<style type="text/css">
	.st0{fill:#FFFFFF;}
</style>
<path class="st0" d="M11.9,60.6c-0.5,0-0.7-0.2-0.9-0.5l0.5-0.9c0.2,0.2,0.5,0.2,0.7,0.5c0.2,0,0.7,0.2,0.9,0.2c0.2,0,0.5,0,0.7-0.2
	c0.2,0,0.2-0.2,0.2-0.5c0-0.2,0-0.2-0.2-0.2c0,0-0.2-0.2-0.5-0.2c0,0,0,0-0.2,0c-0.5,0-0.7-0.2-0.9-0.2s-0.5-0.2-0.7-0.5
	c-0.2-0.2-0.2-0.5-0.2-0.7c0-0.2,0-0.5,0.2-0.7c0.2-0.2,0.5-0.5,0.7-0.5c0.2-0.2,0.7-0.2,1.2-0.2c0.2,0,0.7,0,0.9,0s0.5,0.2,0.7,0.2
	l-0.5,0.9c-0.5-0.2-0.9-0.5-1.4-0.5c-0.2,0-0.5,0-0.7,0.2c-0.2,0-0.2,0.2-0.2,0.5c0,0.2,0,0.2,0.2,0.5c0.2,0,0.5,0.2,0.7,0.2
	c0.5,0,0.7,0.2,0.9,0.2c0.2,0,0.5,0.2,0.7,0.5C15,59,15,59.2,15,59.4c0,0.2,0,0.5-0.2,0.7c-0.2,0.2-0.5,0.5-0.7,0.5
	c-0.2,0.2-0.7,0.2-1.2,0.2C12.9,60.6,12.4,60.6,11.9,60.6z"/>
<path class="st0" d="M96.2,59.2l-1.6,0.7l0.2,1.2l1.2-0.5l0,0v4.9h1.4v-6.3C97.4,59.2,96.2,59.2,96.2,59.2z"/>
<path class="st0" d="M107.6,61.8c-0.2,0.2-0.5,0.5-0.7,0.5c-0.7,0-0.9-0.5-0.9-0.9c0-0.7,0.5-1.2,0.9-1.2l0,0c0.7,0,0.9,0.7,0.9,1.4
	C107.8,61.5,107.8,61.8,107.6,61.8z M106.9,59c-1.4,0-2.3,0.9-2.3,2.3c0,1.2,0.9,1.9,1.9,1.9c0.5,0,0.9-0.2,1.2-0.5l0,0
	c0,0.5-0.5,0.9-0.7,1.2c-0.2,0.2-0.7,0.5-1.2,0.5c-0.2,0-0.5,0-0.7,0v1.2c0.2,0,0.5,0,0.7,0c0.9,0,1.9-0.2,2.3-0.9
	c0.7-0.7,1.2-1.6,1.2-2.8C109.2,60.4,108.5,59,106.9,59z"/>
<path class="st0" d="M119,62c0.7-0.2,1.2-0.7,1.2-1.4c0-0.9-0.7-1.6-2.1-1.6c-0.7,0-1.6,0.2-1.9,0.5l0.2,1.2
	c0.2-0.2,0.7-0.5,1.4-0.5s0.9,0.2,0.9,0.7s-0.7,0.7-1.2,0.7h-0.5v0.9h0.7c0.7,0,1.2,0.2,1.2,0.9c0,0.5-0.5,0.9-1.2,0.9
	s-1.2-0.2-1.4-0.5l-0.2,1.2c0.5,0.2,0.9,0.5,1.9,0.5c1.6,0,2.6-0.7,2.6-1.9C120.4,62.7,119.7,62.2,119,62z"/>
<path class="st0" d="M130.4,61.8c-0.2,0.2-0.5,0.5-0.7,0.5c-0.7,0-0.9-0.5-0.9-0.9c0-0.7,0.5-1.2,0.9-1.2l0,0c0.7,0,0.9,0.7,0.9,1.4
	C130.7,61.5,130.4,61.8,130.4,61.8z M129.7,59c-1.4,0-2.3,0.9-2.3,2.3c0,1.2,0.9,1.9,1.9,1.9c0.5,0,0.9-0.2,1.2-0.5l0,0
	c0,0.5-0.5,0.9-0.7,1.2s-0.7,0.5-1.2,0.5c-0.2,0-0.5,0-0.7,0v1.2c0.2,0,0.5,0,0.7,0c0.9,0,1.9-0.2,2.3-0.9c0.7-0.7,1.2-1.6,1.2-2.8
	C132.1,60.4,131.4,59,129.7,59z"/>
<path class="st0" d="M141.4,62.5h-2.6v0.9h2.6V62.5z"/>
<path class="st0" d="M150.2,64.1l0.5-0.5c0.9-0.7,1.6-1.6,1.6-2.6c0-1.2-0.7-1.9-2.1-1.9c-0.9,0-1.6,0.2-2.1,0.7l0.5,0.9
	c0.2-0.2,0.7-0.5,1.4-0.5s0.9,0.5,0.9,0.9c0,0.7-0.7,1.4-2.1,2.6l-0.7,0.7v0.9h4.4v-1.2h-2.3V64.1z"/>
<path class="st0" d="M162.6,64.3c-0.9,0-1.6-0.9-1.6-2.1s0.5-2.1,1.6-2.1c0.9,0,1.6,0.9,1.6,2.1C164,63.4,163.5,64.3,162.6,64.3z
	 M162.6,59c-1.9,0-3,1.4-3,3.3s1.2,3.3,3,3.3s3.3-1.2,3.3-3.3C165.6,60.4,164.4,59,162.6,59z"/>
<path class="st0" d="M173.7,59.2l-1.6,0.7l0.2,1.2l1.2-0.5l0,0v4.9h1.4v-6.3C174.9,59.2,173.7,59.2,173.7,59.2z"/>
<path class="st0" d="M185.4,61.8c-0.2,0.2-0.5,0.5-0.7,0.5c-0.7,0-0.9-0.5-0.9-0.9c0-0.7,0.5-1.2,0.9-1.2l0,0c0.7,0,0.9,0.7,0.9,1.4
	C185.4,61.5,185.4,61.8,185.4,61.8z M184.7,59c-1.4,0-2.3,0.9-2.3,2.3c0,1.2,0.9,1.9,1.9,1.9c0.5,0,0.9-0.2,1.2-0.5l0,0
	c0,0.5-0.5,0.9-0.7,1.2c-0.2,0.2-0.7,0.5-1.2,0.5c-0.2,0-0.5,0-0.7,0v1.2c0.2,0,0.5,0,0.7,0c0.9,0,1.9-0.2,2.3-0.9
	c0.7-0.7,1.2-1.6,1.2-2.8C187,60.4,186.1,59,184.7,59z"/>
<path class="st0" d="M60.4,62.7H18.2v7.7h42.1V62.7z"/>
<path class="st0" d="M65,25h10.7v35.2H65V25z"/>
<path class="st0" d="M79,25h13.7l4.7,19.6L102,25h13.7v35.2h-8.8V37.3l-5.4,22.8h-8.1l-5.4-22.8v22.8h-8.8V25H79z"/>
<path class="st0" d="M118.8,25h27.5v8.1h-16.5v4.7h15.4v7.9h-15.4v5.8h17v8.6h-27.9V25z"/>
<path class="st0" d="M149.5,60.1V25h17.2c3,0,5.4,0.2,7,0.9c1.6,0.5,3,2.1,4,3.5c0.9,1.6,1.4,3.5,1.4,5.6c0,1.9-0.5,3.5-1.2,4.9
	c-0.7,1.4-1.9,2.6-3,3.3c-0.9,0.5-1.2,0.9-2.6,1.4c1.2,0.5,1.6,1.2,2.1,1.6c0.5,0.2,0.9,0.9,1.6,1.9c0.7,0.9,1.2,1.6,1.4,2.1l4.9,10
	h-12.1l-5.4-10.5c-0.7-1.4-1.2-2.3-1.6-2.6c-0.7-0.5-0.9-0.7-1.9-0.7h-0.9v14L149.5,60.1L149.5,60.1z M160.2,38.7h3.7
	c0.5,0,0.9,0,2.3-0.2c0.7-0.2,1.2-0.2,1.6-0.9c0.2-0.2,0.7-0.7,0.7-1.4c0-1.2-0.2-1.9-0.9-2.6c-0.7-0.5-1.6-0.9-3.3-0.9h-3.7
	L160.2,38.7L160.2,38.7z"/>
<path class="st0" d="M65,69.2l0.9-4.4h0.9l-0.9,4.4H65z"/>
<path class="st0" d="M70.6,69.2h-0.7l-1.2-3l-0.7,3h-0.7l0.9-4.4H69l1.2,3l0.5-3h0.7L70.6,69.2z"/>
<path class="st0" d="M72,67.6h0.9c0,0.2,0,0.5,0.2,0.5c0.2,0.2,0.5,0.2,0.7,0.2c0.2,0,0.5,0,0.7-0.2c0.2,0,0.2-0.2,0.2-0.5
	s0-0.2-0.2-0.2c0,0-0.2-0.2-0.7-0.2c-0.2-0.2-0.5-0.2-0.7-0.5c-0.2,0-0.2-0.2-0.5-0.5c0-0.2-0.2-0.2-0.2-0.5c0-0.5,0.2-0.7,0.5-0.9
	s0.7-0.5,1.2-0.5c0.5,0,0.9,0,1.2,0.5c0.2,0.2,0.5,0.5,0.5,0.9h-0.9c0-0.2,0-0.5-0.2-0.5S74.3,65,74.1,65c-0.2,0-0.5,0-0.5,0.2
	l-0.2,0.2c0,0,0,0.2,0.2,0.2c0,0,0.2,0.2,0.7,0.2c0.5,0.2,0.7,0.5,0.9,0.5c0.2,0.2,0.2,0.5,0.2,0.7c0,0.5-0.2,0.7-0.5,0.9
	c-0.2,0.2-0.7,0.5-1.2,0.5c-0.5,0-0.7,0-0.9-0.2c-0.2,0-0.5-0.2-0.5-0.5C72,68.3,72,68,72,67.6z"/>
<path class="st0" d="M78,69.2h-0.9l0.7-3.7h-1.2l0.2-0.7h3.3l-0.2,0.7h-1.2L78,69.2z"/>
<path class="st0" d="M80.4,69.2l0.9-4.4h0.9l-0.9,4.4H80.4z"/>
<path class="st0" d="M84.3,69.2h-0.9l0.7-3.7h-1.2l0.2-0.7h3.3l-0.2,0.7H85L84.3,69.2z"/>
<path class="st0" d="M87.4,64.8h0.9l-0.5,2.3v0.5c0,0,0,0,0,0.2s0,0.2,0.2,0.5c0.2,0,0.2,0.2,0.5,0.2c0.2,0,0.5,0,0.5,0
	c0.2,0,0.2-0.2,0.2-0.5s0.2-0.5,0.2-0.9l0.5-2.3h0.9l-0.5,2.6c0,0.5-0.2,0.9-0.5,1.2c-0.2,0.2-0.2,0.5-0.7,0.7
	c-0.2,0.2-0.7,0.2-1.2,0.2c-0.5,0-0.9,0-1.2-0.5c-0.2-0.2-0.5-0.5-0.5-0.9v-0.2c0,0,0-0.2,0-0.5L87.4,64.8z"/>
<path class="st0" d="M92.9,69.2H92l0.7-3.7h-1.2l0.2-0.7H95l-0.2,0.7h-1.2L92.9,69.2z"/>
<path class="st0" d="M96.7,65.9c0.2-0.5,0.7-0.7,0.9-0.7c0.2,0,0.5,0,0.7,0.2c0.2,0.2,0.2,0.5,0.2,0.7s0,0.7-0.2,0.9
	c-0.2,0.2-0.2,0.5-0.5,0.7C97.6,68,97.4,68,97.1,68c-0.2,0-0.5,0-0.7-0.2c-0.2-0.2-0.2-0.5-0.2-0.7C96.2,66.9,96.4,66.4,96.7,65.9z
	 M95.5,68.3c0,0.2,0.2,0.5,0.5,0.7c0.2,0.2,0.7,0.2,0.9,0.2c0.5,0,0.9,0,1.2-0.2c0.5-0.2,0.7-0.5,0.9-0.9c0.2-0.5,0.2-0.9,0.2-1.4
	c0-0.5-0.2-0.9-0.5-1.4c-0.2-0.2-0.7-0.5-1.2-0.5c-0.5,0-0.7,0-1.2,0.2c-0.5,0.2-0.5,0.5-0.7,0.7s-0.5,0.7-0.5,0.9s0,0.5,0,0.9
	C95.5,67.6,95.5,68,95.5,68.3z"/>
<path class="st0" d="M104.8,69.2h-0.9l-0.2-3.7l-0.7,3.7h-0.7l0.9-4.4h1.2l0.2,3l1.4-3h1.2l-0.9,4.4h-0.7l0.7-3.7L104.8,69.2z"/>
<path class="st0" d="M107.6,69.2l0.9-4.4h3l-0.2,0.7H109l-0.2,0.9h2.1l-0.2,0.7h-2.1l0,1.2h2.6l-0.2,0.9H107.6L107.6,69.2z"/>
<path class="st0" d="M112.7,69.2h-1.2l1.9-2.3l-0.9-2.1h0.7l0.5,0.7c0,0,0,0.2,0.2,0.7l0,0c0.2-0.2,0.5-0.5,0.5-0.7l0.7-0.7h1.2
	l-1.9,2.3l1.2,2.1h-0.9l-0.2-0.7c-0.2-0.2-0.2-0.5-0.2-0.7c0,0-0.2,0.2-0.5,0.7L112.7,69.2z"/>
<path class="st0" d="M116.5,69.2l0.9-4.4h0.9l-0.9,4.4H116.5z"/>
<path class="st0" d="M121.6,67.6l0.9,0.2c-0.2,0.5-0.5,0.9-0.7,1.2c-0.2,0.2-0.7,0.5-1.2,0.5c-0.5,0-0.9-0.2-1.2-0.5
	s-0.5-0.7-0.5-1.4c0-0.5,0-0.9,0.2-1.4c0.2-0.5,0.5-0.7,0.7-0.9c0.2-0.2,0.7-0.2,1.2-0.2c0.5,0,0.9,0,1.2,0.5
	c0.2,0.2,0.5,0.7,0.5,0.9h-0.9c0-0.2-0.2-0.5-0.2-0.5c-0.2,0-0.2-0.2-0.5-0.2c-0.2,0-0.5,0-0.7,0.2c-0.2,0.2-0.5,0.5-0.5,0.7
	c-0.2,0.2-0.2,0.7-0.2,0.9c0,0.2,0,0.7,0.2,0.7c0.2,0.2,0.5,0.2,0.7,0.2c0.2,0,0.5,0,0.7-0.2C121.3,68,121.6,67.8,121.6,67.6z"/>
<path class="st0" d="M124.6,67.3l0.9-1.9l0.2,1.9H124.6z M126.2,69.2h0.9l-0.7-4.4h-0.9l-2.3,4.4h0.9l0.5-0.9h1.6L126.2,69.2z"/>
<path class="st0" d="M131.4,69.2h-0.7l-1.2-3l-0.7,3h-0.7l0.9-4.4h0.7l1.2,3l0.5-3h0.7L131.4,69.2z"/>
<path class="st0" d="M134.2,65.9c0.2-0.5,0.7-0.7,0.9-0.7c0.2,0,0.5,0,0.7,0.2c0.2,0.2,0.2,0.5,0.2,0.7s0,0.7-0.2,0.9
	c-0.2,0.2-0.2,0.5-0.5,0.7c-0.2,0.2-0.5,0.2-0.7,0.2c-0.2,0-0.5,0-0.7-0.2c-0.2-0.2-0.2-0.5-0.2-0.7S133.9,66.4,134.2,65.9z
	 M133,68.3c0,0.2,0.2,0.5,0.5,0.7s0.7,0.2,0.9,0.2c0.5,0,0.9,0,1.2-0.2c0.5-0.2,0.7-0.5,0.9-0.9c0.2-0.5,0.2-0.9,0.2-1.4
	c0-0.5-0.2-0.9-0.5-1.4c-0.2-0.2-0.7-0.5-1.2-0.5c-0.5,0-0.7,0-1.2,0.2c-0.2,0.2-0.5,0.5-0.7,0.7s-0.5,0.7-0.5,0.9s0,0.5,0,0.9
	C133,67.6,133,68,133,68.3z"/>
<path class="st0" d="M141.4,65.5h0.5c0.2,0,0.5,0,0.5,0c0.2,0,0.2,0.2,0.5,0.2c0,0.2,0.2,0.5,0.2,0.7c0,0.5,0,0.7-0.2,0.9
	c0,0.2-0.2,0.5-0.5,0.7c0,0-0.2,0.2-0.5,0.2s-0.5,0-0.7,0h-0.5L141.4,65.5z M141.4,69.2c0.5,0,0.7,0,0.9,0s0.5-0.2,0.7-0.5
	c0.2-0.2,0.5-0.5,0.7-0.9s0.2-0.7,0.2-1.2c0-0.2,0-0.5,0-0.7c0-0.2,0-0.2-0.2-0.5c0-0.2-0.2-0.2-0.2-0.5c0,0-0.2-0.2-0.5-0.2
	c-0.2,0-0.2,0-0.5,0c0,0-0.2,0-0.7,0h-1.2l-0.9,4.4C139.7,69.2,141.4,69.2,141.4,69.2z"/>
<path class="st0" d="M144.6,69.2l0.9-4.4h3l-0.2,0.7H146l-0.2,0.9h2.3l-0.2,0.7h-2.1l-0.2,1.2h2.6l-0.2,0.7L144.6,69.2L144.6,69.2z"
	/>
<path class="st0" d="M150.9,69.2l0.9-4.4h0.9l-0.7,3.7h2.1l-0.2,0.7H150.9L150.9,69.2z"/>
<path class="st0" d="M156.5,67.3l0.9-1.6l0.2,1.9h-1.2V67.3z M157.9,69.2h0.9l-0.7-4.4h-0.9l-2.3,4.4h0.9l0.5-0.9h1.6L157.9,69.2z"
	/>
<path class="st0" d="M163.3,65.5h0.9c0.2,0,0.5,0,0.5,0s0.2,0.2,0.2,0.5c0,0.2,0,0.2-0.2,0.5c0,0-0.2,0.2-0.5,0.2s-0.5,0-0.9,0h-0.5
	L163.3,65.5z M163,67.3h0.5c0.2,0,0.5,0,0.5,0c0.2,0,0.2,0.2,0.5,0.5c0.2,0.5,0.5,0.9,0.5,1.2h0.9c-0.2-0.7-0.5-1.2-0.7-1.4
	c0-0.2-0.2-0.2-0.2-0.5c0.5,0,0.7-0.2,0.9-0.5s0.2-0.5,0.2-0.9c0-0.2,0-0.5-0.2-0.7c0-0.2-0.2-0.2-0.5-0.5c-0.2,0-0.5,0-0.7,0h-1.9
	l-0.9,4.4h0.9L163,67.3z"/>
<path class="st0" d="M167.9,67.3l0.9-1.9l0.2,1.9H167.9z M169.3,69.2h0.9l-0.7-4.4h-0.9l-2.3,4.4h0.9l0.5-0.9h1.4L169.3,69.2z"/>
<path class="st0" d="M172.8,65.5h0.5c0.2,0,0.5,0,0.5,0c0.2,0,0.2,0.2,0.5,0.2c0,0.2,0.2,0.5,0.2,0.7c0,0.5,0,0.7-0.2,0.9
	c0,0.2-0.2,0.5-0.5,0.7c0,0-0.2,0.2-0.5,0.2s-0.5,0-0.7,0h-0.5L172.8,65.5z M172.6,69.2c0.5,0,0.7,0,0.9,0s0.5-0.2,0.7-0.5
	c0.2-0.2,0.5-0.5,0.7-0.9c0.2-0.5,0.2-0.7,0.2-1.2c0-0.2,0-0.5,0-0.7c0-0.2,0-0.2-0.2-0.5c0-0.2-0.2-0.2-0.2-0.5
	c0,0-0.2-0.2-0.5-0.2s-0.2,0-0.5,0c0,0-0.2,0-0.7,0h-1.2l-0.9,4.4C170.9,69.2,172.6,69.2,172.6,69.2z"/>
<path class="st0" d="M175.8,69.2l0.9-4.4h0.9l-0.9,4.4H175.8z"/>
<path class="st0" d="M179.3,65.9c0.2-0.5,0.7-0.7,0.9-0.7s0.5,0,0.7,0.2c0.2,0.2,0.2,0.5,0.2,0.7s0,0.7-0.2,0.9s-0.2,0.5-0.5,0.7
	c-0.2,0.2-0.5,0.2-0.7,0.2c-0.2,0-0.5,0-0.7-0.2c-0.2-0.2-0.2-0.5-0.2-0.7C179.1,66.9,179.1,66.4,179.3,65.9z M178.4,68.3
	c0,0.2,0.2,0.5,0.5,0.7s0.7,0.2,0.9,0.2c0.5,0,0.9,0,1.2-0.2s0.7-0.5,0.9-0.9c0.2-0.5,0.2-0.9,0.2-1.4c0-0.5-0.2-0.9-0.5-1.4
	c-0.2-0.2-0.7-0.5-1.2-0.5s-0.7,0-1.2,0.2c-0.5,0.2-0.5,0.5-0.7,0.7c-0.2,0.2-0.5,0.7-0.5,0.9s0,0.5,0,0.9
	C178.2,67.6,178.2,68,178.4,68.3z"/>
<path class="st0" d="M60.4,33.4c-0.2-12.1-9.5-21.7-21.2-21.7S18,21.7,18,33.8c0,0.2,0,0.5,0,0.7v25.6h13.7v-7.7
	c-6.8-3-11.6-10-11.6-18.4c0-10.9,8.6-20,19.1-20s19.1,8.8,19.1,20c0,8.1-4.7,15.4-11.6,18.4v7.7h13.7V33.4z"/>
<path class="st0" d="M39.4,17.3c-8.8,0-15.8,7.4-15.8,16.5s7,16.5,15.8,16.5s15.8-7.4,15.8-16.5S48,17.3,39.4,17.3z M39.4,45
	c-5.8,0-10.5-4.9-10.5-11.2c0-6.1,4.7-11.2,10.5-11.2s10.5,4.9,10.5,11.2S45.2,45,39.4,45z"/>
<path class="st0" d="M39.4,26.4c-4.2,0-7.4,3.5-7.4,7.7s3.3,7.7,7.4,7.7s7.4-3.5,7.4-7.7C46.6,29.6,43.4,26.4,39.4,26.4z M39.4,39.2
	c-2.8,0-4.9-2.3-4.9-5.1s2.1-5.1,4.9-5.1c2.8,0,4.9,2.3,4.9,5.1S42,39.2,39.4,39.2z"/>
</svg>
