<svg width="40" height="15" viewBox="0 0 40 15" fill="none" xmlns="http://www.w3.org/2000/svg">
<path d="M19.3552 12.3232L18.9884 12.5102L19.038 12.772L19.3056 12.6384H19.3106V13.8297H19.6278V12.3232H19.3552Z" fill="white"/>
<path d="M21.9376 12.9591C21.9078 13.0125 21.8434 13.0606 21.7591 13.0606C21.6253 13.0606 21.5608 12.9484 21.5608 12.8202C21.5608 12.6652 21.6402 12.5584 21.7492 12.5584H21.7542C21.9029 12.5584 21.9574 12.7187 21.9574 12.8789C21.9574 12.9163 21.9524 12.9377 21.9376 12.9591ZM21.7591 12.2966C21.4518 12.2966 21.2288 12.5477 21.2288 12.8415C21.2288 13.1354 21.427 13.3117 21.6649 13.3117C21.7938 13.3117 21.883 13.2743 21.9425 13.2048H21.9475C21.9227 13.317 21.8632 13.4185 21.769 13.4826C21.6947 13.536 21.5906 13.5681 21.4915 13.5734C21.427 13.5788 21.3923 13.5788 21.3477 13.5734V13.8512C21.3824 13.8512 21.4419 13.8566 21.4964 13.8512C21.7145 13.8405 21.8979 13.7711 22.0317 13.6375C22.1854 13.4879 22.2746 13.2582 22.2746 12.943C22.2895 12.5958 22.121 12.2966 21.7591 12.2966Z" fill="white"/>
<path d="M24.5149 13.0283C24.6884 12.9588 24.7727 12.836 24.7727 12.6757C24.7727 12.4674 24.6091 12.3018 24.3068 12.3018C24.1234 12.3018 23.9598 12.3552 23.8755 12.4139L23.94 12.6704C23.9994 12.633 24.1184 12.5796 24.2324 12.5796C24.3712 12.5796 24.4406 12.649 24.4406 12.7398C24.4406 12.868 24.3018 12.9108 24.1928 12.9161H24.0639V13.1672H24.1977C24.3415 13.1672 24.4802 13.2366 24.4802 13.3809C24.4802 13.4931 24.396 13.5839 24.2225 13.5839C24.0887 13.5839 23.9548 13.5251 23.8954 13.4931L23.8309 13.7602C23.9152 13.8136 24.0639 13.867 24.2473 13.867C24.6042 13.867 24.8223 13.6747 24.8223 13.4076C24.8173 13.1992 24.6835 13.0603 24.5149 13.0283Z" fill="white"/>
<path d="M27.0973 12.9591C27.0676 13.0125 27.0031 13.0606 26.9189 13.0606C26.785 13.0606 26.7206 12.9484 26.7206 12.8202C26.7206 12.6652 26.7999 12.5584 26.9089 12.5584H26.9139C27.0626 12.5584 27.1171 12.7187 27.1171 12.8789C27.1171 12.9163 27.1072 12.9377 27.0973 12.9591ZM26.9189 12.2966C26.6115 12.2966 26.3885 12.5477 26.3885 12.8415C26.3885 13.1354 26.5867 13.3117 26.8247 13.3117C26.9536 13.3117 27.0428 13.2743 27.1023 13.2048H27.1072C27.0824 13.317 27.023 13.4185 26.9288 13.4826C26.8544 13.536 26.7503 13.5681 26.6512 13.5734C26.5867 13.5788 26.5521 13.5788 26.5074 13.5734V13.8512C26.5421 13.8512 26.6016 13.8566 26.6562 13.8512C26.8743 13.8405 27.0576 13.7711 27.1915 13.6375C27.3451 13.4879 27.4344 13.2582 27.4344 12.943C27.4492 12.5958 27.2807 12.2966 26.9189 12.2966Z" fill="white"/>
<path d="M29.5359 13.1033H28.9708V13.3383H29.5359V13.1033Z" fill="white"/>
<path d="M31.5433 13.536L31.6721 13.4185C31.8754 13.2208 32.0439 13.0231 32.0439 12.7667C32.0439 12.4943 31.8704 12.2913 31.5532 12.2913C31.3648 12.2913 31.2013 12.3607 31.0922 12.4462L31.1864 12.6973C31.2607 12.6385 31.3648 12.5744 31.4887 12.5744C31.6523 12.5744 31.7167 12.6706 31.7167 12.7934C31.7118 12.9697 31.5631 13.1407 31.2558 13.4345L31.0773 13.6108V13.8245H32.0687V13.536H31.5433Z" fill="white"/>
<path d="M34.3437 13.5734C34.1256 13.5734 33.9918 13.3597 33.9918 13.0498C33.9918 12.7453 34.1206 12.5156 34.3437 12.5156C34.5717 12.5156 34.6956 12.756 34.6956 13.0391C34.6906 13.349 34.5617 13.5734 34.3437 13.5734ZM34.3486 12.2432C33.9224 12.2432 33.6399 12.5957 33.6399 13.0605C33.6399 13.5039 33.8926 13.8565 34.3238 13.8565C34.7501 13.8565 35.0376 13.5467 35.0376 13.0338C35.0376 12.6011 34.7947 12.2432 34.3486 12.2432Z" fill="white"/>
<path d="M36.9013 12.3232L36.5295 12.5102L36.5841 12.772L36.8468 12.6384H36.8567V13.8297H37.1689V12.3232H36.9013Z" fill="white"/>
<path d="M39.5233 12.9591C39.4936 13.0125 39.4292 13.0606 39.3449 13.0606C39.2111 13.0606 39.1466 12.9484 39.1466 12.8202C39.1466 12.6652 39.2259 12.5584 39.335 12.5584H39.3399C39.4886 12.5584 39.5432 12.7187 39.5432 12.8789C39.5382 12.9163 39.5332 12.9377 39.5233 12.9591ZM39.3449 12.2966C39.0376 12.2966 38.8145 12.5477 38.8145 12.8415C38.8145 13.1354 39.0128 13.3117 39.2507 13.3117C39.3796 13.3117 39.4688 13.2743 39.5283 13.2048H39.5332C39.5085 13.317 39.449 13.4185 39.3548 13.4826C39.2804 13.536 39.1763 13.5681 39.0772 13.5734C39.0128 13.5788 38.9781 13.5788 38.9335 13.5734V13.8512C38.9682 13.8512 39.0276 13.8566 39.0822 13.8512C39.3003 13.8405 39.4837 13.7711 39.6175 13.6375C39.7712 13.4879 39.8604 13.2582 39.8604 12.943C39.8753 12.5958 39.7018 12.2966 39.3449 12.2966Z" fill="white"/>
<path d="M17.3825 8.33269C17.3825 8.33269 16.8423 8.38077 16.4458 7.82519C16.4458 7.82519 16.2128 7.62753 15.9798 7.75574C15.9798 7.75574 15.7419 7.90532 15.8559 8.25256L16.8026 10.4963L15.0778 11.4525L14.2897 9.5881C15.2017 9.09662 15.8311 8.119 15.8311 6.98647C15.8311 5.89667 15.2562 4.95111 14.3987 4.44895L14.4285 4.45963L15.1868 2.62193L16.8919 3.58886L16.193 5.19685C16.193 5.19685 16.0542 5.61353 16.2822 5.72572C16.2822 5.72572 16.4953 5.90201 16.758 5.70969C16.758 5.70969 17.2586 5.35177 17.7989 5.59751C17.7989 5.59751 18.587 5.90735 18.6167 6.93305C18.6068 6.93839 18.5027 8.33269 17.3825 8.33269ZM12.9564 9.32099C11.7123 9.32099 10.7061 8.32201 10.6466 7.0666H11.4198C11.6082 7.88395 12.2277 8.48227 12.9613 8.48227C13.6899 8.48227 14.3095 7.88395 14.5028 7.0666H15.2562C15.2066 8.32201 14.1955 9.32099 12.9564 9.32099ZM12.1931 10.2826L12.3665 9.86055C12.5598 9.90328 12.7581 9.92999 12.9712 9.92999C13.1893 9.92999 13.3975 9.89794 13.5958 9.8552L13.7544 10.2665C13.7544 10.2665 13.0852 10.5924 12.1931 10.2826ZM10.8548 11.4525L9.15471 10.4909L10.0766 8.27393C10.0766 8.27393 10.265 7.92135 9.94776 7.76642C9.94776 7.76642 9.7148 7.60616 9.45707 7.85724C9.45707 7.85724 8.78793 8.73335 7.92054 8.11366C7.92054 8.11366 7.38027 7.77711 7.36044 6.93839C7.36044 6.93839 7.41001 5.56011 8.5054 5.49601C8.5054 5.49601 8.83253 5.46395 9.10019 5.64559C9.10019 5.64559 9.35296 5.92338 9.66026 5.71504C9.66026 5.71504 9.89818 5.57614 9.73461 5.20753L9.0407 3.57283L10.7606 2.63796L11.5289 4.45429C10.6813 4.96713 10.1113 5.90201 10.1113 6.98647C10.1113 8.11366 10.7358 9.09128 11.6528 9.5881L10.8548 11.4525ZM4.41131 12.4408H4.39149C3.11766 12.4408 2.32958 11.4311 2.36427 10.2986C2.36427 9.22483 3.01852 8.3594 4.16348 8.01216C5.53148 8.41817 6.43358 9.1447 6.43358 10.4802C6.43854 11.6074 5.63061 12.4408 4.41131 12.4408ZM4.39149 2.33345H4.41131C5.63061 2.33345 6.13619 3.28436 6.13619 4.19252C6.13619 5.18082 5.4621 5.91269 4.61453 6.17446C3.44975 5.83256 2.62696 5.18616 2.62696 4.11239C2.63192 3.16149 3.23166 2.33345 4.39149 2.33345ZM8.30714 3.50873C8.30219 3.50338 8.30218 3.49804 8.30218 3.4927C8.30218 3.49804 8.30714 3.50338 8.30714 3.50873ZM14.0121 7.0666C13.8386 7.59547 13.4372 7.96408 12.9712 7.96408C12.5004 7.96408 12.1038 7.59547 11.9304 7.0666H14.0121ZM12.9564 4.59318C14.0567 4.59318 14.9786 5.38382 15.2116 6.44157H14.5623H10.7011C10.9291 5.38916 11.851 4.59318 12.9564 4.59318ZM12.9316 2.02895L13.799 4.02692L13.7147 4.15513L13.7643 4.18184C13.5065 4.10171 13.2438 4.06431 12.9712 4.06431C12.7036 4.06431 12.4458 4.10171 12.203 4.17115L12.1088 3.95213L12.9316 2.02895ZM19.0182 6.0142C18.9686 5.90735 18.9141 5.80051 18.8447 5.69367C18.8447 5.69367 18.2598 4.71071 17.1347 4.94042C17.1347 4.94042 16.9761 5.00453 17.0058 4.86029L17.5709 3.56215C17.5709 3.56215 17.6948 3.29504 17.4321 3.16149L15.0926 1.90074C15.0926 1.90074 14.8597 1.77253 14.6911 2.18922L14.2649 3.15614C14.2649 3.15614 14.1757 3.26833 14.0865 3.09738L13.1893 0.992573C13.1893 0.992573 13.115 0.752177 12.9316 0.746835C12.9316 0.746835 12.768 0.746835 12.6837 0.928468L11.7618 3.03328C11.7618 3.03328 11.6924 3.11875 11.6231 2.95849L11.172 1.98087C11.172 1.98087 11.0431 1.74582 10.7259 1.89006C10.4087 2.03429 8.48062 3.14546 8.48062 3.14546C8.48062 3.14546 8.28732 3.23094 8.28732 3.41791C8.06428 1.97553 6.86976 0.613281 4.50054 0.613281H4.48069C2.19078 0.613281 0.431227 2.06635 0.431227 4.20855C0.431227 5.36245 1.01114 6.45225 2.28992 7.12002V7.17879C0.882271 7.84656 0 8.95772 0 10.5764C0 12.4141 1.482 14.193 4.332 14.193C6.65165 14.193 8.36167 12.943 8.70862 11.0145L10.8598 12.1897C10.8598 12.1897 11.1522 12.3393 11.3009 12.0295L11.8263 10.7794C11.8263 10.7794 12.9762 11.335 14.0865 10.7901L14.6317 12.0401C14.6317 12.0401 14.7506 12.3179 15.053 12.1844L17.3231 10.9076C17.3231 10.9076 17.6353 10.7741 17.4321 10.3787L16.8324 9.0058C16.8324 9.0058 16.8076 8.84554 16.991 8.9043C16.991 8.9043 18.0566 9.2462 18.8249 8.13503C18.8249 8.13503 18.9191 8.00148 19.0132 7.77177V11.2442H20.6588V3.42859H19.0132V6.0142H19.0182Z" fill="white"/>
<path d="M29.5954 7.81445L30.0415 6.09962C30.1654 5.62951 30.2744 5.0205 30.3884 4.53971H30.4082C30.5173 5.0205 30.6511 5.61882 30.7849 6.09962L31.2508 7.81445H29.5954ZM38.2941 3.17212V6.27591H35.5036V3.17212H33.7985V10.9076L31.573 3.17212H29.3475L27.246 10.5924V3.42854H25.7392V5.7043C25.7392 6.89025 25.7739 7.94266 25.878 8.97903H25.8433C25.5211 8.09758 25.0899 7.11997 24.6587 6.29728L23.1519 3.42854H21.2337V11.2548H22.7405V8.8989C22.7405 7.62213 22.7207 6.52165 22.6761 5.48527L22.7108 5.47459C23.0676 6.39344 23.5385 7.4031 23.9697 8.23648L25.5211 11.2548H27.0576H27.246H28.8172L29.3525 9.18204H31.4987L32.0786 11.2548H33.8035H33.9026H35.5036V7.87321H38.2941V11.2548H39.9843V3.17212H38.2941Z" fill="white"/>
<path d="M12.9663 13.4024C12.6738 13.4024 12.4359 13.1085 12.4359 12.7506C12.4359 12.3874 12.6738 12.1042 12.9663 12.1042C13.2587 12.1042 13.4966 12.3927 13.4966 12.7506C13.4966 13.1085 13.2587 13.4024 12.9663 13.4024ZM12.9663 11.4685C12.3368 11.4685 11.8263 12.0348 11.8263 12.7293C11.8263 13.4291 12.3368 13.9953 12.9663 13.9953C13.6007 13.9953 14.1063 13.4291 14.1063 12.7293C14.1063 12.0348 13.5957 11.4685 12.9663 11.4685Z" fill="white"/>
</svg>
