<?xml version="1.0" encoding="utf-8"?>
<!-- Generator: Adobe Illustrator 22.0.1, SVG Export Plug-In . SVG Version: 6.00 Build 0)  -->
<svg version="1.1" id="Capa_1" xmlns="http://www.w3.org/2000/svg" xmlns:xlink="http://www.w3.org/1999/xlink" x="0px" y="0px"
	 viewBox="0 0 200 80" style="enable-background:new 0 0 200 80;" xml:space="preserve">
<style type="text/css">
	.st0{fill:#FFFFFF;}
</style>
<g>
	<path class="st0" d="M183.3,28.7c2.3,0,4.1-1.8,4.1-4.2c0-2.3-1.8-4.2-4.1-4.2s-4.1,1.8-4.1,4.2C179.1,26.9,181,28.7,183.3,28.7z
		 M183.3,32.2c-1.8,0-3.3,1.5-3.3,3.3v5.7c-0.1,6.2-1.1,7.1-2.2,7.7c-1.9,1-3.3-0.4-3.7-0.9c-4.3-5.5-8.1-9.4-14.5-7.3
		c-1.8,0.6-2.7,2.5-2.1,4.2c0.6,1.8,2.5,2.7,4.2,2.1c1.7-0.5,2.6-0.6,7.2,5.1c1.7,2.1,6.3,5.5,11.9,2.7c5.3-2.6,5.8-8.5,5.9-13.6
		v-5.8C186.6,33.7,185.1,32.2,183.3,32.2z"/>
	<path class="st0" d="M79.7,54.5L92.8,30c0,0,0.1-0.1,0.1-0.3c0.1-0.3,0.3-0.4,0.3-0.4c0.3-0.3,0.6-0.5,1.3-0.5c0.6,0,1,0.3,1.2,0.5
		c0,0,0.2,0.2,0.3,0.4c0.1,0.2,0.2,0.3,0.2,0.4l13,24.4l0,0c0.9,1.6,3,2.2,4.6,1.2c1.6-0.9,2.2-3,1.2-4.6l0,0l-12.9-24.4
		c0,0.1-0.5-1.1-1.5-2.1c-2.1-2.2-4.5-2.6-6.1-2.6c-1.8,0-4.1,0.5-6.1,2.6c0,0-0.8,0.8-1.5,2.1L74,51l-0.1,0.1
		c-0.9,1.6-0.4,3.7,1.3,4.6C76.8,56.7,78.8,56.1,79.7,54.5L79.7,54.5z"/>
	<path class="st0" d="M153.2,47.1c-0.6-1.8-2.5-2.7-4.2-2.1l-7.7,2.6h-0.1c-3.1,1.2-7,2.2-10.1,1.6c-0.8-0.2-1.5-0.5-2.1-1
		c-3.3-2.4-3.1-7.8-3.1-7.8s0-0.1,0-0.2V25.3c0-1.8-1.5-3.3-3.3-3.3s-3.3,1.5-3.3,3.3v14.9c0,1.1-0.1,9.2,5.8,13.5
		c4.4,3.3,10.7,3.3,18.7,0.3h-0.1l7.7-2.6C152.8,50.8,153.7,48.8,153.2,47.1z M122.3,18.5c2.3,0,4.2-1.8,4.2-4.2
		c0-2.3-1.8-4.2-4.2-4.2c-2.3,0-4.1,1.8-4.1,4.2S120,18.5,122.3,18.5z"/>
	<path class="st0" d="M12.5,69.2c0,0.2,0.1,0.3,0.2,0.4c0.1,0.1,0.2,0.2,0.4,0.2c0.1,0,0.3,0,0.4-0.2c0.1-0.1,0.2-0.2,0.2-0.4v-5h-1
		L12.5,69.2L12.5,69.2z M19.2,64.2C19.1,64.1,19,64,18.8,64c-0.2,0-0.3,0.1-0.4,0.2c-0.1,0.1-0.1,0.2-0.1,0.4l0,0l0.1,3.6l-2.2-4.1
		h-1.1v5c0,0.2,0.1,0.3,0.2,0.4c0.1,0.1,0.2,0.2,0.4,0.2c0.2,0,0.3-0.1,0.4-0.2s0.1-0.2,0.1-0.4l0,0L16,65.5l2.4,4.1l1-0.4v-4.7
		C19.3,64.3,19.3,64.2,19.2,64.2z M22.8,66.4L22.8,66.4c-0.8-0.3-1.1-0.5-1.1-1c0-0.2,0.1-0.3,0.2-0.4c0.1-0.1,0.3-0.2,0.4-0.2
		c0.1,0,0.2,0,0.3,0.1c0.1,0,0.2,0.1,0.3,0.2c0.1,0,0.1,0.1,0.2,0.2c0.2,0.2,0.4,0.3,0.4,0.3c0.1,0,0.2,0,0.3-0.1
		c0.1-0.1,0.1-0.2,0.1-0.3c0-0.2-0.2-0.4-0.4-0.7c-0.4-0.3-0.7-0.4-1.1-0.4c-0.4,0-0.8,0.2-1.1,0.4c-0.3,0.3-0.4,0.6-0.4,1.1
		c0,0.7,0.4,1.2,1.2,1.6l0,0c0.1,0,0.1,0.1,0.3,0.1c0.6,0.3,1,0.5,1,1c0,0.3-0.1,0.4-0.3,0.5c-0.2,0.1-0.4,0.2-0.6,0.2
		c-0.2,0-0.4-0.1-0.6-0.3c-0.2-0.2-0.4-0.4-0.4-0.7l-0.8,0.3c0.1,0.4,0.3,0.8,0.6,1.1c0.4,0.3,0.7,0.4,1.1,0.4c0.5,0,1-0.2,1.2-0.4
		c0.4-0.4,0.4-0.7,0.4-1.1c0-0.4-0.1-0.7-0.4-1.1C23.5,66.7,23.2,66.5,22.8,66.4z M28.3,64.2h-3.5v0.8h1.3v4.2c0,0.2,0,0.3,0.2,0.4
		c0.1,0.1,0.3,0.2,0.4,0.2c0.2,0,0.3-0.1,0.4-0.2c0.2-0.1,0.2-0.3,0.2-0.4V65h1.1c0.1,0,0.2,0,0.3-0.1c0.1-0.1,0.1-0.2,0.1-0.3
		c0-0.1,0-0.2-0.1-0.3C28.5,64.2,28.4,64.2,28.3,64.2z M29.9,69.2c0,0.2,0.1,0.3,0.2,0.4c0.1,0.1,0.2,0.2,0.4,0.2
		c0.2,0,0.3,0,0.4-0.2c0.1-0.1,0.2-0.2,0.2-0.4v-5h-1L29.9,69.2L29.9,69.2z M35.6,64.2H32v0.8h1.3v4.2c0,0.2,0.1,0.3,0.2,0.4
		c0.1,0.1,0.3,0.2,0.4,0.2c0.2,0,0.3-0.1,0.4-0.2c0.1-0.1,0.2-0.2,0.2-0.4V65h1.1c0.1,0,0.2,0,0.3-0.1c0.1-0.1,0.1-0.2,0.1-0.3
		c0-0.1,0-0.2-0.1-0.3C35.7,64.2,35.7,64.2,35.6,64.2z M40.5,64.1c-0.1,0-0.3,0.1-0.4,0.2c-0.1,0.1-0.2,0.2-0.2,0.4v3.3
		c0,0.4-0.1,0.6-0.3,0.8c-0.2,0.2-0.4,0.3-0.7,0.3c-0.3,0-0.5-0.1-0.7-0.3c-0.2-0.2-0.3-0.4-0.3-0.8v-3.7H37v3.4
		c0,0.6,0.2,1.1,0.5,1.5c0.4,0.4,0.8,0.5,1.4,0.5s1.1-0.2,1.4-0.5c0.4-0.4,0.5-0.9,0.5-1.5v-3.1c0-0.2-0.1-0.3-0.2-0.4
		C40.8,64.1,40.6,64.1,40.5,64.1z M45.6,64.2h-3.5v0.8h1.3v4.2c0,0.2,0.1,0.3,0.2,0.4c0.1,0.1,0.3,0.2,0.4,0.2
		c0.2,0,0.3-0.1,0.4-0.2c0.1-0.1,0.2-0.2,0.2-0.4V65h1.1c0.1,0,0.2,0,0.3-0.1c0.1-0.1,0.1-0.2,0.1-0.3c0-0.1-0.1-0.2-0.1-0.3
		C45.8,64.2,45.7,64.2,45.6,64.2z M48.8,64c-0.6,0-1.1,0.2-1.4,0.5c-0.4,0.4-0.5,0.9-0.5,1.5v1.5c0,0.6,0.2,1.1,0.5,1.5
		c0.4,0.4,0.8,0.5,1.4,0.5c0.6,0,1.1-0.2,1.4-0.5c0.4-0.4,0.5-0.9,0.5-1.5V66c0-0.6-0.2-1.1-0.5-1.5C49.8,64.2,49.3,64,48.8,64z
		 M49.7,67.8c0,0.4-0.1,0.6-0.3,0.8c-0.2,0.2-0.4,0.3-0.7,0.3c-0.3,0-0.5-0.1-0.7-0.3c-0.2-0.2-0.3-0.4-0.3-0.8v-1.9
		c0-0.4,0.1-0.6,0.3-0.8c0.2-0.2,0.4-0.3,0.7-0.3c0.3,0,0.5,0.1,0.7,0.3c0.2,0.2,0.3,0.4,0.3,0.8V67.8z M59.2,64.2
		C59.1,64.1,59,64,58.8,64c-0.2,0-0.3,0.1-0.4,0.2c-0.1,0.1-0.1,0.2-0.1,0.4l0,0l0.1,3.6l-2.2-4.1h-1.1v5c0,0.2,0,0.3,0.1,0.4
		c0.1,0.1,0.2,0.2,0.4,0.2s0.3-0.1,0.4-0.2c0.1-0.1,0.2-0.2,0.2-0.4l0,0L56,65.5l2.4,4.1l1-0.4v-4.7C59.3,64.3,59.3,64.2,59.2,64.2z
		 M64.6,69l-1.5-4.8h-1.2l-1.5,5.2l1,0.3l0.4-1.6h1.5l0.4,1.2c0,0.1,0.1,0.2,0.2,0.3s0.2,0.1,0.4,0.1h0.1l0,0c0.1,0,0.2-0.1,0.3-0.2
		C64.6,69.4,64.6,69.3,64.6,69C64.6,69.1,64.6,69.1,64.6,69C64.6,69.1,64.6,69,64.6,69z M61.9,67.2l0.6-2.4l0.6,2.4H61.9z
		 M70.5,69.2c0,0.2,0,0.3,0.2,0.4c0.1,0.1,0.2,0.2,0.4,0.2c0.1,0,0.3,0,0.4-0.2c0.1-0.1,0.2-0.2,0.2-0.4v-5h-1L70.5,69.2L70.5,69.2z
		 M74.9,64c-0.5,0-1.1,0.2-1.4,0.5C73.2,64.9,73,65.4,73,66v1.5c0,0.6,0.2,1.1,0.5,1.5c0.4,0.4,0.8,0.5,1.4,0.5s1.1-0.2,1.4-0.5
		s0.5-0.9,0.5-1.5V66c0-0.6-0.2-1.1-0.5-1.5C76,64.2,75.5,64,74.9,64z M75.8,67.8c0,0.4-0.1,0.6-0.3,0.8c-0.2,0.2-0.4,0.3-0.7,0.3
		c-0.3,0-0.5-0.1-0.6-0.3c-0.2-0.2-0.3-0.4-0.3-0.8v-1.9c0-0.4,0.1-0.6,0.3-0.8c0.2-0.2,0.4-0.3,0.6-0.3c0.3,0,0.5,0.1,0.7,0.3
		c0.2,0.2,0.3,0.4,0.3,0.8V67.8z M82.4,64.2c-0.1-0.1-0.2-0.2-0.4-0.2c-0.1,0-0.3,0.1-0.4,0.2c-0.1,0.1-0.2,0.2-0.2,0.4l0,0l0.1,3.6
		l-2.2-4.1h-1.1v5c0,0.2,0.1,0.3,0.2,0.4c0.1,0.1,0.2,0.2,0.4,0.2c0.2,0,0.3-0.1,0.4-0.2c0.1-0.1,0.2-0.2,0.2-0.4l0,0l-0.2-3.6
		l2.4,4.1l1-0.4v-4.7C82.5,64.3,82.5,64.2,82.4,64.2z M87.9,69l-1.5-4.8h-1.2l-1.6,5.2l1,0.3L85,68h1.6l0.4,1.2
		c0,0.1,0.1,0.2,0.2,0.3c0.1,0.1,0.2,0.1,0.4,0.1h0.1l0,0c0.1,0,0.2-0.1,0.3-0.2C87.9,69.4,87.9,69.3,87.9,69
		C87.9,69.1,87.9,69.1,87.9,69C87.9,69.1,87.9,69,87.9,69z M85.2,67.2l0.6-2.4l0.6,2.4H85.2z M92,68.8h-1.8v-4.6h-1.1v5.4h2.8
		c0.1,0,0.2,0,0.3-0.1c0.1-0.1,0.1-0.2,0.1-0.3c0-0.1,0-0.2-0.1-0.3C92.2,68.9,92.1,68.8,92,68.8z M97.9,64.2h-1.5v5.4h2
		c0.5,0,0.9-0.1,1.2-0.4c0.3-0.3,0.4-0.6,0.4-1.1v-1.8c0-0.6-0.2-1.1-0.6-1.5C99.1,64.4,98.5,64.2,97.9,64.2z M99.1,68.2
		c0,0.2-0.1,0.4-0.2,0.4c-0.1,0.2-0.3,0.2-0.5,0.2h-0.9v-3.9h0.4c0.3,0,0.6,0.2,0.8,0.4c0.2,0.3,0.4,0.5,0.4,0.9
		C99.1,66.2,99.1,68.2,99.1,68.2z M104.6,64.2h-3.1v5.4h3.3v-0.8h-2.3v-1.6h1.4c0.1,0,0.2-0.1,0.3-0.1c0.1-0.1,0.1-0.2,0.1-0.3
		s-0.1-0.2-0.1-0.3c-0.1-0.1-0.2-0.1-0.3-0.1h-1.4v-1.4h2c0.1,0,0.2,0,0.3-0.1c0.1-0.1,0.1-0.2,0.1-0.3s0-0.2-0.1-0.3
		C104.8,64.3,104.7,64.2,104.6,64.2z M112,68.8h-1.8v-4.6h-1.1v5.4h2.9c0.1,0,0.2,0,0.3-0.1c0.1-0.1,0.1-0.2,0.1-0.3
		c0-0.1,0-0.2-0.1-0.3C112.3,68.9,112.1,68.8,112,68.8z M116.6,64.2h-3.1v5.4h3.3v-0.8h-2.3v-1.6h1.3c0.1,0,0.2-0.1,0.3-0.1
		c0.1-0.1,0.1-0.2,0.1-0.3s0-0.2-0.1-0.3c-0.1-0.1-0.2-0.1-0.3-0.1h-1.3v-1.4h2c0.1,0,0.2,0,0.3-0.1c0.1-0.1,0.1-0.2,0.1-0.3
		s0-0.2-0.1-0.3C116.9,64.3,116.7,64.2,116.6,64.2z M122.3,64.2c-0.1-0.1-0.2-0.2-0.4-0.2c-0.2,0-0.3,0.1-0.4,0.2
		c-0.1,0.1-0.2,0.2-0.2,0.4l0,0l0.1,3.6l-2.2-4.1h-1.1v5c0,0.2,0,0.3,0.1,0.4c0.1,0.1,0.2,0.2,0.4,0.2s0.3-0.1,0.4-0.2
		c0.1-0.1,0.2-0.2,0.2-0.4l0,0l-0.1-3.6l2.4,4.1l1-0.4v-4.7C122.5,64.3,122.4,64.2,122.3,64.2z M125.9,67.6h0.7v1.1
		c-0.1,0.1-0.2,0.1-0.4,0.2c-0.1,0-0.2,0.1-0.4,0.1c-0.4,0-0.6-0.1-0.8-0.4c-0.2-0.2-0.4-0.4-0.4-0.8v-2c0-0.3,0.1-0.5,0.2-0.7
		c0.2-0.2,0.4-0.3,0.5-0.3c0.2,0,0.4,0,0.4,0.1c0.2,0.1,0.3,0.3,0.4,0.4c0,0,0,0.1,0.1,0.1c0.1,0.3,0.3,0.4,0.4,0.4
		c0.1,0,0.2,0,0.3-0.1c0.1-0.1,0.1-0.2,0.1-0.3c0-0.3-0.2-0.6-0.4-0.9c-0.4-0.3-0.7-0.4-1.2-0.4c-0.5,0-1,0.2-1.3,0.5
		c-0.4,0.4-0.5,0.8-0.5,1.4v1.6c0,0.6,0.2,1.1,0.6,1.5c0.4,0.4,0.9,0.6,1.5,0.6c0.3,0,0.6-0.1,0.9-0.2c0.3-0.1,0.5-0.3,0.7-0.5v-2.1
		h-1.7v0.8H125.9z M132.4,64.1c-0.2,0-0.3,0.1-0.4,0.2c-0.1,0.1-0.2,0.2-0.2,0.4v3.3c0,0.4-0.1,0.6-0.3,0.8
		c-0.2,0.2-0.4,0.3-0.7,0.3c-0.3,0-0.5-0.1-0.7-0.3c-0.2-0.2-0.3-0.4-0.3-0.8v-3.7h-1.1v3.4c0,0.6,0.2,1.1,0.5,1.5
		c0.4,0.4,0.8,0.5,1.4,0.5c0.6,0,1.1-0.2,1.4-0.5c0.4-0.4,0.5-0.9,0.5-1.5v-3.1c0-0.2-0.1-0.3-0.2-0.4
		C132.6,64.1,132.5,64.1,132.4,64.1z M138,69l-1.5-4.8h-1.2l-1.5,5.2l1,0.3l0.4-1.6h1.6l0.4,1.2c0,0.1,0.1,0.2,0.2,0.3
		c0.1,0.1,0.2,0.1,0.4,0.1h0.1l0,0c0.1,0,0.2-0.1,0.3-0.2C138.1,69.4,138.1,69.3,138,69C138.1,69.1,138,69.1,138,69
		C138,69.1,138,69,138,69z M135.4,67.2l0.6-2.4l0.6,2.4H135.4z M141.1,66.4L141.1,66.4c-0.8-0.3-1.1-0.5-1.1-1
		c0-0.2,0.1-0.3,0.2-0.4c0.1-0.1,0.3-0.2,0.4-0.2c0.1,0,0.2,0,0.3,0.1c0.1,0,0.2,0.1,0.3,0.2c0.1,0,0.1,0.1,0.2,0.2
		c0.2,0.2,0.4,0.3,0.4,0.3c0.1,0,0.2,0,0.3-0.1c0.1-0.1,0.1-0.2,0.1-0.3c0-0.2-0.2-0.4-0.4-0.7c-0.4-0.3-0.7-0.4-1.1-0.4
		c-0.4,0-0.8,0.2-1.1,0.4c-0.3,0.3-0.4,0.6-0.4,1.1c0,0.7,0.4,1.2,1.2,1.6l0,0c0,0,0.1,0.1,0.2,0.1c0.6,0.3,1,0.5,1,1
		c0,0.3-0.1,0.4-0.3,0.5c-0.2,0.1-0.4,0.2-0.6,0.2c-0.2,0-0.4-0.1-0.6-0.3c-0.2-0.2-0.4-0.4-0.4-0.7l-0.8,0.3
		c0.1,0.4,0.3,0.8,0.6,1.1c0.4,0.3,0.7,0.4,1.1,0.4c0.5,0,1-0.2,1.2-0.4c0.4-0.4,0.4-0.7,0.4-1.1c0-0.4-0.1-0.7-0.4-1.1
		C141.9,66.7,141.5,66.5,141.1,66.4z M146.7,69.2c0,0.2,0.1,0.3,0.2,0.4c0.1,0.1,0.2,0.2,0.4,0.2c0.2,0,0.3,0,0.4-0.2
		c0.1-0.1,0.2-0.2,0.2-0.4v-5h-1L146.7,69.2L146.7,69.2z M153.4,64.2c-0.1-0.1-0.2-0.2-0.4-0.2c-0.1,0-0.3,0.1-0.4,0.2
		c-0.1,0.1-0.2,0.2-0.2,0.4l0,0l0.1,3.6l-2.2-4.1h-1.1v5c0,0.2,0.1,0.3,0.1,0.4c0.1,0.1,0.2,0.2,0.4,0.2c0.2,0,0.3-0.1,0.4-0.2
		c0.1-0.1,0.2-0.2,0.2-0.4l0,0l-0.1-3.6l2.4,4.1l1-0.4v-4.7C153.6,64.3,153.5,64.2,153.4,64.2z M156.7,64.2h-1.5v5.4h2
		c0.5,0,0.9-0.1,1.2-0.4c0.3-0.3,0.4-0.6,0.4-1.1v-1.8c0-0.6-0.2-1.1-0.6-1.5C157.8,64.4,157.3,64.2,156.7,64.2z M157.8,68.2
		c0,0.2-0.1,0.4-0.2,0.4c-0.2,0.2-0.3,0.2-0.5,0.2h-1v-3.9h0.4c0.4,0,0.6,0.2,0.8,0.4c0.3,0.3,0.4,0.5,0.4,0.9L157.8,68.2
		L157.8,68.2z M160.3,69.2c0,0.2,0,0.3,0.2,0.4c0.1,0.1,0.2,0.2,0.4,0.2c0.2,0,0.3,0,0.4-0.2c0.1-0.1,0.2-0.2,0.2-0.4v-5h-1
		L160.3,69.2L160.3,69.2z M161.6,62.5C161.5,62.5,161.5,62.5,161.6,62.5c-0.1,0-0.1,0-0.2,0L160,63l0.3,0.7l1.4-0.6
		c0.1,0,0.1-0.1,0.2-0.1c0-0.1,0.1-0.2,0.1-0.2c0-0.1,0-0.2-0.1-0.3C161.8,62.5,161.7,62.5,161.6,62.5z M164.9,67.6h0.7v1.1
		c-0.1,0.1-0.2,0.1-0.4,0.2c-0.1,0-0.3,0.1-0.4,0.1c-0.3,0-0.5-0.1-0.8-0.4c-0.2-0.2-0.4-0.4-0.4-0.8v-2c0-0.3,0.1-0.5,0.2-0.7
		c0.2-0.2,0.4-0.3,0.5-0.3c0.2,0,0.4,0,0.4,0.1c0.2,0.1,0.3,0.3,0.4,0.4c0,0,0,0.1,0.1,0.1c0.1,0.3,0.3,0.4,0.4,0.4
		c0.1,0,0.2,0,0.3-0.1c0.1-0.1,0.1-0.2,0.1-0.3c0-0.3-0.2-0.6-0.4-0.9c-0.4-0.3-0.7-0.4-1.2-0.4c-0.5,0-1,0.2-1.3,0.5
		c-0.4,0.4-0.5,0.8-0.5,1.4v1.6c0,0.6,0.2,1.1,0.6,1.5c0.4,0.4,0.9,0.6,1.5,0.6c0.3,0,0.6-0.1,0.9-0.2c0.3-0.1,0.5-0.3,0.7-0.5v-2.1
		h-1.7v0.8H164.9z M171,64.2H168v5.4h3.3v-0.8H169v-1.6h1.4c0.1,0,0.2-0.1,0.3-0.1c0.1-0.1,0.1-0.2,0.1-0.3s0-0.2-0.1-0.3
		c-0.1-0.1-0.2-0.1-0.3-0.1H169v-1.4h2c0.1,0,0.2,0,0.3-0.1c0.1-0.1,0.1-0.2,0.1-0.3s0-0.2-0.1-0.3C171.2,64.3,171.1,64.2,171,64.2z
		 M176.8,64.2c-0.1-0.1-0.2-0.2-0.4-0.2c-0.1,0-0.3,0.1-0.4,0.2c-0.1,0.1-0.2,0.2-0.2,0.4l0,0l0.1,3.6l-2.2-4.1h-1.1v5
		c0,0.2,0,0.3,0.1,0.4c0.1,0.1,0.2,0.2,0.4,0.2c0.2,0,0.3-0.1,0.4-0.2c0.1-0.1,0.2-0.2,0.2-0.4l0,0l-0.1-3.6l2.4,4.1l1-0.4v-4.7
		C176.9,64.3,176.9,64.2,176.8,64.2z M182.2,69l-1.5-4.8h-1.2l-1.5,5.2l1,0.3l0.4-1.6h1.6l0.4,1.2c0,0.1,0.1,0.2,0.2,0.3
		s0.2,0.1,0.4,0.1c0,0,0,0,0.1,0l0,0c0.1,0,0.2-0.1,0.3-0.2C182.3,69.4,182.3,69.3,182.2,69C182.2,69.1,182.2,69.1,182.2,69
		C182.2,69.1,182.2,69,182.2,69z M179.5,67.2l0.6-2.4l0.6,2.4H179.5z M186.3,67c-0.3-0.3-0.5-0.5-1-0.7h-0.1c-0.7-0.3-1.1-0.5-1.1-1
		c0-0.2,0.1-0.3,0.2-0.4c0.1-0.1,0.3-0.2,0.4-0.2c0.1,0,0.2,0,0.3,0.1c0.1,0,0.2,0.1,0.3,0.2c0,0,0.1,0.1,0.2,0.2
		c0.2,0.2,0.4,0.3,0.4,0.3c0.1,0,0.2,0,0.3-0.1c0.1-0.1,0.1-0.2,0.1-0.3c0-0.2-0.2-0.4-0.5-0.7c-0.4-0.3-0.7-0.4-1.1-0.4
		c-0.4,0-0.8,0.2-1.1,0.4c-0.3,0.3-0.4,0.6-0.4,1.1c0,0.7,0.4,1.2,1.2,1.6l0,0c0,0,0.1,0.1,0.3,0.1c0.6,0.3,1,0.5,1,1
		c0,0.3-0.1,0.4-0.3,0.5c-0.2,0.1-0.4,0.2-0.6,0.2c-0.2,0-0.4-0.1-0.6-0.3c-0.2-0.2-0.4-0.4-0.4-0.7l-0.8,0.3
		c0.1,0.4,0.3,0.8,0.6,1.1c0.4,0.3,0.7,0.4,1.1,0.4c0.5,0,1-0.2,1.2-0.4c0.4-0.4,0.4-0.7,0.4-1.1C186.6,67.6,186.5,67.2,186.3,67z
		 M66.9,65.1c0.2-0.2,0.4-0.4,0.8-0.4c0.3,0,0.6,0.1,0.9,0.3h0.1c0,0,0.1,0,0.1,0.1h0.1c0.1,0,0.2,0,0.3-0.1
		c0.1-0.1,0.1-0.2,0.1-0.3c0,0,0-0.1,0-0.2c0,0-0.1-0.1-0.1-0.2c-0.2-0.2-0.4-0.4-0.6-0.4c-0.3-0.1-0.5-0.2-0.8-0.2
		c-0.6,0-1.1,0.2-1.5,0.6c-0.4,0.4-0.6,0.9-0.6,1.5v1.6c0,0.6,0.2,1.1,0.6,1.5c0.4,0.4,0.9,0.6,1.5,0.6c0.3,0,0.6,0,0.8-0.2
		c0.3-0.1,0.4-0.3,0.6-0.4c0-0.1,0.1-0.1,0.1-0.2c0-0.1,0-0.1,0-0.2s0-0.2-0.1-0.3c-0.1-0.1-0.2-0.1-0.3-0.1h-0.1h-0.1
		c0,0-0.1,0-0.1,0.1c-0.4,0.2-0.6,0.3-0.9,0.3c-0.4,0-0.6-0.1-0.8-0.4c-0.2-0.2-0.3-0.5-0.3-0.8v-0.9v-0.9
		C66.6,65.6,66.7,65.3,66.9,65.1z"/>
	<path class="st0" d="M15.8,22c-1.8,0-3.3,1.5-3.3,3.3v27.5c0,1.8,1.5,3.3,3.3,3.3s3.3-1.5,3.3-3.3V25.3C19.2,23.5,17.7,22,15.8,22z
		 M15.8,18.5c2.3,0,4.1-1.8,4.1-4.2c0-2.3-1.8-4.2-4.1-4.2s-4.2,1.8-4.2,4.2C11.6,16.7,13.6,18.5,15.8,18.5z"/>
	<path class="st0" d="M68.6,47.6V35.5c0-1.8-1.5-3.3-3.3-3.3c-1.8,0-3.3,1.5-3.3,3.3v12.2l0,0c0,1-0.8,1.7-1.7,1.7
		c-0.5,0-1.1-0.3-1.3-0.7l0,0l-5-6.6L40.9,25.2l0,0c-1.6-1.9-4-3.3-6.6-3.3c-4.7,0-8.5,3.8-8.5,8.5c0,0,0,0,0,0.1v12.8
		c0,1.8,1.5,3.3,3.3,3.3c1.8,0,3.3-1.5,3.3-3.3V30.4l0,0c0-1,0.8-1.7,1.7-1.7c0.5,0,1.1,0.3,1.3,0.7l0,0l5,6.6L53.4,53l0,0
		c1.6,2,4,3.3,6.6,3.3C64.8,56.1,68.6,52.4,68.6,47.6C68.6,47.7,68.6,47.6,68.6,47.6z"/>
</g>
</svg>
