<?xml version="1.0" encoding="utf-8"?>
<!-- Generator: Adobe Illustrator 22.0.1, SVG Export Plug-In . SVG Version: 6.00 Build 0)  -->
<svg version="1.1" id="Capa_1" xmlns="http://www.w3.org/2000/svg" xmlns:xlink="http://www.w3.org/1999/xlink" x="0px" y="0px"
	 viewBox="0 0 329 80" style="enable-background:new 0 0 329 80;" xml:space="preserve">
<style type="text/css">
	.st0{fill:#FFFFFF;}
</style>
<g>
	<path class="st0" d="M38.3,14.2c-14.2,0-25.7,11.5-25.7,25.7s11.5,25.7,25.7,25.7s25.7-11.5,25.7-25.7S52.5,14.2,38.3,14.2
		 M50.6,53.2h-3.9v1.5h-3.9v1.5h-3.9v1.5h-3.9v1.5h-3.9v1.5h-4.9v-9.3h3.9v-1.7H34v-1.5h3.9v-1.5h3.9v-1.5h3.9v-1.5h4.9V53.2z
		 M26.4,43.6c0-1.5,1.2-2.7,2.7-2.7c1.5,0,2.7,1.2,2.7,2.7c0,1.5-1.2,2.7-2.7,2.7C27.8,46.5,26.4,45.1,26.4,43.6 M35.9,39.7
		c0-1.5,1.2-2.7,2.7-2.7s2.7,1.2,2.7,2.7c0,1.5-1.2,2.7-2.7,2.7S35.9,41.2,35.9,39.7 M48.1,38c-1.5,0-2.7-1.2-2.7-2.7
		c0-1.5,1.2-2.7,2.7-2.7c1.5,0,2.7,1.2,2.7,2.7C50.8,36.7,49.6,38,48.1,38 M50.8,28.6h-3.9v1.5H43v1.5h-3.9V33h-3.9v1.5h-3.9V36
		h-4.9v-9.3h3.7v-1.5H34v-1.5h3.9v-1.5H42v-1.5h3.9v-1.5h4.9V28.6z"/>
	<path class="st0" d="M119.3,49.2c-0.8,2.9-2.4,7.6-3.5,9.6c-1.7,0.5-7.1,1.7-11.5,1.7c-16,0-22.8-10.5-22.8-20.1
		c0-12.7,9.8-21.1,24.2-21.1c5.1,0,9.5,1.4,11.1,1.7c0.7,3.4,1,6.1,1.4,9.8l-2,0.3c-1.9-6.9-6.1-9.3-11.8-9.3
		c-9.6,0-14.7,8.3-14.7,17.4C89.6,50.4,96,58,104.8,58c5.7,0,9.3-3.2,12.5-9.5L119.3,49.2z"/>
	<path class="st0" d="M150.4,51c-0.3,2.2-1.5,6.9-1.9,8.6h-26.7V58c4.7-0.3,5.2-0.8,5.2-5.2V32.3c0-4.7-0.5-4.9-4.4-5.2v-1.7h24.5
		c0,1.2,0.3,4.7,0.5,7.8l-1.7,0.3c-0.5-2-1.2-3.5-2-4.6c-0.8-1-2.4-1.4-5.6-1.4h-3.2c-1.9,0-2,0.2-2,1.7v11.5h4.2
		c4.6,0,5.1-0.3,5.7-4.1h1.7v10.5h-1.7c-0.7-3.7-1.2-4.1-5.7-4.1h-4.2v9.5c0,2.5,0.3,3.7,1.4,4.2s2.9,0.5,5.1,0.5
		c3.2,0,5.1-0.3,6.2-1.7c1-1,2-2.9,2.9-5.1L150.4,51z"/>
	<path class="st0" d="M189.8,27.1c-2.9,0.2-4.1,0.8-4.2,3.2c-0.2,1.7-0.3,4.1-0.3,8.8V60H183l-22.8-26.9l0,0v12.5
		c0,4.7,0.2,7.1,0.3,8.6c0.3,2.5,1.4,3.4,5.1,3.5v1.7h-12.8v-1.7c3-0.3,4.2-1,4.6-3.4c0.2-1.7,0.5-4.2,0.5-8.8V34.5
		c0-3.5-0.2-4.2-1-5.6c-1-1.4-2.2-1.7-4.6-1.9v-1.7h9l21.1,24.5h0.2V39.1c0-4.7-0.2-7.3-0.3-8.8c-0.2-2.4-1.5-3.2-5.2-3.4v-1.7h12.8
		V27.1z"/>
	<path class="st0" d="M192.8,59.5v-1.7c4.2-0.3,4.6-0.7,4.6-5.2V32.3c0-4.6-0.5-4.9-4.6-5.1v-1.7H208v1.7c-4.1,0.3-4.6,0.7-4.6,5.1
		v20.4c0,4.4,0.5,4.7,4.6,5.2v1.7h-15.2V59.5z"/>
	<path class="st0" d="M227.9,25.4c6.8,0,11.8,1.4,15.2,4.6c2.7,2.4,4.7,6.2,4.7,11.3c0,6.4-2.5,11-6.8,14c-3.9,3-9.5,4.4-16,4.4
		h-13.3V58c4.4-0.3,4.9-0.7,4.9-5.2V32.3c0-4.6-0.5-4.9-4.4-5.1v-1.7h15.7V25.4z M222.7,52.2c0,3.9,1.2,5.1,5.1,5.1
		c8.4,0,13.2-6.4,13.2-15.4c0-5.2-1.7-9.5-4.9-11.8c-2.2-1.9-5.2-2.9-9-2.9c-2.2,0-3.4,0.3-3.7,0.7c-0.5,0.3-0.7,1.2-0.7,3
		L222.7,52.2L222.7,52.2z"/>
	<path class="st0" d="M251.6,59.5v-1.7c4.2-0.3,4.6-0.7,4.6-5.2V32.3c0-4.6-0.5-4.9-4.6-5.1v-1.7h15.2v1.7c-4.1,0.3-4.6,0.7-4.6,5.1
		v20.4c0,4.4,0.5,4.7,4.6,5.2v1.7h-15.2V59.5z"/>
	<path class="st0" d="M299.7,59.5v-1.7c4.1-0.5,4.4-0.8,4.2-6.1V31.3h-0.2l-12.3,28h-1.4L278.8,32h-0.2l-0.7,14.4
		c-0.2,4.2-0.2,6.8,0,8.6c0.2,2.4,1.4,2.9,4.9,3.2v1.7H270v-1.7c3-0.3,4.1-1.2,4.6-3c0.3-1.7,0.7-4.2,1-9.8l0.8-10.5
		c0.5-6.4,0.2-6.9-4.6-7.3v-1.7h10l11.1,24.5l11.3-24.5h10v1.7c-4.4,0.3-4.7,0.7-4.6,5.6l0.5,19.3c0.2,5.2,0.3,5.6,4.7,6.1v1.7
		h-15.2V59.5z"/>
</g>
</svg>
