<?xml version="1.0" encoding="utf-8"?>
<!-- Generator: Adobe Illustrator 22.0.1, SVG Export Plug-In . SVG Version: 6.00 Build 0)  -->
<svg version="1.1" id="Capa_1" xmlns="http://www.w3.org/2000/svg" xmlns:xlink="http://www.w3.org/1999/xlink" x="0px" y="0px"
	 viewBox="0 0 80 30" style="enable-background:new 0 0 80 30;" xml:space="preserve">
<style type="text/css">
	.st0{fill:#FFFFFF;}
</style>
<g transform="translate(0.000000,107.000000) scale(0.100000,-0.100000)">
	<path class="st0" d="M165.7,1047.8c-1.6-1.3-2.6-26.7-2.6-56.3v-54l15.8,1l15.5,1l1,22.4l1,22.1h12.5c24.7,0,42.2,20.1,37.6,43.2
		c-3.3,17.1-11.5,21.1-46.8,22.1C182.1,1049.8,167,1049.1,165.7,1047.8z M214.1,1016.9c0-6.6-2-8.6-8.9-9.2c-8.2-1-9.2,0-9.2,9.2
		c0,9.2,1,10.2,9.2,9.2C212.1,1025.4,214.1,1023.4,214.1,1016.9z"/>
	<path class="st0" d="M254.3,999.1c-8.6-27.7-16.5-53-17.5-56c-2-4.9,0-5.6,13.8-4.6c14.8,1,16.1,1.6,19.1,11.9
		c2.6,9.2,4.3,10.5,13.8,10.5c9.9,0,11.2-1,13.2-11.5c2-11.2,2.3-11.5,18.1-11.5c12.2,0,16.1,1.3,16.1,4.9c0,2.6-6.6,27.3-14.8,54.7
		c-8.2,27.4-14.8,50.4-14.8,51.1s-7.2,1.3-15.8,1.3h-16.1L254.3,999.1z M287.9,989.8c0.3-6.3-1.3-9.2-4.6-9.2c-5.6,0-5.9,4-2.6,20.1
		c1.6,9.2,2.3,9.9,4.6,4.6C286.6,1001.7,287.9,994.8,287.9,989.8z"/>
	<path class="st0" d="M354.1,1037.3c-25-25-25.7-64.6-1.6-88.6c9.2-9.2,13.2-10.9,25.7-10.9c22.4,0,25.4,2,25.4,16.8
		c0,11.9-0.7,12.8-6.3,9.6c-9.6-4.9-12.8-4.3-21.7,4.9c-12.5,12.2-10.5,45.8,3,55.3c2,1.3,8.6,1.6,14.5,0.7c10.5-2,10.5-2,10.5,11.5
		v13.2h-18.4C368,1049.8,365.6,1048.8,354.1,1037.3z"/>
	<path class="st0" d="M419,1047.5c-1.3-1-2.3-26.4-2.3-56v-54l15.8,1l15.5,1v32.3v32.3l5.9-14.2c3-7.9,7.6-18.4,9.9-23.7l4.6-9.9
		l9.6,24.4l9.6,24.7l1-33.9l1-33.6H504c12.2,0,14.8,1,14.8,5.9s17.8,17.1,25,17.1c3,0-33.6-51.4-55.3-78.1
		c-25.4-31.3-49.1-51.7-75.1-64.6c-17.5-8.6-25-10.5-43.2-10.5c-18.8,0-23.4,1.3-30.6,7.9c-4.6,4.3-8.9,10.9-9.6,14.8
		c-1,6.6-1.3,6.3-4.9-1.6c-15.8-37.9,47.4-44.1,100.5-9.9c30.6,19.8,55.3,46.1,102.8,109.7c23.7,32,44.5,59.3,46.1,60
		c1.6,1,4-3.6,5.3-10.5c5.3-29,30-47.4,54.7-41.2c9.9,2.6,11.2,4.3,12.2,15.2c1,11.9,1,11.9-10.2,9.9c-16.1-2.6-25.4,7.9-25.4,29.7
		c0,26.4,7.9,36.6,25.7,33.3l10.9-2l-1,12.5c-1,12.8-1,12.8-15.8,13.8c-20.8,1.3-33.9-8.2-55-40.5c-25-38.9-27-41.2-39.2-47.1
		c-7.9-3.6-12.2-4.3-14.8-1.6c-4.3,4.3,1,15.2,22.1,45.5c13.2,18.4,14.2,21.4,8.6,21.4c-4,0-12.5-6.6-20.1-15.5L519,995.7v27.3v27
		h-16.5c-14.2,0-17.1-1-19.4-7.2c-1.6-4.3-5.6-13.5-8.6-20.8l-5.6-13.2l-8.2,20.8l-8.2,20.4H437C428.2,1049.8,420,1048.8,419,1047.5
		z"/>
	<path class="st0" d="M166.3,918.3c-8.2-15.5,0-47.8,10.5-41.2c2.3,1.3,1.3,3.3-2,5.3c-7.2,4-7.6,31.6-0.3,34.3
		c6.3,2.6,6.3,7.9,0,7.9C171.9,924.6,168.3,921.6,166.3,918.3z"/>
	<path class="st0" d="M200.3,901.5c0-16.1,0.7-20.8,2-13.5c2.6,15.8,10.2,17.5,10.2,2.3c0-6.6,1.6-11.9,3.3-11.9
		c2,0,3.3,9.2,3.3,21.1c0,11.9-1.3,22.4-3.3,23.4c-2,1.3-3.3-2.3-3.3-7.9c0-14.2-8.9-13.5-10.9,0.7
		C200.9,921.3,200.3,915.1,200.3,901.5z"/>
	<path class="st0" d="M239.8,901.5c0-13.5,0.7-19.1,1.3-12.2c0.7,6.6,0.7,17.8,0,24.7C240.5,920.7,239.8,915.1,239.8,901.5z"/>
	<path class="st0" d="M266.2,901.5c0-13.5,0.7-19.1,1.3-12.2c1,7.6,3,12.2,5.9,12.2s4.9-4.6,5.9-12.2c0.7-6.9,1.3-1.3,1.3,12.2
		s-0.7,19.8-1.3,14.2c-1-6.3-3.3-10.9-5.9-10.9s-4.9,4.6-5.9,10.9C266.8,921.3,266.2,915.1,266.2,901.5z"/>
	<path class="st0" d="M304,922.6c-4.3-4.3-3-35.9,2-42.5c4-5.3,5.3-5.6,9.9-2c4,3.3,5.3,10.2,5.3,25.7c0,13.2-1.3,20.4-3.3,19.1
		c-1.6-1-3.3-10.9-3.3-21.7c0-26.7-5.9-24.7-7.2,2.3C306.7,915.4,305.4,923.9,304,922.6z"/>
	<path class="st0" d="M344.6,903.8c-4.3-25.4-4.3-28.3-0.3-22.1c2.6,4.3,4.3,4.3,10.2,0.7c6.6-4.3,6.9-4,5.3,3.3
		c-1,4-3,13.8-4.3,21.7C352.1,928.2,348.5,927.2,344.6,903.8z M354.1,896.3c0-2.6-1.3-4.6-3.3-4.6c-1.6,0-3.3,3-3.3,6.9
		c0,3.6,1.6,5.6,3.3,4.6C352.8,902.2,354.1,898.9,354.1,896.3z"/>
	<path class="st0" d="M381.5,901.5c0-13.5,0.7-19.1,1.3-12.2c1,7.6,3,12.2,5.9,12.2s4.9-4.6,5.9-12.2c0.7-6.9,1.3-1.3,1.3,12.2
		s-0.7,19.8-1.3,14.2c-1-6.3-3.3-10.9-5.9-10.9s-4.9,4.6-5.9,10.9C382.1,921.3,381.5,915.1,381.5,901.5z"/>
	<path class="st0" d="M419.3,922.6c-4.9-4.6-3-36.9,2.3-42.2c10.2-10.2,14.8-3,14.2,22.4l-0.3,23.4l-2-21.1
		c-2.6-29.3-9.6-30.6-10.9-2C422,915.4,420.7,923.9,419.3,922.6z"/>
	<path class="st0" d="M461.8,912.4c-1.3-6.9-3-17.5-4.3-23.4c-2.3-10.9-2-11.2,4.9-6.6c5.9,3.6,7.6,3.6,10.5-0.7
		c2.6-3.6,3-2,1.6,6.6c-1.3,6.3-3,17.1-4.3,24c-1,6.6-3,12.2-4.3,12.2C464.8,924.6,462.8,919,461.8,912.4z M469.4,898.2
		c0-3.6-1.3-6.6-3.3-6.6c-1.6,0-3.3,3-3.3,6.6s1.6,6.6,3.3,6.6C468.1,904.8,469.4,901.9,469.4,898.2z"/>
</g>
</svg>
