<?xml version="1.0" encoding="utf-8"?>
<!-- Generator: Adobe Illustrator 22.0.1, SVG Export Plug-In . SVG Version: 6.00 Build 0)  -->
<svg version="1.1" id="Capa_1" xmlns="http://www.w3.org/2000/svg" xmlns:xlink="http://www.w3.org/1999/xlink" x="0px" y="0px"
	 viewBox="0 0 200 80" style="enable-background:new 0 0 200 80;" xml:space="preserve">
<style type="text/css">
	.st0{fill:#FFFFFF;}
</style>
<g>
	<path class="st0" d="M98.3,17.5c-0.5,0-0.9,0.2-1.2,0.5c-0.2,0.2-0.5,0.7-0.5,1.2v4.5c0,0.9,0.5,1.7,1.7,1.7c0.2,0,0.5,0,0.7,0
		c0.2,0,0.2,0,0.5-0.2c0.2-0.2,0.2-0.5,0.2-0.5c0.2-0.2,0.2-0.2,0.5-0.5l1.2,1.4c-0.5,0.5-0.9,0.7-1.4,0.9s-0.9,0.2-1.7,0.2
		c-1.2,0-1.9-0.2-2.6-0.9c-0.7-0.7-0.9-1.4-0.9-2.4v-4.5c0-0.5,0-0.9,0.2-1.4c0.2-0.5,0.5-0.7,0.7-0.9c0.2-0.2,0.7-0.5,1.2-0.7
		c0.5-0.2,0.9-0.2,1.4-0.2c0.5,0,0.7,0,0.9,0c0.2,0,0.5,0.2,0.9,0.2c0.2,0.2,0.5,0.2,0.7,0.5c0.2,0.2,0.5,0.5,0.7,0.7l-1.2,1.2
		c-0.2-0.2-0.5-0.5-0.7-0.7C99.2,17.5,98.7,17.5,98.3,17.5"/>
	<polygon class="st0" points="105.9,22 105.9,24.8 109.4,24.8 109.4,26.7 104,26.7 104,15.8 109.2,15.8 109.2,17.5 105.9,17.5 
		105.9,20.3 108.7,20.3 108.7,22 	"/>
	<polygon class="st0" points="118,15.8 119.9,15.8 119.9,26.7 116.8,26.7 113.9,17.9 113.9,26.7 112,26.7 112,15.8 114.9,15.8 
		118,24.6 	"/>
	<polygon class="st0" points="122,17.5 122,15.8 129.4,15.8 129.4,17.5 126.5,17.5 126.5,26.7 124.6,26.7 124.6,17.5 	"/>
	<path class="st0" d="M137.4,21c-0.2,0.5-0.7,0.7-1.2,0.9l2.1,4.7h-2.1l-2.1-4.5h-0.9v4.5h-1.9V15.8h3.6c0.9,0,1.7,0.2,2.1,0.7
		c0.5,0.5,0.7,1.2,0.7,2.1v0.9C137.9,20.3,137.9,20.8,137.4,21 M133.4,20.5h1.7c0.2,0,0.5,0,0.7-0.2c0.2-0.2,0.2-0.5,0.2-0.7v-0.9
		c0-0.2,0-0.5-0.2-0.7s-0.5-0.2-0.7-0.2h-1.7V20.5L133.4,20.5z"/>
	<path class="st0" d="M145.8,15.8c0.5,0.2,0.9,0.5,1.2,0.7c0.2,0.2,0.5,0.7,0.7,0.9c0.2,0.5,0.2,0.9,0.2,1.4v4.5
		c0,0.5,0,0.9-0.2,1.4c-0.2,0.5-0.5,0.7-0.7,0.9c-0.2,0.2-0.7,0.5-1.2,0.7c-0.5,0.2-0.9,0.2-1.4,0.2h-0.2c-0.5,0-1.2,0-1.7,0
		c-0.5-0.2-0.9-0.2-1.2-0.7c-0.2-0.2-0.7-0.7-0.7-0.9c-0.2-0.5-0.2-0.9-0.2-1.4v-4.7c0-0.5,0-0.9,0.2-1.4c0.2-0.5,0.5-0.7,0.7-0.9
		c0.2-0.2,0.7-0.5,1.2-0.7c0.5-0.2,0.9-0.2,1.4-0.2h0.2C144.8,15.6,145.3,15.8,145.8,15.8 M146,18.9c0-0.5-0.2-0.9-0.5-1.2
		c-0.2-0.2-0.7-0.5-1.2-0.5h-0.2c-0.5,0-0.9,0.2-1.2,0.5c-0.2,0.2-0.5,0.7-0.5,1.2v4.5c0,0.5,0.2,0.9,0.5,1.2
		c0.2,0.2,0.7,0.5,1.2,0.5h0.2c0.5,0,0.9-0.2,1.2-0.5c0.2-0.2,0.5-0.7,0.5-1.2V18.9L146,18.9z"/>
	<path class="st0" d="M97.8,34.6c1.2,0,1.9,0.2,2.6,0.9c0.7,0.5,0.9,1.4,0.9,2.4v4.5c0,0.5,0,0.9-0.2,1.4c-0.2,0.5-0.5,0.7-0.7,0.9
		c-0.2,0.2-0.7,0.5-1.2,0.5c-0.5,0.2-0.9,0.2-1.4,0.2h-2.8V34.6H97.8L97.8,34.6z M100.2,37.6c0-0.5,0-0.7-0.2-0.9
		c-0.2-0.2-0.2-0.5-0.5-0.7c-0.2-0.2-0.5-0.2-0.7-0.5c-0.2,0-0.5,0-0.9,0h-1.7V44h1.7c0.7,0,1.4-0.2,1.7-0.5
		c0.5-0.5,0.7-0.9,0.7-1.7V37.6L100.2,37.6z"/>
	<polygon class="st0" points="105.6,40.2 105.6,44.3 109.7,44.3 109.7,45.2 104.4,45.2 104.4,34.6 109.2,34.6 109.2,35.5 
		105.6,35.5 105.6,39.3 108.7,39.3 108.7,40.2 	"/>
	<path class="st0" d="M115.6,36c-0.5,0-0.9,0.2-1.2,0.5c-0.2,0.2-0.5,0.7-0.5,1.2v4.5c0,0.9,0.5,1.7,1.7,1.7c0.2,0,0.5,0,0.7,0
		c0.2,0,0.2,0,0.5-0.2c0.2,0,0.2-0.2,0.5-0.2c0.2-0.2,0.2-0.2,0.5-0.5l1.2,1.4c-0.5,0.5-0.9,0.7-1.4,0.9c-0.5,0.2-0.9,0.2-1.7,0.2
		c-1.2,0-1.9-0.2-2.6-0.9c-0.7-0.5-0.9-1.4-0.9-2.4v-4.5c0-0.5,0-0.9,0.2-1.4c0.2-0.5,0.5-0.7,0.7-0.9c0.2-0.2,0.7-0.5,1.2-0.7
		s0.9-0.2,1.4-0.2c0.5,0,0.7,0,0.9,0c0.2,0,0.5,0.2,0.9,0.2c0.2,0.2,0.5,0.2,0.7,0.5c0.2,0.2,0.5,0.5,0.7,0.7l-1.2,1.2
		c-0.2-0.2-0.5-0.5-0.7-0.7C116.6,36.2,116.1,36,115.6,36"/>
	<path class="st0" d="M126.8,34.6h1.9v7.6c0,0.5,0,0.9-0.2,1.4s-0.5,0.7-0.7,0.9c-0.2,0.2-0.7,0.5-1.2,0.7c-0.5,0.2-0.9,0.2-1.7,0.2
		c-0.7,0-1.2,0-1.7-0.2s-0.9-0.2-1.2-0.7c-0.2-0.2-0.5-0.7-0.7-1.2c-0.2-0.5-0.2-0.9-0.2-1.4v-7.6h1.9v7.6c0,0.5,0.2,0.9,0.5,1.2
		c0.2,0.2,0.7,0.5,1.4,0.5s0.9-0.2,1.4-0.5c0.2-0.2,0.5-0.7,0.5-1.2L126.8,34.6L126.8,34.6z"/>
	<polygon class="st0" points="133.9,34.6 133.9,43.6 137.9,43.6 137.9,45.2 131.7,45.2 131.7,34.6 	"/>
	<polygon class="st0" points="137.9,36.2 137.9,34.6 145.3,34.6 145.3,36.2 142.7,36.2 142.7,45.2 140.8,45.2 140.8,36.2 	"/>
	<path class="st0" d="M153.1,34.6h1.9v7.6c0,0.5,0,0.9-0.2,1.4c-0.2,0.5-0.5,0.7-0.7,0.9c-0.2,0.2-0.7,0.5-1.2,0.7
		c-0.5,0.2-0.9,0.2-1.7,0.2c-0.5,0-1.2,0-1.7-0.2s-0.9-0.2-1.2-0.7c-0.2-0.2-0.5-0.7-0.7-1.2s-0.2-0.9-0.2-1.4v-7.6h2.1v7.6
		c0,0.5,0.2,0.9,0.5,1.2c0.2,0.2,0.7,0.5,1.4,0.5s0.9-0.2,1.4-0.5c0.5-0.2,0.5-0.7,0.5-1.2L153.1,34.6L153.1,34.6z"/>
	<path class="st0" d="M164.3,39.8c-0.2,0.5-0.7,0.7-1.2,0.9l2.1,4.5h-1.9L161,41H160v4.5h-1.9V34.6h3.6c0.9,0,1.7,0.2,2.1,0.7
		c0.5,0.5,0.7,1.2,0.7,2.1v0.9C164.8,38.8,164.5,39.3,164.3,39.8 M160,39.1h1.7c0.2,0,0.5,0,0.7-0.2c0.2-0.2,0.2-0.5,0.2-0.7v-0.9
		c0-0.2,0-0.5-0.2-0.7c0-0.2-0.2-0.2-0.7-0.2H160V39.1L160,39.1z"/>
	<path class="st0" d="M171.9,34.3l2.8,10.9h-1.9l-0.7-2.6h-2.8l-0.7,2.6h-2.1l2.8-10.9C169.3,34.3,171.9,34.3,171.9,34.3z
		 M171.6,41.2l-0.9-4.7l-0.9,4.7H171.6z"/>
	<path class="st0" d="M98,53.1c1.2,0,1.9,0.2,2.6,0.7c0.7,0.5,0.9,1.4,0.9,2.4v4.3c0,1.2-0.2,2.1-0.9,2.6c-0.7,0.5-1.7,0.7-2.8,0.7
		h-2.8V52.8L98,53.1L98,53.1z M99.9,56.4c0-0.5-0.2-0.9-0.5-1.2c-0.2-0.2-0.7-0.5-1.2-0.5h-1.2v7.6h1.2c0.5,0,0.9-0.2,1.4-0.5
		c0.2-0.2,0.5-0.7,0.5-1.2L99.9,56.4L99.9,56.4z"/>
	<rect x="104.9" y="53.1" class="st0" width="1.9" height="10.9"/>
	<path class="st0" d="M113.7,58.1h3.6v4.7c-0.5,0.5-0.9,0.7-1.7,0.9c-0.5,0.2-1.2,0.2-1.9,0.2c-0.5,0-0.9,0-1.4-0.2
		c-0.5-0.2-0.9-0.2-1.2-0.7c-0.2-0.2-0.5-0.7-0.7-0.9c-0.2-0.5-0.2-0.9-0.2-1.4v-4.5c0-0.5,0-0.9,0.2-1.4c0.2-0.5,0.5-0.7,0.7-0.9
		c0.2-0.2,0.7-0.5,1.2-0.7c0.5-0.2,0.9-0.2,1.4-0.2c0.7,0,1.4,0.2,1.9,0.5c0.5,0.2,0.9,0.7,1.4,1.2l-1.2,1.4
		c-0.2-0.2-0.5-0.5-0.9-0.7s-0.7-0.2-1.2-0.2c-0.5,0-0.9,0.2-1.2,0.5c-0.2,0.2-0.5,0.7-0.5,1.2v4.5c0,0.5,0.2,0.9,0.5,1.2
		c0.5,0,0.9,0,1.4,0c0.2,0,0.5,0,0.7,0c0.2,0,0.5-0.2,0.7-0.5v-2.4h-1.7L113.7,58.1L113.7,58.1z"/>
	<rect x="120.8" y="53.1" class="st0" width="1.9" height="10.9"/>
	<polygon class="st0" points="125.6,55 125.6,53.1 132.9,53.1 132.9,55 130.1,55 130.1,64 128.2,64 128.2,55 	"/>
	<path class="st0" d="M138.9,53.1l2.8,10.9h-1.9l-0.7-2.6h-2.8l-0.7,2.6h-2.1l2.8-10.9H138.9z M138.6,59.7l-0.9-4.5l-0.9,4.7h1.9
		C138.6,60,138.6,59.7,138.6,59.7z"/>
	<polygon class="st0" points="145.8,53.1 145.8,62.3 149.8,62.3 149.8,64 143.9,64 143.9,53.1 	"/>
	<path class="st0" d="M76.2,40.7H54.8c-0.5,0-0.7-0.2-0.7-0.7c0-0.5,0.2-0.7,0.7-0.7h21.4c0.5,0,0.7,0.2,0.7,0.7
		C76.9,40.5,76.7,40.7,76.2,40.7"/>
	<path class="st0" d="M74,55h-0.2c-0.5-0.2-0.5-0.7-0.5-0.9l4.5-10.9c0.2-0.5,0.7-0.5,0.9-0.5c0.5,0.2,0.5,0.7,0.5,0.9l-4.5,10.9
		C74.5,54.7,74.3,55,74,55"/>
	<path class="st0" d="M70,55.7c-0.2,0-0.5,0-0.5-0.2L54.3,40.2c-0.2-0.2-0.2-0.7,0-1.2c0.2-0.2,0.7-0.2,1.2,0l15.2,15.2
		c0.2,0.2,0.2,0.7,0,1.2C70.2,55.7,70.2,55.7,70,55.7"/>
	<path class="st0" d="M58.1,64.2c-0.2,0-0.7-0.2-0.7-0.5c-0.2-0.5,0-0.9,0.5-0.9l10.9-4.5c0.5-0.2,0.9,0,0.9,0.5
		c0.2,0.5,0,0.9-0.5,0.9l-10.9,4.5H58.1"/>
	<path class="st0" d="M54.8,62.1c-0.5,0-0.7-0.2-0.7-0.7V40c0-0.5,0.2-0.7,0.7-0.7c0.5,0,0.7,0.2,0.7,0.7v21.4
		C55.5,61.9,55.3,62.1,54.8,62.1"/>
	<path class="st0" d="M51.5,64.2h-0.2l-10.9-4.5c-0.5-0.2-0.5-0.7-0.5-0.9c0.2-0.5,0.7-0.5,0.9-0.5l10.9,4.5
		c0.5,0.2,0.5,0.7,0.5,0.9C52,64.2,51.7,64.2,51.5,64.2"/>
	<path class="st0" d="M54.8,40.7H33.4c-0.5,0-0.7-0.2-0.7-0.7c0-0.5,0.2-0.7,0.7-0.7h21.4c0.5,0,0.7,0.2,0.7,0.7
		C55.5,40.5,55.3,40.7,54.8,40.7"/>
	<path class="st0" d="M31.1,37.2h-0.2c-0.5-0.2-0.5-0.7-0.5-0.9l4.5-10.9c0.2-0.5,0.7-0.5,0.9-0.5c0.5,0.2,0.5,0.7,0.5,0.9
		l-4.5,10.9C31.8,37.2,31.5,37.2,31.1,37.2"/>
	<path class="st0" d="M54.8,40.7c-0.2,0-0.5,0-0.5-0.2L39.1,25.3c-0.2-0.2-0.2-0.7,0-1.2c0.2-0.5,0.7-0.2,1.2,0l15.2,15.2
		c0.2,0.2,0.2,0.7,0,1.2C55.3,40.5,55,40.7,54.8,40.7"/>
	<path class="st0" d="M40.3,21.5c-0.2,0-0.7-0.2-0.7-0.5c-0.2-0.5,0-0.9,0.5-0.9L51,15.6c0.5-0.2,0.9,0,0.9,0.5
		c0.2,0.5,0,0.9-0.5,0.9L40.3,21.5C40.6,21.5,40.6,21.5,40.3,21.5"/>
	<path class="st0" d="M54.8,40.7c-0.5,0-0.7-0.2-0.7-0.7V18.6c0-0.5,0.2-0.7,0.7-0.7c0.5,0,0.7,0.2,0.7,0.7V40
		C55.5,40.2,55.3,40.7,54.8,40.7"/>
	<path class="st0" d="M78.6,37.2c-0.2,0-0.7-0.2-0.7-0.5l-4.5-10.9c-0.2-0.5,0-0.9,0.5-0.9c0.5-0.2,0.9,0,0.9,0.5l4.5,10.9
		c0.2,0.5,0,0.9-0.5,0.9C78.6,37.2,78.6,37.2,78.6,37.2"/>
	<path class="st0" d="M80,44.3c-2.4,0-4.5-1.9-4.5-4.5s1.9-4.5,4.5-4.5c2.6,0,4.5,1.9,4.5,4.5S82.4,44.3,80,44.3 M80,36.9
		c-1.7,0-2.8,1.2-2.8,2.8c0,1.7,1.2,2.8,2.8,2.8s2.8-1.2,2.8-2.8C82.8,38.1,81.4,36.9,80,36.9"/>
	<path class="st0" d="M72.6,62.1c-2.4,0-4.5-1.9-4.5-4.5c0-2.4,1.9-4.5,4.5-4.5c2.4,0,4.5,1.9,4.5,4.5C76.9,60,75,62.1,72.6,62.1
		 M72.6,54.7c-1.7,0-2.8,1.2-2.8,2.8s1.2,2.8,2.8,2.8s2.8-1.2,2.8-2.8C75.5,55.9,74,54.7,72.6,54.7"/>
	<path class="st0" d="M54.8,69.5c-2.4,0-4.5-1.9-4.5-4.5c0-2.4,1.9-4.5,4.5-4.5c2.4,0,4.5,1.9,4.5,4.5
		C59.3,67.3,57.2,69.5,54.8,69.5 M54.8,62.1c-1.7,0-2.8,1.2-2.8,2.8c0,1.7,1.2,2.8,2.8,2.8s2.8-1.2,2.8-2.8
		C57.7,63.3,56.5,62.1,54.8,62.1"/>
	<path class="st0" d="M37,62.1c-2.4,0-4.5-1.9-4.5-4.5c0-2.4,1.9-4.5,4.5-4.5c2.6,0,4.5,1.9,4.5,4.5C41.5,60,39.6,62.1,37,62.1
		 M37,54.7c-1.7,0-2.8,1.2-2.8,2.8s1.2,2.8,2.8,2.8c1.7,0,2.8-1.2,2.8-2.8S38.7,54.7,37,54.7"/>
	<path class="st0" d="M29.6,44.3c-2.4,0-4.5-1.9-4.5-4.5s1.9-4.5,4.5-4.5s4.5,1.9,4.5,4.5S32.2,44.3,29.6,44.3 M29.6,36.9
		c-1.7,0-2.8,1.2-2.8,2.8c0,1.7,1.2,2.8,2.8,2.8c1.7,0,2.8-1.2,2.8-2.8C32.5,38.1,31.3,36.9,29.6,36.9"/>
	<path class="st0" d="M37,26.5c-2.4,0-4.5-1.9-4.5-4.5s1.9-4.5,4.5-4.5c2.6,0,4.5,1.9,4.5,4.5S39.6,26.5,37,26.5 M37,19.4
		c-1.7,0-2.8,1.2-2.8,2.8c0,1.7,1.2,2.8,2.8,2.8c1.7,0,2.8-1.2,2.8-2.8C39.8,20.5,38.7,19.4,37,19.4"/>
	<path class="st0" d="M54.8,19.1c-2.4,0-4.5-1.9-4.5-4.5s1.9-4.5,4.5-4.5c2.4,0,4.5,1.9,4.5,4.5S57.2,19.1,54.8,19.1 M54.8,12
		c-1.7,0-2.8,1.2-2.8,2.8s1.2,2.8,2.8,2.8s2.8-1.2,2.8-2.8C57.7,13.2,56.5,12,54.8,12"/>
	<path class="st0" d="M72.6,26.5c-2.4,0-4.5-1.9-4.5-4.5s1.9-4.5,4.5-4.5c2.4,0,4.5,1.9,4.5,4.5S75,26.5,72.6,26.5 M72.6,19.4
		c-1.7,0-2.8,1.2-2.8,2.8c0,1.7,1.2,2.8,2.8,2.8s2.8-1.2,2.8-2.8C75.5,20.5,74,19.4,72.6,19.4"/>
</g>
</svg>
