<?xml version="1.0" encoding="utf-8"?>
<!-- Generator: Adobe Illustrator 22.0.1, SVG Export Plug-In . SVG Version: 6.00 Build 0)  -->
<svg version="1.1" id="Capa_1" xmlns="http://www.w3.org/2000/svg" xmlns:xlink="http://www.w3.org/1999/xlink" x="0px" y="0px"
	 viewBox="0 0 246.7 80" style="enable-background:new 0 0 246.7 80;" xml:space="preserve">
<style type="text/css">
	.st0{fill:#FFFFFF;}
</style>
<g>
	<path class="st0" d="M34.9,43.9c0.3-1.3,0.7-3,1.3-5.4c0.7,0,3.1,0,3.7,0.2c0.1,1.7,0.1,4.5,0.1,6.1L39.4,46c-2.3,1.7-6.1,3-10.4,3
		c-9,0-14.6-5.8-14.6-15.3c0-9.6,6.7-16,15.3-16c3.9,0,7,1.1,9.8,2.5l0.6,1.2c-0.4,2.2-0.9,5.3-1.3,7.4c-0.7,0-2.7,0-3.5-0.2
		c-0.4-2.6-0.8-4.9-1-6.1c-1.2-0.6-2.9-1.1-4.8-1.1c-2.4,0-4.5,0.6-6,1.7c-1.9,2.4-3.2,5.8-3.2,10.3c0,7.2,3.4,11.8,9.3,11.8
		C32.2,45,33.9,44.6,34.9,43.9z"/>
	<path class="st0" d="M60,48.9c-8.3,0-12.2-4.9-12.2-14.8v-4.7c0-2.6,0-7.1-0.5-7.7c-0.4-0.6-2.2-1.1-3.6-1.5l0.5-2.1H57l0.5,2.1
		l-3.8,1.1c-0.1,0.7-0.3,5.9-0.3,7.9V34c0,7,2,10.8,7.8,10.8c2.9,0,5.2-1.2,6.3-2.7c0.9-2.9,0.9-6.7,0.9-11.6c0-4,0-8.5-0.3-9.2
		c-0.5-0.4-2.6-0.9-4-1.3l0.5-2.1H76l0.5,2.1l-3.9,1.2c-0.1,3-0.2,6.9-0.2,14.1C72.3,44.5,67.4,48.9,60,48.9z"/>
	<path class="st0" d="M83.7,45c0.1-0.7,0.3-5.9,0.3-8v-7.8c0-2.7,0-7-0.4-7.5c-0.4-0.6-2.3-1-3.7-1.4l0.5-2.1H93l0.5,2.1l-3.8,1.1
		c-0.1,0.7-0.3,5.9-0.3,8v7.8c0,3,0,6.9,0.5,7.6c0.5,0.5,3.1,0.6,5,0.6c1.7,0,3.4-0.1,4.7-0.2l1.3-5.7c0.8,0,2.8,0,3.5,0.2
		c0.1,2.8,0,5.7-0.1,8.7H80.5L80,46.3L83.7,45z"/>
	<path class="st0" d="M114.3,45c0.1-0.7,0.2-4.6,0.2-8V21.1h-0.7c-1.8,0-3.7,0.1-5.1,0.3l-1.2,5.5c-0.8,0-2.8,0-3.6-0.1
		c-0.1-2.8-0.1-5.7,0-8.6H118c4.9,0,9,0,12.1-0.3c0.3,0.4,0.8,1.1,1,1.4c-0.1,2.3-0.5,5-0.7,7.5c-0.8,0.1-2.6,0-3.3,0l-1-5.5
		c-1.4-0.2-3.2-0.2-4.9-0.2h-1.1v16.1c0,2.7,0,7,0.4,7.5c0.4,0.6,2.2,1,3.7,1.4l-0.5,2.1h-12.6l-0.5-2.1L114.3,45z"/>
	<path class="st0" d="M150.3,48.9c-8.3,0-12.2-4.9-12.2-14.8v-4.7c0-2.6,0-7.1-0.5-7.7c-0.4-0.6-2.2-1.1-3.6-1.5l0.5-2.1h12.8
		l0.5,2.1l-3.8,1.1c-0.1,0.7-0.3,5.9-0.3,7.9V34c0,7,2,10.8,7.8,10.8c2.9,0,5.2-1.2,6.3-2.7c0.9-2.9,0.9-6.7,0.9-11.6
		c0-4,0-8.5-0.3-9.2c-0.5-0.4-2.6-0.9-4-1.3l0.5-2.1h11.5l0.5,2.1l-3.9,1.2c-0.1,3-0.2,6.9-0.2,14.1
		C162.6,44.5,157.7,48.9,150.3,48.9z"/>
	<path class="st0" d="M174,45c0.1-0.7,0.3-5.9,0.3-8v-7.8c0-2.7,0-7-0.4-7.5c-0.4-0.6-2.3-1-3.7-1.4l0.5-2.1h6.1
		c1.5,0,6.1-0.3,8.1-0.3c7,0,11.2,2.8,11.2,8.4c0,3.9-2.8,6.4-5.4,7.8c1.8,3.6,4.9,9.5,5.9,10.9l3.2,1.1l-0.5,2.1
		c-2.3,0-4.3,0.1-7.4,0.2c-0.9-2.2-4-8.5-6.1-12.7h-6.2v1.4c0,2.7,0,7,0.4,7.5c0.4,0.6,2.3,1,3.7,1.4l-0.5,2.1h-12.6l-0.5-2.1
		L174,45z M179.7,32.3l7.6,0.3c1.7-1,3.2-3.1,3.2-6c0-2-0.6-3.4-1.5-4.3c-1-0.7-2.9-1.2-5-1.2c-1.3,0-2.9,0.2-4,0.5
		c-0.1,0.8-0.3,5.9-0.3,8V32.3L179.7,32.3z"/>
	<path class="st0" d="M213.8,48.2h-11.5l-0.5-2.1l3.4-1.1c2.9-7,5.7-15,8.4-22.6l1.2-4.3c2-0.3,5.2-0.5,7.1-0.6
		c0.4,1.4,0.9,2.9,1.6,4.8c2.8,7.8,6.1,16.8,8.2,22.5l3.4,1.1l-0.5,2.1H222l-0.5-2.1l4.2-1.1c-0.7-1.9-1.5-4.3-2.3-6.7l-11.3,0.2
		c-0.7,2.2-1.5,4.4-2.1,6.6l4.3,1.1L213.8,48.2z M222.4,35.2c-1.5-4.3-3.1-8.9-4.8-13.5c-1.5,4.3-3,8.9-4.3,13.4L222.4,35.2z"/>
	<path class="st0" d="M16.1,66.9c-0.5-0.1-0.8-0.3-1.1-0.6l0.5-1.1c0.3,0.2,0.6,0.4,0.9,0.5s0.7,0.2,1.1,0.2s0.6-0.1,0.9-0.2
		c0.2-0.1,0.3-0.3,0.3-0.5s-0.1-0.3-0.2-0.4s-0.3-0.2-0.5-0.2c-0.2-0.1-0.5-0.1-0.7-0.2c-0.5-0.1-0.8-0.2-1.1-0.4
		c-0.3-0.1-0.6-0.3-0.7-0.6c-0.2-0.3-0.3-0.6-0.3-1s0.1-0.6,0.3-1c0.2-0.3,0.5-0.6,0.8-0.7c0.4-0.2,0.8-0.3,1.4-0.3
		c0.4,0,0.7,0,1.1,0.1c0.4,0.1,0.6,0.2,1,0.4L19.3,62c-0.6-0.3-1.1-0.5-1.7-0.5c-0.4,0-0.6,0.1-0.9,0.2c-0.2,0.1-0.3,0.3-0.3,0.6
		c0,0.2,0.1,0.4,0.4,0.5c0.2,0.1,0.6,0.2,1,0.3c0.5,0.1,0.8,0.2,1.1,0.4c0.3,0.1,0.6,0.3,0.7,0.6c0.2,0.3,0.3,0.6,0.3,1
		s-0.1,0.6-0.3,1c-0.2,0.3-0.5,0.6-0.9,0.7c-0.4,0.2-0.8,0.3-1.4,0.3C17,67.1,16.5,67.1,16.1,66.9z"/>
	<path class="st0" d="M27,65.9V67h-4.7v-6.3h4.6v1.2h-3.2v1.4h2.9v1.1h-2.9v1.5H27L27,65.9z"/>
	<path class="st0" d="M30.5,66.7c-0.6-0.3-0.9-0.6-1.2-1.2c-0.3-0.5-0.5-1-0.5-1.7c0-0.6,0.1-1.2,0.5-1.7c0.3-0.5,0.6-0.9,1.2-1.2
		s1.1-0.4,1.7-0.4c0.6,0,1,0.1,1.5,0.3s0.7,0.5,1.1,0.8l-0.9,0.8c-0.5-0.5-0.9-0.7-1.6-0.7c-0.4,0-0.7,0.1-1,0.3s-0.6,0.4-0.6,0.7
		c-0.2,0.3-0.3,0.6-0.3,1c0,0.4,0.1,0.7,0.3,1c0.2,0.3,0.4,0.6,0.6,0.7c0.3,0.2,0.6,0.3,1,0.3c0.6,0,1.1-0.3,1.6-0.7l0.9,0.8
		c-0.3,0.4-0.6,0.6-1.1,0.8s-0.9,0.3-1.5,0.3C31.5,67.1,31,67,30.5,66.7z"/>
	<path class="st0" d="M40.7,67l-1.2-1.8h-0.1h-1.2V67h-1.4v-6.3h2.7c0.6,0,1,0.1,1.4,0.3s0.7,0.5,0.9,0.8s0.4,0.7,0.4,1.2
		s-0.1,0.8-0.4,1.2c-0.2,0.4-0.6,0.6-0.9,0.7l1.4,2h-1.6C40.7,66.9,40.7,67,40.7,67z M40.3,62.2c-0.2-0.2-0.6-0.3-1-0.3h-1.1v2.2
		h1.1c0.5,0,0.7-0.1,1-0.3c0.2-0.2,0.4-0.5,0.4-0.8S40.6,62.4,40.3,62.2z"/>
	<path class="st0" d="M49.2,65.9V67h-4.7v-6.3h4.6v1.2h-3.2v1.4h2.9v1.1h-2.9v1.5H49.2L49.2,65.9z"/>
	<path class="st0" d="M52.8,61.9h-1.9v-1.2h5.4v1.2h-1.9V67H53L52.8,61.9L52.8,61.9z"/>
	<path class="st0" d="M61.6,65.7h-2.9l-0.6,1.4h-1.4l2.8-6.3h1.4l2.7,6.3h-1.5L61.6,65.7z M61.1,64.6l-1-2.4l-1,2.4H61.1z"/>
	<path class="st0" d="M69.3,67l-1.2-1.8H68h-1.2V67h-1.4v-6.3h2.7c0.6,0,1,0.1,1.4,0.3s0.7,0.5,0.9,0.8c0.2,0.4,0.4,0.7,0.4,1.2
		s-0.1,0.8-0.4,1.2c-0.2,0.4-0.6,0.6-0.9,0.7l1.4,2h-1.6V67z M68.9,62.2c-0.2-0.2-0.6-0.3-1-0.3h-1.1v2.2h1.1c0.5,0,0.7-0.1,1-0.3
		c0.2-0.2,0.4-0.5,0.4-0.8C69.2,62.7,69.1,62.4,68.9,62.2z"/>
	<path class="st0" d="M74.1,59h1.5L74,60.3h-1.1L74.1,59z M73,60.7h1.4V67H73V60.7z"/>
	<path class="st0" d="M81.2,65.7h-2.9l-0.6,1.4h-1.5l2.8-6.3h1.4l2.8,6.3h-1.5L81.2,65.7z M80.7,64.6l-1-2.4l-1,2.4H80.7z"/>
	<path class="st0" d="M88.7,60.7h2.8c0.6,0,1.2,0.1,1.8,0.4c0.6,0.3,0.9,0.6,1.2,1.1s0.5,1,0.5,1.7c0,0.7-0.1,1.2-0.5,1.7
		c-0.3,0.5-0.6,0.8-1.2,1.1c-0.6,0.3-1.1,0.4-1.8,0.4h-2.8V60.7z M91.4,65.8c0.6,0,1.1-0.2,1.5-0.6s0.6-0.8,0.6-1.4
		s-0.2-1.1-0.6-1.4c-0.4-0.4-0.8-0.6-1.5-0.6h-1.3v3.9L91.4,65.8L91.4,65.8z"/>
	<path class="st0" d="M101.9,65.9V67h-4.7v-6.3h4.6v1.2h-3.2v1.4h2.9v1.1h-2.9v1.5H101.9L101.9,65.9z"/>
	<path class="st0" d="M109.1,66.7c-0.6-0.3-0.9-0.6-1.2-1.2c-0.3-0.5-0.5-1-0.5-1.7c0-0.6,0.2-1.2,0.5-1.7s0.6-0.9,1.2-1.2
		s1-0.4,1.7-0.4c0.6,0,1,0.1,1.5,0.3s0.7,0.5,1.1,0.8l-0.9,0.8c-0.5-0.5-0.9-0.7-1.6-0.7c-0.4,0-0.7,0.1-1,0.3s-0.6,0.4-0.6,0.7
		c-0.2,0.3-0.3,0.6-0.3,1c0,0.4,0.1,0.7,0.3,1c0.2,0.3,0.4,0.6,0.6,0.7c0.3,0.2,0.6,0.3,1,0.3c0.6,0,1.1-0.3,1.6-0.7l0.9,0.8
		c-0.3,0.4-0.6,0.6-1.1,0.8c-0.5,0.2-0.9,0.3-1.5,0.3C110.2,67.1,109.6,67,109.1,66.7z"/>
	<path class="st0" d="M116,66.4c-0.5-0.5-0.7-1.2-0.7-2.1v-3.5h1.4v3.5c0,1.1,0.5,1.7,1.4,1.7c0.5,0,0.7-0.1,1-0.4
		c0.2-0.3,0.4-0.7,0.4-1.3v-3.4h1.4v3.4c0,0.9-0.3,1.6-0.7,2.1c-0.5,0.5-1.2,0.7-2,0.7C117.2,67.1,116.5,66.9,116,66.4z"/>
	<path class="st0" d="M123.4,60.7h1.4v5.1h3.1V67h-4.4L123.4,60.7L123.4,60.7z"/>
	<path class="st0" d="M130.4,61.9h-1.9v-1.2h5.4v1.2H132V67h-1.4L130.4,61.9L130.4,61.9z"/>
	<path class="st0" d="M136.4,66.4c-0.5-0.5-0.7-1.2-0.7-2.1v-3.5h1.4v3.5c0,1.1,0.5,1.7,1.4,1.7c0.5,0,0.7-0.1,1-0.4
		c0.2-0.3,0.4-0.7,0.4-1.3v-3.4h1.4v3.4c0,0.9-0.3,1.6-0.7,2.1c-0.5,0.5-1.2,0.7-2,0.7C137.6,67.1,136.9,66.9,136.4,66.4z"/>
	<path class="st0" d="M147.7,67l-1.2-1.8h-0.1h-1.2V67h-1.4v-6.3h2.7c0.6,0,1,0.1,1.4,0.3s0.7,0.5,0.9,0.8s0.4,0.7,0.4,1.2
		s-0.1,0.8-0.4,1.2c-0.2,0.4-0.6,0.6-0.9,0.7l1.4,2h-1.6L147.7,67L147.7,67z M147.3,62.2c-0.2-0.2-0.6-0.3-1-0.3h-1.1v2.2h1.1
		c0.5,0,0.7-0.1,1-0.3c0.2-0.2,0.4-0.5,0.4-0.8S147.6,62.4,147.3,62.2z"/>
	<path class="st0" d="M155.8,65.7h-2.9l-0.6,1.4h-1.5l2.7-6.3h1.4l2.7,6.3h-1.5L155.8,65.7z M155.3,64.6l-1-2.4l-1,2.4H155.3z"/>
</g>
</svg>
