<?xml version="1.0" encoding="utf-8"?>
<!-- Generator: Adobe Illustrator 22.0.1, SVG Export Plug-In . SVG Version: 6.00 Build 0)  -->
<svg version="1.1" id="Capa_1" xmlns="http://www.w3.org/2000/svg" xmlns:xlink="http://www.w3.org/1999/xlink" x="0px" y="0px"
	 viewBox="0 0 80 30" style="enable-background:new 0 0 80 30;" xml:space="preserve">
<style type="text/css">
	.st0{fill:#FFFFFF;}
</style>
<path class="st0" d="M2.5,23.8c-0.2,0-0.3-0.1-0.4-0.2l0.2-0.4c0.1,0.1,0.2,0.1,0.3,0.2c0.1,0,0.3,0.1,0.4,0.1c0.1,0,0.2,0,0.3-0.1
	c0.1,0,0.1-0.1,0.1-0.2c0-0.1,0-0.1-0.1-0.1c0,0-0.1-0.1-0.2-0.1C3.1,23,3.1,23,3,23c-0.2,0-0.3-0.1-0.4-0.1c-0.1,0-0.2-0.1-0.3-0.2
	c-0.1-0.1-0.1-0.2-0.1-0.3c0-0.1,0-0.2,0.1-0.3c0.1-0.1,0.2-0.2,0.3-0.2c0.1-0.1,0.3-0.1,0.5-0.1c0.1,0,0.3,0,0.4,0
	c0.1,0,0.2,0.1,0.3,0.1l-0.2,0.4c-0.2-0.1-0.4-0.2-0.6-0.2c-0.1,0-0.2,0-0.3,0.1c-0.1,0-0.1,0.1-0.1,0.2c0,0.1,0,0.1,0.1,0.2
	c0.1,0,0.2,0.1,0.3,0.1c0.2,0,0.3,0.1,0.4,0.1c0.1,0,0.2,0.1,0.3,0.2c0.1,0.1,0.1,0.2,0.1,0.3c0,0.1,0,0.2-0.1,0.3
	c-0.1,0.1-0.2,0.2-0.3,0.2c-0.1,0.1-0.3,0.1-0.5,0.1C2.9,23.8,2.7,23.8,2.5,23.8z"/>
<path class="st0" d="M38.7,23.2L38,23.5l0.1,0.5l0.5-0.2h0v2.1h0.6v-2.7H38.7z"/>
<path class="st0" d="M43.6,24.3c-0.1,0.1-0.2,0.2-0.3,0.2c-0.3,0-0.4-0.2-0.4-0.4c0-0.3,0.2-0.5,0.4-0.5h0c0.3,0,0.4,0.3,0.4,0.6
	C43.7,24.2,43.7,24.3,43.6,24.3z M43.3,23.1c-0.6,0-1,0.4-1,1c0,0.5,0.4,0.8,0.8,0.8c0.2,0,0.4-0.1,0.5-0.2h0c0,0.2-0.2,0.4-0.3,0.5
	c-0.1,0.1-0.3,0.2-0.5,0.2c-0.1,0-0.2,0-0.3,0v0.5c0.1,0,0.2,0,0.3,0c0.4,0,0.8-0.1,1-0.4c0.3-0.3,0.5-0.7,0.5-1.2
	C44.3,23.7,44,23.1,43.3,23.1z"/>
<path class="st0" d="M48.5,24.4c0.3-0.1,0.5-0.3,0.5-0.6c0-0.4-0.3-0.7-0.9-0.7c-0.3,0-0.7,0.1-0.8,0.2l0.1,0.5
	c0.1-0.1,0.3-0.2,0.6-0.2c0.3,0,0.4,0.1,0.4,0.3c0,0.2-0.3,0.3-0.5,0.3h-0.2v0.4h0.3c0.3,0,0.5,0.1,0.5,0.4c0,0.2-0.2,0.4-0.5,0.4
	c-0.3,0-0.5-0.1-0.6-0.2l-0.1,0.5c0.2,0.1,0.4,0.2,0.8,0.2c0.7,0,1.1-0.3,1.1-0.8C49.1,24.7,48.8,24.5,48.5,24.4z"/>
<path class="st0" d="M53.4,24.3c-0.1,0.1-0.2,0.2-0.3,0.2c-0.3,0-0.4-0.2-0.4-0.4c0-0.3,0.2-0.5,0.4-0.5h0c0.3,0,0.4,0.3,0.4,0.6
	C53.5,24.2,53.4,24.3,53.4,24.3z M53.1,23.1c-0.6,0-1,0.4-1,1c0,0.5,0.4,0.8,0.8,0.8c0.2,0,0.4-0.1,0.5-0.2h0c0,0.2-0.2,0.4-0.3,0.5
	c-0.1,0.1-0.3,0.2-0.5,0.2c-0.1,0-0.2,0-0.3,0v0.5c0.1,0,0.2,0,0.3,0c0.4,0,0.8-0.1,1-0.4c0.3-0.3,0.5-0.7,0.5-1.2
	C54.1,23.7,53.8,23.1,53.1,23.1z"/>
<path class="st0" d="M58.1,24.6H57V25h1.1V24.6z"/>
<path class="st0" d="M61.9,25.3l0.2-0.2c0.4-0.3,0.7-0.7,0.7-1.1c0-0.5-0.3-0.8-0.9-0.8c-0.4,0-0.7,0.1-0.9,0.3l0.2,0.4
	c0.1-0.1,0.3-0.2,0.6-0.2c0.3,0,0.4,0.2,0.4,0.4c0,0.3-0.3,0.6-0.9,1.1L61,25.5v0.4h1.9v-0.5H61.9z"/>
<path class="st0" d="M67.2,25.4c-0.4,0-0.7-0.4-0.7-0.9c0-0.5,0.2-0.9,0.7-0.9c0.4,0,0.7,0.4,0.7,0.9C67.8,25,67.6,25.4,67.2,25.4z
	 M67.2,23.1c-0.8,0-1.3,0.6-1.3,1.4c0,0.8,0.5,1.4,1.3,1.4c0.8,0,1.4-0.5,1.4-1.4C68.5,23.7,68,23.1,67.2,23.1z"/>
<path class="st0" d="M72,23.2l-0.7,0.3l0.1,0.5l0.5-0.2h0v2.1h0.6v-2.7H72z"/>
<path class="st0" d="M77,24.3c-0.1,0.1-0.2,0.2-0.3,0.2c-0.3,0-0.4-0.2-0.4-0.4c0-0.3,0.2-0.5,0.4-0.5h0c0.3,0,0.4,0.3,0.4,0.6
	C77,24.2,77,24.3,77,24.3z M76.7,23.1c-0.6,0-1,0.4-1,1c0,0.5,0.4,0.8,0.8,0.8c0.2,0,0.4-0.1,0.5-0.2h0c0,0.2-0.2,0.4-0.3,0.5
	c-0.1,0.1-0.3,0.2-0.5,0.2c-0.1,0-0.2,0-0.3,0v0.5c0.1,0,0.2,0,0.3,0c0.4,0,0.8-0.1,1-0.4c0.3-0.3,0.5-0.7,0.5-1.2
	C77.7,23.7,77.3,23.1,76.7,23.1z"/>
<path class="st0" d="M35,16.2c0,0-1,0.1-1.8-0.9c0,0-0.4-0.3-0.9-0.1c0,0-0.5,0.3-0.2,0.9l1.8,3.9l-3.3,1.7l-1.5-3.3
	c1.7-0.9,2.9-2.6,2.9-4.6c0-1.9-1.1-3.6-2.7-4.5l0.1,0l1.4-3.2l3.2,1.7l-1.3,2.8c0,0-0.3,0.7,0.2,0.9c0,0,0.4,0.3,0.9,0
	c0,0,0.9-0.6,2-0.2c0,0,1.5,0.5,1.6,2.4C37.3,13.7,37.1,16.2,35,16.2z M26.6,17.9c-2.4,0-4.3-1.8-4.4-4h1.5c0.4,1.4,1.5,2.5,2.9,2.5
	c1.4,0,2.6-1.1,2.9-2.5H31C30.9,16.1,28.9,17.9,26.6,17.9z M25.1,19.6l0.3-0.7c0.4,0.1,0.7,0.1,1.1,0.1c0.4,0,0.8-0.1,1.2-0.1
	l0.3,0.7C28.1,19.6,26.8,20.1,25.1,19.6z M22.6,21.7L19.4,20l1.7-3.9c0,0,0.4-0.6-0.2-0.9c0,0-0.4-0.3-0.9,0.2c0,0-1.3,1.5-2.9,0.5
	c0,0-1-0.6-1.1-2.1c0,0,0.1-2.4,2.2-2.5c0,0,0.6-0.1,1.1,0.3c0,0,0.5,0.5,1.1,0.1c0,0,0.5-0.2,0.1-0.9l-1.3-2.9l3.3-1.6l1.5,3.2
	c-1.6,0.9-2.7,2.5-2.7,4.5c0,2,1.2,3.7,2.9,4.6L22.6,21.7z M10.4,23.4L10.4,23.4c-2.5,0-3.9-1.8-3.9-3.8c0-1.9,1.2-3.4,3.4-4
	c2.6,0.7,4.3,2,4.3,4.3C14.2,21.9,12.7,23.4,10.4,23.4z M10.3,5.6L10.3,5.6c2.4,0,3.3,1.7,3.3,3.3c0,1.7-1.3,3-2.9,3.5
	C8.6,11.8,7,10.6,7,8.7C7,7.1,8.1,5.6,10.3,5.6z M17.8,7.7C17.8,7.7,17.8,7.7,17.8,7.7C17.8,7.7,17.8,7.7,17.8,7.7z M28.6,13.9
	c-0.3,0.9-1.1,1.6-2,1.6c-0.9,0-1.6-0.6-2-1.6H28.6z M26.6,9.6c2.1,0,3.8,1.4,4.3,3.3h-1.2h-7.3C22.7,11,24.5,9.6,26.6,9.6z
	 M26.5,5.1l1.6,3.5L28,8.8l0.1,0c-0.5-0.1-1-0.2-1.5-0.2c-0.5,0-1,0.1-1.5,0.2L25,8.5L26.5,5.1z M38.1,12.1
	c-0.1-0.2-0.2-0.4-0.3-0.6c0,0-1.1-1.7-3.2-1.3c0,0-0.3,0.1-0.2-0.1l1.1-2.3c0,0,0.2-0.5-0.3-0.7l-4.4-2.2c0,0-0.4-0.2-0.8,0.5
	L29.1,7c0,0-0.2,0.2-0.3-0.1L27,3.2c0,0-0.1-0.4-0.5-0.4c0,0-0.3,0-0.5,0.3l-1.7,3.7c0,0-0.1,0.2-0.3-0.1L23.2,5
	c0,0-0.2-0.4-0.8-0.2C21.7,5.1,18.1,7,18.1,7s-0.4,0.2-0.4,0.5C17.3,5,15,2.6,10.5,2.6h0c-4.3,0-7.7,2.6-7.7,6.3
	c0,2,1.1,3.9,3.5,5.1v0.1c-2.7,1.2-4.3,3.1-4.3,6c0,3.2,2.8,6.4,8.2,6.4c4.4,0,7.6-2.2,8.3-5.6l4.1,2.1c0,0,0.6,0.3,0.8-0.3l1-2.2
	c0,0,2.2,1,4.3,0l1,2.2c0,0,0.2,0.5,0.8,0.3l4.3-2.2c0,0,0.6-0.2,0.2-0.9l-1.1-2.4c0,0,0-0.3,0.3-0.2c0,0,2,0.6,3.5-1.4
	c0,0,0.2-0.2,0.4-0.6v6.1h3.1V7.5h-3.1L38.1,12.1L38.1,12.1z"/>
<path class="st0" d="M58.2,15.3l0.8-3c0.2-0.8,0.4-1.9,0.7-2.7h0c0.2,0.8,0.5,1.9,0.7,2.7l0.9,3H58.2z M74.7,7.1v5.5h-5.3V7.1h-3.2
	v13.6L61.9,7.1h-4.2l-4,13.1V7.5h-2.9v4c0,2.1,0.1,3.9,0.3,5.8H51c-0.6-1.6-1.4-3.3-2.2-4.7l-2.9-5.1h-3.6v13.8h2.9v-4.1
	c0-2.2,0-4.2-0.1-6l0.1,0c0.7,1.6,1.6,3.4,2.4,4.9l2.9,5.3h2.9h0.4h3l1-3.6h4.1l1.1,3.6h3.3h0.2h3v-6h5.3v6h3.2V7.1H74.7z"/>
<path class="st0" d="M26.6,25.1c-0.6,0-1-0.5-1-1.1c0-0.6,0.5-1.1,1-1.1c0.6,0,1,0.5,1,1.1S27.2,25.1,26.6,25.1z M26.6,21.7
	c-1.2,0-2.2,1-2.2,2.2c0,1.2,1,2.2,2.2,2.2c1.2,0,2.2-1,2.2-2.2C28.8,22.7,27.8,21.7,26.6,21.7z"/>
</svg>
